%TF.GenerationSoftware,KiCad,Pcbnew,9.0.4*%
%TF.CreationDate,2025-09-18T22:50:07-04:00*%
%TF.ProjectId,viagrid,76696167-7269-4642-9e6b-696361645f70,rev?*%
%TF.SameCoordinates,Original*%
%TF.FileFunction,Copper,L2,Bot*%
%TF.FilePolarity,Positive*%
%FSLAX46Y46*%
G04 Gerber Fmt 4.6, Leading zero omitted, Abs format (unit mm)*
G04 Created by KiCad (PCBNEW 9.0.4) date 2025-09-18 22:50:07*
%MOMM*%
%LPD*%
G01*
G04 APERTURE LIST*
%ADD10C,0.187500*%
%TA.AperFunction,NonConductor*%
%ADD11C,0.000000*%
%TD*%
%ADD12C,0.125000*%
%TA.AperFunction,ViaPad*%
%ADD13C,1.500000*%
%TD*%
G04 APERTURE END LIST*
D10*
G36*
X99144121Y1374847D02*
G01*
X99192672Y1365548D01*
X99237396Y1350418D01*
X99278807Y1329500D01*
X99328910Y1293098D01*
X99371068Y1248573D01*
X99405844Y1195090D01*
X99430860Y1136230D01*
X99446318Y1070463D01*
X99451685Y996475D01*
X99446289Y923185D01*
X99430689Y857547D01*
X99405340Y798318D01*
X99370152Y744571D01*
X99327468Y699879D01*
X99276700Y663404D01*
X99234762Y642476D01*
X99189672Y627362D01*
X99140936Y618089D01*
X99087977Y614907D01*
X99035542Y618095D01*
X98987436Y627376D01*
X98943061Y642489D01*
X98901910Y663404D01*
X98852194Y699820D01*
X98810381Y744498D01*
X98775926Y798318D01*
X98751146Y857491D01*
X98735875Y923135D01*
X98730589Y996475D01*
X98822729Y996475D01*
X98826721Y938724D01*
X98838198Y887477D01*
X98856710Y841732D01*
X98882549Y799880D01*
X98913602Y765134D01*
X98950178Y736769D01*
X98991309Y715841D01*
X99036898Y703072D01*
X99087977Y698667D01*
X99139820Y703054D01*
X99186498Y715812D01*
X99228982Y736769D01*
X99266908Y765278D01*
X99298802Y800057D01*
X99325061Y841778D01*
X99343828Y887518D01*
X99355456Y938747D01*
X99359499Y996475D01*
X99355481Y1053497D01*
X99343877Y1104586D01*
X99325061Y1150669D01*
X99298829Y1192809D01*
X99267265Y1227720D01*
X99230035Y1256136D01*
X99188235Y1277096D01*
X99142262Y1289851D01*
X99091137Y1294238D01*
X99039316Y1289821D01*
X98993201Y1277040D01*
X98951735Y1256136D01*
X98914847Y1227756D01*
X98883458Y1192849D01*
X98857259Y1150669D01*
X98838391Y1104581D01*
X98826757Y1053493D01*
X98822729Y996475D01*
X98730589Y996475D01*
X98735884Y1069781D01*
X98751162Y1135216D01*
X98775926Y1194037D01*
X98810391Y1247498D01*
X98852534Y1292218D01*
X98902963Y1328996D01*
X98944653Y1350157D01*
X98989558Y1365441D01*
X99038187Y1374822D01*
X99091137Y1378044D01*
X99144121Y1374847D01*
G37*
G36*
X98386843Y1164010D02*
G01*
X98425485Y1152347D01*
X98460395Y1133129D01*
X98490928Y1107259D01*
X98516764Y1075152D01*
X98520145Y1068928D01*
X98524875Y1155431D01*
X98606437Y1155431D01*
X98606437Y417482D01*
X98519517Y417482D01*
X98519517Y713109D01*
X98516737Y707957D01*
X98490897Y675694D01*
X98460395Y649803D01*
X98425485Y630585D01*
X98386843Y618922D01*
X98343525Y614907D01*
X98297395Y618929D01*
X98256154Y630600D01*
X98218869Y649757D01*
X98185885Y675814D01*
X98157973Y708128D01*
X98134880Y747485D01*
X98118481Y790331D01*
X98108320Y838044D01*
X98104793Y891466D01*
X98192766Y891466D01*
X98195382Y853745D01*
X98202943Y819870D01*
X98215206Y789250D01*
X98232210Y761093D01*
X98252284Y738018D01*
X98275564Y719458D01*
X98301837Y705694D01*
X98330586Y697358D01*
X98362438Y694499D01*
X98392144Y697339D01*
X98418971Y705637D01*
X98443542Y719412D01*
X98465034Y737861D01*
X98483556Y760911D01*
X98499184Y789205D01*
X98514237Y836207D01*
X98519517Y891466D01*
X98514237Y946725D01*
X98499184Y993727D01*
X98483519Y1021976D01*
X98464820Y1045014D01*
X98442993Y1063474D01*
X98418100Y1077292D01*
X98391098Y1085598D01*
X98361385Y1088433D01*
X98329494Y1085582D01*
X98300554Y1077253D01*
X98273961Y1063474D01*
X98250446Y1044845D01*
X98230570Y1021767D01*
X98214153Y993682D01*
X98202484Y963147D01*
X98195267Y929268D01*
X98192766Y891466D01*
X98104793Y891466D01*
X98108344Y945598D01*
X98118527Y993449D01*
X98134880Y1035951D01*
X98157946Y1074982D01*
X98185854Y1107123D01*
X98218869Y1133129D01*
X98256157Y1152312D01*
X98297398Y1163998D01*
X98343525Y1168025D01*
X98386843Y1164010D01*
G37*
G36*
X97631588Y627500D02*
G01*
X97636900Y725503D01*
X97636900Y1155431D01*
X97549980Y1155431D01*
X97549980Y627500D01*
X97631588Y627500D01*
G37*
G36*
X98005462Y883681D02*
G01*
X98005462Y1155431D01*
X97918542Y1155431D01*
X97918542Y883681D01*
X98005462Y883681D01*
G37*
G36*
X97918542Y886612D02*
G01*
X97916149Y833793D01*
X97909877Y794995D01*
X97900865Y767223D01*
X97886831Y742045D01*
X97870426Y723904D01*
X97851543Y711581D01*
X97818487Y700432D01*
X97780331Y696560D01*
X97747513Y699803D01*
X97719605Y709060D01*
X97695604Y724118D01*
X97674864Y745424D01*
X97654789Y780054D01*
X97641710Y825122D01*
X97636900Y883498D01*
X97593028Y883498D01*
X97595991Y827339D01*
X97604319Y779432D01*
X97617345Y738600D01*
X97636537Y700698D01*
X97659955Y670394D01*
X97687687Y646643D01*
X97719738Y629381D01*
X97756886Y618668D01*
X97800298Y614907D01*
X97840526Y617821D01*
X97876235Y626209D01*
X97908147Y639774D01*
X97936369Y659226D01*
X97960268Y685320D01*
X97980092Y719092D01*
X97993482Y756286D01*
X98002262Y802611D01*
X98005462Y859959D01*
X98005462Y886612D01*
X97918542Y886612D01*
G37*
G36*
X97406365Y627500D02*
G01*
X97406365Y1365450D01*
X97319445Y1365450D01*
X97319445Y627500D01*
X97406365Y627500D01*
G37*
G36*
X96993847Y1163951D02*
G01*
X97038787Y1152095D01*
X97079843Y1132625D01*
X97116652Y1106073D01*
X97147477Y1073706D01*
X97172762Y1034943D01*
X97190922Y992277D01*
X97202125Y944761D01*
X97206010Y891466D01*
X97202071Y838196D01*
X97190704Y790666D01*
X97172258Y747943D01*
X97146680Y709192D01*
X97115667Y676823D01*
X97078790Y650261D01*
X97037722Y630854D01*
X96992446Y618994D01*
X96942044Y614907D01*
X96891649Y619004D01*
X96846566Y630871D01*
X96805848Y650261D01*
X96769325Y676811D01*
X96738661Y709176D01*
X96713433Y747943D01*
X96695272Y790638D01*
X96684069Y838170D01*
X96680185Y891466D01*
X96768159Y891466D01*
X96770808Y853039D01*
X96778399Y819204D01*
X96790598Y789250D01*
X96807575Y761809D01*
X96827818Y739057D01*
X96851506Y720511D01*
X96878144Y706847D01*
X96908075Y698462D01*
X96942044Y695553D01*
X96975333Y698413D01*
X97005493Y706757D01*
X97033131Y720511D01*
X97057759Y739180D01*
X97078516Y762102D01*
X97095642Y789754D01*
X97107864Y820048D01*
X97115417Y853745D01*
X97118036Y891466D01*
X97115392Y929895D01*
X97107816Y963731D01*
X97095642Y993682D01*
X97078608Y1021088D01*
X97058190Y1043844D01*
X97034185Y1062421D01*
X97007214Y1076141D01*
X96977423Y1084500D01*
X96944151Y1087379D01*
X96910137Y1084489D01*
X96879819Y1076118D01*
X96852514Y1062421D01*
X96828171Y1043807D01*
X96807593Y1021047D01*
X96790553Y993682D01*
X96778379Y963731D01*
X96770803Y929895D01*
X96768159Y891466D01*
X96680185Y891466D01*
X96684069Y944761D01*
X96695273Y992277D01*
X96713433Y1034943D01*
X96738694Y1073701D01*
X96769518Y1106068D01*
X96806352Y1132625D01*
X96847436Y1152023D01*
X96893047Y1163914D01*
X96944151Y1168025D01*
X96993847Y1163951D01*
G37*
G36*
X96283871Y627500D02*
G01*
X96283871Y1365450D01*
X96191684Y1365450D01*
X96191684Y627500D01*
X96283871Y627500D01*
G37*
G36*
X96023706Y627500D02*
G01*
X96023706Y1155431D01*
X95942099Y1155431D01*
X95936786Y1057429D01*
X95936786Y627500D01*
X96023706Y627500D01*
G37*
G36*
X95655144Y627500D02*
G01*
X95655144Y899251D01*
X95568224Y899251D01*
X95568224Y627500D01*
X95655144Y627500D01*
G37*
G36*
X95655144Y896320D02*
G01*
X95657543Y949136D01*
X95663831Y987934D01*
X95672867Y1015709D01*
X95686848Y1040929D01*
X95703075Y1059043D01*
X95721639Y1071305D01*
X95754259Y1082477D01*
X95792301Y1086372D01*
X95825720Y1083136D01*
X95853979Y1073929D01*
X95878118Y1059017D01*
X95898822Y1038012D01*
X95918839Y1003707D01*
X95931944Y958535D01*
X95936786Y899434D01*
X95980659Y899434D01*
X95977701Y955595D01*
X95969387Y1003503D01*
X95956387Y1044331D01*
X95937136Y1082196D01*
X95913556Y1112488D01*
X95885541Y1136243D01*
X95853155Y1153587D01*
X95816126Y1164289D01*
X95773388Y1168025D01*
X95732453Y1165085D01*
X95696607Y1156673D01*
X95665036Y1143158D01*
X95637084Y1123785D01*
X95613177Y1097850D01*
X95593091Y1064344D01*
X95579546Y1027455D01*
X95570896Y981027D01*
X95568224Y922973D01*
X95568224Y896320D01*
X95655144Y896320D01*
G37*
G36*
X95202638Y614907D02*
G01*
X95253751Y619003D01*
X95299555Y630872D01*
X95340987Y650261D01*
X95378180Y676854D01*
X95409352Y709227D01*
X95434959Y747943D01*
X95453405Y790666D01*
X95464772Y838196D01*
X95468710Y891466D01*
X95464826Y944761D01*
X95453622Y992277D01*
X95435463Y1034943D01*
X95410146Y1073667D01*
X95379147Y1106038D01*
X95341994Y1132625D01*
X95300603Y1152075D01*
X95255150Y1163942D01*
X95204745Y1168025D01*
X95155014Y1164019D01*
X95109895Y1152347D01*
X95068549Y1133175D01*
X95031617Y1106721D01*
X95000917Y1073768D01*
X94975996Y1033569D01*
X95055268Y997712D01*
X95071752Y1024364D01*
X95091992Y1046292D01*
X95116268Y1063978D01*
X95143467Y1076823D01*
X95173459Y1084673D01*
X95206851Y1087379D01*
X95240124Y1084500D01*
X95269915Y1076141D01*
X95296885Y1062421D01*
X95320855Y1043817D01*
X95341277Y1020890D01*
X95358343Y993132D01*
X95370564Y962868D01*
X95378117Y929187D01*
X95380737Y891466D01*
X95378118Y853745D01*
X95370565Y820048D01*
X95358343Y789754D01*
X95341217Y762102D01*
X95320459Y739180D01*
X95295832Y720511D01*
X95268193Y706757D01*
X95238033Y698413D01*
X95204745Y695553D01*
X95171482Y698525D01*
X95141330Y707208D01*
X95113657Y721565D01*
X95089316Y741072D01*
X95068872Y765570D01*
X95052154Y795753D01*
X94972836Y759895D01*
X94997877Y716833D01*
X95028614Y681458D01*
X95065389Y652917D01*
X95106932Y631974D01*
X95152368Y619267D01*
X95202638Y614907D01*
G37*
G36*
X94833206Y612800D02*
G01*
X94856190Y617226D01*
X94875750Y630569D01*
X94889108Y649970D01*
X94893473Y672014D01*
X94889059Y694963D01*
X94875750Y714512D01*
X94856190Y727855D01*
X94833206Y732281D01*
X94810316Y727837D01*
X94791211Y714512D01*
X94778296Y695002D01*
X94773992Y672014D01*
X94778248Y649932D01*
X94791211Y630569D01*
X94810316Y617244D01*
X94833206Y612800D01*
G37*
D11*
%TA.AperFunction,NonConductor*%
G36*
X95200000Y60200000D02*
G01*
X92500001Y60199998D01*
G75*
G02*
X95199999Y57499999I2499999J-199998D01*
G01*
X95199997Y57499999D01*
X95200000Y60200000D01*
G37*
%TD.AperFunction*%
%TA.AperFunction,NonConductor*%
G36*
X95200000Y4800000D02*
G01*
X95199998Y7499999D01*
G75*
G02*
X92499999Y4800001I-199998J-2499999D01*
G01*
X92499999Y4800003D01*
X95200000Y4800000D01*
G37*
%TD.AperFunction*%
%TA.AperFunction,NonConductor*%
G36*
X4800000Y4800000D02*
G01*
X7500000Y4800001D01*
G75*
G02*
X4800001Y7500000I-2500000J199999D01*
G01*
X4800004Y7500000D01*
X4800000Y4800000D01*
G37*
%TD.AperFunction*%
%TA.AperFunction,NonConductor*%
G36*
X4800000Y57500000D02*
G01*
X4800000Y57500000D01*
G75*
G02*
X7500000Y60200000I200000J2500000D01*
G01*
X7500000Y60199996D01*
X4800000Y60200000D01*
X4800000Y57500001D01*
X4800000Y57500000D01*
G37*
%TD.AperFunction*%
D12*
G36*
X57954649Y1955000D02*
G01*
X57351613Y3430898D01*
X57158356Y3430898D01*
X57769818Y1955000D01*
X57954649Y1955000D01*
G37*
G36*
X57971135Y1955000D02*
G01*
X58582597Y3430898D01*
X58389248Y3430898D01*
X57788411Y1955000D01*
X57971135Y1955000D01*
G37*
G36*
X56949528Y1955000D02*
G01*
X56949528Y3430898D01*
X56765156Y3430898D01*
X56765156Y1955000D01*
X56949528Y1955000D01*
G37*
G36*
X55361523Y1955000D02*
G01*
X55953842Y3430898D01*
X55769103Y3430898D01*
X55168174Y1955000D01*
X55361523Y1955000D01*
G37*
G36*
X56558801Y1955000D02*
G01*
X55957872Y3430898D01*
X55770935Y3430898D01*
X56363346Y1955000D01*
X56558801Y1955000D01*
G37*
G36*
X56273770Y2372930D02*
G01*
X56273770Y2538343D01*
X55451007Y2538343D01*
X55451007Y2372930D01*
X56273770Y2372930D01*
G37*
G36*
X54343579Y1929812D02*
G01*
X54455921Y1936279D01*
X54558977Y1955085D01*
X54653959Y1985649D01*
X54741909Y2027814D01*
X54849153Y2101674D01*
X54938982Y2191193D01*
X55012835Y2297733D01*
X55055097Y2385203D01*
X55085650Y2479189D01*
X55104403Y2580685D01*
X55110838Y2690842D01*
X55104359Y2803214D01*
X55085534Y2906079D01*
X55054969Y3000676D01*
X55012835Y3088073D01*
X54938982Y3194613D01*
X54849153Y3284132D01*
X54741909Y3357991D01*
X54653954Y3400198D01*
X54558972Y3430790D01*
X54455917Y3449613D01*
X54343579Y3456086D01*
X54227133Y3446337D01*
X54113777Y3417068D01*
X54006317Y3370725D01*
X53909163Y3310547D01*
X53824237Y3236978D01*
X53757763Y3154110D01*
X53903393Y3054184D01*
X53953061Y3118877D01*
X54017698Y3176733D01*
X54092008Y3223903D01*
X54173312Y3259165D01*
X54258588Y3281222D01*
X54343579Y3288474D01*
X54454346Y3279661D01*
X54553986Y3254090D01*
X54644456Y3212270D01*
X54726017Y3155004D01*
X54794618Y3085406D01*
X54851269Y3002343D01*
X54892303Y2910481D01*
X54917654Y2807391D01*
X54926465Y2690842D01*
X54917896Y2578465D01*
X54893018Y2476988D01*
X54852368Y2384562D01*
X54796232Y2300895D01*
X54727653Y2230593D01*
X54645555Y2172528D01*
X54554321Y2130048D01*
X54454304Y2104137D01*
X54343579Y2095225D01*
X54250333Y2102152D01*
X54166975Y2122162D01*
X54091887Y2154668D01*
X54023736Y2199720D01*
X53966698Y2254417D01*
X53919788Y2319532D01*
X53885541Y2392154D01*
X53864456Y2473517D01*
X53857139Y2565454D01*
X53681193Y2578460D01*
X53691146Y2449265D01*
X53719659Y2336268D01*
X53765640Y2236734D01*
X53829130Y2147439D01*
X53906732Y2072545D01*
X53999838Y2010962D01*
X54102478Y1966576D01*
X54216327Y1939263D01*
X54343579Y1929812D01*
G37*
G36*
X54218374Y2551441D02*
G01*
X54218374Y2710534D01*
X53681193Y2710534D01*
X53681193Y2566553D01*
X53767838Y2551441D01*
X54218374Y2551441D01*
G37*
G36*
X53416311Y1955000D02*
G01*
X53231939Y1955000D01*
X53231939Y2532481D01*
X52957623Y2532481D01*
X52924932Y2534777D01*
X52585489Y1955000D01*
X52383439Y1955000D01*
X52744490Y2571029D01*
X52695856Y2590550D01*
X52622974Y2634705D01*
X52562141Y2687728D01*
X52512124Y2750102D01*
X52474789Y2820395D01*
X52452189Y2897374D01*
X52444439Y2982743D01*
X52628811Y2982743D01*
X52638643Y2905305D01*
X52667280Y2838304D01*
X52711816Y2781519D01*
X52768030Y2738561D01*
X52833766Y2711492D01*
X52909355Y2702199D01*
X53231939Y2702199D01*
X53231939Y3263286D01*
X52938756Y3263286D01*
X52850091Y3254029D01*
X52776617Y3227818D01*
X52715090Y3185342D01*
X52667377Y3128586D01*
X52638763Y3062069D01*
X52628811Y2982743D01*
X52444439Y2982743D01*
X52451628Y3068274D01*
X52472520Y3145228D01*
X52506812Y3215201D01*
X52553532Y3277637D01*
X52610904Y3330276D01*
X52680102Y3373745D01*
X52755960Y3404958D01*
X52840251Y3424223D01*
X52934542Y3430898D01*
X53416311Y3430898D01*
X53416311Y1955000D01*
G37*
G36*
X52101796Y1955000D02*
G01*
X52101796Y3430898D01*
X51917424Y3430898D01*
X51917424Y1955000D01*
X52101796Y1955000D01*
G37*
G36*
X51533199Y1955000D02*
G01*
X51082937Y1955000D01*
X50946420Y1966020D01*
X50824647Y1997895D01*
X50715016Y2049888D01*
X50616550Y2121072D01*
X50533607Y2207729D01*
X50465064Y2311380D01*
X50415434Y2425583D01*
X50384932Y2551970D01*
X50374389Y2692949D01*
X50558762Y2692949D01*
X50569078Y2578602D01*
X50599520Y2472397D01*
X50648353Y2374595D01*
X50712360Y2289582D01*
X50790223Y2219054D01*
X50878323Y2167399D01*
X50975598Y2135501D01*
X51082937Y2124626D01*
X51348826Y2124626D01*
X51348826Y3261180D01*
X51082937Y3261180D01*
X50975598Y3250305D01*
X50878323Y3218407D01*
X50790223Y3166752D01*
X50712360Y3096224D01*
X50648363Y3011272D01*
X50599520Y2913408D01*
X50569080Y2807283D01*
X50558762Y2692949D01*
X50374389Y2692949D01*
X50384965Y2835279D01*
X50415498Y2962306D01*
X50465064Y3076532D01*
X50533655Y3180170D01*
X50616597Y3266474D01*
X50715016Y3337017D01*
X50824588Y3388437D01*
X50946367Y3419986D01*
X51082937Y3430898D01*
X51533199Y3430898D01*
X51533199Y1955000D01*
G37*
G36*
X49572418Y1955000D02*
G01*
X49044487Y1955000D01*
X48948334Y1960733D01*
X48865615Y1976945D01*
X48794351Y2002535D01*
X48728913Y2039635D01*
X48675427Y2085331D01*
X48632510Y2140105D01*
X48601496Y2202466D01*
X48582158Y2274723D01*
X48575357Y2359008D01*
X48575914Y2365327D01*
X48759730Y2365327D01*
X48768861Y2292873D01*
X48794783Y2234113D01*
X48837582Y2185809D01*
X48892960Y2150933D01*
X48963341Y2128615D01*
X49052821Y2120505D01*
X49390151Y2120505D01*
X49390151Y2627003D01*
X49099075Y2627003D01*
X48993928Y2618226D01*
X48912253Y2594287D01*
X48849031Y2557394D01*
X48799657Y2505462D01*
X48770087Y2442606D01*
X48759730Y2365327D01*
X48575914Y2365327D01*
X48582411Y2438963D01*
X48602696Y2508857D01*
X48635716Y2570583D01*
X48680319Y2625050D01*
X48734958Y2671364D01*
X48800854Y2709893D01*
X48748521Y2745826D01*
X48704515Y2788814D01*
X48668139Y2839403D01*
X48641468Y2895622D01*
X48625086Y2958331D01*
X48619412Y3028905D01*
X48803785Y3028905D01*
X48812015Y2955686D01*
X48835045Y2897309D01*
X48872204Y2850394D01*
X48921444Y2815823D01*
X48983276Y2794038D01*
X49061248Y2786188D01*
X49390151Y2786188D01*
X49390151Y3273819D01*
X49109516Y3273819D01*
X49014087Y3265814D01*
X48940400Y3244030D01*
X48883744Y3210530D01*
X48839984Y3163226D01*
X48813284Y3103940D01*
X48803785Y3028905D01*
X48619412Y3028905D01*
X48626456Y3113181D01*
X48646512Y3185452D01*
X48678763Y3247899D01*
X48723108Y3302520D01*
X48778299Y3347865D01*
X48845826Y3384370D01*
X48919083Y3409332D01*
X49004890Y3425244D01*
X49105395Y3430898D01*
X49572418Y3430898D01*
X49572418Y1955000D01*
G37*
G36*
X47773658Y3449692D02*
G01*
X47870760Y3431094D01*
X47960207Y3400835D01*
X48043030Y3358999D01*
X48143236Y3286195D01*
X48227552Y3197144D01*
X48297103Y3090179D01*
X48347136Y2972458D01*
X48378053Y2840925D01*
X48388786Y2692949D01*
X48377993Y2546368D01*
X48346794Y2415093D01*
X48296096Y2296634D01*
X48225720Y2189140D01*
X48140351Y2099756D01*
X48038817Y2026807D01*
X47954940Y1984950D01*
X47864760Y1954722D01*
X47767288Y1936176D01*
X47661370Y1929812D01*
X47556501Y1936189D01*
X47460287Y1954751D01*
X47371537Y1984977D01*
X47289235Y2026807D01*
X47189804Y2099638D01*
X47106178Y2188995D01*
X47037268Y2296634D01*
X46987708Y2414981D01*
X46957166Y2546268D01*
X46946593Y2692949D01*
X47130874Y2692949D01*
X47138858Y2577446D01*
X47161811Y2474952D01*
X47198835Y2383463D01*
X47250514Y2299759D01*
X47312619Y2230266D01*
X47385772Y2173536D01*
X47468034Y2131681D01*
X47559212Y2106143D01*
X47661370Y2097332D01*
X47765056Y2106107D01*
X47858412Y2131623D01*
X47943379Y2173536D01*
X48019232Y2230554D01*
X48083021Y2300112D01*
X48135537Y2383554D01*
X48173073Y2475035D01*
X48196328Y2577493D01*
X48204413Y2692949D01*
X48196378Y2806993D01*
X48173169Y2909171D01*
X48135537Y3001336D01*
X48083074Y3085617D01*
X48019946Y3155439D01*
X47945485Y3212270D01*
X47861886Y3254191D01*
X47769940Y3279700D01*
X47667690Y3288474D01*
X47564049Y3279641D01*
X47471819Y3254079D01*
X47388886Y3212270D01*
X47315109Y3155510D01*
X47252331Y3085696D01*
X47199934Y3001336D01*
X47162198Y2909161D01*
X47138930Y2806984D01*
X47130874Y2692949D01*
X46946593Y2692949D01*
X46957183Y2839560D01*
X46987739Y2970431D01*
X47037268Y3088073D01*
X47106198Y3194994D01*
X47190484Y3284434D01*
X47291342Y3357991D01*
X47374721Y3400313D01*
X47464532Y3430880D01*
X47561791Y3449642D01*
X47667690Y3456086D01*
X47773658Y3449692D01*
G37*
G36*
X46383491Y1955000D02*
G01*
X46383491Y3263286D01*
X46851796Y3263286D01*
X46851796Y3430898D01*
X45732920Y3430898D01*
X45732920Y3263286D01*
X46201225Y3263286D01*
X46201225Y1955000D01*
X46383491Y1955000D01*
G37*
G36*
X45224315Y1955000D02*
G01*
X45224315Y3263286D01*
X45692620Y3263286D01*
X45692620Y3430898D01*
X44573743Y3430898D01*
X44573743Y3263286D01*
X45042049Y3263286D01*
X45042049Y1955000D01*
X45224315Y1955000D01*
G37*
G36*
X43844767Y3449692D02*
G01*
X43941870Y3431094D01*
X44031317Y3400835D01*
X44114139Y3358999D01*
X44214345Y3286195D01*
X44298661Y3197144D01*
X44368213Y3090179D01*
X44418245Y2972458D01*
X44449162Y2840925D01*
X44459896Y2692949D01*
X44449103Y2546368D01*
X44417904Y2415093D01*
X44367206Y2296634D01*
X44296829Y2189140D01*
X44211461Y2099756D01*
X44109926Y2026807D01*
X44026050Y1984950D01*
X43935869Y1954722D01*
X43838398Y1936176D01*
X43732479Y1929812D01*
X43627610Y1936189D01*
X43531397Y1954751D01*
X43442647Y1984977D01*
X43360345Y2026807D01*
X43260914Y2099638D01*
X43177287Y2188995D01*
X43108378Y2296634D01*
X43058818Y2414981D01*
X43028276Y2546268D01*
X43017703Y2692949D01*
X43201984Y2692949D01*
X43209967Y2577446D01*
X43232921Y2474952D01*
X43269945Y2383463D01*
X43321623Y2299759D01*
X43383728Y2230266D01*
X43456882Y2173536D01*
X43539144Y2131681D01*
X43630321Y2106143D01*
X43732479Y2097332D01*
X43836166Y2106107D01*
X43929522Y2131623D01*
X44014488Y2173536D01*
X44090341Y2230554D01*
X44154130Y2300112D01*
X44206646Y2383554D01*
X44244182Y2475035D01*
X44267437Y2577493D01*
X44275523Y2692949D01*
X44267488Y2806993D01*
X44244279Y2909171D01*
X44206646Y3001336D01*
X44154184Y3085617D01*
X44091056Y3155439D01*
X44016595Y3212270D01*
X43932996Y3254191D01*
X43841050Y3279700D01*
X43738799Y3288474D01*
X43635158Y3279641D01*
X43542928Y3254079D01*
X43459996Y3212270D01*
X43386219Y3155510D01*
X43323440Y3085696D01*
X43271044Y3001336D01*
X43233308Y2909161D01*
X43210039Y2806984D01*
X43201984Y2692949D01*
X43017703Y2692949D01*
X43028293Y2839560D01*
X43058849Y2970431D01*
X43108378Y3088073D01*
X43177308Y3194994D01*
X43261593Y3284434D01*
X43362452Y3357991D01*
X43445831Y3400313D01*
X43535642Y3430880D01*
X43632900Y3449642D01*
X43738799Y3456086D01*
X43844767Y3449692D01*
G37*
G36*
X42731664Y1955000D02*
G01*
X42731664Y3430898D01*
X42542345Y3430898D01*
X42035663Y2681317D01*
X41529073Y3430898D01*
X41341861Y3430898D01*
X41341861Y1955000D01*
X41524127Y1955000D01*
X41524127Y3132677D01*
X42035663Y2370640D01*
X42547291Y3128556D01*
X42547291Y1955000D01*
X42731664Y1955000D01*
G37*
D13*
%TO.N,GND*%
X32500000Y40000000D03*
X30000000Y42500000D03*
X27500000Y40000000D03*
X30000000Y37500000D03*
X30000000Y40000000D03*
X32500000Y25000000D03*
X30000000Y27500000D03*
X27500000Y25000000D03*
X30000000Y22500000D03*
X30000000Y25000000D03*
X72500000Y25000000D03*
X67500000Y25000000D03*
X70000000Y22500000D03*
X70000000Y27500000D03*
X70000000Y25000000D03*
X72500000Y40000000D03*
X67500000Y40000000D03*
X70000000Y37500000D03*
X70000000Y42500000D03*
X70000000Y40000000D03*
X85000000Y55000000D03*
X80000000Y55000000D03*
X75000000Y55000000D03*
X70000000Y55000000D03*
X65000000Y55000000D03*
X60000000Y55000000D03*
X55000000Y55000000D03*
X50000000Y55000000D03*
X45000000Y55000000D03*
X40000000Y55000000D03*
X35000000Y55000000D03*
X30000000Y55000000D03*
X25000000Y55000000D03*
X20000000Y55000000D03*
X15000000Y55000000D03*
X10000000Y55000000D03*
X10000000Y50000000D03*
X10000000Y45000000D03*
X10000000Y40000000D03*
X10000000Y35000000D03*
X10000000Y30000000D03*
X10000000Y25000000D03*
X10000000Y20000000D03*
X10000000Y15000000D03*
X10000000Y10000000D03*
X15000000Y10000000D03*
X20000000Y10000000D03*
X25000000Y10000000D03*
X30000000Y10000000D03*
X35000000Y10000000D03*
X40000000Y10000000D03*
X45000000Y10000000D03*
X50000000Y10000000D03*
X55000000Y10000000D03*
X60000000Y10000000D03*
X65000000Y10000000D03*
X70000000Y10000000D03*
X75000000Y10000000D03*
X80000000Y10000000D03*
X85000000Y10000000D03*
X90000000Y10000000D03*
X90000000Y15000000D03*
X90000000Y20000000D03*
X90000000Y25000000D03*
X90000000Y30000000D03*
X90000000Y35000000D03*
X90000000Y40000000D03*
X90000000Y45000000D03*
X90000000Y50000000D03*
X90000000Y55000000D03*
%TD*%
%TA.AperFunction,Conductor*%
%TO.N,GND*%
G36*
X94943039Y59980315D02*
G01*
X94988794Y59927511D01*
X95000000Y59876000D01*
X95000000Y5124000D01*
X94980315Y5056961D01*
X94927511Y5011206D01*
X94876000Y5000000D01*
X5124000Y5000000D01*
X5056961Y5019685D01*
X5011206Y5072489D01*
X5000000Y5124000D01*
X5000000Y59876000D01*
X5019685Y59943039D01*
X5072489Y59988794D01*
X5124000Y60000000D01*
X94876000Y60000000D01*
X94943039Y59980315D01*
G37*
%TD.AperFunction*%
%TD*%
M02*
