%TF.GenerationSoftware,KiCad,Pcbnew,9.0.4*%
%TF.CreationDate,2025-09-18T22:50:07-04:00*%
%TF.ProjectId,viagrid,76696167-7269-4642-9e6b-696361645f70,rev?*%
%TF.SameCoordinates,Original*%
%TF.FileFunction,Copper,L1,Top*%
%TF.FilePolarity,Positive*%
%FSLAX46Y46*%
G04 Gerber Fmt 4.6, Leading zero omitted, Abs format (unit mm)*
G04 Created by KiCad (PCBNEW 9.0.4) date 2025-09-18 22:50:07*
%MOMM*%
%LPD*%
G01*
G04 APERTURE LIST*
%ADD10C,0.187500*%
%TA.AperFunction,NonConductor*%
%ADD11C,1.000000*%
%TD*%
%TA.AperFunction,NonConductor*%
%ADD12C,0.000000*%
%TD*%
%ADD13C,0.125000*%
%TA.AperFunction,ViaPad*%
%ADD14C,1.500000*%
%TD*%
G04 APERTURE END LIST*
D10*
G36*
X961812Y1374821D02*
G01*
X1010441Y1365440D01*
X1055346Y1350156D01*
X1097036Y1328995D01*
X1147465Y1292217D01*
X1189608Y1247497D01*
X1224073Y1194036D01*
X1248837Y1135215D01*
X1264115Y1069780D01*
X1269410Y996474D01*
X1264124Y923134D01*
X1248853Y857490D01*
X1224073Y798317D01*
X1189618Y744497D01*
X1147805Y699819D01*
X1098089Y663403D01*
X1056938Y642488D01*
X1012563Y627375D01*
X964457Y618094D01*
X912022Y614906D01*
X859063Y618088D01*
X810327Y627361D01*
X765237Y642475D01*
X723299Y663403D01*
X672531Y699878D01*
X629847Y744570D01*
X594659Y798317D01*
X569310Y857546D01*
X553710Y923184D01*
X548314Y996474D01*
X640500Y996474D01*
X644543Y938746D01*
X656171Y887517D01*
X674938Y841777D01*
X701197Y800056D01*
X733091Y765277D01*
X771017Y736768D01*
X813501Y715811D01*
X860179Y703053D01*
X912022Y698666D01*
X963101Y703071D01*
X1008690Y715840D01*
X1049821Y736768D01*
X1086397Y765133D01*
X1117450Y799879D01*
X1143289Y841731D01*
X1161801Y887476D01*
X1173278Y938723D01*
X1177270Y996474D01*
X1173242Y1053492D01*
X1161608Y1104580D01*
X1142740Y1150668D01*
X1116541Y1192848D01*
X1085152Y1227755D01*
X1048264Y1256135D01*
X1006798Y1277039D01*
X960683Y1289820D01*
X908862Y1294237D01*
X857737Y1289850D01*
X811764Y1277095D01*
X769964Y1256135D01*
X732734Y1227719D01*
X701170Y1192808D01*
X674938Y1150668D01*
X656122Y1104585D01*
X644518Y1053496D01*
X640500Y996474D01*
X548314Y996474D01*
X553681Y1070462D01*
X569139Y1136229D01*
X594155Y1195089D01*
X628931Y1248572D01*
X671089Y1293097D01*
X721192Y1329499D01*
X762603Y1350417D01*
X807327Y1365547D01*
X855878Y1374846D01*
X908862Y1378043D01*
X961812Y1374821D01*
G37*
G36*
X1702601Y1163997D02*
G01*
X1743842Y1152311D01*
X1781130Y1133128D01*
X1814145Y1107122D01*
X1842053Y1074981D01*
X1865119Y1035950D01*
X1881472Y993448D01*
X1891655Y945597D01*
X1895206Y891465D01*
X1891679Y838043D01*
X1881518Y790330D01*
X1865119Y747484D01*
X1842026Y708127D01*
X1814114Y675813D01*
X1781130Y649756D01*
X1743845Y630599D01*
X1702604Y618928D01*
X1656474Y614906D01*
X1613156Y618921D01*
X1574514Y630584D01*
X1539604Y649802D01*
X1509102Y675693D01*
X1483262Y707956D01*
X1480482Y713108D01*
X1480482Y417482D01*
X1393562Y417482D01*
X1393562Y891465D01*
X1480482Y891465D01*
X1485762Y836206D01*
X1500815Y789204D01*
X1516443Y760910D01*
X1534965Y737860D01*
X1556457Y719411D01*
X1581028Y705636D01*
X1607855Y697338D01*
X1637561Y694498D01*
X1669413Y697357D01*
X1698162Y705693D01*
X1724435Y719457D01*
X1747715Y738017D01*
X1767789Y761092D01*
X1784793Y789249D01*
X1797056Y819869D01*
X1804617Y853744D01*
X1807233Y891465D01*
X1804732Y929267D01*
X1797515Y963146D01*
X1785846Y993681D01*
X1769429Y1021766D01*
X1749553Y1044844D01*
X1726038Y1063473D01*
X1699445Y1077252D01*
X1670505Y1085581D01*
X1638614Y1088432D01*
X1608901Y1085597D01*
X1581899Y1077291D01*
X1557006Y1063473D01*
X1535179Y1045013D01*
X1516480Y1021975D01*
X1500815Y993726D01*
X1485762Y946724D01*
X1480482Y891465D01*
X1393562Y891465D01*
X1393562Y1155430D01*
X1475124Y1155430D01*
X1479853Y1068927D01*
X1483235Y1075151D01*
X1509071Y1107258D01*
X1539604Y1133128D01*
X1574514Y1152346D01*
X1613156Y1164009D01*
X1656474Y1168024D01*
X1702601Y1163997D01*
G37*
G36*
X2368411Y627500D02*
G01*
X2363099Y725502D01*
X2363099Y1155430D01*
X2450019Y1155430D01*
X2450019Y627500D01*
X2368411Y627500D01*
G37*
G36*
X1994537Y883680D02*
G01*
X1994537Y1155430D01*
X2081457Y1155430D01*
X2081457Y883680D01*
X1994537Y883680D01*
G37*
G36*
X2081457Y886611D02*
G01*
X2083850Y833792D01*
X2090122Y794994D01*
X2099134Y767222D01*
X2113168Y742044D01*
X2129573Y723903D01*
X2148456Y711580D01*
X2181512Y700431D01*
X2219668Y696559D01*
X2252486Y699802D01*
X2280394Y709059D01*
X2304395Y724117D01*
X2325135Y745423D01*
X2345210Y780053D01*
X2358289Y825121D01*
X2363099Y883497D01*
X2406971Y883497D01*
X2404008Y827338D01*
X2395680Y779431D01*
X2382654Y738599D01*
X2363462Y700697D01*
X2340044Y670393D01*
X2312312Y646642D01*
X2280261Y629380D01*
X2243113Y618667D01*
X2199701Y614906D01*
X2159473Y617820D01*
X2123764Y626208D01*
X2091852Y639773D01*
X2063630Y659225D01*
X2039731Y685319D01*
X2019907Y719091D01*
X2006517Y756285D01*
X1997737Y802610D01*
X1994537Y859958D01*
X1994537Y886611D01*
X2081457Y886611D01*
G37*
G36*
X2593634Y627500D02*
G01*
X2593634Y1365449D01*
X2680554Y1365449D01*
X2680554Y627500D01*
X2593634Y627500D01*
G37*
G36*
X3106952Y1163913D02*
G01*
X3152563Y1152022D01*
X3193647Y1132624D01*
X3230481Y1106067D01*
X3261305Y1073700D01*
X3286566Y1034942D01*
X3304726Y992276D01*
X3315930Y944760D01*
X3319814Y891465D01*
X3315930Y838169D01*
X3304727Y790637D01*
X3286566Y747942D01*
X3261338Y709175D01*
X3230674Y676810D01*
X3194151Y650260D01*
X3153433Y630870D01*
X3108350Y619003D01*
X3057955Y614906D01*
X3007553Y618993D01*
X2962277Y630853D01*
X2921209Y650260D01*
X2884332Y676822D01*
X2853319Y709191D01*
X2827741Y747942D01*
X2809295Y790665D01*
X2797928Y838195D01*
X2793989Y891465D01*
X2881963Y891465D01*
X2884582Y853744D01*
X2892135Y820047D01*
X2904357Y789753D01*
X2921483Y762101D01*
X2942240Y739179D01*
X2966868Y720510D01*
X2994506Y706756D01*
X3024666Y698412D01*
X3057955Y695552D01*
X3091924Y698461D01*
X3121855Y706846D01*
X3148493Y720510D01*
X3172181Y739056D01*
X3192424Y761808D01*
X3209401Y789249D01*
X3221600Y819203D01*
X3229191Y853038D01*
X3231840Y891465D01*
X3229196Y929894D01*
X3221620Y963730D01*
X3209446Y993681D01*
X3192406Y1021046D01*
X3171828Y1043806D01*
X3147485Y1062420D01*
X3120180Y1076117D01*
X3089862Y1084488D01*
X3055848Y1087378D01*
X3022576Y1084499D01*
X2992785Y1076140D01*
X2965814Y1062420D01*
X2941809Y1043843D01*
X2921391Y1021087D01*
X2904357Y993681D01*
X2892183Y963730D01*
X2884607Y929894D01*
X2881963Y891465D01*
X2793989Y891465D01*
X2797874Y944760D01*
X2809077Y992276D01*
X2827237Y1034942D01*
X2852522Y1073705D01*
X2883347Y1106072D01*
X2920156Y1132624D01*
X2961212Y1152094D01*
X3006152Y1163950D01*
X3055848Y1168024D01*
X3106952Y1163913D01*
G37*
G36*
X3716128Y627500D02*
G01*
X3716128Y1365449D01*
X3808315Y1365449D01*
X3808315Y627500D01*
X3716128Y627500D01*
G37*
G36*
X3976293Y627500D02*
G01*
X3976293Y1155430D01*
X4057900Y1155430D01*
X4063213Y1057428D01*
X4063213Y627500D01*
X3976293Y627500D01*
G37*
G36*
X4344855Y627500D02*
G01*
X4344855Y899250D01*
X4431775Y899250D01*
X4431775Y627500D01*
X4344855Y627500D01*
G37*
G36*
X4344855Y896319D02*
G01*
X4342456Y949135D01*
X4336168Y987933D01*
X4327132Y1015708D01*
X4313151Y1040928D01*
X4296924Y1059042D01*
X4278360Y1071304D01*
X4245740Y1082476D01*
X4207698Y1086371D01*
X4174279Y1083135D01*
X4146020Y1073928D01*
X4121881Y1059016D01*
X4101177Y1038011D01*
X4081160Y1003706D01*
X4068055Y958534D01*
X4063213Y899433D01*
X4019340Y899433D01*
X4022298Y955594D01*
X4030612Y1003502D01*
X4043612Y1044330D01*
X4062863Y1082195D01*
X4086443Y1112487D01*
X4114458Y1136242D01*
X4146844Y1153586D01*
X4183873Y1164288D01*
X4226611Y1168024D01*
X4267546Y1165084D01*
X4303392Y1156672D01*
X4334963Y1143157D01*
X4362915Y1123784D01*
X4386822Y1097849D01*
X4406908Y1064343D01*
X4420453Y1027454D01*
X4429103Y981026D01*
X4431775Y922972D01*
X4431775Y896319D01*
X4344855Y896319D01*
G37*
G36*
X4797361Y614906D02*
G01*
X4746248Y619002D01*
X4700444Y630871D01*
X4659012Y650260D01*
X4621819Y676853D01*
X4590647Y709226D01*
X4565040Y747942D01*
X4546594Y790665D01*
X4535227Y838195D01*
X4531289Y891465D01*
X4535173Y944760D01*
X4546377Y992276D01*
X4564536Y1034942D01*
X4589853Y1073666D01*
X4620852Y1106037D01*
X4658005Y1132624D01*
X4699396Y1152074D01*
X4744849Y1163941D01*
X4795254Y1168024D01*
X4844985Y1164018D01*
X4890104Y1152346D01*
X4931450Y1133174D01*
X4968382Y1106720D01*
X4999082Y1073767D01*
X5024003Y1033568D01*
X4944731Y997711D01*
X4928247Y1024363D01*
X4908007Y1046291D01*
X4883731Y1063977D01*
X4856532Y1076822D01*
X4826540Y1084672D01*
X4793148Y1087378D01*
X4759875Y1084499D01*
X4730084Y1076140D01*
X4703114Y1062420D01*
X4679144Y1043816D01*
X4658722Y1020889D01*
X4641656Y993131D01*
X4629435Y962867D01*
X4621882Y929186D01*
X4619262Y891465D01*
X4621881Y853744D01*
X4629434Y820047D01*
X4641656Y789753D01*
X4658782Y762101D01*
X4679540Y739179D01*
X4704167Y720510D01*
X4731806Y706756D01*
X4761966Y698412D01*
X4795254Y695552D01*
X4828517Y698524D01*
X4858669Y707207D01*
X4886342Y721564D01*
X4910683Y741071D01*
X4931127Y765569D01*
X4947845Y795752D01*
X5027163Y759894D01*
X5002122Y716832D01*
X4971385Y681457D01*
X4934610Y652916D01*
X4893067Y631973D01*
X4847631Y619266D01*
X4797361Y614906D01*
G37*
G36*
X5166793Y612799D02*
G01*
X5143809Y617225D01*
X5124249Y630568D01*
X5110891Y649969D01*
X5106526Y672013D01*
X5110940Y694962D01*
X5124249Y714511D01*
X5143809Y727854D01*
X5166793Y732280D01*
X5189683Y727836D01*
X5208788Y714511D01*
X5221703Y695001D01*
X5226007Y672013D01*
X5221751Y649931D01*
X5208788Y630568D01*
X5189683Y617243D01*
X5166793Y612799D01*
G37*
D11*
X30000000Y64000000D02*
X70000000Y64000000D01*
X70000000Y61000000D01*
X30000000Y61000000D01*
X30000000Y64000000D01*
%TA.AperFunction,NonConductor*%
G36*
X30000000Y64000000D02*
G01*
X70000000Y64000000D01*
X70000000Y61000000D01*
X30000000Y61000000D01*
X30000000Y64000000D01*
G37*
%TD.AperFunction*%
D12*
%TA.AperFunction,NonConductor*%
G36*
X4800000Y57500000D02*
G01*
X4800000Y57500000D01*
G75*
G02*
X7500000Y60200000I200000J2500000D01*
G01*
X7500000Y60199996D01*
X4800000Y60200000D01*
X4800000Y57500001D01*
X4800000Y57500000D01*
G37*
%TD.AperFunction*%
%TA.AperFunction,NonConductor*%
G36*
X4800000Y4800000D02*
G01*
X7500000Y4800001D01*
G75*
G02*
X4800001Y7500000I-2500000J199999D01*
G01*
X4800004Y7500000D01*
X4800000Y4800000D01*
G37*
%TD.AperFunction*%
%TA.AperFunction,NonConductor*%
G36*
X95200000Y60200000D02*
G01*
X92500000Y60199999D01*
G75*
G02*
X95199999Y57500000I2500000J-199999D01*
G01*
X95199996Y57500000D01*
X95200000Y60200000D01*
G37*
%TD.AperFunction*%
%TA.AperFunction,NonConductor*%
G36*
X95200000Y4800000D02*
G01*
X95199999Y7500000D01*
G75*
G02*
X92500000Y4800001I-199999J-2500000D01*
G01*
X92500000Y4800004D01*
X95200000Y4800000D01*
G37*
%TD.AperFunction*%
D13*
G36*
X44245350Y1955000D02*
G01*
X44848386Y3430898D01*
X45041643Y3430898D01*
X44430181Y1955000D01*
X44245350Y1955000D01*
G37*
G36*
X44228864Y1955000D02*
G01*
X43617402Y3430898D01*
X43810751Y3430898D01*
X44411588Y1955000D01*
X44228864Y1955000D01*
G37*
G36*
X45250471Y1955000D02*
G01*
X45250471Y3430898D01*
X45434843Y3430898D01*
X45434843Y1955000D01*
X45250471Y1955000D01*
G37*
G36*
X46838476Y1955000D02*
G01*
X46246157Y3430898D01*
X46430896Y3430898D01*
X47031825Y1955000D01*
X46838476Y1955000D01*
G37*
G36*
X45641198Y1955000D02*
G01*
X46242127Y3430898D01*
X46429064Y3430898D01*
X45836653Y1955000D01*
X45641198Y1955000D01*
G37*
G36*
X45926229Y2372930D02*
G01*
X45926229Y2538343D01*
X46748992Y2538343D01*
X46748992Y2372930D01*
X45926229Y2372930D01*
G37*
G36*
X47856420Y1929812D02*
G01*
X47744078Y1936279D01*
X47641022Y1955085D01*
X47546040Y1985649D01*
X47458090Y2027814D01*
X47350846Y2101674D01*
X47261017Y2191193D01*
X47187164Y2297733D01*
X47144902Y2385203D01*
X47114349Y2479189D01*
X47095596Y2580685D01*
X47089161Y2690842D01*
X47095640Y2803214D01*
X47114465Y2906079D01*
X47145030Y3000676D01*
X47187164Y3088073D01*
X47261017Y3194613D01*
X47350846Y3284132D01*
X47458090Y3357991D01*
X47546045Y3400198D01*
X47641027Y3430790D01*
X47744082Y3449613D01*
X47856420Y3456086D01*
X47972866Y3446337D01*
X48086222Y3417068D01*
X48193682Y3370725D01*
X48290836Y3310547D01*
X48375762Y3236978D01*
X48442236Y3154110D01*
X48296606Y3054184D01*
X48246938Y3118877D01*
X48182301Y3176733D01*
X48107991Y3223903D01*
X48026687Y3259165D01*
X47941411Y3281222D01*
X47856420Y3288474D01*
X47745653Y3279661D01*
X47646013Y3254090D01*
X47555543Y3212270D01*
X47473982Y3155004D01*
X47405381Y3085406D01*
X47348730Y3002343D01*
X47307696Y2910481D01*
X47282345Y2807391D01*
X47273534Y2690842D01*
X47282103Y2578465D01*
X47306981Y2476988D01*
X47347631Y2384562D01*
X47403767Y2300895D01*
X47472346Y2230593D01*
X47554444Y2172528D01*
X47645678Y2130048D01*
X47745695Y2104137D01*
X47856420Y2095225D01*
X47949666Y2102152D01*
X48033024Y2122162D01*
X48108112Y2154668D01*
X48176263Y2199720D01*
X48233301Y2254417D01*
X48280211Y2319532D01*
X48314458Y2392154D01*
X48335543Y2473517D01*
X48342860Y2565454D01*
X48518806Y2578460D01*
X48508853Y2449265D01*
X48480340Y2336268D01*
X48434359Y2236734D01*
X48370869Y2147439D01*
X48293267Y2072545D01*
X48200161Y2010962D01*
X48097521Y1966576D01*
X47983672Y1939263D01*
X47856420Y1929812D01*
G37*
G36*
X47981625Y2551441D02*
G01*
X47981625Y2710534D01*
X48518806Y2710534D01*
X48518806Y2566553D01*
X48432161Y2551441D01*
X47981625Y2551441D01*
G37*
G36*
X49359748Y3424223D02*
G01*
X49444039Y3404958D01*
X49519897Y3373745D01*
X49589095Y3330276D01*
X49646467Y3277637D01*
X49693187Y3215201D01*
X49727479Y3145228D01*
X49748371Y3068274D01*
X49755560Y2982743D01*
X49747810Y2897374D01*
X49725210Y2820395D01*
X49687875Y2750102D01*
X49637858Y2687728D01*
X49577025Y2634705D01*
X49504143Y2590550D01*
X49455508Y2571029D01*
X49816560Y1955000D01*
X49614510Y1955000D01*
X49275066Y2534777D01*
X49242376Y2532481D01*
X48968060Y2532481D01*
X48968060Y1955000D01*
X48783688Y1955000D01*
X48783688Y2702199D01*
X48968060Y2702199D01*
X49290644Y2702199D01*
X49366233Y2711492D01*
X49431969Y2738561D01*
X49488183Y2781519D01*
X49532719Y2838304D01*
X49561356Y2905305D01*
X49571188Y2982743D01*
X49561236Y3062069D01*
X49532622Y3128586D01*
X49484909Y3185342D01*
X49423382Y3227818D01*
X49349908Y3254029D01*
X49261243Y3263286D01*
X48968060Y3263286D01*
X48968060Y2702199D01*
X48783688Y2702199D01*
X48783688Y3430898D01*
X49265457Y3430898D01*
X49359748Y3424223D01*
G37*
G36*
X50098203Y1955000D02*
G01*
X50098203Y3430898D01*
X50282575Y3430898D01*
X50282575Y1955000D01*
X50098203Y1955000D01*
G37*
G36*
X51253632Y3419986D02*
G01*
X51375411Y3388437D01*
X51484983Y3337017D01*
X51583402Y3266474D01*
X51666344Y3180170D01*
X51734935Y3076532D01*
X51784501Y2962306D01*
X51815034Y2835279D01*
X51825610Y2692949D01*
X51815067Y2551970D01*
X51784565Y2425583D01*
X51734935Y2311380D01*
X51666392Y2207729D01*
X51583449Y2121072D01*
X51484983Y2049888D01*
X51375352Y1997895D01*
X51253579Y1966020D01*
X51117062Y1955000D01*
X50666800Y1955000D01*
X50666800Y2124626D01*
X50851173Y2124626D01*
X51117062Y2124626D01*
X51224401Y2135501D01*
X51321676Y2167399D01*
X51409776Y2219054D01*
X51487639Y2289582D01*
X51551646Y2374595D01*
X51600479Y2472397D01*
X51630921Y2578602D01*
X51641237Y2692949D01*
X51630919Y2807283D01*
X51600479Y2913408D01*
X51551636Y3011272D01*
X51487639Y3096224D01*
X51409776Y3166752D01*
X51321676Y3218407D01*
X51224401Y3250305D01*
X51117062Y3261180D01*
X50851173Y3261180D01*
X50851173Y2124626D01*
X50666800Y2124626D01*
X50666800Y3430898D01*
X51117062Y3430898D01*
X51253632Y3419986D01*
G37*
G36*
X52923695Y1955000D02*
G01*
X52923695Y3263286D01*
X52455390Y3263286D01*
X52455390Y3430898D01*
X53574267Y3430898D01*
X53574267Y3263286D01*
X53105962Y3263286D01*
X53105962Y1955000D01*
X52923695Y1955000D01*
G37*
G36*
X54515110Y3449642D02*
G01*
X54612368Y3430880D01*
X54702179Y3400313D01*
X54785559Y3357991D01*
X54886417Y3284434D01*
X54970702Y3194994D01*
X55039632Y3088073D01*
X55089162Y2970431D01*
X55119717Y2839560D01*
X55130307Y2692949D01*
X55119734Y2546268D01*
X55089192Y2414981D01*
X55039632Y2296634D01*
X54970723Y2188995D01*
X54887096Y2099638D01*
X54787665Y2026807D01*
X54705363Y1984977D01*
X54616613Y1954751D01*
X54520400Y1936189D01*
X54415531Y1929812D01*
X54309613Y1936176D01*
X54212141Y1954722D01*
X54121961Y1984950D01*
X54038084Y2026807D01*
X53936549Y2099756D01*
X53851181Y2189140D01*
X53780805Y2296634D01*
X53730106Y2415093D01*
X53698907Y2546368D01*
X53688114Y2692949D01*
X53872487Y2692949D01*
X53880573Y2577493D01*
X53903828Y2475035D01*
X53941364Y2383554D01*
X53993880Y2300112D01*
X54057669Y2230554D01*
X54133522Y2173536D01*
X54218488Y2131623D01*
X54311845Y2106107D01*
X54415531Y2097332D01*
X54517689Y2106143D01*
X54608866Y2131681D01*
X54691128Y2173536D01*
X54764282Y2230266D01*
X54826387Y2299759D01*
X54878066Y2383463D01*
X54915089Y2474952D01*
X54938043Y2577446D01*
X54946026Y2692949D01*
X54937971Y2806984D01*
X54914702Y2909161D01*
X54876967Y3001336D01*
X54824570Y3085696D01*
X54761791Y3155510D01*
X54688014Y3212270D01*
X54605082Y3254079D01*
X54512852Y3279641D01*
X54409211Y3288474D01*
X54306961Y3279700D01*
X54215015Y3254191D01*
X54131415Y3212270D01*
X54056954Y3155439D01*
X53993826Y3085617D01*
X53941364Y3001336D01*
X53903731Y2909171D01*
X53880522Y2806993D01*
X53872487Y2692949D01*
X53688114Y2692949D01*
X53698848Y2840925D01*
X53729765Y2972458D01*
X53779797Y3090179D01*
X53849349Y3197144D01*
X53933665Y3286195D01*
X54033871Y3358999D01*
X54116694Y3400835D01*
X54206140Y3431094D01*
X54303243Y3449692D01*
X54409211Y3456086D01*
X54515110Y3449642D01*
G37*
G36*
X55992308Y3424002D02*
G01*
X56076587Y3404080D01*
X56152555Y3371730D01*
X56221527Y3326783D01*
X56278935Y3272086D01*
X56325846Y3206866D01*
X56359982Y3134100D01*
X56380956Y3052986D01*
X56388219Y2961769D01*
X56381600Y2873102D01*
X56362419Y2793296D01*
X56331158Y2720884D01*
X56288038Y2654988D01*
X56236107Y2600003D01*
X56174720Y2554921D01*
X56106209Y2521903D01*
X56029954Y2501658D01*
X55944277Y2494654D01*
X55600719Y2494654D01*
X55600719Y1955000D01*
X55416346Y1955000D01*
X55416346Y2662266D01*
X55600719Y2662266D01*
X55944277Y2662266D01*
X56016564Y2671802D01*
X56078298Y2699512D01*
X56132131Y2746346D01*
X56172408Y2806211D01*
X56197217Y2877040D01*
X56205953Y2961769D01*
X56195735Y3048142D01*
X56166591Y3119804D01*
X56118575Y3180122D01*
X56056036Y3225793D01*
X55982859Y3253575D01*
X55896009Y3263286D01*
X55600719Y3263286D01*
X55600719Y2662266D01*
X55416346Y2662266D01*
X55416346Y3430898D01*
X55898115Y3430898D01*
X55992308Y3424002D01*
G37*
D14*
%TO.N,GND*%
X32500000Y40000000D03*
X30000000Y42500000D03*
X27500000Y40000000D03*
X30000000Y37500000D03*
X30000000Y40000000D03*
X32500000Y25000000D03*
X30000000Y27500000D03*
X27500000Y25000000D03*
X30000000Y22500000D03*
X30000000Y25000000D03*
X72500000Y25000000D03*
X67500000Y25000000D03*
X70000000Y22500000D03*
X70000000Y27500000D03*
X70000000Y25000000D03*
X72500000Y40000000D03*
X67500000Y40000000D03*
X70000000Y37500000D03*
X70000000Y42500000D03*
X70000000Y40000000D03*
X85000000Y55000000D03*
X80000000Y55000000D03*
X75000000Y55000000D03*
X70000000Y55000000D03*
X65000000Y55000000D03*
X60000000Y55000000D03*
X55000000Y55000000D03*
X50000000Y55000000D03*
X45000000Y55000000D03*
X40000000Y55000000D03*
X35000000Y55000000D03*
X30000000Y55000000D03*
X25000000Y55000000D03*
X20000000Y55000000D03*
X15000000Y55000000D03*
X10000000Y55000000D03*
X10000000Y50000000D03*
X10000000Y45000000D03*
X10000000Y40000000D03*
X10000000Y35000000D03*
X10000000Y30000000D03*
X10000000Y25000000D03*
X10000000Y20000000D03*
X10000000Y15000000D03*
X10000000Y10000000D03*
X15000000Y10000000D03*
X20000000Y10000000D03*
X25000000Y10000000D03*
X30000000Y10000000D03*
X35000000Y10000000D03*
X40000000Y10000000D03*
X45000000Y10000000D03*
X50000000Y10000000D03*
X55000000Y10000000D03*
X60000000Y10000000D03*
X65000000Y10000000D03*
X70000000Y10000000D03*
X75000000Y10000000D03*
X80000000Y10000000D03*
X85000000Y10000000D03*
X90000000Y10000000D03*
X90000000Y15000000D03*
X90000000Y20000000D03*
X90000000Y25000000D03*
X90000000Y30000000D03*
X90000000Y35000000D03*
X90000000Y40000000D03*
X90000000Y45000000D03*
X90000000Y50000000D03*
X90000000Y55000000D03*
%TD*%
%TA.AperFunction,Conductor*%
%TO.N,GND*%
G36*
X94943039Y59980315D02*
G01*
X94988794Y59927511D01*
X95000000Y59876000D01*
X95000000Y5124000D01*
X94980315Y5056961D01*
X94927511Y5011206D01*
X94876000Y5000000D01*
X5124000Y5000000D01*
X5056961Y5019685D01*
X5011206Y5072489D01*
X5000000Y5124000D01*
X5000000Y59876000D01*
X5019685Y59943039D01*
X5072489Y59988794D01*
X5124000Y60000000D01*
X94876000Y60000000D01*
X94943039Y59980315D01*
G37*
%TD.AperFunction*%
%TD*%
M02*
