M48
METRIC,TZ
T1C0.300
%
G90
G05
T1
X10000Y55000
X10000Y50000
X10000Y45000
X10000Y40000
X10000Y35000
X10000Y30000
X10000Y25000
X10000Y20000
X10000Y15000
X10000Y10000
X15000Y55000
X15000Y10000
X20000Y55000
X20000Y10000
X25000Y55000
X25000Y10000
X27500Y40000
X27500Y25000
X30000Y55000
X30000Y42500
X30000Y40000
X30000Y37500
X30000Y27500
X30000Y25000
X30000Y22500
X30000Y10000
X32500Y40000
X32500Y25000
X35000Y55000
X35000Y10000
X40000Y55000
X40000Y10000
X45000Y55000
X45000Y10000
X50000Y55000
X50000Y10000
X55000Y55000
X55000Y10000
X60000Y55000
X60000Y10000
X65000Y55000
X65000Y10000
X67500Y40000
X67500Y25000
X70000Y55000
X70000Y42500
X70000Y40000
X70000Y37500
X70000Y27500
X70000Y25000
X70000Y22500
X70000Y10000
X72500Y40000
X72500Y25000
X75000Y55000
X75000Y10000
X80000Y55000
X80000Y10000
X85000Y55000
X85000Y10000
X90000Y55000
X90000Y50000
X90000Y45000
X90000Y40000
X90000Y35000
X90000Y30000
X90000Y25000
X90000Y20000
X90000Y15000
X90000Y10000
M30
