  0
SECTION
  2
HEADER
  9
$ANGBASE
  50
0.0
  9
$ANGDIR
  70
1
  9
$MEASUREMENT
  70
1
  0
ENDSEC
  0
SECTION
  2
TABLES
  0
TABLE
  2
LTYPE
  70
4
  0
LTYPE
  5
40F
  2
CONTINUOUS
  70
0
  3
Solid line
  72
65
  73
0
  40
0.0
  0
LTYPE
  5
410
  2
DASHDOT
 70
0
  3
Dash Dot ____ _ ____ _
 72
65
 73
4
 40
2.0
 49
1.25
 49
-0.25
 49
0.25
 49
-0.25
  0
LTYPE
  5
411
  2
DASHED
 70
0
  3
Dashed __ __ __ __ __
 72
65
 73
2
 40
0.75
 49
0.5
 49
-0.25
  0
LTYPE
  5
43B
  2
DOTTED
 70
0
  3
Dotted .  .  .  .
 72
65
 73
2
 40
0.2
 49
0.0
 49
-0.2
  0
ENDTAB
  0
TABLE
  2
STYLE
  70
4
  0
STYLE
  2
KICAD
  70
0
  40
0
  41
1
  42
1
  50
0
  71
0
  3
isocp.shx
  0
STYLE
  2
KICADB
  70
0
  40
0
  41
1
  42
1
  50
0
  71
0
  3
isocp.shx
  0
STYLE
  2
KICADI
  70
0
  40
0
  41
1
  42
1
  50
15
  71
0
  3
isocp.shx
  0
STYLE
  2
KICADBI
  70
0
  40
0
  41
1
  42
1
  50
15
  71
0
  3
isocp.shx
  0
ENDTAB
  0
TABLE
  2
LAYER
  70
1
  0
LAYER
  2
BLACK
  70
0
  62
7
  6
CONTINUOUS
  0
ENDTAB
  0
ENDSEC
  0
SECTION
  2
ENTITIES
0
LINE
8
BLACK
6
CONTINUOUS
10
98.3868429999999989
20
1.1640089999999998
11
98.4254849999999948
21
1.1523459999999999
0
LINE
8
BLACK
6
CONTINUOUS
10
98.4254849999999948
20
1.1523459999999999
11
98.4603949999999912
21
1.1331279999999999
0
LINE
8
BLACK
6
CONTINUOUS
10
98.4603949999999912
20
1.1331279999999999
11
98.4909279999999967
21
1.1072579999999999
0
LINE
8
BLACK
6
CONTINUOUS
10
98.4909279999999967
20
1.1072579999999999
11
98.5167639999999949
21
1.075151
0
LINE
8
BLACK
6
CONTINUOUS
10
98.5167639999999949
20
1.075151
11
98.5201449999999994
21
1.068927
0
LINE
8
BLACK
6
CONTINUOUS
10
98.5201449999999994
20
1.068927
11
98.5248749999999944
21
1.15543
0
LINE
8
BLACK
6
CONTINUOUS
10
98.5248749999999944
20
1.15543
11
98.6064369999999997
21
1.15543
0
LINE
8
BLACK
6
CONTINUOUS
10
98.6064369999999997
20
1.15543
11
98.6064369999999997
21
0.417481
0
LINE
8
BLACK
6
CONTINUOUS
10
98.6064369999999997
20
0.417481
11
98.5195169999999933
21
0.417481
0
LINE
8
BLACK
6
CONTINUOUS
10
98.5195169999999933
20
0.417481
11
98.5195169999999933
21
0.713108
0
LINE
8
BLACK
6
CONTINUOUS
10
98.5195169999999933
20
0.713108
11
98.516736999999992
21
0.7079559999999999
0
LINE
8
BLACK
6
CONTINUOUS
10
98.516736999999992
20
0.7079559999999999
11
98.4908969999999897
21
0.675693
0
LINE
8
BLACK
6
CONTINUOUS
10
98.4908969999999897
20
0.675693
11
98.4603949999999912
21
0.649802
0
LINE
8
BLACK
6
CONTINUOUS
10
98.4603949999999912
20
0.649802
11
98.4254849999999948
21
0.6305839999999999
0
LINE
8
BLACK
6
CONTINUOUS
10
98.4254849999999948
20
0.6305839999999999
11
98.3868429999999989
21
0.6189209999999999
0
LINE
8
BLACK
6
CONTINUOUS
10
98.3868429999999989
20
0.6189209999999999
11
98.3435249999999996
21
0.614906
0
LINE
8
BLACK
6
CONTINUOUS
10
98.3435249999999996
20
0.614906
11
98.2973949999999945
21
0.6189279999999999
0
LINE
8
BLACK
6
CONTINUOUS
10
98.2973949999999945
20
0.6189279999999999
11
98.2561539999999951
21
0.630599
0
LINE
8
BLACK
6
CONTINUOUS
10
98.2561539999999951
20
0.630599
11
98.218868999999998
21
0.649756
0
LINE
8
BLACK
6
CONTINUOUS
10
98.218868999999998
20
0.649756
11
98.185884999999999
21
0.675813
0
LINE
8
BLACK
6
CONTINUOUS
10
98.185884999999999
20
0.675813
11
98.1579729999999984
21
0.708127
0
LINE
8
BLACK
6
CONTINUOUS
10
98.1579729999999984
20
0.708127
11
98.1348799999999954
21
0.7474839999999999
0
LINE
8
BLACK
6
CONTINUOUS
10
98.1348799999999954
20
0.7474839999999999
11
98.1184809999999885
21
0.79033
0
LINE
8
BLACK
6
CONTINUOUS
10
98.1184809999999885
20
0.79033
11
98.108319999999992
21
0.838043
0
LINE
8
BLACK
6
CONTINUOUS
10
98.108319999999992
20
0.838043
11
98.1047930000000008
21
0.891465
0
LINE
8
BLACK
6
CONTINUOUS
10
98.1047930000000008
20
0.891465
11
98.1083440000000024
21
0.9455969999999999
0
LINE
8
BLACK
6
CONTINUOUS
10
98.1083440000000024
20
0.9455969999999999
11
98.1185270000000003
21
0.993448
0
LINE
8
BLACK
6
CONTINUOUS
10
98.1185270000000003
20
0.993448
11
98.1348799999999954
21
1.0359499999999999
0
LINE
8
BLACK
6
CONTINUOUS
10
98.1348799999999954
20
1.0359499999999999
11
98.1579459999999955
21
1.074981
0
LINE
8
BLACK
6
CONTINUOUS
10
98.1579459999999955
20
1.074981
11
98.185853999999992
21
1.1071219999999999
0
LINE
8
BLACK
6
CONTINUOUS
10
98.185853999999992
20
1.1071219999999999
11
98.218868999999998
21
1.1331279999999999
0
LINE
8
BLACK
6
CONTINUOUS
10
98.218868999999998
20
1.1331279999999999
11
98.2561570000000017
21
1.1523109999999999
0
LINE
8
BLACK
6
CONTINUOUS
10
98.2561570000000017
20
1.1523109999999999
11
98.2973980000000012
21
1.1639969999999999
0
LINE
8
BLACK
6
CONTINUOUS
10
98.2973980000000012
20
1.1639969999999999
11
98.3435249999999996
21
1.168024
0
LINE
8
BLACK
6
CONTINUOUS
10
98.3435249999999996
20
1.168024
11
98.3868429999999989
21
1.1640089999999998
0
LINE
8
BLACK
6
CONTINUOUS
10
98.3294939999999968
20
1.0855809999999999
11
98.3005539999999911
21
1.0772519999999999
0
LINE
8
BLACK
6
CONTINUOUS
10
98.3005539999999911
20
1.0772519999999999
11
98.2739609999999999
21
1.0634729999999999
0
LINE
8
BLACK
6
CONTINUOUS
10
98.2739609999999999
20
1.0634729999999999
11
98.2504459999999966
21
1.0448439999999999
0
LINE
8
BLACK
6
CONTINUOUS
10
98.2504459999999966
20
1.0448439999999999
11
98.2305700000000002
21
1.021766
0
LINE
8
BLACK
6
CONTINUOUS
10
98.2305700000000002
20
1.021766
11
98.214152999999996
21
0.9936809999999999
0
LINE
8
BLACK
6
CONTINUOUS
10
98.214152999999996
20
0.9936809999999999
11
98.2024839999999983
21
0.9631459999999999
0
LINE
8
BLACK
6
CONTINUOUS
10
98.2024839999999983
20
0.9631459999999999
11
98.1952670000000012
21
0.929267
0
LINE
8
BLACK
6
CONTINUOUS
10
98.1952670000000012
20
0.929267
11
98.1927659999999918
21
0.891465
0
LINE
8
BLACK
6
CONTINUOUS
10
98.1927659999999918
20
0.891465
11
98.1953819999999951
21
0.8537439999999999
0
LINE
8
BLACK
6
CONTINUOUS
10
98.1953819999999951
20
0.8537439999999999
11
98.2029429999999905
21
0.819869
0
LINE
8
BLACK
6
CONTINUOUS
10
98.2029429999999905
20
0.819869
11
98.2152059999999949
21
0.789249
0
LINE
8
BLACK
6
CONTINUOUS
10
98.2152059999999949
20
0.789249
11
98.2322099999999949
21
0.761092
0
LINE
8
BLACK
6
CONTINUOUS
10
98.2322099999999949
20
0.761092
11
98.2522839999999889
21
0.7380169999999999
0
LINE
8
BLACK
6
CONTINUOUS
10
98.2522839999999889
20
0.7380169999999999
11
98.2755639999999886
21
0.719457
0
LINE
8
BLACK
6
CONTINUOUS
10
98.2755639999999886
20
0.719457
11
98.3018369999999919
21
0.705693
0
LINE
8
BLACK
6
CONTINUOUS
10
98.3018369999999919
20
0.705693
11
98.3305859999999967
21
0.697357
0
LINE
8
BLACK
6
CONTINUOUS
10
98.3305859999999967
20
0.697357
11
98.3624379999999974
21
0.6944979999999999
0
LINE
8
BLACK
6
CONTINUOUS
10
98.3624379999999974
20
0.6944979999999999
11
98.3921440000000018
21
0.697338
0
LINE
8
BLACK
6
CONTINUOUS
10
98.3921440000000018
20
0.697338
11
98.4189709999999991
21
0.7056359999999999
0
LINE
8
BLACK
6
CONTINUOUS
10
98.4189709999999991
20
0.7056359999999999
11
98.4435419999999937
21
0.719411
0
LINE
8
BLACK
6
CONTINUOUS
10
98.4435419999999937
20
0.719411
11
98.4650339999999886
21
0.73786
0
LINE
8
BLACK
6
CONTINUOUS
10
98.4650339999999886
20
0.73786
11
98.483555999999993
21
0.76091
0
LINE
8
BLACK
6
CONTINUOUS
10
98.483555999999993
20
0.76091
11
98.4991839999999996
21
0.789204
0
LINE
8
BLACK
6
CONTINUOUS
10
98.4991839999999996
20
0.789204
11
98.5142369999999943
21
0.836206
0
LINE
8
BLACK
6
CONTINUOUS
10
98.5142369999999943
20
0.836206
11
98.5195169999999933
21
0.891465
0
LINE
8
BLACK
6
CONTINUOUS
10
98.5195169999999933
20
0.891465
11
98.5142369999999943
21
0.946724
0
LINE
8
BLACK
6
CONTINUOUS
10
98.5142369999999943
20
0.946724
11
98.4991839999999996
21
0.993726
0
LINE
8
BLACK
6
CONTINUOUS
10
98.4991839999999996
20
0.993726
11
98.4835190000000011
21
1.0219749999999999
0
LINE
8
BLACK
6
CONTINUOUS
10
98.4835190000000011
20
1.0219749999999999
11
98.4648199999999889
21
1.045013
0
LINE
8
BLACK
6
CONTINUOUS
10
98.4648199999999889
20
1.045013
11
98.4429930000000013
21
1.0634729999999999
0
LINE
8
BLACK
6
CONTINUOUS
10
98.4429930000000013
20
1.0634729999999999
11
98.4180999999999955
21
1.077291
0
LINE
8
BLACK
6
CONTINUOUS
10
98.4180999999999955
20
1.077291
11
98.3910979999999995
21
1.0855969999999999
0
LINE
8
BLACK
6
CONTINUOUS
10
98.3910979999999995
20
1.0855969999999999
11
98.3613849999999985
21
1.0884319999999998
0
LINE
8
BLACK
6
CONTINUOUS
10
98.3613849999999985
20
1.0884319999999998
11
98.3294939999999968
21
1.0855809999999999
0
LINE
8
BLACK
6
CONTINUOUS
10
94.856189999999998
20
0.727854
11
94.8757499999999965
21
0.714511
0
LINE
8
BLACK
6
CONTINUOUS
10
94.8757499999999965
20
0.714511
11
94.8890589999999889
21
0.694962
0
LINE
8
BLACK
6
CONTINUOUS
10
94.8890589999999889
20
0.694962
11
94.8934730000000002
21
0.672013
0
LINE
8
BLACK
6
CONTINUOUS
10
94.8934730000000002
20
0.672013
11
94.8891079999999931
21
0.649969
0
LINE
8
BLACK
6
CONTINUOUS
10
94.8891079999999931
20
0.649969
11
94.8757499999999965
21
0.630568
0
LINE
8
BLACK
6
CONTINUOUS
10
94.8757499999999965
20
0.630568
11
94.856189999999998
21
0.617225
0
LINE
8
BLACK
6
CONTINUOUS
10
94.856189999999998
20
0.617225
11
94.8332059999999899
21
0.612799
0
LINE
8
BLACK
6
CONTINUOUS
10
94.8332059999999899
20
0.612799
11
94.8103160000000003
21
0.617243
0
LINE
8
BLACK
6
CONTINUOUS
10
94.8103160000000003
20
0.617243
11
94.7912109999999899
21
0.630568
0
LINE
8
BLACK
6
CONTINUOUS
10
94.7912109999999899
20
0.630568
11
94.7782479999999907
21
0.6499309999999999
0
LINE
8
BLACK
6
CONTINUOUS
10
94.7782479999999907
20
0.6499309999999999
11
94.7739919999999927
21
0.672013
0
LINE
8
BLACK
6
CONTINUOUS
10
94.7739919999999927
20
0.672013
11
94.7782959999999974
21
0.695001
0
LINE
8
BLACK
6
CONTINUOUS
10
94.7782959999999974
20
0.695001
11
94.7912109999999899
21
0.714511
0
LINE
8
BLACK
6
CONTINUOUS
10
94.7912109999999899
20
0.714511
11
94.8103160000000003
21
0.7278359999999999
0
LINE
8
BLACK
6
CONTINUOUS
10
94.8103160000000003
20
0.7278359999999999
11
94.8332059999999899
21
0.7322799999999999
0
LINE
8
BLACK
6
CONTINUOUS
10
94.8332059999999899
20
0.7322799999999999
11
94.856189999999998
21
0.727854
0
LINE
8
BLACK
6
CONTINUOUS
10
95.2551500000000004
20
1.1639409999999999
11
95.3006029999999953
21
1.152074
0
LINE
8
BLACK
6
CONTINUOUS
10
95.3006029999999953
20
1.152074
11
95.3419939999999997
21
1.1326239999999999
0
LINE
8
BLACK
6
CONTINUOUS
10
95.3419939999999997
20
1.1326239999999999
11
95.379146999999989
21
1.1060369999999999
0
LINE
8
BLACK
6
CONTINUOUS
10
95.379146999999989
20
1.1060369999999999
11
95.4101459999999975
21
1.073666
0
LINE
8
BLACK
6
CONTINUOUS
10
95.4101459999999975
20
1.073666
11
95.4354629999999986
21
1.034942
0
LINE
8
BLACK
6
CONTINUOUS
10
95.4354629999999986
20
1.034942
11
95.4536219999999958
21
0.9922759999999999
0
LINE
8
BLACK
6
CONTINUOUS
10
95.4536219999999958
20
0.9922759999999999
11
95.4648260000000022
21
0.9447599999999999
0
LINE
8
BLACK
6
CONTINUOUS
10
95.4648260000000022
20
0.9447599999999999
11
95.4687100000000015
21
0.891465
0
LINE
8
BLACK
6
CONTINUOUS
10
95.4687100000000015
20
0.891465
11
95.4647719999999964
21
0.8381949999999999
0
LINE
8
BLACK
6
CONTINUOUS
10
95.4647719999999964
20
0.8381949999999999
11
95.4534049999999894
21
0.790665
0
LINE
8
BLACK
6
CONTINUOUS
10
95.4534049999999894
20
0.790665
11
95.4349589999999921
21
0.747942
0
LINE
8
BLACK
6
CONTINUOUS
10
95.4349589999999921
20
0.747942
11
95.4093519999999984
21
0.709226
0
LINE
8
BLACK
6
CONTINUOUS
10
95.4093519999999984
20
0.709226
11
95.3781800000000004
21
0.6768529999999999
0
LINE
8
BLACK
6
CONTINUOUS
10
95.3781800000000004
20
0.6768529999999999
11
95.3409869999999984
21
0.6502599999999999
0
LINE
8
BLACK
6
CONTINUOUS
10
95.3409869999999984
20
0.6502599999999999
11
95.299554999999998
21
0.630871
0
LINE
8
BLACK
6
CONTINUOUS
10
95.299554999999998
20
0.630871
11
95.2537509999999941
21
0.6190019999999999
0
LINE
8
BLACK
6
CONTINUOUS
10
95.2537509999999941
20
0.6190019999999999
11
95.2026379999999932
21
0.614906
0
LINE
8
BLACK
6
CONTINUOUS
10
95.2026379999999932
20
0.614906
11
95.1523679999999956
21
0.619266
0
LINE
8
BLACK
6
CONTINUOUS
10
95.1523679999999956
20
0.619266
11
95.1069320000000005
21
0.631973
0
LINE
8
BLACK
6
CONTINUOUS
10
95.1069320000000005
20
0.631973
11
95.0653889999999961
21
0.6529159999999999
0
LINE
8
BLACK
6
CONTINUOUS
10
95.0653889999999961
20
0.6529159999999999
11
95.0286139999999904
21
0.681457
0
LINE
8
BLACK
6
CONTINUOUS
10
95.0286139999999904
20
0.681457
11
94.9978770000000026
21
0.7168319999999999
0
LINE
8
BLACK
6
CONTINUOUS
10
94.9978770000000026
20
0.7168319999999999
11
94.9728360000000009
21
0.759894
0
LINE
8
BLACK
6
CONTINUOUS
10
94.9728360000000009
20
0.759894
11
95.0521540000000016
21
0.795752
0
LINE
8
BLACK
6
CONTINUOUS
10
95.0521540000000016
20
0.795752
11
95.0688719999999989
21
0.7655689999999999
0
LINE
8
BLACK
6
CONTINUOUS
10
95.0688719999999989
20
0.7655689999999999
11
95.0893159999999966
21
0.7410709999999999
0
LINE
8
BLACK
6
CONTINUOUS
10
95.0893159999999966
20
0.7410709999999999
11
95.1136569999999892
21
0.721564
0
LINE
8
BLACK
6
CONTINUOUS
10
95.1136569999999892
20
0.721564
11
95.1413299999999964
21
0.7072069999999999
0
LINE
8
BLACK
6
CONTINUOUS
10
95.1413299999999964
20
0.7072069999999999
11
95.1714819999999975
21
0.6985239999999999
0
LINE
8
BLACK
6
CONTINUOUS
10
95.1714819999999975
20
0.6985239999999999
11
95.2047450000000026
21
0.6955519999999999
0
LINE
8
BLACK
6
CONTINUOUS
10
95.2047450000000026
20
0.6955519999999999
11
95.2380330000000015
21
0.6984119999999999
0
LINE
8
BLACK
6
CONTINUOUS
10
95.2380330000000015
20
0.6984119999999999
11
95.2681929999999966
21
0.7067559999999999
0
LINE
8
BLACK
6
CONTINUOUS
10
95.2681929999999966
20
0.7067559999999999
11
95.2958319999999901
21
0.72051
0
LINE
8
BLACK
6
CONTINUOUS
10
95.2958319999999901
20
0.72051
11
95.3204589999999996
21
0.7391789999999999
0
LINE
8
BLACK
6
CONTINUOUS
10
95.3204589999999996
20
0.7391789999999999
11
95.3412170000000003
21
0.7621009999999999
0
LINE
8
BLACK
6
CONTINUOUS
10
95.3412170000000003
20
0.7621009999999999
11
95.3583429999999908
21
0.7897529999999999
0
LINE
8
BLACK
6
CONTINUOUS
10
95.3583429999999908
20
0.7897529999999999
11
95.3705649999999991
21
0.820047
0
LINE
8
BLACK
6
CONTINUOUS
10
95.3705649999999991
20
0.820047
11
95.3781180000000006
21
0.8537439999999999
0
LINE
8
BLACK
6
CONTINUOUS
10
95.3781180000000006
20
0.8537439999999999
11
95.3807369999999963
21
0.891465
0
LINE
8
BLACK
6
CONTINUOUS
10
95.3807369999999963
20
0.891465
11
95.3781169999999889
21
0.929186
0
LINE
8
BLACK
6
CONTINUOUS
10
95.3781169999999889
20
0.929186
11
95.3705640000000017
21
0.9628669999999999
0
LINE
8
BLACK
6
CONTINUOUS
10
95.3705640000000017
20
0.9628669999999999
11
95.3583429999999908
21
0.993131
0
LINE
8
BLACK
6
CONTINUOUS
10
95.3583429999999908
20
0.993131
11
95.3412769999999909
21
1.0208889999999999
0
LINE
8
BLACK
6
CONTINUOUS
10
95.3412769999999909
20
1.0208889999999999
11
95.3208549999999946
21
1.0438159999999999
0
LINE
8
BLACK
6
CONTINUOUS
10
95.3208549999999946
20
1.0438159999999999
11
95.296884999999989
21
1.0624199999999999
0
LINE
8
BLACK
6
CONTINUOUS
10
95.296884999999989
20
1.0624199999999999
11
95.2699149999999975
21
1.0761399999999999
0
LINE
8
BLACK
6
CONTINUOUS
10
95.2699149999999975
20
1.0761399999999999
11
95.2401239999999945
21
1.0844989999999999
0
LINE
8
BLACK
6
CONTINUOUS
10
95.2401239999999945
20
1.0844989999999999
11
95.2068510000000003
21
1.087378
0
LINE
8
BLACK
6
CONTINUOUS
10
95.2068510000000003
20
1.087378
11
95.173458999999994
21
1.0846719999999999
0
LINE
8
BLACK
6
CONTINUOUS
10
95.173458999999994
20
1.0846719999999999
11
95.1434670000000011
21
1.0768219999999999
0
LINE
8
BLACK
6
CONTINUOUS
10
95.1434670000000011
20
1.0768219999999999
11
95.1162679999999909
21
1.063977
0
LINE
8
BLACK
6
CONTINUOUS
10
95.1162679999999909
20
1.063977
11
95.0919919999999905
21
1.0462909999999999
0
LINE
8
BLACK
6
CONTINUOUS
10
95.0919919999999905
20
1.0462909999999999
11
95.0717519999999894
21
1.0243629999999999
0
LINE
8
BLACK
6
CONTINUOUS
10
95.0717519999999894
20
1.0243629999999999
11
95.0552679999999981
21
0.9977109999999999
0
LINE
8
BLACK
6
CONTINUOUS
10
95.0552679999999981
20
0.9977109999999999
11
94.975995999999995
21
1.033568
0
LINE
8
BLACK
6
CONTINUOUS
10
94.975995999999995
20
1.033568
11
95.0009170000000012
21
1.0737669999999999
0
LINE
8
BLACK
6
CONTINUOUS
10
95.0009170000000012
20
1.0737669999999999
11
95.0316169999999971
21
1.1067199999999999
0
LINE
8
BLACK
6
CONTINUOUS
10
95.0316169999999971
20
1.1067199999999999
11
95.0685489999999902
21
1.1331739999999999
0
LINE
8
BLACK
6
CONTINUOUS
10
95.0685489999999902
20
1.1331739999999999
11
95.1098949999999945
21
1.1523459999999999
0
LINE
8
BLACK
6
CONTINUOUS
10
95.1098949999999945
20
1.1523459999999999
11
95.1550139999999942
21
1.164018
0
LINE
8
BLACK
6
CONTINUOUS
10
95.1550139999999942
20
1.164018
11
95.2047450000000026
21
1.168024
0
LINE
8
BLACK
6
CONTINUOUS
10
95.2047450000000026
20
1.168024
11
95.2551500000000004
21
1.1639409999999999
0
LINE
8
BLACK
6
CONTINUOUS
10
96.9938470000000024
20
1.16395
11
97.0387869999999992
21
1.152094
0
LINE
8
BLACK
6
CONTINUOUS
10
97.0387869999999992
20
1.152094
11
97.0798429999999968
21
1.1326239999999999
0
LINE
8
BLACK
6
CONTINUOUS
10
97.0798429999999968
20
1.1326239999999999
11
97.116652000000002
21
1.1060719999999999
0
LINE
8
BLACK
6
CONTINUOUS
10
97.116652000000002
20
1.1060719999999999
11
97.147476999999995
21
1.0737049999999999
0
LINE
8
BLACK
6
CONTINUOUS
10
97.147476999999995
20
1.0737049999999999
11
97.1727619999999916
21
1.034942
0
LINE
8
BLACK
6
CONTINUOUS
10
97.1727619999999916
20
1.034942
11
97.1909220000000005
21
0.9922759999999999
0
LINE
8
BLACK
6
CONTINUOUS
10
97.1909220000000005
20
0.9922759999999999
11
97.2021249999999952
21
0.9447599999999999
0
LINE
8
BLACK
6
CONTINUOUS
10
97.2021249999999952
20
0.9447599999999999
11
97.206009999999992
21
0.891465
0
LINE
8
BLACK
6
CONTINUOUS
10
97.206009999999992
20
0.891465
11
97.2020709999999895
21
0.8381949999999999
0
LINE
8
BLACK
6
CONTINUOUS
10
97.2020709999999895
20
0.8381949999999999
11
97.1907039999999967
21
0.790665
0
LINE
8
BLACK
6
CONTINUOUS
10
97.1907039999999967
20
0.790665
11
97.1722579999999994
21
0.747942
0
LINE
8
BLACK
6
CONTINUOUS
10
97.1722579999999994
20
0.747942
11
97.1466799999999893
21
0.709191
0
LINE
8
BLACK
6
CONTINUOUS
10
97.1466799999999893
20
0.709191
11
97.115667000000002
21
0.6768219999999999
0
LINE
8
BLACK
6
CONTINUOUS
10
97.115667000000002
20
0.6768219999999999
11
97.0787899999999979
21
0.6502599999999999
0
LINE
8
BLACK
6
CONTINUOUS
10
97.0787899999999979
20
0.6502599999999999
11
97.0377220000000023
21
0.630853
0
LINE
8
BLACK
6
CONTINUOUS
10
97.0377220000000023
20
0.630853
11
96.992446000000001
21
0.618993
0
LINE
8
BLACK
6
CONTINUOUS
10
96.992446000000001
20
0.618993
11
96.9420439999999957
21
0.614906
0
LINE
8
BLACK
6
CONTINUOUS
10
96.9420439999999957
20
0.614906
11
96.891649000000001
21
0.619003
0
LINE
8
BLACK
6
CONTINUOUS
10
96.891649000000001
20
0.619003
11
96.8465659999999957
21
0.6308699999999999
0
LINE
8
BLACK
6
CONTINUOUS
10
96.8465659999999957
20
0.6308699999999999
11
96.8058479999999975
21
0.6502599999999999
0
LINE
8
BLACK
6
CONTINUOUS
10
96.8058479999999975
20
0.6502599999999999
11
96.7693249999999949
21
0.67681
0
LINE
8
BLACK
6
CONTINUOUS
10
96.7693249999999949
20
0.67681
11
96.7386609999999934
21
0.709175
0
LINE
8
BLACK
6
CONTINUOUS
10
96.7386609999999934
20
0.709175
11
96.7134329999999949
21
0.747942
0
LINE
8
BLACK
6
CONTINUOUS
10
96.7134329999999949
20
0.747942
11
96.6952719999999886
21
0.7906369999999999
0
LINE
8
BLACK
6
CONTINUOUS
10
96.6952719999999886
20
0.7906369999999999
11
96.6840689999999938
21
0.8381689999999999
0
LINE
8
BLACK
6
CONTINUOUS
10
96.6840689999999938
20
0.8381689999999999
11
96.6801849999999945
21
0.891465
0
LINE
8
BLACK
6
CONTINUOUS
10
96.6801849999999945
20
0.891465
11
96.6840689999999938
21
0.9447599999999999
0
LINE
8
BLACK
6
CONTINUOUS
10
96.6840689999999938
20
0.9447599999999999
11
96.6952730000000003
21
0.9922759999999999
0
LINE
8
BLACK
6
CONTINUOUS
10
96.6952730000000003
20
0.9922759999999999
11
96.7134329999999949
21
1.034942
0
LINE
8
BLACK
6
CONTINUOUS
10
96.7134329999999949
20
1.034942
11
96.7386939999999953
21
1.0736999999999999
0
LINE
8
BLACK
6
CONTINUOUS
10
96.7386939999999953
20
1.0736999999999999
11
96.7695179999999908
21
1.1060669999999999
0
LINE
8
BLACK
6
CONTINUOUS
10
96.7695179999999908
20
1.1060669999999999
11
96.8063519999999897
21
1.1326239999999999
0
LINE
8
BLACK
6
CONTINUOUS
10
96.8063519999999897
20
1.1326239999999999
11
96.8474360000000019
21
1.1520219999999999
0
LINE
8
BLACK
6
CONTINUOUS
10
96.8474360000000019
20
1.1520219999999999
11
96.8930469999999957
21
1.163913
0
LINE
8
BLACK
6
CONTINUOUS
10
96.8930469999999957
20
1.163913
11
96.9441509999999909
21
1.168024
0
LINE
8
BLACK
6
CONTINUOUS
10
96.9441509999999909
20
1.168024
11
96.9938470000000024
21
1.16395
0
LINE
8
BLACK
6
CONTINUOUS
10
96.9101369999999918
20
1.0844879999999999
11
96.8798189999999977
21
1.076117
0
LINE
8
BLACK
6
CONTINUOUS
10
96.8798189999999977
20
1.076117
11
96.8525139999999993
21
1.0624199999999999
0
LINE
8
BLACK
6
CONTINUOUS
10
96.8525139999999993
20
1.0624199999999999
11
96.8281709999999975
21
1.043806
0
LINE
8
BLACK
6
CONTINUOUS
10
96.8281709999999975
20
1.043806
11
96.8075929999999971
21
1.0210459999999999
0
LINE
8
BLACK
6
CONTINUOUS
10
96.8075929999999971
20
1.0210459999999999
11
96.7905529999999885
21
0.9936809999999999
0
LINE
8
BLACK
6
CONTINUOUS
10
96.7905529999999885
20
0.9936809999999999
11
96.778379000000001
21
0.96373
0
LINE
8
BLACK
6
CONTINUOUS
10
96.778379000000001
20
0.96373
11
96.7708030000000008
21
0.929894
0
LINE
8
BLACK
6
CONTINUOUS
10
96.7708030000000008
20
0.929894
11
96.7681589999999971
21
0.891465
0
LINE
8
BLACK
6
CONTINUOUS
10
96.7681589999999971
20
0.891465
11
96.7708080000000024
21
0.853038
0
LINE
8
BLACK
6
CONTINUOUS
10
96.7708080000000024
20
0.853038
11
96.7783989999999932
21
0.819203
0
LINE
8
BLACK
6
CONTINUOUS
10
96.7783989999999932
20
0.819203
11
96.7905979999999886
21
0.789249
0
LINE
8
BLACK
6
CONTINUOUS
10
96.7905979999999886
20
0.789249
11
96.8075749999999999
21
0.7618079999999999
0
LINE
8
BLACK
6
CONTINUOUS
10
96.8075749999999999
20
0.7618079999999999
11
96.8278179999999935
21
0.7390559999999999
0
LINE
8
BLACK
6
CONTINUOUS
10
96.8278179999999935
20
0.7390559999999999
11
96.8515060000000005
21
0.72051
0
LINE
8
BLACK
6
CONTINUOUS
10
96.8515060000000005
20
0.72051
11
96.8781439999999918
21
0.706846
0
LINE
8
BLACK
6
CONTINUOUS
10
96.8781439999999918
20
0.706846
11
96.9080749999999966
21
0.698461
0
LINE
8
BLACK
6
CONTINUOUS
10
96.9080749999999966
20
0.698461
11
96.9420439999999957
21
0.6955519999999999
0
LINE
8
BLACK
6
CONTINUOUS
10
96.9420439999999957
20
0.6955519999999999
11
96.975332999999992
21
0.6984119999999999
0
LINE
8
BLACK
6
CONTINUOUS
10
96.975332999999992
20
0.6984119999999999
11
97.0054930000000013
21
0.7067559999999999
0
LINE
8
BLACK
6
CONTINUOUS
10
97.0054930000000013
20
0.7067559999999999
11
97.0331309999999974
21
0.72051
0
LINE
8
BLACK
6
CONTINUOUS
10
97.0331309999999974
20
0.72051
11
97.0577589999999901
21
0.7391789999999999
0
LINE
8
BLACK
6
CONTINUOUS
10
97.0577589999999901
20
0.7391789999999999
11
97.0785159999999934
21
0.7621009999999999
0
LINE
8
BLACK
6
CONTINUOUS
10
97.0785159999999934
20
0.7621009999999999
11
97.095641999999998
21
0.7897529999999999
0
LINE
8
BLACK
6
CONTINUOUS
10
97.095641999999998
20
0.7897529999999999
11
97.1078639999999922
21
0.820047
0
LINE
8
BLACK
6
CONTINUOUS
10
97.1078639999999922
20
0.820047
11
97.1154169999999937
21
0.8537439999999999
0
LINE
8
BLACK
6
CONTINUOUS
10
97.1154169999999937
20
0.8537439999999999
11
97.1180359999999894
21
0.891465
0
LINE
8
BLACK
6
CONTINUOUS
10
97.1180359999999894
20
0.891465
11
97.1153919999999999
21
0.929894
0
LINE
8
BLACK
6
CONTINUOUS
10
97.1153919999999999
20
0.929894
11
97.1078159999999997
21
0.96373
0
LINE
8
BLACK
6
CONTINUOUS
10
97.1078159999999997
20
0.96373
11
97.095641999999998
21
0.9936809999999999
0
LINE
8
BLACK
6
CONTINUOUS
10
97.095641999999998
20
0.9936809999999999
11
97.0786080000000027
21
1.0210869999999999
0
LINE
8
BLACK
6
CONTINUOUS
10
97.0786080000000027
20
1.0210869999999999
11
97.0581899999999962
21
1.0438429999999999
0
LINE
8
BLACK
6
CONTINUOUS
10
97.0581899999999962
20
1.0438429999999999
11
97.0341849999999937
21
1.0624199999999999
0
LINE
8
BLACK
6
CONTINUOUS
10
97.0341849999999937
20
1.0624199999999999
11
97.0072139999999905
21
1.0761399999999999
0
LINE
8
BLACK
6
CONTINUOUS
10
97.0072139999999905
20
1.0761399999999999
11
96.9774230000000017
21
1.0844989999999999
0
LINE
8
BLACK
6
CONTINUOUS
10
96.9774230000000017
20
1.0844989999999999
11
96.9441509999999909
21
1.087378
0
LINE
8
BLACK
6
CONTINUOUS
10
96.9441509999999909
20
1.087378
11
96.9101369999999918
21
1.0844879999999999
0
LINE
8
BLACK
6
CONTINUOUS
10
97.6368999999999971
20
0.883497
11
97.6417099999999891
21
0.825121
0
LINE
8
BLACK
6
CONTINUOUS
10
97.6417099999999891
20
0.825121
11
97.6547889999999938
21
0.780053
0
LINE
8
BLACK
6
CONTINUOUS
10
97.6547889999999938
20
0.780053
11
97.6748639999999995
21
0.7454229999999999
0
LINE
8
BLACK
6
CONTINUOUS
10
97.6748639999999995
20
0.7454229999999999
11
97.6956039999999888
21
0.724117
0
LINE
8
BLACK
6
CONTINUOUS
10
97.6956039999999888
20
0.724117
11
97.7196050000000014
21
0.709059
0
LINE
8
BLACK
6
CONTINUOUS
10
97.7196050000000014
20
0.709059
11
97.7475129999999979
21
0.6998019999999999
0
LINE
8
BLACK
6
CONTINUOUS
10
97.7475129999999979
20
0.6998019999999999
11
97.7803309999999897
21
0.6965589999999999
0
LINE
8
BLACK
6
CONTINUOUS
10
97.7803309999999897
20
0.6965589999999999
11
97.8184869999999904
21
0.7004309999999999
0
LINE
8
BLACK
6
CONTINUOUS
10
97.8184869999999904
20
0.7004309999999999
11
97.8515429999999924
21
0.71158
0
LINE
8
BLACK
6
CONTINUOUS
10
97.8515429999999924
20
0.71158
11
97.8704259999999948
21
0.723903
0
LINE
8
BLACK
6
CONTINUOUS
10
97.8704259999999948
20
0.723903
11
97.8868310000000008
21
0.7420439999999999
0
LINE
8
BLACK
6
CONTINUOUS
10
97.8868310000000008
20
0.7420439999999999
11
97.900864999999996
21
0.767222
0
LINE
8
BLACK
6
CONTINUOUS
10
97.900864999999996
20
0.767222
11
97.9098769999999945
21
0.794994
0
LINE
8
BLACK
6
CONTINUOUS
10
97.9098769999999945
20
0.794994
11
97.9161489999999901
21
0.833792
0
LINE
8
BLACK
6
CONTINUOUS
10
97.9161489999999901
20
0.833792
11
97.9185420000000022
21
0.8866109999999999
0
LINE
8
BLACK
6
CONTINUOUS
10
97.9185420000000022
20
0.8866109999999999
11
97.9185420000000022
21
1.15543
0
LINE
8
BLACK
6
CONTINUOUS
10
97.9185420000000022
20
1.15543
11
98.0054619999999943
21
1.15543
0
LINE
8
BLACK
6
CONTINUOUS
10
98.0054619999999943
20
1.15543
11
98.0054619999999943
21
0.8866109999999999
0
LINE
8
BLACK
6
CONTINUOUS
10
98.0054619999999943
20
0.8866109999999999
11
98.0054619999999943
21
0.859958
0
LINE
8
BLACK
6
CONTINUOUS
10
98.0054619999999943
20
0.859958
11
98.0022620000000018
21
0.8026099999999999
0
LINE
8
BLACK
6
CONTINUOUS
10
98.0022620000000018
20
0.8026099999999999
11
97.9934820000000002
21
0.756285
0
LINE
8
BLACK
6
CONTINUOUS
10
97.9934820000000002
20
0.756285
11
97.9800919999999991
21
0.7190909999999999
0
LINE
8
BLACK
6
CONTINUOUS
10
97.9800919999999991
20
0.7190909999999999
11
97.9602679999999992
21
0.685319
0
LINE
8
BLACK
6
CONTINUOUS
10
97.9602679999999992
20
0.685319
11
97.9363689999999991
21
0.6592249999999999
0
LINE
8
BLACK
6
CONTINUOUS
10
97.9363689999999991
20
0.6592249999999999
11
97.9081469999999996
21
0.6397729999999999
0
LINE
8
BLACK
6
CONTINUOUS
10
97.9081469999999996
20
0.6397729999999999
11
97.8762349999999941
21
0.626208
0
LINE
8
BLACK
6
CONTINUOUS
10
97.8762349999999941
20
0.626208
11
97.840525999999997
21
0.6178199999999999
0
LINE
8
BLACK
6
CONTINUOUS
10
97.840525999999997
20
0.6178199999999999
11
97.800297999999998
21
0.614906
0
LINE
8
BLACK
6
CONTINUOUS
10
97.800297999999998
20
0.614906
11
97.7568859999999944
21
0.618667
0
LINE
8
BLACK
6
CONTINUOUS
10
97.7568859999999944
20
0.618667
11
97.7197379999999924
21
0.6293799999999999
0
LINE
8
BLACK
6
CONTINUOUS
10
97.7197379999999924
20
0.6293799999999999
11
97.6876869999999968
21
0.6466419999999999
0
LINE
8
BLACK
6
CONTINUOUS
10
97.6876869999999968
20
0.6466419999999999
11
97.6599549999999965
21
0.670393
0
LINE
8
BLACK
6
CONTINUOUS
10
97.6599549999999965
20
0.670393
11
97.6365369999999899
21
0.700697
0
LINE
8
BLACK
6
CONTINUOUS
10
97.6365369999999899
20
0.700697
11
97.6356499999999983
21
0.7024469999999999
0
LINE
8
BLACK
6
CONTINUOUS
10
97.6356499999999983
20
0.7024469999999999
11
97.6315879999999936
21
0.6274999999999999
0
LINE
8
BLACK
6
CONTINUOUS
10
97.6315879999999936
20
0.6274999999999999
11
97.5499799999999908
21
0.6274999999999999
0
LINE
8
BLACK
6
CONTINUOUS
10
97.5499799999999908
20
0.6274999999999999
11
97.5499799999999908
21
1.15543
0
LINE
8
BLACK
6
CONTINUOUS
10
97.5499799999999908
20
1.15543
11
97.6368999999999971
21
1.15543
0
LINE
8
BLACK
6
CONTINUOUS
10
97.6368999999999971
20
1.15543
11
97.6368999999999971
21
0.883497
0
LINE
8
BLACK
6
CONTINUOUS
10
99.1441209999999984
20
1.374846
11
99.1926720000000017
21
1.3655469999999998
0
LINE
8
BLACK
6
CONTINUOUS
10
99.1926720000000017
20
1.3655469999999998
11
99.2373959999999897
21
1.350417
0
LINE
8
BLACK
6
CONTINUOUS
10
99.2373959999999897
20
1.350417
11
99.2788070000000005
21
1.329499
0
LINE
8
BLACK
6
CONTINUOUS
10
99.2788070000000005
20
1.329499
11
99.3289099999999934
21
1.2930969999999999
0
LINE
8
BLACK
6
CONTINUOUS
10
99.3289099999999934
20
1.2930969999999999
11
99.371067999999994
21
1.248572
0
LINE
8
BLACK
6
CONTINUOUS
10
99.371067999999994
20
1.248572
11
99.4058440000000019
21
1.1950889999999998
0
LINE
8
BLACK
6
CONTINUOUS
10
99.4058440000000019
20
1.1950889999999998
11
99.4308599999999956
21
1.1362289999999999
0
LINE
8
BLACK
6
CONTINUOUS
10
99.4308599999999956
20
1.1362289999999999
11
99.4463179999999909
21
1.070462
0
LINE
8
BLACK
6
CONTINUOUS
10
99.4463179999999909
20
1.070462
11
99.4516849999999977
21
0.996474
0
LINE
8
BLACK
6
CONTINUOUS
10
99.4516849999999977
20
0.996474
11
99.4462889999999931
21
0.923184
0
LINE
8
BLACK
6
CONTINUOUS
10
99.4462889999999931
20
0.923184
11
99.430689000000001
21
0.8575459999999999
0
LINE
8
BLACK
6
CONTINUOUS
10
99.430689000000001
20
0.8575459999999999
11
99.4053399999999954
21
0.7983169999999999
0
LINE
8
BLACK
6
CONTINUOUS
10
99.4053399999999954
20
0.7983169999999999
11
99.3701519999999903
21
0.74457
0
LINE
8
BLACK
6
CONTINUOUS
10
99.3701519999999903
20
0.74457
11
99.3274679999999961
21
0.699878
0
LINE
8
BLACK
6
CONTINUOUS
10
99.3274679999999961
20
0.699878
11
99.2766999999999911
21
0.663403
0
LINE
8
BLACK
6
CONTINUOUS
10
99.2766999999999911
20
0.663403
11
99.2347619999999893
21
0.642475
0
LINE
8
BLACK
6
CONTINUOUS
10
99.2347619999999893
20
0.642475
11
99.1896720000000016
21
0.6273609999999999
0
LINE
8
BLACK
6
CONTINUOUS
10
99.1896720000000016
20
0.6273609999999999
11
99.1409359999999964
21
0.618088
0
LINE
8
BLACK
6
CONTINUOUS
10
99.1409359999999964
20
0.618088
11
99.0879769999999951
21
0.614906
0
LINE
8
BLACK
6
CONTINUOUS
10
99.0879769999999951
20
0.614906
11
99.0355419999999924
21
0.6180939999999999
0
LINE
8
BLACK
6
CONTINUOUS
10
99.0355419999999924
20
0.6180939999999999
11
98.9874360000000024
21
0.627375
0
LINE
8
BLACK
6
CONTINUOUS
10
98.9874360000000024
20
0.627375
11
98.9430610000000001
21
0.6424879999999999
0
LINE
8
BLACK
6
CONTINUOUS
10
98.9430610000000001
20
0.6424879999999999
11
98.9019100000000009
21
0.663403
0
LINE
8
BLACK
6
CONTINUOUS
10
98.9019100000000009
20
0.663403
11
98.8521939999999972
21
0.699819
0
LINE
8
BLACK
6
CONTINUOUS
10
98.8521939999999972
20
0.699819
11
98.8103809999999925
21
0.744497
0
LINE
8
BLACK
6
CONTINUOUS
10
98.8103809999999925
20
0.744497
11
98.7759259999999983
21
0.7983169999999999
0
LINE
8
BLACK
6
CONTINUOUS
10
98.7759259999999983
20
0.7983169999999999
11
98.7511459999999914
21
0.85749
0
LINE
8
BLACK
6
CONTINUOUS
10
98.7511459999999914
20
0.85749
11
98.735874999999993
21
0.923134
0
LINE
8
BLACK
6
CONTINUOUS
10
98.735874999999993
20
0.923134
11
98.7305889999999948
21
0.996474
0
LINE
8
BLACK
6
CONTINUOUS
10
98.7305889999999948
20
0.996474
11
98.7358839999999987
21
1.06978
0
LINE
8
BLACK
6
CONTINUOUS
10
98.7358839999999987
20
1.06978
11
98.7511619999999937
21
1.1352149999999999
0
LINE
8
BLACK
6
CONTINUOUS
10
98.7511619999999937
20
1.1352149999999999
11
98.7759259999999983
21
1.1940359999999999
0
LINE
8
BLACK
6
CONTINUOUS
10
98.7759259999999983
20
1.1940359999999999
11
98.8103909999999956
21
1.2474969999999999
0
LINE
8
BLACK
6
CONTINUOUS
10
98.8103909999999956
20
1.2474969999999999
11
98.8525339999999915
21
1.2922169999999999
0
LINE
8
BLACK
6
CONTINUOUS
10
98.8525339999999915
20
1.2922169999999999
11
98.9029629999999997
21
1.3289949999999999
0
LINE
8
BLACK
6
CONTINUOUS
10
98.9029629999999997
20
1.3289949999999999
11
98.9446530000000024
21
1.3501559999999999
0
LINE
8
BLACK
6
CONTINUOUS
10
98.9446530000000024
20
1.3501559999999999
11
98.9895580000000024
21
1.36544
0
LINE
8
BLACK
6
CONTINUOUS
10
98.9895580000000024
20
1.36544
11
99.0381869999999935
21
1.3748209999999998
0
LINE
8
BLACK
6
CONTINUOUS
10
99.0381869999999935
20
1.3748209999999998
11
99.0911369999999891
21
1.3780429999999999
0
LINE
8
BLACK
6
CONTINUOUS
10
99.0911369999999891
20
1.3780429999999999
11
99.1441209999999984
21
1.374846
0
LINE
8
BLACK
6
CONTINUOUS
10
99.0393159999999995
20
1.28982
11
98.9932009999999991
21
1.277039
0
LINE
8
BLACK
6
CONTINUOUS
10
98.9932009999999991
20
1.277039
11
98.9517349999999993
21
1.256135
0
LINE
8
BLACK
6
CONTINUOUS
10
98.9517349999999993
20
1.256135
11
98.9148469999999946
21
1.2277549999999999
0
LINE
8
BLACK
6
CONTINUOUS
10
98.9148469999999946
20
1.2277549999999999
11
98.8834579999999903
21
1.1928479999999999
0
LINE
8
BLACK
6
CONTINUOUS
10
98.8834579999999903
20
1.1928479999999999
11
98.8572589999999991
21
1.150668
0
LINE
8
BLACK
6
CONTINUOUS
10
98.8572589999999991
20
1.150668
11
98.8383910000000014
21
1.1045799999999999
0
LINE
8
BLACK
6
CONTINUOUS
10
98.8383910000000014
20
1.1045799999999999
11
98.8267570000000006
21
1.0534919999999999
0
LINE
8
BLACK
6
CONTINUOUS
10
98.8267570000000006
20
1.0534919999999999
11
98.8227289999999954
21
0.996474
0
LINE
8
BLACK
6
CONTINUOUS
10
98.8227289999999954
20
0.996474
11
98.826720999999992
21
0.938723
0
LINE
8
BLACK
6
CONTINUOUS
10
98.826720999999992
20
0.938723
11
98.8381979999999913
21
0.8874759999999999
0
LINE
8
BLACK
6
CONTINUOUS
10
98.8381979999999913
20
0.8874759999999999
11
98.8567099999999925
21
0.841731
0
LINE
8
BLACK
6
CONTINUOUS
10
98.8567099999999925
20
0.841731
11
98.8825489999999974
21
0.799879
0
LINE
8
BLACK
6
CONTINUOUS
10
98.8825489999999974
20
0.799879
11
98.9136019999999974
21
0.765133
0
LINE
8
BLACK
6
CONTINUOUS
10
98.9136019999999974
20
0.765133
11
98.950177999999994
21
0.736768
0
LINE
8
BLACK
6
CONTINUOUS
10
98.950177999999994
20
0.736768
11
98.9913090000000011
21
0.7158399999999999
0
LINE
8
BLACK
6
CONTINUOUS
10
98.9913090000000011
20
0.7158399999999999
11
99.0368979999999937
21
0.703071
0
LINE
8
BLACK
6
CONTINUOUS
10
99.0368979999999937
20
0.703071
11
99.0879769999999951
21
0.698666
0
LINE
8
BLACK
6
CONTINUOUS
10
99.0879769999999951
20
0.698666
11
99.1398200000000003
21
0.7030529999999999
0
LINE
8
BLACK
6
CONTINUOUS
10
99.1398200000000003
20
0.7030529999999999
11
99.1864980000000003
21
0.715811
0
LINE
8
BLACK
6
CONTINUOUS
10
99.1864980000000003
20
0.715811
11
99.228982000000002
21
0.736768
0
LINE
8
BLACK
6
CONTINUOUS
10
99.228982000000002
20
0.736768
11
99.2669080000000008
21
0.765277
0
LINE
8
BLACK
6
CONTINUOUS
10
99.2669080000000008
20
0.765277
11
99.2988019999999949
21
0.800056
0
LINE
8
BLACK
6
CONTINUOUS
10
99.2988019999999949
20
0.800056
11
99.3250609999999909
21
0.841777
0
LINE
8
BLACK
6
CONTINUOUS
10
99.3250609999999909
20
0.841777
11
99.343828000000002
21
0.887517
0
LINE
8
BLACK
6
CONTINUOUS
10
99.343828000000002
20
0.887517
11
99.3554559999999896
21
0.938746
0
LINE
8
BLACK
6
CONTINUOUS
10
99.3554559999999896
20
0.938746
11
99.3594989999999996
21
0.996474
0
LINE
8
BLACK
6
CONTINUOUS
10
99.3594989999999996
20
0.996474
11
99.3554809999999975
21
1.053496
0
LINE
8
BLACK
6
CONTINUOUS
10
99.3554809999999975
20
1.053496
11
99.343876999999992
21
1.1045849999999999
0
LINE
8
BLACK
6
CONTINUOUS
10
99.343876999999992
20
1.1045849999999999
11
99.3250609999999909
21
1.150668
0
LINE
8
BLACK
6
CONTINUOUS
10
99.3250609999999909
20
1.150668
11
99.2988289999999978
21
1.1928079999999999
0
LINE
8
BLACK
6
CONTINUOUS
10
99.2988289999999978
20
1.1928079999999999
11
99.2672649999999948
21
1.227719
0
LINE
8
BLACK
6
CONTINUOUS
10
99.2672649999999948
20
1.227719
11
99.2300350000000009
21
1.256135
0
LINE
8
BLACK
6
CONTINUOUS
10
99.2300350000000009
20
1.256135
11
99.1882349999999917
21
1.2770949999999999
0
LINE
8
BLACK
6
CONTINUOUS
10
99.1882349999999917
20
1.2770949999999999
11
99.1422620000000023
21
1.2898499999999999
0
LINE
8
BLACK
6
CONTINUOUS
10
99.1422620000000023
20
1.2898499999999999
11
99.0911369999999891
21
1.2942369999999999
0
LINE
8
BLACK
6
CONTINUOUS
10
99.0911369999999891
20
1.2942369999999999
11
99.0393159999999995
21
1.28982
0
LINE
8
BLACK
6
CONTINUOUS
10
95.816125999999997
20
1.164288
11
95.853155000000001
21
1.153586
0
LINE
8
BLACK
6
CONTINUOUS
10
95.853155000000001
20
1.153586
11
95.8855409999999893
21
1.136242
0
LINE
8
BLACK
6
CONTINUOUS
10
95.8855409999999893
20
1.136242
11
95.9135559999999998
21
1.112487
0
LINE
8
BLACK
6
CONTINUOUS
10
95.9135559999999998
20
1.112487
11
95.9371359999999953
21
1.082195
0
LINE
8
BLACK
6
CONTINUOUS
10
95.9371359999999953
20
1.082195
11
95.9380329999999901
21
1.08043
0
LINE
8
BLACK
6
CONTINUOUS
10
95.9380329999999901
20
1.08043
11
95.9420989999999989
21
1.15543
0
LINE
8
BLACK
6
CONTINUOUS
10
95.9420989999999989
20
1.15543
11
96.02370599999999
21
1.15543
0
LINE
8
BLACK
6
CONTINUOUS
10
96.02370599999999
20
1.15543
11
96.02370599999999
21
0.6274999999999999
0
LINE
8
BLACK
6
CONTINUOUS
10
96.02370599999999
20
0.6274999999999999
11
95.9367859999999979
21
0.6274999999999999
0
LINE
8
BLACK
6
CONTINUOUS
10
95.9367859999999979
20
0.6274999999999999
11
95.9367859999999979
21
0.8994329999999999
0
LINE
8
BLACK
6
CONTINUOUS
10
95.9367859999999979
20
0.8994329999999999
11
95.9319440000000014
21
0.958534
0
LINE
8
BLACK
6
CONTINUOUS
10
95.9319440000000014
20
0.958534
11
95.9188389999999913
21
1.003706
0
LINE
8
BLACK
6
CONTINUOUS
10
95.9188389999999913
20
1.003706
11
95.8988219999999956
21
1.038011
0
LINE
8
BLACK
6
CONTINUOUS
10
95.8988219999999956
20
1.038011
11
95.8781180000000006
21
1.059016
0
LINE
8
BLACK
6
CONTINUOUS
10
95.8781180000000006
20
1.059016
11
95.8539789999999954
21
1.073928
0
LINE
8
BLACK
6
CONTINUOUS
10
95.8539789999999954
20
1.073928
11
95.8257199999999898
21
1.083135
0
LINE
8
BLACK
6
CONTINUOUS
10
95.8257199999999898
20
1.083135
11
95.7923009999999948
21
1.086371
0
LINE
8
BLACK
6
CONTINUOUS
10
95.7923009999999948
20
1.086371
11
95.7542589999999905
21
1.082476
0
LINE
8
BLACK
6
CONTINUOUS
10
95.7542589999999905
20
1.082476
11
95.7216389999999961
21
1.071304
0
LINE
8
BLACK
6
CONTINUOUS
10
95.7216389999999961
20
1.071304
11
95.7030749999999983
21
1.059042
0
LINE
8
BLACK
6
CONTINUOUS
10
95.7030749999999983
20
1.059042
11
95.6868479999999977
21
1.0409279999999999
0
LINE
8
BLACK
6
CONTINUOUS
10
95.6868479999999977
20
1.0409279999999999
11
95.6728669999999966
21
1.0157080000000001
0
LINE
8
BLACK
6
CONTINUOUS
10
95.6728669999999966
20
1.0157080000000001
11
95.6638310000000018
21
0.987933
0
LINE
8
BLACK
6
CONTINUOUS
10
95.6638310000000018
20
0.987933
11
95.6575429999999898
21
0.949135
0
LINE
8
BLACK
6
CONTINUOUS
10
95.6575429999999898
20
0.949135
11
95.6551439999999928
21
0.896319
0
LINE
8
BLACK
6
CONTINUOUS
10
95.6551439999999928
20
0.896319
11
95.6551439999999928
21
0.6274999999999999
0
LINE
8
BLACK
6
CONTINUOUS
10
95.6551439999999928
20
0.6274999999999999
11
95.5682240000000007
21
0.6274999999999999
0
LINE
8
BLACK
6
CONTINUOUS
10
95.5682240000000007
20
0.6274999999999999
11
95.5682240000000007
21
0.896319
0
LINE
8
BLACK
6
CONTINUOUS
10
95.5682240000000007
20
0.896319
11
95.5682240000000007
21
0.9229719999999999
0
LINE
8
BLACK
6
CONTINUOUS
10
95.5682240000000007
20
0.9229719999999999
11
95.5708959999999905
21
0.981026
0
LINE
8
BLACK
6
CONTINUOUS
10
95.5708959999999905
20
0.981026
11
95.5795459999999935
21
1.0274539999999999
0
LINE
8
BLACK
6
CONTINUOUS
10
95.5795459999999935
20
1.0274539999999999
11
95.5930910000000011
21
1.064343
0
LINE
8
BLACK
6
CONTINUOUS
10
95.5930910000000011
20
1.064343
11
95.6131769999999932
21
1.0978489999999999
0
LINE
8
BLACK
6
CONTINUOUS
10
95.6131769999999932
20
1.0978489999999999
11
95.6370840000000015
21
1.1237839999999999
0
LINE
8
BLACK
6
CONTINUOUS
10
95.6370840000000015
20
1.1237839999999999
11
95.6650360000000006
21
1.143157
0
LINE
8
BLACK
6
CONTINUOUS
10
95.6650360000000006
20
1.143157
11
95.6966070000000002
21
1.1566719999999999
0
LINE
8
BLACK
6
CONTINUOUS
10
95.6966070000000002
20
1.1566719999999999
11
95.7324529999999925
21
1.165084
0
LINE
8
BLACK
6
CONTINUOUS
10
95.7324529999999925
20
1.165084
11
95.7733879999999971
21
1.168024
0
LINE
8
BLACK
6
CONTINUOUS
10
95.7733879999999971
20
1.168024
11
95.816125999999997
21
1.164288
0
LINE
8
BLACK
6
CONTINUOUS
10
96.2838709999999907
20
0.6274999999999999
11
96.1916839999999951
21
0.6274999999999999
0
LINE
8
BLACK
6
CONTINUOUS
10
96.1916839999999951
20
0.6274999999999999
11
96.1916839999999951
21
1.3654489999999999
0
LINE
8
BLACK
6
CONTINUOUS
10
96.1916839999999951
20
1.3654489999999999
11
96.2838709999999907
21
1.3654489999999999
0
LINE
8
BLACK
6
CONTINUOUS
10
96.2838709999999907
20
1.3654489999999999
11
96.2838709999999907
21
0.6274999999999999
0
LINE
8
BLACK
6
CONTINUOUS
10
97.4063649999999939
20
0.6274999999999999
11
97.3194450000000018
21
0.6274999999999999
0
LINE
8
BLACK
6
CONTINUOUS
10
97.3194450000000018
20
0.6274999999999999
11
97.3194450000000018
21
1.3654489999999999
0
LINE
8
BLACK
6
CONTINUOUS
10
97.3194450000000018
20
1.3654489999999999
11
97.4063649999999939
21
1.3654489999999999
0
LINE
8
BLACK
6
CONTINUOUS
10
97.4063649999999939
20
1.3654489999999999
11
97.4063649999999939
21
0.6274999999999999
0
LINE
8
BLACK
6
CONTINUOUS
10
43.8447669999999974
20
3.4496919999999998
11
43.9418700000000015
21
3.4310939999999999
0
LINE
8
BLACK
6
CONTINUOUS
10
43.9418700000000015
20
3.4310939999999999
11
44.0313170000000014
21
3.4008349999999998
0
LINE
8
BLACK
6
CONTINUOUS
10
44.0313170000000014
20
3.4008349999999998
11
44.1141390000000015
21
3.3589989999999998
0
LINE
8
BLACK
6
CONTINUOUS
10
44.1141390000000015
20
3.3589989999999998
11
44.2143449999999945
21
3.2861949999999998
0
LINE
8
BLACK
6
CONTINUOUS
10
44.2143449999999945
20
3.2861949999999998
11
44.2986609999999956
21
3.1971439999999998
0
LINE
8
BLACK
6
CONTINUOUS
10
44.2986609999999956
20
3.1971439999999998
11
44.3682129999999972
21
3.090179
0
LINE
8
BLACK
6
CONTINUOUS
10
44.3682129999999972
20
3.090179
11
44.4182449999999989
21
2.972458
0
LINE
8
BLACK
6
CONTINUOUS
10
44.4182449999999989
20
2.972458
11
44.4491620000000012
21
2.8409249999999999
0
LINE
8
BLACK
6
CONTINUOUS
10
44.4491620000000012
20
2.8409249999999999
11
44.4598960000000005
21
2.692949
0
LINE
8
BLACK
6
CONTINUOUS
10
44.4598960000000005
20
2.692949
11
44.4491030000000009
21
2.5463679999999997
0
LINE
8
BLACK
6
CONTINUOUS
10
44.4491030000000009
20
2.5463679999999997
11
44.4179040000000001
21
2.4150929999999997
0
LINE
8
BLACK
6
CONTINUOUS
10
44.4179040000000001
20
2.4150929999999997
11
44.3672059999999959
21
2.2966340000000001
0
LINE
8
BLACK
6
CONTINUOUS
10
44.3672059999999959
20
2.2966340000000001
11
44.2968289999999953
21
2.1891400000000001
0
LINE
8
BLACK
6
CONTINUOUS
10
44.2968289999999953
20
2.1891400000000001
11
44.2114609999999999
21
2.0997559999999997
0
LINE
8
BLACK
6
CONTINUOUS
10
44.2114609999999999
20
2.0997559999999997
11
44.1099260000000015
21
2.0268069999999998
0
LINE
8
BLACK
6
CONTINUOUS
10
44.1099260000000015
20
2.0268069999999998
11
44.0260499999999979
21
1.98495
0
LINE
8
BLACK
6
CONTINUOUS
10
44.0260499999999979
20
1.98495
11
43.9358689999999967
21
1.9547219999999998
0
LINE
8
BLACK
6
CONTINUOUS
10
43.9358689999999967
20
1.9547219999999998
11
43.838397999999998
21
1.9361759999999999
0
LINE
8
BLACK
6
CONTINUOUS
10
43.838397999999998
20
1.9361759999999999
11
43.7324789999999979
21
1.9298119999999999
0
LINE
8
BLACK
6
CONTINUOUS
10
43.7324789999999979
20
1.9298119999999999
11
43.6276099999999971
21
1.9361889999999999
0
LINE
8
BLACK
6
CONTINUOUS
10
43.6276099999999971
20
1.9361889999999999
11
43.5313969999999983
21
1.9547509999999999
0
LINE
8
BLACK
6
CONTINUOUS
10
43.5313969999999983
20
1.9547509999999999
11
43.4426470000000009
21
1.984977
0
LINE
8
BLACK
6
CONTINUOUS
10
43.4426470000000009
20
1.984977
11
43.3603449999999953
21
2.0268069999999998
0
LINE
8
BLACK
6
CONTINUOUS
10
43.3603449999999953
20
2.0268069999999998
11
43.2609139999999996
21
2.0996380000000001
0
LINE
8
BLACK
6
CONTINUOUS
10
43.2609139999999996
20
2.0996380000000001
11
43.1772869999999998
21
2.1889949999999998
0
LINE
8
BLACK
6
CONTINUOUS
10
43.1772869999999998
20
2.1889949999999998
11
43.1083779999999948
21
2.2966340000000001
0
LINE
8
BLACK
6
CONTINUOUS
10
43.1083779999999948
20
2.2966340000000001
11
43.0588179999999952
21
2.414981
0
LINE
8
BLACK
6
CONTINUOUS
10
43.0588179999999952
20
2.414981
11
43.0282759999999982
21
2.546268
0
LINE
8
BLACK
6
CONTINUOUS
10
43.0282759999999982
20
2.546268
11
43.0177029999999974
21
2.692949
0
LINE
8
BLACK
6
CONTINUOUS
10
43.0177029999999974
20
2.692949
11
43.0282929999999979
21
2.8395600000000001
0
LINE
8
BLACK
6
CONTINUOUS
10
43.0282929999999979
20
2.8395600000000001
11
43.058848999999995
21
2.970431
0
LINE
8
BLACK
6
CONTINUOUS
10
43.058848999999995
20
2.970431
11
43.1083779999999948
21
3.0880730000000001
0
LINE
8
BLACK
6
CONTINUOUS
10
43.1083779999999948
20
3.0880730000000001
11
43.1773079999999965
21
3.1949939999999999
0
LINE
8
BLACK
6
CONTINUOUS
10
43.1773079999999965
20
3.1949939999999999
11
43.2615929999999977
21
3.2844339999999996
0
LINE
8
BLACK
6
CONTINUOUS
10
43.2615929999999977
20
3.2844339999999996
11
43.3624519999999976
21
3.3579909999999997
0
LINE
8
BLACK
6
CONTINUOUS
10
43.3624519999999976
20
3.3579909999999997
11
43.4458309999999983
21
3.4003129999999997
0
LINE
8
BLACK
6
CONTINUOUS
10
43.4458309999999983
20
3.4003129999999997
11
43.5356419999999957
21
3.4308799999999997
0
LINE
8
BLACK
6
CONTINUOUS
10
43.5356419999999957
20
3.4308799999999997
11
43.6328999999999994
21
3.4496419999999999
0
LINE
8
BLACK
6
CONTINUOUS
10
43.6328999999999994
20
3.4496419999999999
11
43.7387990000000002
21
3.456086
0
LINE
8
BLACK
6
CONTINUOUS
10
43.7387990000000002
20
3.456086
11
43.8447669999999974
21
3.4496919999999998
0
LINE
8
BLACK
6
CONTINUOUS
10
43.635157999999997
20
3.2796409999999998
11
43.5429279999999963
21
3.2540789999999999
0
LINE
8
BLACK
6
CONTINUOUS
10
43.5429279999999963
20
3.2540789999999999
11
43.4599959999999967
21
3.2122699999999997
0
LINE
8
BLACK
6
CONTINUOUS
10
43.4599959999999967
20
3.2122699999999997
11
43.386218999999997
21
3.15551
0
LINE
8
BLACK
6
CONTINUOUS
10
43.386218999999997
20
3.15551
11
43.323439999999998
21
3.085696
0
LINE
8
BLACK
6
CONTINUOUS
10
43.323439999999998
20
3.085696
11
43.2710439999999963
21
3.0013359999999998
0
LINE
8
BLACK
6
CONTINUOUS
10
43.2710439999999963
20
3.0013359999999998
11
43.233308000000001
21
2.9091609999999997
0
LINE
8
BLACK
6
CONTINUOUS
10
43.233308000000001
20
2.9091609999999997
11
43.2100389999999948
21
2.8069839999999999
0
LINE
8
BLACK
6
CONTINUOUS
10
43.2100389999999948
20
2.8069839999999999
11
43.2019839999999959
21
2.692949
0
LINE
8
BLACK
6
CONTINUOUS
10
43.2019839999999959
20
2.692949
11
43.2099669999999989
21
2.5774459999999997
0
LINE
8
BLACK
6
CONTINUOUS
10
43.2099669999999989
20
2.5774459999999997
11
43.2329209999999975
21
2.474952
0
LINE
8
BLACK
6
CONTINUOUS
10
43.2329209999999975
20
2.474952
11
43.2699449999999999
21
2.3834629999999999
0
LINE
8
BLACK
6
CONTINUOUS
10
43.2699449999999999
20
2.3834629999999999
11
43.3216229999999953
21
2.2997589999999999
0
LINE
8
BLACK
6
CONTINUOUS
10
43.3216229999999953
20
2.2997589999999999
11
43.3837279999999978
21
2.2302659999999999
0
LINE
8
BLACK
6
CONTINUOUS
10
43.3837279999999978
20
2.2302659999999999
11
43.4568820000000002
21
2.1735359999999999
0
LINE
8
BLACK
6
CONTINUOUS
10
43.4568820000000002
20
2.1735359999999999
11
43.5391440000000003
21
2.1316809999999999
0
LINE
8
BLACK
6
CONTINUOUS
10
43.5391440000000003
20
2.1316809999999999
11
43.630320999999995
21
2.1061429999999999
0
LINE
8
BLACK
6
CONTINUOUS
10
43.630320999999995
20
2.1061429999999999
11
43.7324789999999979
21
2.0973319999999998
0
LINE
8
BLACK
6
CONTINUOUS
10
43.7324789999999979
20
2.0973319999999998
11
43.8361659999999986
21
2.1061069999999997
0
LINE
8
BLACK
6
CONTINUOUS
10
43.8361659999999986
20
2.1061069999999997
11
43.9295219999999986
21
2.1316229999999998
0
LINE
8
BLACK
6
CONTINUOUS
10
43.9295219999999986
20
2.1316229999999998
11
44.0144880000000001
21
2.1735359999999999
0
LINE
8
BLACK
6
CONTINUOUS
10
44.0144880000000001
20
2.1735359999999999
11
44.0903409999999951
21
2.2305539999999997
0
LINE
8
BLACK
6
CONTINUOUS
10
44.0903409999999951
20
2.2305539999999997
11
44.154129999999995
21
2.3001119999999999
0
LINE
8
BLACK
6
CONTINUOUS
10
44.154129999999995
20
2.3001119999999999
11
44.2066459999999992
21
2.3835539999999997
0
LINE
8
BLACK
6
CONTINUOUS
10
44.2066459999999992
20
2.3835539999999997
11
44.244181999999995
21
2.4750350000000001
0
LINE
8
BLACK
6
CONTINUOUS
10
44.244181999999995
20
2.4750350000000001
11
44.267437000000001
21
2.577493
0
LINE
8
BLACK
6
CONTINUOUS
10
44.267437000000001
20
2.577493
11
44.2755229999999997
21
2.692949
0
LINE
8
BLACK
6
CONTINUOUS
10
44.2755229999999997
20
2.692949
11
44.2674880000000002
21
2.8069929999999998
0
LINE
8
BLACK
6
CONTINUOUS
10
44.2674880000000002
20
2.8069929999999998
11
44.2442789999999988
21
2.9091709999999997
0
LINE
8
BLACK
6
CONTINUOUS
10
44.2442789999999988
20
2.9091709999999997
11
44.2066459999999992
21
3.0013359999999998
0
LINE
8
BLACK
6
CONTINUOUS
10
44.2066459999999992
20
3.0013359999999998
11
44.1541840000000008
21
3.0856170000000001
0
LINE
8
BLACK
6
CONTINUOUS
10
44.1541840000000008
20
3.0856170000000001
11
44.0910559999999947
21
3.1554389999999999
0
LINE
8
BLACK
6
CONTINUOUS
10
44.0910559999999947
20
3.1554389999999999
11
44.0165949999999953
21
3.2122699999999997
0
LINE
8
BLACK
6
CONTINUOUS
10
44.0165949999999953
20
3.2122699999999997
11
43.9329959999999957
21
3.2541910000000001
0
LINE
8
BLACK
6
CONTINUOUS
10
43.9329959999999957
20
3.2541910000000001
11
43.8410499999999956
21
3.2797000000000001
0
LINE
8
BLACK
6
CONTINUOUS
10
43.8410499999999956
20
3.2797000000000001
11
43.7387990000000002
21
3.2884739999999999
0
LINE
8
BLACK
6
CONTINUOUS
10
43.7387990000000002
20
3.2884739999999999
11
43.635157999999997
21
3.2796409999999998
0
LINE
8
BLACK
6
CONTINUOUS
10
47.7736579999999975
20
3.4496919999999998
11
47.8707599999999971
21
3.4310939999999999
0
LINE
8
BLACK
6
CONTINUOUS
10
47.8707599999999971
20
3.4310939999999999
11
47.9602069999999969
21
3.4008349999999998
0
LINE
8
BLACK
6
CONTINUOUS
10
47.9602069999999969
20
3.4008349999999998
11
48.0430299999999946
21
3.3589989999999998
0
LINE
8
BLACK
6
CONTINUOUS
10
48.0430299999999946
20
3.3589989999999998
11
48.1432359999999946
21
3.2861949999999998
0
LINE
8
BLACK
6
CONTINUOUS
10
48.1432359999999946
20
3.2861949999999998
11
48.2275519999999958
21
3.1971439999999998
0
LINE
8
BLACK
6
CONTINUOUS
10
48.2275519999999958
20
3.1971439999999998
11
48.2971029999999999
21
3.090179
0
LINE
8
BLACK
6
CONTINUOUS
10
48.2971029999999999
20
3.090179
11
48.347135999999999
21
2.972458
0
LINE
8
BLACK
6
CONTINUOUS
10
48.347135999999999
20
2.972458
11
48.3780530000000013
21
2.8409249999999999
0
LINE
8
BLACK
6
CONTINUOUS
10
48.3780530000000013
20
2.8409249999999999
11
48.3887859999999961
21
2.692949
0
LINE
8
BLACK
6
CONTINUOUS
10
48.3887859999999961
20
2.692949
11
48.3779929999999965
21
2.5463679999999997
0
LINE
8
BLACK
6
CONTINUOUS
10
48.3779929999999965
20
2.5463679999999997
11
48.3467939999999956
21
2.4150929999999997
0
LINE
8
BLACK
6
CONTINUOUS
10
48.3467939999999956
20
2.4150929999999997
11
48.2960959999999986
21
2.2966340000000001
0
LINE
8
BLACK
6
CONTINUOUS
10
48.2960959999999986
20
2.2966340000000001
11
48.2257199999999955
21
2.1891400000000001
0
LINE
8
BLACK
6
CONTINUOUS
10
48.2257199999999955
20
2.1891400000000001
11
48.1403509999999955
21
2.0997559999999997
0
LINE
8
BLACK
6
CONTINUOUS
10
48.1403509999999955
20
2.0997559999999997
11
48.0388169999999946
21
2.0268069999999998
0
LINE
8
BLACK
6
CONTINUOUS
10
48.0388169999999946
20
2.0268069999999998
11
47.9549400000000006
21
1.98495
0
LINE
8
BLACK
6
CONTINUOUS
10
47.9549400000000006
20
1.98495
11
47.8647599999999969
21
1.9547219999999998
0
LINE
8
BLACK
6
CONTINUOUS
10
47.8647599999999969
20
1.9547219999999998
11
47.7672880000000006
21
1.9361759999999999
0
LINE
8
BLACK
6
CONTINUOUS
10
47.7672880000000006
20
1.9361759999999999
11
47.661369999999998
21
1.9298119999999999
0
LINE
8
BLACK
6
CONTINUOUS
10
47.661369999999998
20
1.9298119999999999
11
47.5565009999999972
21
1.9361889999999999
0
LINE
8
BLACK
6
CONTINUOUS
10
47.5565009999999972
20
1.9361889999999999
11
47.460287000000001
21
1.9547509999999999
0
LINE
8
BLACK
6
CONTINUOUS
10
47.460287000000001
20
1.9547509999999999
11
47.3715369999999965
21
1.984977
0
LINE
8
BLACK
6
CONTINUOUS
10
47.3715369999999965
20
1.984977
11
47.2892349999999979
21
2.0268069999999998
0
LINE
8
BLACK
6
CONTINUOUS
10
47.2892349999999979
20
2.0268069999999998
11
47.1898039999999952
21
2.0996380000000001
0
LINE
8
BLACK
6
CONTINUOUS
10
47.1898039999999952
20
2.0996380000000001
11
47.1061779999999999
21
2.1889949999999998
0
LINE
8
BLACK
6
CONTINUOUS
10
47.1061779999999999
20
2.1889949999999998
11
47.0372679999999974
21
2.2966340000000001
0
LINE
8
BLACK
6
CONTINUOUS
10
47.0372679999999974
20
2.2966340000000001
11
46.9877079999999978
21
2.414981
0
LINE
8
BLACK
6
CONTINUOUS
10
46.9877079999999978
20
2.414981
11
46.9571660000000008
21
2.546268
0
LINE
8
BLACK
6
CONTINUOUS
10
46.9571660000000008
20
2.546268
11
46.946593
21
2.692949
0
LINE
8
BLACK
6
CONTINUOUS
10
46.946593
20
2.692949
11
46.9571830000000006
21
2.8395600000000001
0
LINE
8
BLACK
6
CONTINUOUS
10
46.9571830000000006
20
2.8395600000000001
11
46.9877389999999977
21
2.970431
0
LINE
8
BLACK
6
CONTINUOUS
10
46.9877389999999977
20
2.970431
11
47.0372679999999974
21
3.0880730000000001
0
LINE
8
BLACK
6
CONTINUOUS
10
47.0372679999999974
20
3.0880730000000001
11
47.1061979999999991
21
3.1949939999999999
0
LINE
8
BLACK
6
CONTINUOUS
10
47.1061979999999991
20
3.1949939999999999
11
47.1904839999999979
21
3.2844339999999996
0
LINE
8
BLACK
6
CONTINUOUS
10
47.1904839999999979
20
3.2844339999999996
11
47.2913420000000002
21
3.3579909999999997
0
LINE
8
BLACK
6
CONTINUOUS
10
47.2913420000000002
20
3.3579909999999997
11
47.374721000000001
21
3.4003129999999997
0
LINE
8
BLACK
6
CONTINUOUS
10
47.374721000000001
20
3.4003129999999997
11
47.4645319999999984
21
3.4308799999999997
0
LINE
8
BLACK
6
CONTINUOUS
10
47.4645319999999984
20
3.4308799999999997
11
47.5617909999999995
21
3.4496419999999999
0
LINE
8
BLACK
6
CONTINUOUS
10
47.5617909999999995
20
3.4496419999999999
11
47.6676900000000003
21
3.456086
0
LINE
8
BLACK
6
CONTINUOUS
10
47.6676900000000003
20
3.456086
11
47.7736579999999975
21
3.4496919999999998
0
LINE
8
BLACK
6
CONTINUOUS
10
47.5640489999999971
20
3.2796409999999998
11
47.4718189999999964
21
3.2540789999999999
0
LINE
8
BLACK
6
CONTINUOUS
10
47.4718189999999964
20
3.2540789999999999
11
47.3888859999999994
21
3.2122699999999997
0
LINE
8
BLACK
6
CONTINUOUS
10
47.3888859999999994
20
3.2122699999999997
11
47.3151089999999996
21
3.15551
0
LINE
8
BLACK
6
CONTINUOUS
10
47.3151089999999996
20
3.15551
11
47.2523309999999981
21
3.085696
0
LINE
8
BLACK
6
CONTINUOUS
10
47.2523309999999981
20
3.085696
11
47.1999339999999989
21
3.0013359999999998
0
LINE
8
BLACK
6
CONTINUOUS
10
47.1999339999999989
20
3.0013359999999998
11
47.1621979999999965
21
2.9091609999999997
0
LINE
8
BLACK
6
CONTINUOUS
10
47.1621979999999965
20
2.9091609999999997
11
47.1389299999999949
21
2.8069839999999999
0
LINE
8
BLACK
6
CONTINUOUS
10
47.1389299999999949
20
2.8069839999999999
11
47.1308739999999986
21
2.692949
0
LINE
8
BLACK
6
CONTINUOUS
10
47.1308739999999986
20
2.692949
11
47.138857999999999
21
2.5774459999999997
0
LINE
8
BLACK
6
CONTINUOUS
10
47.138857999999999
20
2.5774459999999997
11
47.1618110000000001
21
2.474952
0
LINE
8
BLACK
6
CONTINUOUS
10
47.1618110000000001
20
2.474952
11
47.1988349999999954
21
2.3834629999999999
0
LINE
8
BLACK
6
CONTINUOUS
10
47.1988349999999954
20
2.3834629999999999
11
47.2505139999999955
21
2.2997589999999999
0
LINE
8
BLACK
6
CONTINUOUS
10
47.2505139999999955
20
2.2997589999999999
11
47.312618999999998
21
2.2302659999999999
0
LINE
8
BLACK
6
CONTINUOUS
10
47.312618999999998
20
2.2302659999999999
11
47.3857719999999958
21
2.1735359999999999
0
LINE
8
BLACK
6
CONTINUOUS
10
47.3857719999999958
20
2.1735359999999999
11
47.4680339999999958
21
2.1316809999999999
0
LINE
8
BLACK
6
CONTINUOUS
10
47.4680339999999958
20
2.1316809999999999
11
47.5592119999999952
21
2.1061429999999999
0
LINE
8
BLACK
6
CONTINUOUS
10
47.5592119999999952
20
2.1061429999999999
11
47.661369999999998
21
2.0973319999999998
0
LINE
8
BLACK
6
CONTINUOUS
10
47.661369999999998
20
2.0973319999999998
11
47.7650560000000013
21
2.1061069999999997
0
LINE
8
BLACK
6
CONTINUOUS
10
47.7650560000000013
20
2.1061069999999997
11
47.8584120000000013
21
2.1316229999999998
0
LINE
8
BLACK
6
CONTINUOUS
10
47.8584120000000013
20
2.1316229999999998
11
47.9433790000000002
21
2.1735359999999999
0
LINE
8
BLACK
6
CONTINUOUS
10
47.9433790000000002
20
2.1735359999999999
11
48.0192319999999953
21
2.2305539999999997
0
LINE
8
BLACK
6
CONTINUOUS
10
48.0192319999999953
20
2.2305539999999997
11
48.0830209999999951
21
2.3001119999999999
0
LINE
8
BLACK
6
CONTINUOUS
10
48.0830209999999951
20
2.3001119999999999
11
48.1355369999999994
21
2.3835539999999997
0
LINE
8
BLACK
6
CONTINUOUS
10
48.1355369999999994
20
2.3835539999999997
11
48.1730729999999951
21
2.4750350000000001
0
LINE
8
BLACK
6
CONTINUOUS
10
48.1730729999999951
20
2.4750350000000001
11
48.1963280000000012
21
2.577493
0
LINE
8
BLACK
6
CONTINUOUS
10
48.1963280000000012
20
2.577493
11
48.2044129999999953
21
2.692949
0
LINE
8
BLACK
6
CONTINUOUS
10
48.2044129999999953
20
2.692949
11
48.1963779999999957
21
2.8069929999999998
0
LINE
8
BLACK
6
CONTINUOUS
10
48.1963779999999957
20
2.8069929999999998
11
48.1731689999999944
21
2.9091709999999997
0
LINE
8
BLACK
6
CONTINUOUS
10
48.1731689999999944
20
2.9091709999999997
11
48.1355369999999994
21
3.0013359999999998
0
LINE
8
BLACK
6
CONTINUOUS
10
48.1355369999999994
20
3.0013359999999998
11
48.0830739999999963
21
3.0856170000000001
0
LINE
8
BLACK
6
CONTINUOUS
10
48.0830739999999963
20
3.0856170000000001
11
48.0199459999999974
21
3.1554389999999999
0
LINE
8
BLACK
6
CONTINUOUS
10
48.0199459999999974
20
3.1554389999999999
11
47.9454849999999979
21
3.2122699999999997
0
LINE
8
BLACK
6
CONTINUOUS
10
47.9454849999999979
20
3.2122699999999997
11
47.8618859999999984
21
3.2541910000000001
0
LINE
8
BLACK
6
CONTINUOUS
10
47.8618859999999984
20
3.2541910000000001
11
47.7699399999999983
21
3.2797000000000001
0
LINE
8
BLACK
6
CONTINUOUS
10
47.7699399999999983
20
3.2797000000000001
11
47.6676900000000003
21
3.2884739999999999
0
LINE
8
BLACK
6
CONTINUOUS
10
47.6676900000000003
20
3.2884739999999999
11
47.5640489999999971
21
3.2796409999999998
0
LINE
8
BLACK
6
CONTINUOUS
10
54.4559169999999995
20
3.4496129999999998
11
54.5589719999999971
21
3.43079
0
LINE
8
BLACK
6
CONTINUOUS
10
54.5589719999999971
20
3.43079
11
54.6539539999999988
21
3.4001980000000001
0
LINE
8
BLACK
6
CONTINUOUS
10
54.6539539999999988
20
3.4001980000000001
11
54.7419089999999997
21
3.3579909999999997
0
LINE
8
BLACK
6
CONTINUOUS
10
54.7419089999999997
20
3.3579909999999997
11
54.8491529999999941
21
3.2841320000000001
0
LINE
8
BLACK
6
CONTINUOUS
10
54.8491529999999941
20
3.2841320000000001
11
54.9389819999999958
21
3.1946129999999999
0
LINE
8
BLACK
6
CONTINUOUS
10
54.9389819999999958
20
3.1946129999999999
11
55.0128349999999955
21
3.0880730000000001
0
LINE
8
BLACK
6
CONTINUOUS
10
55.0128349999999955
20
3.0880730000000001
11
55.0549689999999998
21
3.0006759999999999
0
LINE
8
BLACK
6
CONTINUOUS
10
55.0549689999999998
20
3.0006759999999999
11
55.0855339999999956
21
2.9060790000000001
0
LINE
8
BLACK
6
CONTINUOUS
10
55.0855339999999956
20
2.9060790000000001
11
55.1043589999999952
21
2.8032140000000001
0
LINE
8
BLACK
6
CONTINUOUS
10
55.1043589999999952
20
2.8032140000000001
11
55.110837999999994
21
2.690842
0
LINE
8
BLACK
6
CONTINUOUS
10
55.110837999999994
20
2.690842
11
55.1044029999999978
21
2.5806849999999999
0
LINE
8
BLACK
6
CONTINUOUS
10
55.1044029999999978
20
2.5806849999999999
11
55.085649999999994
21
2.4791889999999999
0
LINE
8
BLACK
6
CONTINUOUS
10
55.085649999999994
20
2.4791889999999999
11
55.0550969999999964
21
2.3852029999999997
0
LINE
8
BLACK
6
CONTINUOUS
10
55.0550969999999964
20
2.3852029999999997
11
55.0128349999999955
21
2.297733
0
LINE
8
BLACK
6
CONTINUOUS
10
55.0128349999999955
20
2.297733
11
54.9389819999999958
21
2.1911929999999997
0
LINE
8
BLACK
6
CONTINUOUS
10
54.9389819999999958
20
2.1911929999999997
11
54.8491529999999941
21
2.101674
0
LINE
8
BLACK
6
CONTINUOUS
10
54.8491529999999941
20
2.101674
11
54.7419089999999997
21
2.0278139999999998
0
LINE
8
BLACK
6
CONTINUOUS
10
54.7419089999999997
20
2.0278139999999998
11
54.6539590000000004
21
1.985649
0
LINE
8
BLACK
6
CONTINUOUS
10
54.6539590000000004
20
1.985649
11
54.5589769999999987
21
1.955085
0
LINE
8
BLACK
6
CONTINUOUS
10
54.5589769999999987
20
1.955085
11
54.4559209999999965
21
1.9362789999999999
0
LINE
8
BLACK
6
CONTINUOUS
10
54.4559209999999965
20
1.9362789999999999
11
54.3435789999999983
21
1.9298119999999999
0
LINE
8
BLACK
6
CONTINUOUS
10
54.3435789999999983
20
1.9298119999999999
11
54.2163269999999997
21
1.939263
0
LINE
8
BLACK
6
CONTINUOUS
10
54.2163269999999997
20
1.939263
11
54.1024779999999978
21
1.9665759999999999
0
LINE
8
BLACK
6
CONTINUOUS
10
54.1024779999999978
20
1.9665759999999999
11
53.9998379999999969
21
2.0109619999999997
0
LINE
8
BLACK
6
CONTINUOUS
10
53.9998379999999969
20
2.0109619999999997
11
53.9067319999999981
21
2.0725449999999999
0
LINE
8
BLACK
6
CONTINUOUS
10
53.9067319999999981
20
2.0725449999999999
11
53.8291299999999993
21
2.1474389999999999
0
LINE
8
BLACK
6
CONTINUOUS
10
53.8291299999999993
20
2.1474389999999999
11
53.7656399999999977
21
2.2367339999999998
0
LINE
8
BLACK
6
CONTINUOUS
10
53.7656399999999977
20
2.2367339999999998
11
53.719659
21
2.336268
0
LINE
8
BLACK
6
CONTINUOUS
10
53.719659
20
2.336268
11
53.6911459999999963
21
2.449265
0
LINE
8
BLACK
6
CONTINUOUS
10
53.6911459999999963
20
2.449265
11
53.6821219999999997
21
2.5663899999999997
0
LINE
8
BLACK
6
CONTINUOUS
10
53.6821219999999997
20
2.5663899999999997
11
53.6811930000000004
21
2.5665529999999999
0
LINE
8
BLACK
6
CONTINUOUS
10
53.6811930000000004
20
2.5665529999999999
11
53.6811930000000004
21
2.710534
0
LINE
8
BLACK
6
CONTINUOUS
10
53.6811930000000004
20
2.710534
11
54.2183739999999972
21
2.710534
0
LINE
8
BLACK
6
CONTINUOUS
10
54.2183739999999972
20
2.710534
11
54.2183739999999972
21
2.5514410000000001
0
LINE
8
BLACK
6
CONTINUOUS
10
54.2183739999999972
20
2.5514410000000001
11
53.8582539999999952
21
2.5514410000000001
0
LINE
8
BLACK
6
CONTINUOUS
10
53.8582539999999952
20
2.5514410000000001
11
53.864455999999997
21
2.4735169999999997
0
LINE
8
BLACK
6
CONTINUOUS
10
53.864455999999997
20
2.4735169999999997
11
53.8855409999999964
21
2.3921540000000001
0
LINE
8
BLACK
6
CONTINUOUS
10
53.8855409999999964
20
2.3921540000000001
11
53.9197879999999969
21
2.3195319999999997
0
LINE
8
BLACK
6
CONTINUOUS
10
53.9197879999999969
20
2.3195319999999997
11
53.9666980000000009
21
2.2544170000000001
0
LINE
8
BLACK
6
CONTINUOUS
10
53.9666980000000009
20
2.2544170000000001
11
54.0237359999999995
21
2.1997200000000001
0
LINE
8
BLACK
6
CONTINUOUS
10
54.0237359999999995
20
2.1997200000000001
11
54.0918869999999998
21
2.154668
0
LINE
8
BLACK
6
CONTINUOUS
10
54.0918869999999998
20
2.154668
11
54.1669750000000008
21
2.1221619999999999
0
LINE
8
BLACK
6
CONTINUOUS
10
54.1669750000000008
20
2.1221619999999999
11
54.2503329999999977
21
2.1021519999999998
0
LINE
8
BLACK
6
CONTINUOUS
10
54.2503329999999977
20
2.1021519999999998
11
54.3435789999999983
21
2.0952250000000001
0
LINE
8
BLACK
6
CONTINUOUS
10
54.3435789999999983
20
2.0952250000000001
11
54.4543040000000005
21
2.1041369999999997
0
LINE
8
BLACK
6
CONTINUOUS
10
54.4543040000000005
20
2.1041369999999997
11
54.5543209999999945
21
2.1300479999999999
0
LINE
8
BLACK
6
CONTINUOUS
10
54.5543209999999945
20
2.1300479999999999
11
54.6455549999999945
21
2.1725279999999998
0
LINE
8
BLACK
6
CONTINUOUS
10
54.6455549999999945
20
2.1725279999999998
11
54.7276529999999966
21
2.2305929999999998
0
LINE
8
BLACK
6
CONTINUOUS
10
54.7276529999999966
20
2.2305929999999998
11
54.7962319999999963
21
2.3008949999999997
0
LINE
8
BLACK
6
CONTINUOUS
10
54.7962319999999963
20
2.3008949999999997
11
54.8523679999999985
21
2.3845619999999998
0
LINE
8
BLACK
6
CONTINUOUS
10
54.8523679999999985
20
2.3845619999999998
11
54.8930179999999979
21
2.476988
0
LINE
8
BLACK
6
CONTINUOUS
10
54.8930179999999979
20
2.476988
11
54.9178959999999989
21
2.578465
0
LINE
8
BLACK
6
CONTINUOUS
10
54.9178959999999989
20
2.578465
11
54.9264650000000003
21
2.690842
0
LINE
8
BLACK
6
CONTINUOUS
10
54.9264650000000003
20
2.690842
11
54.9176539999999989
21
2.807391
0
LINE
8
BLACK
6
CONTINUOUS
10
54.9176539999999989
20
2.807391
11
54.8923029999999983
21
2.9104809999999999
0
LINE
8
BLACK
6
CONTINUOUS
10
54.8923029999999983
20
2.9104809999999999
11
54.8512689999999949
21
3.0023429999999998
0
LINE
8
BLACK
6
CONTINUOUS
10
54.8512689999999949
20
3.0023429999999998
11
54.7946179999999998
21
3.0854059999999999
0
LINE
8
BLACK
6
CONTINUOUS
10
54.7946179999999998
20
3.0854059999999999
11
54.7260169999999988
21
3.1550039999999999
0
LINE
8
BLACK
6
CONTINUOUS
10
54.7260169999999988
20
3.1550039999999999
11
54.6444559999999981
21
3.2122699999999997
0
LINE
8
BLACK
6
CONTINUOUS
10
54.6444559999999981
20
3.2122699999999997
11
54.5539859999999948
21
3.2540899999999997
0
LINE
8
BLACK
6
CONTINUOUS
10
54.5539859999999948
20
3.2540899999999997
11
54.454346000000001
21
3.2796609999999999
0
LINE
8
BLACK
6
CONTINUOUS
10
54.454346000000001
20
3.2796609999999999
11
54.3435789999999983
21
3.2884739999999999
0
LINE
8
BLACK
6
CONTINUOUS
10
54.3435789999999983
20
3.2884739999999999
11
54.258587999999996
21
3.2812219999999996
0
LINE
8
BLACK
6
CONTINUOUS
10
54.258587999999996
20
3.2812219999999996
11
54.1733119999999957
21
3.2591649999999999
0
LINE
8
BLACK
6
CONTINUOUS
10
54.1733119999999957
20
3.2591649999999999
11
54.0920079999999999
21
3.223903
0
LINE
8
BLACK
6
CONTINUOUS
10
54.0920079999999999
20
3.223903
11
54.0176979999999958
21
3.176733
0
LINE
8
BLACK
6
CONTINUOUS
10
54.0176979999999958
20
3.176733
11
53.9530609999999982
21
3.1188769999999999
0
LINE
8
BLACK
6
CONTINUOUS
10
53.9530609999999982
20
3.1188769999999999
11
53.9033929999999941
21
3.0541839999999998
0
LINE
8
BLACK
6
CONTINUOUS
10
53.9033929999999941
20
3.0541839999999998
11
53.7577629999999971
21
3.1541099999999997
0
LINE
8
BLACK
6
CONTINUOUS
10
53.7577629999999971
20
3.1541099999999997
11
53.8242369999999966
21
3.2369779999999997
0
LINE
8
BLACK
6
CONTINUOUS
10
53.8242369999999966
20
3.2369779999999997
11
53.9091629999999995
21
3.3105469999999997
0
LINE
8
BLACK
6
CONTINUOUS
10
53.9091629999999995
20
3.3105469999999997
11
54.0063169999999957
21
3.3707249999999997
0
LINE
8
BLACK
6
CONTINUOUS
10
54.0063169999999957
20
3.3707249999999997
11
54.1137769999999989
21
3.417068
0
LINE
8
BLACK
6
CONTINUOUS
10
54.1137769999999989
20
3.417068
11
54.2271329999999949
21
3.4463369999999998
0
LINE
8
BLACK
6
CONTINUOUS
10
54.2271329999999949
20
3.4463369999999998
11
54.3435789999999983
21
3.456086
0
LINE
8
BLACK
6
CONTINUOUS
10
54.3435789999999983
20
3.456086
11
54.4559169999999995
21
3.4496129999999998
0
LINE
8
BLACK
6
CONTINUOUS
10
42.0356629999999996
20
2.681317
11
42.5423449999999974
21
3.430898
0
LINE
8
BLACK
6
CONTINUOUS
10
42.5423449999999974
20
3.430898
11
42.731663999999995
21
3.430898
0
LINE
8
BLACK
6
CONTINUOUS
10
42.731663999999995
20
3.430898
11
42.731663999999995
21
1.9549999999999998
0
LINE
8
BLACK
6
CONTINUOUS
10
42.731663999999995
20
1.9549999999999998
11
42.5472910000000013
21
1.9549999999999998
0
LINE
8
BLACK
6
CONTINUOUS
10
42.5472910000000013
20
1.9549999999999998
11
42.5472910000000013
21
3.1285559999999997
0
LINE
8
BLACK
6
CONTINUOUS
10
42.5472910000000013
20
3.1285559999999997
11
42.0356629999999996
21
2.3706399999999999
0
LINE
8
BLACK
6
CONTINUOUS
10
42.0356629999999996
20
2.3706399999999999
11
41.524127
21
3.1326769999999997
0
LINE
8
BLACK
6
CONTINUOUS
10
41.524127
20
3.1326769999999997
11
41.524127
21
1.9549999999999998
0
LINE
8
BLACK
6
CONTINUOUS
10
41.524127
20
1.9549999999999998
11
41.3418610000000015
21
1.9549999999999998
0
LINE
8
BLACK
6
CONTINUOUS
10
41.3418610000000015
20
1.9549999999999998
11
41.3418610000000015
21
3.430898
0
LINE
8
BLACK
6
CONTINUOUS
10
41.3418610000000015
20
3.430898
11
41.5290729999999968
21
3.430898
0
LINE
8
BLACK
6
CONTINUOUS
10
41.5290729999999968
20
3.430898
11
42.0356629999999996
21
2.681317
0
LINE
8
BLACK
6
CONTINUOUS
10
45.692619999999998
20
3.2632859999999999
11
45.2243149999999972
21
3.2632859999999999
0
LINE
8
BLACK
6
CONTINUOUS
10
45.2243149999999972
20
3.2632859999999999
11
45.2243149999999972
21
1.9549999999999998
0
LINE
8
BLACK
6
CONTINUOUS
10
45.2243149999999972
20
1.9549999999999998
11
45.0420489999999987
21
1.9549999999999998
0
LINE
8
BLACK
6
CONTINUOUS
10
45.0420489999999987
20
1.9549999999999998
11
45.0420489999999987
21
3.2632859999999999
0
LINE
8
BLACK
6
CONTINUOUS
10
45.0420489999999987
20
3.2632859999999999
11
44.5737430000000003
21
3.2632859999999999
0
LINE
8
BLACK
6
CONTINUOUS
10
44.5737430000000003
20
3.2632859999999999
11
44.5737430000000003
21
3.430898
0
LINE
8
BLACK
6
CONTINUOUS
10
44.5737430000000003
20
3.430898
11
45.692619999999998
21
3.430898
0
LINE
8
BLACK
6
CONTINUOUS
10
45.692619999999998
20
3.430898
11
45.692619999999998
21
3.2632859999999999
0
LINE
8
BLACK
6
CONTINUOUS
10
46.8517960000000002
20
3.2632859999999999
11
46.3834909999999994
21
3.2632859999999999
0
LINE
8
BLACK
6
CONTINUOUS
10
46.3834909999999994
20
3.2632859999999999
11
46.3834909999999994
21
1.9549999999999998
0
LINE
8
BLACK
6
CONTINUOUS
10
46.3834909999999994
20
1.9549999999999998
11
46.2012250000000009
21
1.9549999999999998
0
LINE
8
BLACK
6
CONTINUOUS
10
46.2012250000000009
20
1.9549999999999998
11
46.2012250000000009
21
3.2632859999999999
0
LINE
8
BLACK
6
CONTINUOUS
10
46.2012250000000009
20
3.2632859999999999
11
45.73292
21
3.2632859999999999
0
LINE
8
BLACK
6
CONTINUOUS
10
45.73292
20
3.2632859999999999
11
45.73292
21
3.430898
0
LINE
8
BLACK
6
CONTINUOUS
10
45.73292
20
3.430898
11
46.8517960000000002
21
3.430898
0
LINE
8
BLACK
6
CONTINUOUS
10
46.8517960000000002
20
3.430898
11
46.8517960000000002
21
3.2632859999999999
0
LINE
8
BLACK
6
CONTINUOUS
10
49.572417999999999
20
1.9549999999999998
11
49.0444869999999966
21
1.9549999999999998
0
LINE
8
BLACK
6
CONTINUOUS
10
49.0444869999999966
20
1.9549999999999998
11
48.9483339999999956
21
1.9607329999999998
0
LINE
8
BLACK
6
CONTINUOUS
10
48.9483339999999956
20
1.9607329999999998
11
48.8656149999999982
21
1.976945
0
LINE
8
BLACK
6
CONTINUOUS
10
48.8656149999999982
20
1.976945
11
48.7943509999999989
21
2.002535
0
LINE
8
BLACK
6
CONTINUOUS
10
48.7943509999999989
20
2.002535
11
48.7289129999999986
21
2.0396350000000001
0
LINE
8
BLACK
6
CONTINUOUS
10
48.7289129999999986
20
2.0396350000000001
11
48.6754269999999991
21
2.085331
0
LINE
8
BLACK
6
CONTINUOUS
10
48.6754269999999991
20
2.085331
11
48.6325099999999964
21
2.1401049999999997
0
LINE
8
BLACK
6
CONTINUOUS
10
48.6325099999999964
20
2.1401049999999997
11
48.6014959999999974
21
2.2024659999999998
0
LINE
8
BLACK
6
CONTINUOUS
10
48.6014959999999974
20
2.2024659999999998
11
48.5821579999999997
21
2.2747229999999998
0
LINE
8
BLACK
6
CONTINUOUS
10
48.5821579999999997
20
2.2747229999999998
11
48.5753569999999968
21
2.3590079999999998
0
LINE
8
BLACK
6
CONTINUOUS
10
48.5753569999999968
20
2.3590079999999998
11
48.5759139999999974
21
2.3653269999999997
0
LINE
8
BLACK
6
CONTINUOUS
10
48.5759139999999974
20
2.3653269999999997
11
48.5824110000000005
21
2.4389629999999998
0
LINE
8
BLACK
6
CONTINUOUS
10
48.5824110000000005
20
2.4389629999999998
11
48.6026959999999946
21
2.5088569999999999
0
LINE
8
BLACK
6
CONTINUOUS
10
48.6026959999999946
20
2.5088569999999999
11
48.6357159999999951
21
2.5705830000000001
0
LINE
8
BLACK
6
CONTINUOUS
10
48.6357159999999951
20
2.5705830000000001
11
48.6803189999999972
21
2.6250499999999999
0
LINE
8
BLACK
6
CONTINUOUS
10
48.6803189999999972
20
2.6250499999999999
11
48.7349579999999989
21
2.6713640000000001
0
LINE
8
BLACK
6
CONTINUOUS
10
48.7349579999999989
20
2.6713640000000001
11
48.8008540000000011
21
2.7098929999999997
0
LINE
8
BLACK
6
CONTINUOUS
10
48.8008540000000011
20
2.7098929999999997
11
48.7485209999999967
21
2.7458259999999997
0
LINE
8
BLACK
6
CONTINUOUS
10
48.7485209999999967
20
2.7458259999999997
11
48.7045150000000007
21
2.7888139999999999
0
LINE
8
BLACK
6
CONTINUOUS
10
48.7045150000000007
20
2.7888139999999999
11
48.6681389999999965
21
2.8394029999999999
0
LINE
8
BLACK
6
CONTINUOUS
10
48.6681389999999965
20
2.8394029999999999
11
48.6414679999999962
21
2.8956219999999999
0
LINE
8
BLACK
6
CONTINUOUS
10
48.6414679999999962
20
2.8956219999999999
11
48.625085999999996
21
2.9583309999999998
0
LINE
8
BLACK
6
CONTINUOUS
10
48.625085999999996
20
2.9583309999999998
11
48.619411999999997
21
3.028905
0
LINE
8
BLACK
6
CONTINUOUS
10
48.619411999999997
20
3.028905
11
48.6264559999999975
21
3.113181
0
LINE
8
BLACK
6
CONTINUOUS
10
48.6264559999999975
20
3.113181
11
48.6465120000000013
21
3.1854519999999997
0
LINE
8
BLACK
6
CONTINUOUS
10
48.6465120000000013
20
3.1854519999999997
11
48.6787629999999965
21
3.2478989999999999
0
LINE
8
BLACK
6
CONTINUOUS
10
48.6787629999999965
20
3.2478989999999999
11
48.7231079999999963
21
3.3025199999999999
0
LINE
8
BLACK
6
CONTINUOUS
10
48.7231079999999963
20
3.3025199999999999
11
48.778298999999997
21
3.3478649999999996
0
LINE
8
BLACK
6
CONTINUOUS
10
48.778298999999997
20
3.3478649999999996
11
48.8458259999999953
21
3.3843699999999997
0
LINE
8
BLACK
6
CONTINUOUS
10
48.8458259999999953
20
3.3843699999999997
11
48.9190830000000005
21
3.409332
0
LINE
8
BLACK
6
CONTINUOUS
10
48.9190830000000005
20
3.409332
11
49.0048899999999961
21
3.4252439999999997
0
LINE
8
BLACK
6
CONTINUOUS
10
49.0048899999999961
20
3.4252439999999997
11
49.1053949999999944
21
3.430898
0
LINE
8
BLACK
6
CONTINUOUS
10
49.1053949999999944
20
3.430898
11
49.572417999999999
21
3.430898
0
LINE
8
BLACK
6
CONTINUOUS
10
49.572417999999999
20
3.430898
11
49.572417999999999
21
1.9549999999999998
0
LINE
8
BLACK
6
CONTINUOUS
10
48.9939279999999968
20
2.6182259999999999
11
48.9122529999999998
21
2.594287
0
LINE
8
BLACK
6
CONTINUOUS
10
48.9122529999999998
20
2.594287
11
48.8490309999999965
21
2.5573939999999999
0
LINE
8
BLACK
6
CONTINUOUS
10
48.8490309999999965
20
2.5573939999999999
11
48.7996569999999963
21
2.5054620000000001
0
LINE
8
BLACK
6
CONTINUOUS
10
48.7996569999999963
20
2.5054620000000001
11
48.7700869999999966
21
2.4426060000000001
0
LINE
8
BLACK
6
CONTINUOUS
10
48.7700869999999966
20
2.4426060000000001
11
48.7597299999999976
21
2.3653269999999997
0
LINE
8
BLACK
6
CONTINUOUS
10
48.7597299999999976
20
2.3653269999999997
11
48.7688610000000011
21
2.2928729999999997
0
LINE
8
BLACK
6
CONTINUOUS
10
48.7688610000000011
20
2.2928729999999997
11
48.7947829999999954
21
2.2341129999999998
0
LINE
8
BLACK
6
CONTINUOUS
10
48.7947829999999954
20
2.2341129999999998
11
48.8375819999999976
21
2.1858089999999999
0
LINE
8
BLACK
6
CONTINUOUS
10
48.8375819999999976
20
2.1858089999999999
11
48.8929599999999951
21
2.1509329999999998
0
LINE
8
BLACK
6
CONTINUOUS
10
48.8929599999999951
20
2.1509329999999998
11
48.9633409999999998
21
2.1286149999999999
0
LINE
8
BLACK
6
CONTINUOUS
10
48.9633409999999998
20
2.1286149999999999
11
49.0528209999999945
21
2.1205050000000001
0
LINE
8
BLACK
6
CONTINUOUS
10
49.0528209999999945
20
2.1205050000000001
11
49.3901509999999959
21
2.1205050000000001
0
LINE
8
BLACK
6
CONTINUOUS
10
49.3901509999999959
20
2.1205050000000001
11
49.3901509999999959
21
2.6270029999999998
0
LINE
8
BLACK
6
CONTINUOUS
10
49.3901509999999959
20
2.6270029999999998
11
49.0990749999999991
21
2.6270029999999998
0
LINE
8
BLACK
6
CONTINUOUS
10
49.0990749999999991
20
2.6270029999999998
11
48.9939279999999968
21
2.6182259999999999
0
LINE
8
BLACK
6
CONTINUOUS
10
49.0140869999999964
20
3.2658139999999998
11
48.9403999999999968
21
3.24403
0
LINE
8
BLACK
6
CONTINUOUS
10
48.9403999999999968
20
3.24403
11
48.8837440000000001
21
3.2105299999999999
0
LINE
8
BLACK
6
CONTINUOUS
10
48.8837440000000001
20
3.2105299999999999
11
48.8399840000000012
21
3.1632259999999999
0
LINE
8
BLACK
6
CONTINUOUS
10
48.8399840000000012
20
3.1632259999999999
11
48.8132839999999959
21
3.1039399999999997
0
LINE
8
BLACK
6
CONTINUOUS
10
48.8132839999999959
20
3.1039399999999997
11
48.8037849999999978
21
3.028905
0
LINE
8
BLACK
6
CONTINUOUS
10
48.8037849999999978
20
3.028905
11
48.8120149999999953
21
2.955686
0
LINE
8
BLACK
6
CONTINUOUS
10
48.8120149999999953
20
2.955686
11
48.8350450000000009
21
2.8973089999999999
0
LINE
8
BLACK
6
CONTINUOUS
10
48.8350450000000009
20
2.8973089999999999
11
48.8722039999999964
21
2.8503939999999997
0
LINE
8
BLACK
6
CONTINUOUS
10
48.8722039999999964
20
2.8503939999999997
11
48.921444000000001
21
2.815823
0
LINE
8
BLACK
6
CONTINUOUS
10
48.921444000000001
20
2.815823
11
48.9832759999999965
21
2.794038
0
LINE
8
BLACK
6
CONTINUOUS
10
48.9832759999999965
20
2.794038
11
49.0612479999999991
21
2.7861879999999997
0
LINE
8
BLACK
6
CONTINUOUS
10
49.0612479999999991
20
2.7861879999999997
11
49.3901509999999959
21
2.7861879999999997
0
LINE
8
BLACK
6
CONTINUOUS
10
49.3901509999999959
20
2.7861879999999997
11
49.3901509999999959
21
3.273819
0
LINE
8
BLACK
6
CONTINUOUS
10
49.3901509999999959
20
3.273819
11
49.1095159999999993
21
3.273819
0
LINE
8
BLACK
6
CONTINUOUS
10
49.1095159999999993
20
3.273819
11
49.0140869999999964
21
3.2658139999999998
0
LINE
8
BLACK
6
CONTINUOUS
10
51.5331989999999962
20
1.9549999999999998
11
51.0829370000000011
21
1.9549999999999998
0
LINE
8
BLACK
6
CONTINUOUS
10
51.0829370000000011
20
1.9549999999999998
11
50.9464199999999963
21
1.9660199999999999
0
LINE
8
BLACK
6
CONTINUOUS
10
50.9464199999999963
20
1.9660199999999999
11
50.8246469999999988
21
1.997895
0
LINE
8
BLACK
6
CONTINUOUS
10
50.8246469999999988
20
1.997895
11
50.7150159999999985
21
2.0498879999999997
0
LINE
8
BLACK
6
CONTINUOUS
10
50.7150159999999985
20
2.0498879999999997
11
50.6165499999999966
21
2.1210719999999998
0
LINE
8
BLACK
6
CONTINUOUS
10
50.6165499999999966
20
2.1210719999999998
11
50.5336069999999964
21
2.2077290000000001
0
LINE
8
BLACK
6
CONTINUOUS
10
50.5336069999999964
20
2.2077290000000001
11
50.4650639999999981
21
2.3113799999999998
0
LINE
8
BLACK
6
CONTINUOUS
10
50.4650639999999981
20
2.3113799999999998
11
50.4154339999999976
21
2.425583
0
LINE
8
BLACK
6
CONTINUOUS
10
50.4154339999999976
20
2.425583
11
50.3849319999999992
21
2.5519699999999998
0
LINE
8
BLACK
6
CONTINUOUS
10
50.3849319999999992
20
2.5519699999999998
11
50.3743890000000007
21
2.692949
0
LINE
8
BLACK
6
CONTINUOUS
10
50.3743890000000007
20
2.692949
11
50.3849650000000011
21
2.8352789999999999
0
LINE
8
BLACK
6
CONTINUOUS
10
50.3849650000000011
20
2.8352789999999999
11
50.4154979999999995
21
2.9623059999999999
0
LINE
8
BLACK
6
CONTINUOUS
10
50.4154979999999995
20
2.9623059999999999
11
50.4650639999999981
21
3.0765319999999998
0
LINE
8
BLACK
6
CONTINUOUS
10
50.4650639999999981
20
3.0765319999999998
11
50.533654999999996
21
3.1801699999999999
0
LINE
8
BLACK
6
CONTINUOUS
10
50.533654999999996
20
3.1801699999999999
11
50.6165969999999987
21
3.2664739999999997
0
LINE
8
BLACK
6
CONTINUOUS
10
50.6165969999999987
20
3.2664739999999997
11
50.7150159999999985
21
3.3370169999999999
0
LINE
8
BLACK
6
CONTINUOUS
10
50.7150159999999985
20
3.3370169999999999
11
50.8245879999999985
21
3.3884369999999997
0
LINE
8
BLACK
6
CONTINUOUS
10
50.8245879999999985
20
3.3884369999999997
11
50.9463669999999951
21
3.4199859999999997
0
LINE
8
BLACK
6
CONTINUOUS
10
50.9463669999999951
20
3.4199859999999997
11
51.0829370000000011
21
3.430898
0
LINE
8
BLACK
6
CONTINUOUS
10
51.0829370000000011
20
3.430898
11
51.5331989999999962
21
3.430898
0
LINE
8
BLACK
6
CONTINUOUS
10
51.5331989999999962
20
3.430898
11
51.5331989999999962
21
1.9549999999999998
0
LINE
8
BLACK
6
CONTINUOUS
10
50.975597999999998
20
3.250305
11
50.8783229999999946
21
3.218407
0
LINE
8
BLACK
6
CONTINUOUS
10
50.8783229999999946
20
3.218407
11
50.7902229999999975
21
3.1667519999999998
0
LINE
8
BLACK
6
CONTINUOUS
10
50.7902229999999975
20
3.1667519999999998
11
50.7123599999999968
21
3.0962239999999999
0
LINE
8
BLACK
6
CONTINUOUS
10
50.7123599999999968
20
3.0962239999999999
11
50.6483629999999962
21
3.0112719999999999
0
LINE
8
BLACK
6
CONTINUOUS
10
50.6483629999999962
20
3.0112719999999999
11
50.5995199999999983
21
2.913408
0
LINE
8
BLACK
6
CONTINUOUS
10
50.5995199999999983
20
2.913408
11
50.5690799999999996
21
2.807283
0
LINE
8
BLACK
6
CONTINUOUS
10
50.5690799999999996
20
2.807283
11
50.5587619999999944
21
2.692949
0
LINE
8
BLACK
6
CONTINUOUS
10
50.5587619999999944
20
2.692949
11
50.5690779999999975
21
2.5786020000000001
0
LINE
8
BLACK
6
CONTINUOUS
10
50.5690779999999975
20
2.5786020000000001
11
50.5995199999999983
21
2.472397
0
LINE
8
BLACK
6
CONTINUOUS
10
50.5995199999999983
20
2.472397
11
50.6483530000000002
21
2.3745949999999998
0
LINE
8
BLACK
6
CONTINUOUS
10
50.6483530000000002
20
2.3745949999999998
11
50.7123599999999968
21
2.2895819999999998
0
LINE
8
BLACK
6
CONTINUOUS
10
50.7123599999999968
20
2.2895819999999998
11
50.7902229999999975
21
2.2190539999999999
0
LINE
8
BLACK
6
CONTINUOUS
10
50.7902229999999975
20
2.2190539999999999
11
50.8783229999999946
21
2.1673990000000001
0
LINE
8
BLACK
6
CONTINUOUS
10
50.8783229999999946
20
2.1673990000000001
11
50.975597999999998
21
2.1355010000000001
0
LINE
8
BLACK
6
CONTINUOUS
10
50.975597999999998
20
2.1355010000000001
11
51.0829370000000011
21
2.1246260000000001
0
LINE
8
BLACK
6
CONTINUOUS
10
51.0829370000000011
20
2.1246260000000001
11
51.3488259999999954
21
2.1246260000000001
0
LINE
8
BLACK
6
CONTINUOUS
10
51.3488259999999954
20
2.1246260000000001
11
51.3488259999999954
21
3.26118
0
LINE
8
BLACK
6
CONTINUOUS
10
51.3488259999999954
20
3.26118
11
51.0829370000000011
21
3.26118
0
LINE
8
BLACK
6
CONTINUOUS
10
51.0829370000000011
20
3.26118
11
50.975597999999998
21
3.250305
0
LINE
8
BLACK
6
CONTINUOUS
10
52.1017960000000002
20
1.9549999999999998
11
51.9174239999999969
21
1.9549999999999998
0
LINE
8
BLACK
6
CONTINUOUS
10
51.9174239999999969
20
1.9549999999999998
11
51.9174239999999969
21
3.430898
0
LINE
8
BLACK
6
CONTINUOUS
10
51.9174239999999969
20
3.430898
11
52.1017960000000002
21
3.430898
0
LINE
8
BLACK
6
CONTINUOUS
10
52.1017960000000002
20
3.430898
11
52.1017960000000002
21
1.9549999999999998
0
LINE
8
BLACK
6
CONTINUOUS
10
53.4163110000000003
20
1.9549999999999998
11
53.231938999999997
21
1.9549999999999998
0
LINE
8
BLACK
6
CONTINUOUS
10
53.231938999999997
20
1.9549999999999998
11
53.231938999999997
21
2.5324809999999998
0
LINE
8
BLACK
6
CONTINUOUS
10
53.231938999999997
20
2.5324809999999998
11
52.9576229999999981
21
2.5324809999999998
0
LINE
8
BLACK
6
CONTINUOUS
10
52.9576229999999981
20
2.5324809999999998
11
52.9249319999999983
21
2.5347770000000001
0
LINE
8
BLACK
6
CONTINUOUS
10
52.9249319999999983
20
2.5347770000000001
11
52.5854889999999955
21
1.9549999999999998
0
LINE
8
BLACK
6
CONTINUOUS
10
52.5854889999999955
20
1.9549999999999998
11
52.3834389999999956
21
1.9549999999999998
0
LINE
8
BLACK
6
CONTINUOUS
10
52.3834389999999956
20
1.9549999999999998
11
52.744489999999999
21
2.5710289999999998
0
LINE
8
BLACK
6
CONTINUOUS
10
52.744489999999999
20
2.5710289999999998
11
52.6958559999999991
21
2.5905499999999999
0
LINE
8
BLACK
6
CONTINUOUS
10
52.6958559999999991
20
2.5905499999999999
11
52.6229739999999993
21
2.6347049999999999
0
LINE
8
BLACK
6
CONTINUOUS
10
52.6229739999999993
20
2.6347049999999999
11
52.5621409999999969
21
2.6877279999999999
0
LINE
8
BLACK
6
CONTINUOUS
10
52.5621409999999969
20
2.6877279999999999
11
52.512124
21
2.750102
0
LINE
8
BLACK
6
CONTINUOUS
10
52.512124
20
2.750102
11
52.4747889999999941
21
2.820395
0
LINE
8
BLACK
6
CONTINUOUS
10
52.4747889999999941
20
2.820395
11
52.4521889999999971
21
2.8973739999999997
0
LINE
8
BLACK
6
CONTINUOUS
10
52.4521889999999971
20
2.8973739999999997
11
52.4444389999999956
21
2.9827429999999997
0
LINE
8
BLACK
6
CONTINUOUS
10
52.4444389999999956
20
2.9827429999999997
11
52.4516279999999995
21
3.0682739999999997
0
LINE
8
BLACK
6
CONTINUOUS
10
52.4516279999999995
20
3.0682739999999997
11
52.4725199999999958
21
3.1452279999999999
0
LINE
8
BLACK
6
CONTINUOUS
10
52.4725199999999958
20
3.1452279999999999
11
52.5068119999999965
21
3.215201
0
LINE
8
BLACK
6
CONTINUOUS
10
52.5068119999999965
20
3.215201
11
52.553531999999997
21
3.2776369999999999
0
LINE
8
BLACK
6
CONTINUOUS
10
52.553531999999997
20
3.2776369999999999
11
52.6109039999999979
21
3.330276
0
LINE
8
BLACK
6
CONTINUOUS
10
52.6109039999999979
20
3.330276
11
52.680101999999998
21
3.373745
0
LINE
8
BLACK
6
CONTINUOUS
10
52.680101999999998
20
3.373745
11
52.7559599999999946
21
3.4049579999999997
0
LINE
8
BLACK
6
CONTINUOUS
10
52.7559599999999946
20
3.4049579999999997
11
52.840250999999995
21
3.424223
0
LINE
8
BLACK
6
CONTINUOUS
10
52.840250999999995
20
3.424223
11
52.9345420000000004
21
3.430898
0
LINE
8
BLACK
6
CONTINUOUS
10
52.9345420000000004
20
3.430898
11
53.4163110000000003
21
3.430898
0
LINE
8
BLACK
6
CONTINUOUS
10
53.4163110000000003
20
3.430898
11
53.4163110000000003
21
1.9549999999999998
0
LINE
8
BLACK
6
CONTINUOUS
10
52.850090999999999
20
3.2540290000000001
11
52.7766169999999946
21
3.2278179999999996
0
LINE
8
BLACK
6
CONTINUOUS
10
52.7766169999999946
20
3.2278179999999996
11
52.7150899999999965
21
3.1853419999999999
0
LINE
8
BLACK
6
CONTINUOUS
10
52.7150899999999965
20
3.1853419999999999
11
52.6673769999999948
21
3.1285859999999999
0
LINE
8
BLACK
6
CONTINUOUS
10
52.6673769999999948
20
3.1285859999999999
11
52.6387629999999973
21
3.0620689999999997
0
LINE
8
BLACK
6
CONTINUOUS
10
52.6387629999999973
20
3.0620689999999997
11
52.6288109999999989
21
2.9827429999999997
0
LINE
8
BLACK
6
CONTINUOUS
10
52.6288109999999989
20
2.9827429999999997
11
52.6386429999999947
21
2.9053049999999998
0
LINE
8
BLACK
6
CONTINUOUS
10
52.6386429999999947
20
2.9053049999999998
11
52.6672799999999981
21
2.8383039999999999
0
LINE
8
BLACK
6
CONTINUOUS
10
52.6672799999999981
20
2.8383039999999999
11
52.7118159999999989
21
2.7815189999999999
0
LINE
8
BLACK
6
CONTINUOUS
10
52.7118159999999989
20
2.7815189999999999
11
52.768029999999996
21
2.7385609999999998
0
LINE
8
BLACK
6
CONTINUOUS
10
52.768029999999996
20
2.7385609999999998
11
52.8337659999999971
21
2.7114919999999998
0
LINE
8
BLACK
6
CONTINUOUS
10
52.8337659999999971
20
2.7114919999999998
11
52.9093549999999979
21
2.7021989999999998
0
LINE
8
BLACK
6
CONTINUOUS
10
52.9093549999999979
20
2.7021989999999998
11
53.231938999999997
21
2.7021989999999998
0
LINE
8
BLACK
6
CONTINUOUS
10
53.231938999999997
20
2.7021989999999998
11
53.231938999999997
21
3.2632859999999999
0
LINE
8
BLACK
6
CONTINUOUS
10
53.231938999999997
20
3.2632859999999999
11
52.9387559999999979
21
3.2632859999999999
0
LINE
8
BLACK
6
CONTINUOUS
10
52.9387559999999979
20
3.2632859999999999
11
52.850090999999999
21
3.2540290000000001
0
LINE
8
BLACK
6
CONTINUOUS
10
56.5588009999999954
20
1.9549999999999998
11
56.3633459999999999
21
1.9549999999999998
0
LINE
8
BLACK
6
CONTINUOUS
10
56.3633459999999999
20
1.9549999999999998
11
56.1955929999999952
21
2.3729299999999998
0
LINE
8
BLACK
6
CONTINUOUS
10
56.1955929999999952
20
2.3729299999999998
11
55.5292499999999976
21
2.3729299999999998
0
LINE
8
BLACK
6
CONTINUOUS
10
55.5292499999999976
20
2.3729299999999998
11
55.3615229999999983
21
1.9549999999999998
0
LINE
8
BLACK
6
CONTINUOUS
10
55.3615229999999983
20
1.9549999999999998
11
55.1681740000000005
21
1.9549999999999998
0
LINE
8
BLACK
6
CONTINUOUS
10
55.1681740000000005
20
1.9549999999999998
11
55.4056889999999953
21
2.5383429999999998
0
LINE
8
BLACK
6
CONTINUOUS
10
55.4056889999999953
20
2.5383429999999998
11
55.7691029999999941
21
3.430898
0
LINE
8
BLACK
6
CONTINUOUS
10
55.7691029999999941
20
3.430898
11
55.9538419999999945
21
3.430898
0
LINE
8
BLACK
6
CONTINUOUS
10
55.9538419999999945
20
3.430898
11
55.9578719999999947
21
3.430898
0
LINE
8
BLACK
6
CONTINUOUS
10
55.9578719999999947
20
3.430898
11
56.5588009999999954
21
1.9549999999999998
0
LINE
8
BLACK
6
CONTINUOUS
10
55.5956349999999944
20
2.5383429999999998
11
56.1291979999999953
21
2.5383429999999998
0
LINE
8
BLACK
6
CONTINUOUS
10
56.1291979999999953
20
2.5383429999999998
11
55.8623949999999994
21
3.2030379999999998
0
LINE
8
BLACK
6
CONTINUOUS
10
55.8623949999999994
20
3.2030379999999998
11
55.5956349999999944
21
2.5383429999999998
0
LINE
8
BLACK
6
CONTINUOUS
10
56.9495280000000008
20
1.9549999999999998
11
56.7651559999999975
21
1.9549999999999998
0
LINE
8
BLACK
6
CONTINUOUS
10
56.7651559999999975
20
1.9549999999999998
11
56.7651559999999975
21
3.430898
0
LINE
8
BLACK
6
CONTINUOUS
10
56.7651559999999975
20
3.430898
11
56.9495280000000008
21
3.430898
0
LINE
8
BLACK
6
CONTINUOUS
10
56.9495280000000008
20
3.430898
11
56.9495280000000008
21
1.9549999999999998
0
LINE
8
BLACK
6
CONTINUOUS
10
57.871378
20
2.1587999999999998
11
58.3892479999999949
21
3.430898
0
LINE
8
BLACK
6
CONTINUOUS
10
58.3892479999999949
20
3.430898
11
58.5825969999999998
21
3.430898
0
LINE
8
BLACK
6
CONTINUOUS
10
58.5825969999999998
20
3.430898
11
57.9711349999999968
21
1.9549999999999998
0
LINE
8
BLACK
6
CONTINUOUS
10
57.9711349999999968
20
1.9549999999999998
11
57.7884109999999964
21
1.9549999999999998
0
LINE
8
BLACK
6
CONTINUOUS
10
57.7884109999999964
20
1.9549999999999998
11
57.7698180000000008
21
1.9549999999999998
0
LINE
8
BLACK
6
CONTINUOUS
10
57.7698180000000008
20
1.9549999999999998
11
57.1583559999999977
21
3.430898
0
LINE
8
BLACK
6
CONTINUOUS
10
57.1583559999999977
20
3.430898
11
57.3516130000000004
21
3.430898
0
LINE
8
BLACK
6
CONTINUOUS
10
57.3516130000000004
20
3.430898
11
57.871378
21
2.1587999999999998
0
LINE
8
BLACK
6
CONTINUOUS
10
95.2702219999999897
20
7.4938940000000001
11
95.4098949999999917
21
7.4747749999999993
0
LINE
8
BLACK
6
CONTINUOUS
10
95.4098949999999917
20
7.4747749999999993
11
95.5482729999999947
21
7.4478399999999993
0
LINE
8
BLACK
6
CONTINUOUS
10
95.5482729999999947
20
7.4478399999999993
11
95.6849189999999936
21
7.4131739999999997
0
LINE
8
BLACK
6
CONTINUOUS
10
95.6849189999999936
20
7.4131739999999997
11
95.8194029999999941
21
7.3708869999999997
0
LINE
8
BLACK
6
CONTINUOUS
10
95.8194029999999941
20
7.3708869999999997
11
95.9512979999999942
21
7.3211109999999993
0
LINE
8
BLACK
6
CONTINUOUS
10
95.9512979999999942
20
7.3211109999999993
11
96.0801879999999926
21
7.264005
0
LINE
8
BLACK
6
CONTINUOUS
10
96.0801879999999926
20
7.264005
11
96.2056679999999886
21
7.1997479999999996
0
LINE
8
BLACK
6
CONTINUOUS
10
96.2056679999999886
20
7.1997479999999996
11
96.3273389999999949
21
7.1285429999999996
0
LINE
8
BLACK
6
CONTINUOUS
10
96.3273389999999949
20
7.1285429999999996
11
96.4448179999999979
21
7.0506159999999998
0
LINE
8
BLACK
6
CONTINUOUS
10
96.4448179999999979
20
7.0506159999999998
11
96.5577339999999964
21
6.9662129999999998
0
LINE
8
BLACK
6
CONTINUOUS
10
96.5577339999999964
20
6.9662129999999998
11
96.6657289999999989
21
6.8755989999999994
0
LINE
8
BLACK
6
CONTINUOUS
10
96.6657289999999989
20
6.8755989999999994
11
96.7684639999999945
21
6.7790609999999996
0
LINE
8
BLACK
6
CONTINUOUS
10
96.7684639999999945
20
6.7790609999999996
11
96.8656139999999937
21
6.6769049999999996
0
LINE
8
BLACK
6
CONTINUOUS
10
96.8656139999999937
20
6.6769049999999996
11
96.9568709999999925
21
6.5694520000000001
0
LINE
8
BLACK
6
CONTINUOUS
10
96.9568709999999925
20
6.5694520000000001
11
97.0419479999999908
21
6.4570429999999996
0
LINE
8
BLACK
6
CONTINUOUS
10
97.0419479999999908
20
6.4570429999999996
11
97.1205759999999998
21
6.3400309999999998
0
LINE
8
BLACK
6
CONTINUOUS
10
97.1205759999999998
20
6.3400309999999998
11
97.1925059999999945
21
6.218788
0
LINE
8
BLACK
6
CONTINUOUS
10
97.1925059999999945
20
6.218788
11
97.2575109999999938
21
6.0936949999999994
0
LINE
8
BLACK
6
CONTINUOUS
10
97.2575109999999938
20
6.0936949999999994
11
97.3153870000000012
21
5.9651480000000001
0
LINE
8
BLACK
6
CONTINUOUS
10
97.3153870000000012
20
5.9651480000000001
11
97.3659490000000005
21
5.8335520000000001
0
LINE
8
BLACK
6
CONTINUOUS
10
97.3659490000000005
20
5.8335520000000001
11
97.4090399999999903
21
5.6993239999999998
0
LINE
8
BLACK
6
CONTINUOUS
10
97.4090399999999903
20
5.6993239999999998
11
97.4445209999999946
21
5.5628869999999999
0
LINE
8
BLACK
6
CONTINUOUS
10
97.4445209999999946
20
5.5628869999999999
11
97.4722819999999928
21
5.4246720000000002
0
LINE
8
BLACK
6
CONTINUOUS
10
97.4722819999999928
20
5.4246720000000002
11
97.4922349999999938
21
5.2851159999999995
0
LINE
8
BLACK
6
CONTINUOUS
10
97.4922349999999938
20
5.2851159999999995
11
97.5043159999999887
21
5.14466
0
LINE
8
BLACK
6
CONTINUOUS
10
97.5043159999999887
20
5.14466
11
97.5084879999999998
21
5.0037469999999997
0
LINE
8
BLACK
6
CONTINUOUS
10
97.5084879999999998
20
5.0037469999999997
11
97.5047369999999916
21
4.8628219999999995
0
LINE
8
BLACK
6
CONTINUOUS
10
97.5047369999999916
20
4.8628219999999995
11
97.4930749999999904
21
4.7223299999999995
0
LINE
8
BLACK
6
CONTINUOUS
10
97.4930749999999904
20
4.7223299999999995
11
97.4735399999999998
21
4.5827149999999994
0
LINE
8
BLACK
6
CONTINUOUS
10
97.4735399999999998
20
4.5827149999999994
11
97.4461919999999964
21
4.4444179999999998
0
LINE
8
BLACK
6
CONTINUOUS
10
97.4461919999999964
20
4.4444179999999998
11
97.4111180000000019
21
4.3078759999999994
0
LINE
8
BLACK
6
CONTINUOUS
10
97.4111180000000019
20
4.3078759999999994
11
97.3684289999999919
21
4.1735189999999998
0
LINE
8
BLACK
6
CONTINUOUS
10
97.3684289999999919
20
4.1735189999999998
11
97.3182599999999951
21
4.0417730000000001
0
LINE
8
BLACK
6
CONTINUOUS
10
97.3182599999999951
20
4.0417730000000001
11
97.2607679999999988
21
3.9130539999999998
0
LINE
8
BLACK
6
CONTINUOUS
10
97.2607679999999988
20
3.9130539999999998
11
97.1961369999999931
21
3.7877669999999997
0
LINE
8
BLACK
6
CONTINUOUS
10
97.1961369999999931
20
3.7877669999999997
11
97.1245689999999939
21
3.666309
0
LINE
8
BLACK
6
CONTINUOUS
10
97.1245689999999939
20
3.666309
11
97.046291999999994
21
3.549064
0
LINE
8
BLACK
6
CONTINUOUS
10
97.046291999999994
20
3.549064
11
96.961551
21
3.4363999999999999
0
LINE
8
BLACK
6
CONTINUOUS
10
96.961551
20
3.4363999999999999
11
96.8706150000000008
21
3.3286759999999997
0
LINE
8
BLACK
6
CONTINUOUS
10
96.8706150000000008
20
3.3286759999999997
11
96.7737709999999964
21
3.2262299999999997
0
LINE
8
BLACK
6
CONTINUOUS
10
96.7737709999999964
20
3.2262299999999997
11
96.671324999999996
21
3.1293859999999998
0
LINE
8
BLACK
6
CONTINUOUS
10
96.671324999999996
20
3.1293859999999998
11
96.5635999999999939
21
3.0384499999999997
0
LINE
8
BLACK
6
CONTINUOUS
10
96.5635999999999939
20
3.0384499999999997
11
96.4509369999999961
21
2.9537089999999999
0
LINE
8
BLACK
6
CONTINUOUS
10
96.4509369999999961
20
2.9537089999999999
11
96.3336910000000017
21
2.8754309999999998
0
LINE
8
BLACK
6
CONTINUOUS
10
96.3336910000000017
20
2.8754309999999998
11
96.2122329999999977
21
2.8038639999999999
0
LINE
8
BLACK
6
CONTINUOUS
10
96.2122329999999977
20
2.8038639999999999
11
96.086946999999995
21
2.7392319999999999
0
LINE
8
BLACK
6
CONTINUOUS
10
96.086946999999995
20
2.7392319999999999
11
95.9582269999999937
21
2.6817409999999997
0
LINE
8
BLACK
6
CONTINUOUS
10
95.9582269999999937
20
2.6817409999999997
11
95.8264810000000011
21
2.6315709999999997
0
LINE
8
BLACK
6
CONTINUOUS
10
95.8264810000000011
20
2.6315709999999997
11
95.6921249999999901
21
2.5888819999999999
0
LINE
8
BLACK
6
CONTINUOUS
10
95.6921249999999901
20
2.5888819999999999
11
95.5555829999999986
21
2.5538080000000001
0
LINE
8
BLACK
6
CONTINUOUS
10
95.5555829999999986
20
2.5538080000000001
11
95.4172859999999901
21
2.5264599999999997
0
LINE
8
BLACK
6
CONTINUOUS
10
95.4172859999999901
20
2.5264599999999997
11
95.277670999999998
21
2.5069249999999998
0
LINE
8
BLACK
6
CONTINUOUS
10
95.277670999999998
20
2.5069249999999998
11
95.1371789999999891
21
2.495263
0
LINE
8
BLACK
6
CONTINUOUS
10
95.1371789999999891
20
2.495263
11
94.9962539999999933
21
2.4915119999999997
0
LINE
8
BLACK
6
CONTINUOUS
10
94.9962539999999933
20
2.4915119999999997
11
94.8553409999999957
21
2.4956839999999998
0
LINE
8
BLACK
6
CONTINUOUS
10
94.8553409999999957
20
2.4956839999999998
11
94.7148839999999979
21
2.507765
0
LINE
8
BLACK
6
CONTINUOUS
10
94.7148839999999979
20
2.507765
11
94.575327999999999
21
2.5277179999999997
0
LINE
8
BLACK
6
CONTINUOUS
10
94.575327999999999
20
2.5277179999999997
11
94.437113999999994
21
2.5554790000000001
0
LINE
8
BLACK
6
CONTINUOUS
10
94.437113999999994
20
2.5554790000000001
11
94.3006769999999932
21
2.5909599999999999
0
LINE
8
BLACK
6
CONTINUOUS
10
94.3006769999999932
20
2.5909599999999999
11
94.1664490000000001
21
2.6340499999999998
0
LINE
8
BLACK
6
CONTINUOUS
10
94.1664490000000001
20
2.6340499999999998
11
94.0348529999999982
21
2.6846129999999997
0
LINE
8
BLACK
6
CONTINUOUS
10
94.0348529999999982
20
2.6846129999999997
11
93.9063060000000007
21
2.7424879999999998
0
LINE
8
BLACK
6
CONTINUOUS
10
93.9063060000000007
20
2.7424879999999998
11
93.7812129999999939
21
2.8074939999999997
0
LINE
8
BLACK
6
CONTINUOUS
10
93.7812129999999939
20
2.8074939999999997
11
93.6599689999999896
21
2.8794239999999998
0
LINE
8
BLACK
6
CONTINUOUS
10
93.6599689999999896
20
2.8794239999999998
11
93.5429579999999987
21
2.9580509999999998
0
LINE
8
BLACK
6
CONTINUOUS
10
93.5429579999999987
20
2.9580509999999998
11
93.4305480000000017
21
3.0431279999999998
0
LINE
8
BLACK
6
CONTINUOUS
10
93.4305480000000017
20
3.0431279999999998
11
93.3230959999999925
21
3.1343859999999997
0
LINE
8
BLACK
6
CONTINUOUS
10
93.3230959999999925
20
3.1343859999999997
11
93.2209390000000013
21
3.231535
0
LINE
8
BLACK
6
CONTINUOUS
10
93.2209390000000013
20
3.231535
11
93.1244019999999892
21
3.3342700000000001
0
LINE
8
BLACK
6
CONTINUOUS
10
93.1244019999999892
20
3.3342700000000001
11
93.0337880000000013
21
3.442266
0
LINE
8
BLACK
6
CONTINUOUS
10
93.0337880000000013
20
3.442266
11
92.9493839999999949
21
3.5551819999999998
0
LINE
8
BLACK
6
CONTINUOUS
10
92.9493839999999949
20
3.5551819999999998
11
92.8714569999999924
21
3.6726609999999997
0
LINE
8
BLACK
6
CONTINUOUS
10
92.8714569999999924
20
3.6726609999999997
11
92.8002520000000004
21
3.7943319999999998
0
LINE
8
BLACK
6
CONTINUOUS
10
92.8002520000000004
20
3.7943319999999998
11
92.7359950000000026
21
3.9198109999999997
0
LINE
8
BLACK
6
CONTINUOUS
10
92.7359950000000026
20
3.9198109999999997
11
92.6788889999999981
21
4.0487009999999994
0
LINE
8
BLACK
6
CONTINUOUS
10
92.6788889999999981
20
4.0487009999999994
11
92.6291129999999896
21
4.1805969999999997
0
LINE
8
BLACK
6
CONTINUOUS
10
92.6291129999999896
20
4.1805969999999997
11
92.5868260000000021
21
4.31508
0
LINE
8
BLACK
6
CONTINUOUS
10
92.5868260000000021
20
4.31508
11
92.5521600000000007
21
4.4517259999999998
0
LINE
8
BLACK
6
CONTINUOUS
10
92.5521600000000007
20
4.4517259999999998
11
92.5252249999999918
21
4.5901040000000002
0
LINE
8
BLACK
6
CONTINUOUS
10
92.5252249999999918
20
4.5901040000000002
11
92.5061060000000026
21
4.7297769999999995
0
LINE
8
BLACK
6
CONTINUOUS
10
92.5061060000000026
20
4.7297769999999995
11
92.4999990000000025
21
4.800001
0
LINE
8
BLACK
6
CONTINUOUS
10
92.4999990000000025
20
4.800001
11
92.4999990000000025
21
4.8000029999999994
0
LINE
8
BLACK
6
CONTINUOUS
10
92.4999990000000025
20
4.8000029999999994
11
95.1999999999999886
21
4.7999999999999998
0
LINE
8
BLACK
6
CONTINUOUS
10
95.1999999999999886
20
4.7999999999999998
11
95.1999999999999886
21
7.4999979999999997
0
LINE
8
BLACK
6
CONTINUOUS
10
95.1999999999999886
20
7.4999979999999997
11
95.2702219999999897
21
7.4938940000000001
0
LINE
8
BLACK
6
CONTINUOUS
10
7.4999989999999999
20
4.7999999999999998
11
7.4938929999999999
21
4.7297769999999995
0
LINE
8
BLACK
6
CONTINUOUS
10
7.4938929999999999
20
4.7297769999999995
11
7.474774
21
4.5901040000000002
0
LINE
8
BLACK
6
CONTINUOUS
10
7.474774
20
4.5901040000000002
11
7.4478390000000001
21
4.4517259999999998
0
LINE
8
BLACK
6
CONTINUOUS
10
7.4478390000000001
20
4.4517259999999998
11
7.4131729999999996
21
4.31508
0
LINE
8
BLACK
6
CONTINUOUS
10
7.4131729999999996
20
4.31508
11
7.3708859999999996
21
4.1805969999999997
0
LINE
8
BLACK
6
CONTINUOUS
10
7.3708859999999996
20
4.1805969999999997
11
7.32111
21
4.0487019999999996
0
LINE
8
BLACK
6
CONTINUOUS
10
7.32111
20
4.0487019999999996
11
7.2640039999999999
21
3.9198109999999997
0
LINE
8
BLACK
6
CONTINUOUS
10
7.2640039999999999
20
3.9198109999999997
11
7.1997469999999995
21
3.7943319999999998
0
LINE
8
BLACK
6
CONTINUOUS
10
7.1997469999999995
20
3.7943319999999998
11
7.1285419999999995
21
3.6726609999999997
0
LINE
8
BLACK
6
CONTINUOUS
10
7.1285419999999995
20
3.6726609999999997
11
7.0506149999999996
21
3.5551819999999998
0
LINE
8
BLACK
6
CONTINUOUS
10
7.0506149999999996
20
3.5551819999999998
11
6.9662109999999995
21
3.442266
0
LINE
8
BLACK
6
CONTINUOUS
10
6.9662109999999995
20
3.442266
11
6.8755980000000001
21
3.3342709999999998
0
LINE
8
BLACK
6
CONTINUOUS
10
6.8755980000000001
20
3.3342709999999998
11
6.7790599999999994
21
3.2315359999999997
0
LINE
8
BLACK
6
CONTINUOUS
10
6.7790599999999994
20
3.2315359999999997
11
6.6769039999999995
21
3.1343859999999997
0
LINE
8
BLACK
6
CONTINUOUS
10
6.6769039999999995
20
3.1343859999999997
11
6.5694509999999999
21
3.043129
0
LINE
8
BLACK
6
CONTINUOUS
10
6.5694509999999999
20
3.043129
11
6.4570419999999995
21
2.9580519999999999
0
LINE
8
BLACK
6
CONTINUOUS
10
6.4570419999999995
20
2.9580519999999999
11
6.3400299999999996
21
2.8794249999999999
0
LINE
8
BLACK
6
CONTINUOUS
10
6.3400299999999996
20
2.8794249999999999
11
6.2187869999999998
21
2.8074949999999999
0
LINE
8
BLACK
6
CONTINUOUS
10
6.2187869999999998
20
2.8074949999999999
11
6.0936940000000002
21
2.742489
0
LINE
8
BLACK
6
CONTINUOUS
10
6.0936940000000002
20
2.742489
11
5.965147
21
2.6846139999999998
0
LINE
8
BLACK
6
CONTINUOUS
10
5.965147
20
2.6846139999999998
11
5.8335509999999999
21
2.6340509999999999
0
LINE
8
BLACK
6
CONTINUOUS
10
5.8335509999999999
20
2.6340509999999999
11
5.6993229999999997
21
2.5909610000000001
0
LINE
8
BLACK
6
CONTINUOUS
10
5.6993229999999997
20
2.5909610000000001
11
5.5628859999999998
21
2.5554799999999998
0
LINE
8
BLACK
6
CONTINUOUS
10
5.5628859999999998
20
2.5554799999999998
11
5.4246720000000002
21
2.5277189999999998
0
LINE
8
BLACK
6
CONTINUOUS
10
5.4246720000000002
20
2.5277189999999998
11
5.2851159999999995
21
2.5077659999999997
0
LINE
8
BLACK
6
CONTINUOUS
10
5.2851159999999995
20
2.5077659999999997
11
5.1446589999999999
21
2.4956849999999999
0
LINE
8
BLACK
6
CONTINUOUS
10
5.1446589999999999
20
2.4956849999999999
11
5.0037459999999996
21
2.4915129999999999
0
LINE
8
BLACK
6
CONTINUOUS
10
5.0037459999999996
20
2.4915129999999999
11
4.8628209999999994
21
2.4952639999999997
0
LINE
8
BLACK
6
CONTINUOUS
10
4.8628209999999994
20
2.4952639999999997
11
4.7223290000000002
21
2.506926
0
LINE
8
BLACK
6
CONTINUOUS
10
4.7223290000000002
20
2.506926
11
4.5827149999999994
21
2.5264609999999998
0
LINE
8
BLACK
6
CONTINUOUS
10
4.5827149999999994
20
2.5264609999999998
11
4.4444179999999998
21
2.5538089999999998
0
LINE
8
BLACK
6
CONTINUOUS
10
4.4444179999999998
20
2.5538089999999998
11
4.3078750000000001
21
2.588883
0
LINE
8
BLACK
6
CONTINUOUS
10
4.3078750000000001
20
2.588883
11
4.1735189999999998
21
2.6315719999999998
0
LINE
8
BLACK
6
CONTINUOUS
10
4.1735189999999998
20
2.6315719999999998
11
4.0417730000000001
21
2.6817419999999998
0
LINE
8
BLACK
6
CONTINUOUS
10
4.0417730000000001
20
2.6817419999999998
11
3.9130539999999998
21
2.739233
0
LINE
8
BLACK
6
CONTINUOUS
10
3.9130539999999998
20
2.739233
11
3.7877669999999997
21
2.8038639999999999
0
LINE
8
BLACK
6
CONTINUOUS
10
3.7877669999999997
20
2.8038639999999999
11
3.666309
21
2.875432
0
LINE
8
BLACK
6
CONTINUOUS
10
3.666309
20
2.875432
11
3.549064
21
2.9537100000000001
0
LINE
8
BLACK
6
CONTINUOUS
10
3.549064
20
2.9537100000000001
11
3.436401
21
3.0384499999999997
0
LINE
8
BLACK
6
CONTINUOUS
10
3.436401
20
3.0384499999999997
11
3.3286759999999997
21
3.1293859999999998
0
LINE
8
BLACK
6
CONTINUOUS
10
3.3286759999999997
20
3.1293859999999998
11
3.2262299999999997
21
3.2262299999999997
0
LINE
8
BLACK
6
CONTINUOUS
10
3.2262299999999997
20
3.2262299999999997
11
3.1293859999999998
21
3.3286759999999997
0
LINE
8
BLACK
6
CONTINUOUS
10
3.1293859999999998
20
3.3286759999999997
11
3.0384499999999997
21
3.436401
0
LINE
8
BLACK
6
CONTINUOUS
10
3.0384499999999997
20
3.436401
11
2.9537100000000001
21
3.549064
0
LINE
8
BLACK
6
CONTINUOUS
10
2.9537100000000001
20
3.549064
11
2.875432
21
3.666309
0
LINE
8
BLACK
6
CONTINUOUS
10
2.875432
20
3.666309
11
2.8038639999999999
21
3.7877669999999997
0
LINE
8
BLACK
6
CONTINUOUS
10
2.8038639999999999
20
3.7877669999999997
11
2.739233
21
3.9130539999999998
0
LINE
8
BLACK
6
CONTINUOUS
10
2.739233
20
3.9130539999999998
11
2.6817419999999998
21
4.0417730000000001
0
LINE
8
BLACK
6
CONTINUOUS
10
2.6817419999999998
20
4.0417730000000001
11
2.6315719999999998
21
4.1735189999999998
0
LINE
8
BLACK
6
CONTINUOUS
10
2.6315719999999998
20
4.1735189999999998
11
2.588883
21
4.3078750000000001
0
LINE
8
BLACK
6
CONTINUOUS
10
2.588883
20
4.3078750000000001
11
2.5538089999999998
21
4.4444179999999998
0
LINE
8
BLACK
6
CONTINUOUS
10
2.5538089999999998
20
4.4444179999999998
11
2.5264609999999998
21
4.5827149999999994
0
LINE
8
BLACK
6
CONTINUOUS
10
2.5264609999999998
20
4.5827149999999994
11
2.506926
21
4.7223290000000002
0
LINE
8
BLACK
6
CONTINUOUS
10
2.506926
20
4.7223290000000002
11
2.4952639999999997
21
4.8628209999999994
0
LINE
8
BLACK
6
CONTINUOUS
10
2.4952639999999997
20
4.8628209999999994
11
2.4915129999999999
21
5.0037459999999996
0
LINE
8
BLACK
6
CONTINUOUS
10
2.4915129999999999
20
5.0037459999999996
11
2.4956849999999999
21
5.1446589999999999
0
LINE
8
BLACK
6
CONTINUOUS
10
2.4956849999999999
20
5.1446589999999999
11
2.5077659999999997
21
5.2851159999999995
0
LINE
8
BLACK
6
CONTINUOUS
10
2.5077659999999997
20
5.2851159999999995
11
2.5277189999999998
21
5.4246720000000002
0
LINE
8
BLACK
6
CONTINUOUS
10
2.5277189999999998
20
5.4246720000000002
11
2.5554799999999998
21
5.5628859999999998
0
LINE
8
BLACK
6
CONTINUOUS
10
2.5554799999999998
20
5.5628859999999998
11
2.5909610000000001
21
5.6993229999999997
0
LINE
8
BLACK
6
CONTINUOUS
10
2.5909610000000001
20
5.6993229999999997
11
2.6340509999999999
21
5.8335509999999999
0
LINE
8
BLACK
6
CONTINUOUS
10
2.6340509999999999
20
5.8335509999999999
11
2.6846139999999998
21
5.965147
0
LINE
8
BLACK
6
CONTINUOUS
10
2.6846139999999998
20
5.965147
11
2.742489
21
6.0936940000000002
0
LINE
8
BLACK
6
CONTINUOUS
10
2.742489
20
6.0936940000000002
11
2.8074949999999999
21
6.2187869999999998
0
LINE
8
BLACK
6
CONTINUOUS
10
2.8074949999999999
20
6.2187869999999998
11
2.8794249999999999
21
6.3400299999999996
0
LINE
8
BLACK
6
CONTINUOUS
10
2.8794249999999999
20
6.3400299999999996
11
2.9580519999999999
21
6.4570419999999995
0
LINE
8
BLACK
6
CONTINUOUS
10
2.9580519999999999
20
6.4570419999999995
11
3.043129
21
6.5694509999999999
0
LINE
8
BLACK
6
CONTINUOUS
10
3.043129
20
6.5694509999999999
11
3.1343859999999997
21
6.6769039999999995
0
LINE
8
BLACK
6
CONTINUOUS
10
3.1343859999999997
20
6.6769039999999995
11
3.2315359999999997
21
6.7790599999999994
0
LINE
8
BLACK
6
CONTINUOUS
10
3.2315359999999997
20
6.7790599999999994
11
3.3342709999999998
21
6.8755980000000001
0
LINE
8
BLACK
6
CONTINUOUS
10
3.3342709999999998
20
6.8755980000000001
11
3.442266
21
6.9662109999999995
0
LINE
8
BLACK
6
CONTINUOUS
10
3.442266
20
6.9662109999999995
11
3.5551819999999998
21
7.0506149999999996
0
LINE
8
BLACK
6
CONTINUOUS
10
3.5551819999999998
20
7.0506149999999996
11
3.6726609999999997
21
7.1285419999999995
0
LINE
8
BLACK
6
CONTINUOUS
10
3.6726609999999997
20
7.1285419999999995
11
3.7943319999999998
21
7.1997469999999995
0
LINE
8
BLACK
6
CONTINUOUS
10
3.7943319999999998
20
7.1997469999999995
11
3.9198109999999997
21
7.2640039999999999
0
LINE
8
BLACK
6
CONTINUOUS
10
3.9198109999999997
20
7.2640039999999999
11
4.0487019999999996
21
7.32111
0
LINE
8
BLACK
6
CONTINUOUS
10
4.0487019999999996
20
7.32111
11
4.1805969999999997
21
7.3708859999999996
0
LINE
8
BLACK
6
CONTINUOUS
10
4.1805969999999997
20
7.3708859999999996
11
4.31508
21
7.4131729999999996
0
LINE
8
BLACK
6
CONTINUOUS
10
4.31508
20
7.4131729999999996
11
4.4517259999999998
21
7.4478390000000001
0
LINE
8
BLACK
6
CONTINUOUS
10
4.4517259999999998
20
7.4478390000000001
11
4.5901040000000002
21
7.474774
0
LINE
8
BLACK
6
CONTINUOUS
10
4.5901040000000002
20
7.474774
11
4.7297769999999995
21
7.4938929999999999
0
LINE
8
BLACK
6
CONTINUOUS
10
4.7297769999999995
20
7.4938929999999999
11
4.800001
21
7.5
0
LINE
8
BLACK
6
CONTINUOUS
10
4.800001
20
7.5
11
4.8000039999999995
21
7.5
0
LINE
8
BLACK
6
CONTINUOUS
10
4.8000039999999995
20
7.5
11
4.7999999999999998
21
4.7999999999999998
0
LINE
8
BLACK
6
CONTINUOUS
10
4.7999999999999998
20
4.7999999999999998
11
7.4999989999999999
21
4.7999999999999998
0
LINE
8
BLACK
6
CONTINUOUS
10
94.9430389999999989
20
59.9803149999999974
11
94.9887939999999986
21
59.9275109999999955
0
LINE
8
BLACK
6
CONTINUOUS
10
94.9887939999999986
20
59.9275109999999955
11
95.
21
59.8759999999999977
0
LINE
8
BLACK
6
CONTINUOUS
10
95.
20
59.8759999999999977
11
95.
21
5.1239999999999997
0
LINE
8
BLACK
6
CONTINUOUS
10
95.
20
5.1239999999999997
11
94.9803149999999903
21
5.0569609999999994
0
LINE
8
BLACK
6
CONTINUOUS
10
94.9803149999999903
20
5.0569609999999994
11
94.9275109999999955
21
5.0112059999999996
0
LINE
8
BLACK
6
CONTINUOUS
10
94.9275109999999955
20
5.0112059999999996
11
94.8759999999999906
21
5.
0
LINE
8
BLACK
6
CONTINUOUS
10
94.8759999999999906
20
5.
11
5.1239999999999997
21
5.
0
LINE
8
BLACK
6
CONTINUOUS
10
5.1239999999999997
20
5.
11
5.0569609999999994
21
5.019685
0
LINE
8
BLACK
6
CONTINUOUS
10
5.0569609999999994
20
5.019685
11
5.0112059999999996
21
5.072489
0
LINE
8
BLACK
6
CONTINUOUS
10
5.0112059999999996
20
5.072489
11
5.
21
5.1239999999999997
0
LINE
8
BLACK
6
CONTINUOUS
10
5.
20
5.1239999999999997
11
5.
21
59.8759999999999977
0
LINE
8
BLACK
6
CONTINUOUS
10
5.
20
59.8759999999999977
11
5.019685
21
59.9430389999999989
0
LINE
8
BLACK
6
CONTINUOUS
10
5.019685
20
59.9430389999999989
11
5.072489
21
59.9887939999999986
0
LINE
8
BLACK
6
CONTINUOUS
10
5.072489
20
59.9887939999999986
11
5.1239999999999997
21
60.
0
LINE
8
BLACK
6
CONTINUOUS
10
5.1239999999999997
20
60.
11
94.8759999999999906
21
60.
0
LINE
8
BLACK
6
CONTINUOUS
10
94.8759999999999906
20
60.
11
94.9430389999999989
21
59.9803149999999974
0
LINE
8
BLACK
6
CONTINUOUS
10
95.1371779999999916
20
62.5047369999999987
11
95.2776700000000005
21
62.4930749999999975
0
LINE
8
BLACK
6
CONTINUOUS
10
95.2776700000000005
20
62.4930749999999975
11
95.4172849999999926
21
62.4735399999999998
0
LINE
8
BLACK
6
CONTINUOUS
10
95.4172849999999926
20
62.4735399999999998
11
95.5555820000000011
21
62.4461919999999964
0
LINE
8
BLACK
6
CONTINUOUS
10
95.5555820000000011
20
62.4461919999999964
11
95.6921239999999926
21
62.4111179999999948
0
LINE
8
BLACK
6
CONTINUOUS
10
95.6921239999999926
20
62.4111179999999948
11
95.8264810000000011
21
62.368428999999999
0
LINE
8
BLACK
6
CONTINUOUS
10
95.8264810000000011
20
62.368428999999999
11
95.9582269999999937
21
62.3182599999999951
0
LINE
8
BLACK
6
CONTINUOUS
10
95.9582269999999937
20
62.3182599999999951
11
96.0869459999999975
21
62.2607679999999988
0
LINE
8
BLACK
6
CONTINUOUS
10
96.0869459999999975
20
62.2607679999999988
11
96.2122329999999977
21
62.1961370000000002
0
LINE
8
BLACK
6
CONTINUOUS
10
96.2122329999999977
20
62.1961370000000002
11
96.3336910000000017
21
62.1245689999999939
0
LINE
8
BLACK
6
CONTINUOUS
10
96.3336910000000017
20
62.1245689999999939
11
96.4509359999999987
21
62.046291999999994
0
LINE
8
BLACK
6
CONTINUOUS
10
96.4509359999999987
20
62.046291999999994
11
96.5635999999999939
21
61.961551
0
LINE
8
BLACK
6
CONTINUOUS
10
96.5635999999999939
20
61.961551
11
96.6713239999999985
21
61.8706149999999937
0
LINE
8
BLACK
6
CONTINUOUS
10
96.6713239999999985
20
61.8706149999999937
11
96.773769999999999
21
61.7737709999999964
0
LINE
8
BLACK
6
CONTINUOUS
10
96.773769999999999
20
61.7737709999999964
11
96.8706139999999891
21
61.671324999999996
0
LINE
8
BLACK
6
CONTINUOUS
10
96.8706139999999891
20
61.671324999999996
11
96.9615500000000026
21
61.5635999999999939
0
LINE
8
BLACK
6
CONTINUOUS
10
96.9615500000000026
20
61.5635999999999939
11
97.0462909999999965
21
61.4509369999999961
0
LINE
8
BLACK
6
CONTINUOUS
10
97.0462909999999965
20
61.4509369999999961
11
97.1245689999999939
21
61.3336909999999946
0
LINE
8
BLACK
6
CONTINUOUS
10
97.1245689999999939
20
61.3336909999999946
11
97.1961359999999956
21
61.2122329999999977
0
LINE
8
BLACK
6
CONTINUOUS
10
97.1961359999999956
20
61.2122329999999977
11
97.2607679999999988
21
61.086946999999995
0
LINE
8
BLACK
6
CONTINUOUS
10
97.2607679999999988
20
61.086946999999995
11
97.3182589999999976
21
60.9582269999999937
0
LINE
8
BLACK
6
CONTINUOUS
10
97.3182589999999976
20
60.9582269999999937
11
97.3684289999999919
21
60.826480999999994
0
LINE
8
BLACK
6
CONTINUOUS
10
97.3684289999999919
20
60.826480999999994
11
97.4111180000000019
21
60.6921249999999972
0
LINE
8
BLACK
6
CONTINUOUS
10
97.4111180000000019
20
60.6921249999999972
11
97.4461919999999964
21
60.5555829999999986
0
LINE
8
BLACK
6
CONTINUOUS
10
97.4461919999999964
20
60.5555829999999986
11
97.4735399999999998
21
60.4172859999999972
0
LINE
8
BLACK
6
CONTINUOUS
10
97.4735399999999998
20
60.4172859999999972
11
97.4930749999999904
21
60.277670999999998
0
LINE
8
BLACK
6
CONTINUOUS
10
97.4930749999999904
20
60.277670999999998
11
97.5047369999999916
21
60.1371789999999962
0
LINE
8
BLACK
6
CONTINUOUS
10
97.5047369999999916
20
60.1371789999999962
11
97.5084879999999998
21
59.9962540000000004
0
LINE
8
BLACK
6
CONTINUOUS
10
97.5084879999999998
20
59.9962540000000004
11
97.5043159999999887
21
59.8553409999999957
0
LINE
8
BLACK
6
CONTINUOUS
10
97.5043159999999887
20
59.8553409999999957
11
97.4922349999999938
21
59.7148839999999979
0
LINE
8
BLACK
6
CONTINUOUS
10
97.4922349999999938
20
59.7148839999999979
11
97.4722819999999928
21
59.575327999999999
0
LINE
8
BLACK
6
CONTINUOUS
10
97.4722819999999928
20
59.575327999999999
11
97.4445209999999946
21
59.437113999999994
0
LINE
8
BLACK
6
CONTINUOUS
10
97.4445209999999946
20
59.437113999999994
11
97.4090399999999903
21
59.3006770000000003
0
LINE
8
BLACK
6
CONTINUOUS
10
97.4090399999999903
20
59.3006770000000003
11
97.365949999999998
21
59.1664490000000001
0
LINE
8
BLACK
6
CONTINUOUS
10
97.365949999999998
20
59.1664490000000001
11
97.3153870000000012
21
59.0348529999999982
0
LINE
8
BLACK
6
CONTINUOUS
10
97.3153870000000012
20
59.0348529999999982
11
97.2575119999999913
21
58.9063060000000007
0
LINE
8
BLACK
6
CONTINUOUS
10
97.2575119999999913
20
58.9063060000000007
11
97.1925059999999945
21
58.7812129999999939
0
LINE
8
BLACK
6
CONTINUOUS
10
97.1925059999999945
20
58.7812129999999939
11
97.1205759999999998
21
58.6599689999999967
0
LINE
8
BLACK
6
CONTINUOUS
10
97.1205759999999998
20
58.6599689999999967
11
97.0419490000000025
21
58.5429579999999987
0
LINE
8
BLACK
6
CONTINUOUS
10
97.0419490000000025
20
58.5429579999999987
11
96.95687199999999
21
58.4305479999999946
0
LINE
8
BLACK
6
CONTINUOUS
10
96.95687199999999
20
58.4305479999999946
11
96.8656139999999937
21
58.3230959999999996
0
LINE
8
BLACK
6
CONTINUOUS
10
96.8656139999999937
20
58.3230959999999996
11
96.768464999999992
21
58.2209389999999942
0
LINE
8
BLACK
6
CONTINUOUS
10
96.768464999999992
20
58.2209389999999942
11
96.6657299999999964
21
58.1244019999999963
0
LINE
8
BLACK
6
CONTINUOUS
10
96.6657299999999964
20
58.1244019999999963
11
96.5577339999999964
21
58.0337879999999942
0
LINE
8
BLACK
6
CONTINUOUS
10
96.5577339999999964
20
58.0337879999999942
11
96.4448179999999979
21
57.9493839999999949
0
LINE
8
BLACK
6
CONTINUOUS
10
96.4448179999999979
20
57.9493839999999949
11
96.3273389999999949
21
57.8714569999999995
0
LINE
8
BLACK
6
CONTINUOUS
10
96.3273389999999949
20
57.8714569999999995
11
96.2056679999999886
21
57.8002520000000004
0
LINE
8
BLACK
6
CONTINUOUS
10
96.2056679999999886
20
57.8002520000000004
11
96.0801889999999901
21
57.7359949999999955
0
LINE
8
BLACK
6
CONTINUOUS
10
96.0801889999999901
20
57.7359949999999955
11
95.9512989999999917
21
57.6788889999999981
0
LINE
8
BLACK
6
CONTINUOUS
10
95.9512989999999917
20
57.6788889999999981
11
95.8194029999999941
21
57.6291129999999967
0
LINE
8
BLACK
6
CONTINUOUS
10
95.8194029999999941
20
57.6291129999999967
11
95.6849199999999911
21
57.586825999999995
0
LINE
8
BLACK
6
CONTINUOUS
10
95.6849199999999911
20
57.586825999999995
11
95.5482739999999922
21
57.5521600000000007
0
LINE
8
BLACK
6
CONTINUOUS
10
95.5482739999999922
20
57.5521600000000007
11
95.4098959999999892
21
57.5252249999999989
0
LINE
8
BLACK
6
CONTINUOUS
10
95.4098959999999892
20
57.5252249999999989
11
95.2702230000000014
21
57.5061059999999955
0
LINE
8
BLACK
6
CONTINUOUS
10
95.2702230000000014
20
57.5061059999999955
11
95.1999989999999912
21
57.4999989999999954
0
LINE
8
BLACK
6
CONTINUOUS
10
95.1999989999999912
20
57.4999989999999954
11
95.1999969999999962
21
57.4999989999999954
0
LINE
8
BLACK
6
CONTINUOUS
10
95.1999969999999962
20
57.4999989999999954
11
95.1999999999999886
21
60.1999999999999957
0
LINE
8
BLACK
6
CONTINUOUS
10
95.1999999999999886
20
60.1999999999999957
11
92.5000009999999975
21
60.1999999999999957
0
LINE
8
BLACK
6
CONTINUOUS
10
92.5000009999999975
20
60.1999999999999957
11
92.5061060000000026
21
60.2702219999999969
0
LINE
8
BLACK
6
CONTINUOUS
10
92.5061060000000026
20
60.2702219999999969
11
92.5252249999999918
21
60.4098949999999988
0
LINE
8
BLACK
6
CONTINUOUS
10
92.5252249999999918
20
60.4098949999999988
11
92.5521600000000007
21
60.5482729999999947
0
LINE
8
BLACK
6
CONTINUOUS
10
92.5521600000000007
20
60.5482729999999947
11
92.5868260000000021
21
60.6849190000000007
0
LINE
8
BLACK
6
CONTINUOUS
10
92.5868260000000021
20
60.6849190000000007
11
92.6291129999999896
21
60.8194029999999941
0
LINE
8
BLACK
6
CONTINUOUS
10
92.6291129999999896
20
60.8194029999999941
11
92.6788889999999981
21
60.9512979999999942
0
LINE
8
BLACK
6
CONTINUOUS
10
92.6788889999999981
20
60.9512979999999942
11
92.7359950000000026
21
61.0801879999999997
0
LINE
8
BLACK
6
CONTINUOUS
10
92.7359950000000026
20
61.0801879999999997
11
92.8002520000000004
21
61.2056679999999957
0
LINE
8
BLACK
6
CONTINUOUS
10
92.8002520000000004
20
61.2056679999999957
11
92.8714569999999924
21
61.3273389999999949
0
LINE
8
BLACK
6
CONTINUOUS
10
92.8714569999999924
20
61.3273389999999949
11
92.9493839999999949
21
61.4448179999999979
0
LINE
8
BLACK
6
CONTINUOUS
10
92.9493839999999949
20
61.4448179999999979
11
93.0337869999999896
21
61.5577339999999964
0
LINE
8
BLACK
6
CONTINUOUS
10
93.0337869999999896
20
61.5577339999999964
11
93.1244009999999918
21
61.6657289999999989
0
LINE
8
BLACK
6
CONTINUOUS
10
93.1244009999999918
20
61.6657289999999989
11
93.2209390000000013
21
61.7684639999999945
0
LINE
8
BLACK
6
CONTINUOUS
10
93.2209390000000013
20
61.7684639999999945
11
93.323094999999995
21
61.8656139999999937
0
LINE
8
BLACK
6
CONTINUOUS
10
93.323094999999995
20
61.8656139999999937
11
93.4305480000000017
21
61.9568709999999996
0
LINE
8
BLACK
6
CONTINUOUS
10
93.4305480000000017
20
61.9568709999999996
11
93.5429570000000012
21
62.0419479999999979
0
LINE
8
BLACK
6
CONTINUOUS
10
93.5429570000000012
20
62.0419479999999979
11
93.6599689999999896
21
62.1205759999999998
0
LINE
8
BLACK
6
CONTINUOUS
10
93.6599689999999896
20
62.1205759999999998
11
93.7812119999999965
21
62.1925059999999945
0
LINE
8
BLACK
6
CONTINUOUS
10
93.7812119999999965
20
62.1925059999999945
11
93.906304999999989
21
62.2575109999999938
0
LINE
8
BLACK
6
CONTINUOUS
10
93.906304999999989
20
62.2575109999999938
11
94.0348520000000008
21
62.3153869999999941
0
LINE
8
BLACK
6
CONTINUOUS
10
94.0348520000000008
20
62.3153869999999941
11
94.1664480000000026
21
62.3659490000000005
0
LINE
8
BLACK
6
CONTINUOUS
10
94.1664480000000026
20
62.3659490000000005
11
94.3006759999999957
21
62.4090399999999974
0
LINE
8
BLACK
6
CONTINUOUS
10
94.3006759999999957
20
62.4090399999999974
11
94.4371129999999965
21
62.4445209999999946
0
LINE
8
BLACK
6
CONTINUOUS
10
94.4371129999999965
20
62.4445209999999946
11
94.575327999999999
21
62.4722819999999999
0
LINE
8
BLACK
6
CONTINUOUS
10
94.575327999999999
20
62.4722819999999999
11
94.7148839999999979
21
62.4922349999999938
0
LINE
8
BLACK
6
CONTINUOUS
10
94.7148839999999979
20
62.4922349999999938
11
94.8553399999999982
21
62.5043159999999958
0
LINE
8
BLACK
6
CONTINUOUS
10
94.8553399999999982
20
62.5043159999999958
11
94.9962529999999958
21
62.5084879999999998
0
LINE
8
BLACK
6
CONTINUOUS
10
94.9962529999999958
20
62.5084879999999998
11
95.1371779999999916
21
62.5047369999999987
0
LINE
8
BLACK
6
CONTINUOUS
10
5.1446589999999999
20
62.5043149999999983
11
5.2851149999999993
21
62.4922339999999963
0
LINE
8
BLACK
6
CONTINUOUS
10
5.2851149999999993
20
62.4922339999999963
11
5.424671
21
62.4722809999999953
0
LINE
8
BLACK
6
CONTINUOUS
10
5.424671
20
62.4722809999999953
11
5.5628859999999998
21
62.4445199999999971
0
LINE
8
BLACK
6
CONTINUOUS
10
5.5628859999999998
20
62.4445199999999971
11
5.6993229999999997
21
62.4090389999999999
0
LINE
8
BLACK
6
CONTINUOUS
10
5.6993229999999997
20
62.4090389999999999
11
5.8335509999999999
21
62.3659490000000005
0
LINE
8
BLACK
6
CONTINUOUS
10
5.8335509999999999
20
62.3659490000000005
11
5.9651459999999998
21
62.3153859999999966
0
LINE
8
BLACK
6
CONTINUOUS
10
5.9651459999999998
20
62.3153859999999966
11
6.093693
21
62.2575109999999938
0
LINE
8
BLACK
6
CONTINUOUS
10
6.093693
20
62.2575109999999938
11
6.2187859999999997
21
62.1925059999999945
0
LINE
8
BLACK
6
CONTINUOUS
10
6.2187859999999997
20
62.1925059999999945
11
6.3400299999999996
21
62.1205759999999998
0
LINE
8
BLACK
6
CONTINUOUS
10
6.3400299999999996
20
62.1205759999999998
11
6.4570409999999994
21
62.0419479999999979
0
LINE
8
BLACK
6
CONTINUOUS
10
6.4570409999999994
20
62.0419479999999979
11
6.5694509999999999
21
61.9568709999999996
0
LINE
8
BLACK
6
CONTINUOUS
10
6.5694509999999999
20
61.9568709999999996
11
6.6769029999999994
21
61.8656139999999937
0
LINE
8
BLACK
6
CONTINUOUS
10
6.6769029999999994
20
61.8656139999999937
11
6.7790599999999994
21
61.7684649999999991
0
LINE
8
BLACK
6
CONTINUOUS
10
6.7790599999999994
20
61.7684649999999991
11
6.875597
21
61.6657299999999964
0
LINE
8
BLACK
6
CONTINUOUS
10
6.875597
20
61.6657299999999964
11
6.9662109999999995
21
61.5577339999999964
0
LINE
8
BLACK
6
CONTINUOUS
10
6.9662109999999995
20
61.5577339999999964
11
7.0506149999999996
21
61.4448189999999954
0
LINE
8
BLACK
6
CONTINUOUS
10
7.0506149999999996
20
61.4448189999999954
11
7.1285419999999995
21
61.3273399999999995
0
LINE
8
BLACK
6
CONTINUOUS
10
7.1285419999999995
20
61.3273399999999995
11
7.1997459999999993
21
61.2056690000000003
0
LINE
8
BLACK
6
CONTINUOUS
10
7.1997459999999993
20
61.2056690000000003
11
7.2640029999999998
21
61.0801899999999947
0
LINE
8
BLACK
6
CONTINUOUS
10
7.2640029999999998
20
61.0801899999999947
11
7.32111
21
60.9512989999999988
0
LINE
8
BLACK
6
CONTINUOUS
10
7.32111
20
60.9512989999999988
11
7.3708849999999995
21
60.8194039999999987
0
LINE
8
BLACK
6
CONTINUOUS
10
7.3708849999999995
20
60.8194039999999987
11
7.4131729999999996
21
60.6849209999999957
0
LINE
8
BLACK
6
CONTINUOUS
10
7.4131729999999996
20
60.6849209999999957
11
7.4478390000000001
21
60.5482749999999967
0
LINE
8
BLACK
6
CONTINUOUS
10
7.4478390000000001
20
60.5482749999999967
11
7.474774
21
60.4098969999999937
0
LINE
8
BLACK
6
CONTINUOUS
10
7.474774
20
60.4098969999999937
11
7.4938919999999998
21
60.2702239999999989
0
LINE
8
BLACK
6
CONTINUOUS
10
7.4938919999999998
20
60.2702239999999989
11
7.5
21
60.1999999999999957
0
LINE
8
BLACK
6
CONTINUOUS
10
7.5
20
60.1999999999999957
11
7.5
21
60.1999959999999987
0
LINE
8
BLACK
6
CONTINUOUS
10
7.5
20
60.1999959999999987
11
4.7999999999999998
21
60.1999999999999957
0
LINE
8
BLACK
6
CONTINUOUS
10
4.7999999999999998
20
60.1999999999999957
11
4.7999999999999998
21
57.5000009999999975
0
LINE
8
BLACK
6
CONTINUOUS
10
4.7999999999999998
20
57.5000009999999975
11
4.7999999999999998
21
57.5
0
LINE
8
BLACK
6
CONTINUOUS
10
4.7999999999999998
20
57.5
11
4.7297760000000002
21
57.5061079999999976
0
LINE
8
BLACK
6
CONTINUOUS
10
4.7297760000000002
20
57.5061079999999976
11
4.590103
21
57.5252259999999964
0
LINE
8
BLACK
6
CONTINUOUS
10
4.590103
20
57.5252259999999964
11
4.4517249999999997
21
57.5521609999999981
0
LINE
8
BLACK
6
CONTINUOUS
10
4.4517249999999997
20
57.5521609999999981
11
4.3150789999999999
21
57.5868269999999995
0
LINE
8
BLACK
6
CONTINUOUS
10
4.3150789999999999
20
57.5868269999999995
11
4.1805959999999995
21
57.6291149999999988
0
LINE
8
BLACK
6
CONTINUOUS
10
4.1805959999999995
20
57.6291149999999988
11
4.0487009999999994
21
57.6788899999999956
0
LINE
8
BLACK
6
CONTINUOUS
10
4.0487009999999994
20
57.6788899999999956
11
3.91981
21
57.7359969999999976
0
LINE
8
BLACK
6
CONTINUOUS
10
3.91981
20
57.7359969999999976
11
3.7943309999999997
21
57.8002539999999954
0
LINE
8
BLACK
6
CONTINUOUS
10
3.7943309999999997
20
57.8002539999999954
11
3.67266
21
57.871457999999997
0
LINE
8
BLACK
6
CONTINUOUS
10
3.67266
20
57.871457999999997
11
3.5551809999999997
21
57.9493849999999995
0
LINE
8
BLACK
6
CONTINUOUS
10
3.5551809999999997
20
57.9493849999999995
11
3.442266
21
58.0337889999999987
0
LINE
8
BLACK
6
CONTINUOUS
10
3.442266
20
58.0337889999999987
11
3.3342700000000001
21
58.1244029999999938
0
LINE
8
BLACK
6
CONTINUOUS
10
3.3342700000000001
20
58.1244029999999938
11
3.231535
21
58.2209399999999988
0
LINE
8
BLACK
6
CONTINUOUS
10
3.231535
20
58.2209399999999988
11
3.1343859999999997
21
58.3230969999999971
0
LINE
8
BLACK
6
CONTINUOUS
10
3.1343859999999997
20
58.3230969999999971
11
3.043129
21
58.4305489999999992
0
LINE
8
BLACK
6
CONTINUOUS
10
3.043129
20
58.4305489999999992
11
2.9580519999999999
21
58.5429589999999962
0
LINE
8
BLACK
6
CONTINUOUS
10
2.9580519999999999
20
58.5429589999999962
11
2.8794239999999998
21
58.6599699999999942
0
LINE
8
BLACK
6
CONTINUOUS
10
2.8794239999999998
20
58.6599699999999942
11
2.8074939999999997
21
58.7812139999999985
0
LINE
8
BLACK
6
CONTINUOUS
10
2.8074939999999997
20
58.7812139999999985
11
2.742489
21
58.9063069999999982
0
LINE
8
BLACK
6
CONTINUOUS
10
2.742489
20
58.9063069999999982
11
2.6846139999999998
21
59.0348539999999957
0
LINE
8
BLACK
6
CONTINUOUS
10
2.6846139999999998
20
59.0348539999999957
11
2.6340509999999999
21
59.1664490000000001
0
LINE
8
BLACK
6
CONTINUOUS
10
2.6340509999999999
20
59.1664490000000001
11
2.5909610000000001
21
59.3006770000000003
0
LINE
8
BLACK
6
CONTINUOUS
10
2.5909610000000001
20
59.3006770000000003
11
2.5554799999999998
21
59.437113999999994
0
LINE
8
BLACK
6
CONTINUOUS
10
2.5554799999999998
20
59.437113999999994
11
2.5277189999999998
21
59.5753289999999964
0
LINE
8
BLACK
6
CONTINUOUS
10
2.5277189999999998
20
59.5753289999999964
11
2.5077659999999997
21
59.7148849999999953
0
LINE
8
BLACK
6
CONTINUOUS
10
2.5077659999999997
20
59.7148849999999953
11
2.4956849999999999
21
59.8553409999999957
0
LINE
8
BLACK
6
CONTINUOUS
10
2.4956849999999999
20
59.8553409999999957
11
2.4915129999999999
21
59.9962540000000004
0
LINE
8
BLACK
6
CONTINUOUS
10
2.4915129999999999
20
59.9962540000000004
11
2.4952639999999997
21
60.1371789999999962
0
LINE
8
BLACK
6
CONTINUOUS
10
2.4952639999999997
20
60.1371789999999962
11
2.506926
21
60.277670999999998
0
LINE
8
BLACK
6
CONTINUOUS
10
2.506926
20
60.277670999999998
11
2.5264609999999998
21
60.4172859999999972
0
LINE
8
BLACK
6
CONTINUOUS
10
2.5264609999999998
20
60.4172859999999972
11
2.5538089999999998
21
60.5555829999999986
0
LINE
8
BLACK
6
CONTINUOUS
10
2.5538089999999998
20
60.5555829999999986
11
2.588883
21
60.6921249999999972
0
LINE
8
BLACK
6
CONTINUOUS
10
2.588883
20
60.6921249999999972
11
2.6315719999999998
21
60.826480999999994
0
LINE
8
BLACK
6
CONTINUOUS
10
2.6315719999999998
20
60.826480999999994
11
2.6817419999999998
21
60.9582269999999937
0
LINE
8
BLACK
6
CONTINUOUS
10
2.6817419999999998
20
60.9582269999999937
11
2.739233
21
61.0869459999999975
0
LINE
8
BLACK
6
CONTINUOUS
10
2.739233
20
61.0869459999999975
11
2.8038639999999999
21
61.2122329999999977
0
LINE
8
BLACK
6
CONTINUOUS
10
2.8038639999999999
20
61.2122329999999977
11
2.875432
21
61.3336909999999946
0
LINE
8
BLACK
6
CONTINUOUS
10
2.875432
20
61.3336909999999946
11
2.9537100000000001
21
61.4509359999999987
0
LINE
8
BLACK
6
CONTINUOUS
10
2.9537100000000001
20
61.4509359999999987
11
3.0384499999999997
21
61.5635989999999964
0
LINE
8
BLACK
6
CONTINUOUS
10
3.0384499999999997
20
61.5635989999999964
11
3.1293859999999998
21
61.6713239999999985
0
LINE
8
BLACK
6
CONTINUOUS
10
3.1293859999999998
20
61.6713239999999985
11
3.2262299999999997
21
61.773769999999999
0
LINE
8
BLACK
6
CONTINUOUS
10
3.2262299999999997
20
61.773769999999999
11
3.3286759999999997
21
61.8706139999999962
0
LINE
8
BLACK
6
CONTINUOUS
10
3.3286759999999997
20
61.8706139999999962
11
3.436401
21
61.9615499999999955
0
LINE
8
BLACK
6
CONTINUOUS
10
3.436401
20
61.9615499999999955
11
3.549064
21
62.0462899999999991
0
LINE
8
BLACK
6
CONTINUOUS
10
3.549064
20
62.0462899999999991
11
3.666309
21
62.1245679999999965
0
LINE
8
BLACK
6
CONTINUOUS
10
3.666309
20
62.1245679999999965
11
3.7877669999999997
21
62.1961359999999956
0
LINE
8
BLACK
6
CONTINUOUS
10
3.7877669999999997
20
62.1961359999999956
11
3.9130539999999998
21
62.2607669999999942
0
LINE
8
BLACK
6
CONTINUOUS
10
3.9130539999999998
20
62.2607669999999942
11
4.0417730000000001
21
62.3182580000000002
0
LINE
8
BLACK
6
CONTINUOUS
10
4.0417730000000001
20
62.3182580000000002
11
4.1735189999999998
21
62.3684279999999944
0
LINE
8
BLACK
6
CONTINUOUS
10
4.1735189999999998
20
62.3684279999999944
11
4.3078750000000001
21
62.4111169999999973
0
LINE
8
BLACK
6
CONTINUOUS
10
4.3078750000000001
20
62.4111169999999973
11
4.4444169999999996
21
62.4461909999999989
0
LINE
8
BLACK
6
CONTINUOUS
10
4.4444169999999996
20
62.4461909999999989
11
4.5827140000000002
21
62.4735389999999953
0
LINE
8
BLACK
6
CONTINUOUS
10
4.5827140000000002
20
62.4735389999999953
11
4.7223290000000002
21
62.493074
0
LINE
8
BLACK
6
CONTINUOUS
10
4.7223290000000002
20
62.493074
11
4.8628209999999994
21
62.5047359999999941
0
LINE
8
BLACK
6
CONTINUOUS
10
4.8628209999999994
20
62.5047359999999941
11
5.0037459999999996
21
62.5084869999999952
0
LINE
8
BLACK
6
CONTINUOUS
10
5.0037459999999996
20
62.5084869999999952
11
5.1446589999999999
21
62.5043149999999983
0
CIRCLE
8
BLACK
10
32.5
20
25.
40
0.15
0
CIRCLE
8
BLACK
10
40.
20
10.
40
0.15
0
CIRCLE
8
BLACK
10
80.
20
10.
40
0.15
0
CIRCLE
8
BLACK
10
10.
20
25.
40
0.15
0
CIRCLE
8
BLACK
10
90.
20
50.
40
0.15
0
CIRCLE
8
BLACK
10
90.
20
30.
40
0.15
0
CIRCLE
8
BLACK
10
25.
20
55.
40
0.15
0
CIRCLE
8
BLACK
10
10.
20
35.
40
0.15
0
CIRCLE
8
BLACK
10
32.5
20
40.
40
0.15
0
CIRCLE
8
BLACK
10
90.
20
10.
40
0.15
0
CIRCLE
8
BLACK
10
30.
20
25.
40
0.15
0
CIRCLE
8
BLACK
10
10.
20
50.
40
0.15
0
CIRCLE
8
BLACK
10
55.
20
55.
40
0.15
0
CIRCLE
8
BLACK
10
20.
20
10.
40
0.15
0
CIRCLE
8
BLACK
10
65.
20
10.
40
0.15
0
CIRCLE
8
BLACK
10
25.
20
10.
40
0.15
0
CIRCLE
8
BLACK
10
30.
20
55.
40
0.15
0
CIRCLE
8
BLACK
10
72.5
20
25.
40
0.15
0
CIRCLE
8
BLACK
10
67.5
20
40.
40
0.15
0
CIRCLE
8
BLACK
10
10.
20
10.
40
0.15
0
CIRCLE
8
BLACK
10
15.
20
55.
40
0.15
0
CIRCLE
8
BLACK
10
55.
20
10.
40
0.15
0
CIRCLE
8
BLACK
10
10.
20
55.
40
0.15
0
CIRCLE
8
BLACK
10
70.
20
42.5
40
0.15
0
CIRCLE
8
BLACK
10
75.
20
55.
40
0.15
0
CIRCLE
8
BLACK
10
60.
20
10.
40
0.15
0
CIRCLE
8
BLACK
10
90.
20
15.
40
0.15
0
CIRCLE
8
BLACK
10
30.
20
27.5
40
0.15
0
CIRCLE
8
BLACK
10
30.
20
22.5
40
0.15
0
CIRCLE
8
BLACK
10
45.
20
55.
40
0.15
0
CIRCLE
8
BLACK
10
67.5
20
25.
40
0.15
0
CIRCLE
8
BLACK
10
40.
20
55.
40
0.15
0
CIRCLE
8
BLACK
10
72.5
20
40.
40
0.15
0
CIRCLE
8
BLACK
10
65.
20
55.
40
0.15
0
CIRCLE
8
BLACK
10
45.
20
10.
40
0.15
0
CIRCLE
8
BLACK
10
10.
20
45.
40
0.15
0
CIRCLE
8
BLACK
10
50.
20
10.
40
0.15
0
CIRCLE
8
BLACK
10
70.
20
55.
40
0.15
0
CIRCLE
8
BLACK
10
90.
20
40.
40
0.15
0
CIRCLE
8
BLACK
10
85.
20
55.
40
0.15
0
CIRCLE
8
BLACK
10
35.
20
55.
40
0.15
0
CIRCLE
8
BLACK
10
30.
20
42.5
40
0.15
0
CIRCLE
8
BLACK
10
90.
20
35.
40
0.15
0
CIRCLE
8
BLACK
10
80.
20
55.
40
0.15
0
CIRCLE
8
BLACK
10
90.
20
20.
40
0.15
0
CIRCLE
8
BLACK
10
60.
20
55.
40
0.15
0
CIRCLE
8
BLACK
10
10.
20
30.
40
0.15
0
CIRCLE
8
BLACK
10
75.
20
10.
40
0.15
0
CIRCLE
8
BLACK
10
30.
20
37.5
40
0.15
0
CIRCLE
8
BLACK
10
90.
20
25.
40
0.15
0
CIRCLE
8
BLACK
10
15.
20
10.
40
0.15
0
CIRCLE
8
BLACK
10
90.
20
45.
40
0.15
0
CIRCLE
8
BLACK
10
70.
20
25.
40
0.15
0
CIRCLE
8
BLACK
10
10.
20
20.
40
0.15
0
CIRCLE
8
BLACK
10
85.
20
10.
40
0.15
0
CIRCLE
8
BLACK
10
70.
20
22.5
40
0.15
0
CIRCLE
8
BLACK
10
70.
20
37.5
40
0.15
0
CIRCLE
8
BLACK
10
70.
20
40.
40
0.15
0
CIRCLE
8
BLACK
10
10.
20
15.
40
0.15
0
CIRCLE
8
BLACK
10
90.
20
55.
40
0.15
0
CIRCLE
8
BLACK
10
50.
20
55.
40
0.15
0
CIRCLE
8
BLACK
10
30.
20
40.
40
0.15
0
CIRCLE
8
BLACK
10
20.
20
55.
40
0.15
0
CIRCLE
8
BLACK
10
10.
20
40.
40
0.15
0
CIRCLE
8
BLACK
10
35.
20
10.
40
0.15
0
CIRCLE
8
BLACK
10
30.
20
10.
40
0.15
0
CIRCLE
8
BLACK
10
70.
20
10.
40
0.15
0
CIRCLE
8
BLACK
10
70.
20
27.5
40
0.15
0
CIRCLE
8
BLACK
10
27.5
20
25.
40
0.15
0
CIRCLE
8
BLACK
10
27.5
20
40.
40
0.15
  0
ENDSEC
  0
EOF
