  0
SECTION
  2
HEADER
  9
$ANGBASE
  50
0.0
  9
$ANGDIR
  70
1
  9
$MEASUREMENT
  70
1
  0
ENDSEC
  0
SECTION
  2
TABLES
  0
TABLE
  2
LTYPE
  70
4
  0
LTYPE
  5
40F
  2
CONTINUOUS
  70
0
  3
Solid line
  72
65
  73
0
  40
0.0
  0
LTYPE
  5
410
  2
DASHDOT
 70
0
  3
Dash Dot ____ _ ____ _
 72
65
 73
4
 40
2.0
 49
1.25
 49
-0.25
 49
0.25
 49
-0.25
  0
LTYPE
  5
411
  2
DASHED
 70
0
  3
Dashed __ __ __ __ __
 72
65
 73
2
 40
0.75
 49
0.5
 49
-0.25
  0
LTYPE
  5
43B
  2
DOTTED
 70
0
  3
Dotted .  .  .  .
 72
65
 73
2
 40
0.2
 49
0.0
 49
-0.2
  0
ENDTAB
  0
TABLE
  2
STYLE
  70
4
  0
STYLE
  2
KICAD
  70
0
  40
0
  41
1
  42
1
  50
0
  71
0
  3
isocp.shx
  0
STYLE
  2
KICADB
  70
0
  40
0
  41
1
  42
1
  50
0
  71
0
  3
isocp.shx
  0
STYLE
  2
KICADI
  70
0
  40
0
  41
1
  42
1
  50
15
  71
0
  3
isocp.shx
  0
STYLE
  2
KICADBI
  70
0
  40
0
  41
1
  42
1
  50
15
  71
0
  3
isocp.shx
  0
ENDTAB
  0
TABLE
  2
LAYER
  70
1
  0
LAYER
  2
BLACK
  70
0
  62
7
  6
CONTINUOUS
  0
ENDTAB
  0
ENDSEC
  0
SECTION
  2
ENTITIES
0
LINE
8
BLACK
6
CONTINUOUS
10
1.702601
20
1.1639969999999999
11
1.7438419999999999
21
1.1523109999999999
0
LINE
8
BLACK
6
CONTINUOUS
10
1.7438419999999999
20
1.1523109999999999
11
1.7811299999999999
21
1.1331279999999999
0
LINE
8
BLACK
6
CONTINUOUS
10
1.7811299999999999
20
1.1331279999999999
11
1.8141449999999999
21
1.1071219999999999
0
LINE
8
BLACK
6
CONTINUOUS
10
1.8141449999999999
20
1.1071219999999999
11
1.8420529999999999
21
1.074981
0
LINE
8
BLACK
6
CONTINUOUS
10
1.8420529999999999
20
1.074981
11
1.865119
21
1.0359499999999999
0
LINE
8
BLACK
6
CONTINUOUS
10
1.865119
20
1.0359499999999999
11
1.8814719999999998
21
0.993448
0
LINE
8
BLACK
6
CONTINUOUS
10
1.8814719999999998
20
0.993448
11
1.8916549999999999
21
0.9455969999999999
0
LINE
8
BLACK
6
CONTINUOUS
10
1.8916549999999999
20
0.9455969999999999
11
1.8952059999999999
21
0.891465
0
LINE
8
BLACK
6
CONTINUOUS
10
1.8952059999999999
20
0.891465
11
1.8916789999999999
21
0.838043
0
LINE
8
BLACK
6
CONTINUOUS
10
1.8916789999999999
20
0.838043
11
1.881518
21
0.79033
0
LINE
8
BLACK
6
CONTINUOUS
10
1.881518
20
0.79033
11
1.865119
21
0.7474839999999999
0
LINE
8
BLACK
6
CONTINUOUS
10
1.865119
20
0.7474839999999999
11
1.8420259999999999
21
0.708127
0
LINE
8
BLACK
6
CONTINUOUS
10
1.8420259999999999
20
0.708127
11
1.814114
21
0.675813
0
LINE
8
BLACK
6
CONTINUOUS
10
1.814114
20
0.675813
11
1.7811299999999999
21
0.649756
0
LINE
8
BLACK
6
CONTINUOUS
10
1.7811299999999999
20
0.649756
11
1.7438449999999999
21
0.630599
0
LINE
8
BLACK
6
CONTINUOUS
10
1.7438449999999999
20
0.630599
11
1.702604
21
0.6189279999999999
0
LINE
8
BLACK
6
CONTINUOUS
10
1.702604
20
0.6189279999999999
11
1.656474
21
0.614906
0
LINE
8
BLACK
6
CONTINUOUS
10
1.656474
20
0.614906
11
1.613156
21
0.6189209999999999
0
LINE
8
BLACK
6
CONTINUOUS
10
1.613156
20
0.6189209999999999
11
1.574514
21
0.6305839999999999
0
LINE
8
BLACK
6
CONTINUOUS
10
1.574514
20
0.6305839999999999
11
1.539604
21
0.649802
0
LINE
8
BLACK
6
CONTINUOUS
10
1.539604
20
0.649802
11
1.5091019999999999
21
0.675693
0
LINE
8
BLACK
6
CONTINUOUS
10
1.5091019999999999
20
0.675693
11
1.4832619999999999
21
0.7079559999999999
0
LINE
8
BLACK
6
CONTINUOUS
10
1.4832619999999999
20
0.7079559999999999
11
1.4804819999999999
21
0.713108
0
LINE
8
BLACK
6
CONTINUOUS
10
1.4804819999999999
20
0.713108
11
1.4804819999999999
21
0.417481
0
LINE
8
BLACK
6
CONTINUOUS
10
1.4804819999999999
20
0.417481
11
1.393562
21
0.417481
0
LINE
8
BLACK
6
CONTINUOUS
10
1.393562
20
0.417481
11
1.393562
21
0.891465
0
LINE
8
BLACK
6
CONTINUOUS
10
1.393562
20
0.891465
11
1.393562
21
1.15543
0
LINE
8
BLACK
6
CONTINUOUS
10
1.393562
20
1.15543
11
1.4751239999999999
21
1.15543
0
LINE
8
BLACK
6
CONTINUOUS
10
1.4751239999999999
20
1.15543
11
1.4798529999999999
21
1.068927
0
LINE
8
BLACK
6
CONTINUOUS
10
1.4798529999999999
20
1.068927
11
1.4832349999999999
21
1.075151
0
LINE
8
BLACK
6
CONTINUOUS
10
1.4832349999999999
20
1.075151
11
1.5090709999999998
21
1.1072579999999999
0
LINE
8
BLACK
6
CONTINUOUS
10
1.5090709999999998
20
1.1072579999999999
11
1.539604
21
1.1331279999999999
0
LINE
8
BLACK
6
CONTINUOUS
10
1.539604
20
1.1331279999999999
11
1.574514
21
1.1523459999999999
0
LINE
8
BLACK
6
CONTINUOUS
10
1.574514
20
1.1523459999999999
11
1.613156
21
1.1640089999999998
0
LINE
8
BLACK
6
CONTINUOUS
10
1.613156
20
1.1640089999999998
11
1.656474
21
1.168024
0
LINE
8
BLACK
6
CONTINUOUS
10
1.656474
20
1.168024
11
1.702601
21
1.1639969999999999
0
LINE
8
BLACK
6
CONTINUOUS
10
1.6089009999999999
20
1.0855969999999999
11
1.5818989999999999
21
1.077291
0
LINE
8
BLACK
6
CONTINUOUS
10
1.5818989999999999
20
1.077291
11
1.5570059999999999
21
1.0634729999999999
0
LINE
8
BLACK
6
CONTINUOUS
10
1.5570059999999999
20
1.0634729999999999
11
1.5351789999999998
21
1.045013
0
LINE
8
BLACK
6
CONTINUOUS
10
1.5351789999999998
20
1.045013
11
1.5164799999999998
21
1.0219749999999999
0
LINE
8
BLACK
6
CONTINUOUS
10
1.5164799999999998
20
1.0219749999999999
11
1.500815
21
0.993726
0
LINE
8
BLACK
6
CONTINUOUS
10
1.500815
20
0.993726
11
1.485762
21
0.946724
0
LINE
8
BLACK
6
CONTINUOUS
10
1.485762
20
0.946724
11
1.4804819999999999
21
0.891465
0
LINE
8
BLACK
6
CONTINUOUS
10
1.4804819999999999
20
0.891465
11
1.485762
21
0.836206
0
LINE
8
BLACK
6
CONTINUOUS
10
1.485762
20
0.836206
11
1.500815
21
0.789204
0
LINE
8
BLACK
6
CONTINUOUS
10
1.500815
20
0.789204
11
1.516443
21
0.76091
0
LINE
8
BLACK
6
CONTINUOUS
10
1.516443
20
0.76091
11
1.5349649999999999
21
0.73786
0
LINE
8
BLACK
6
CONTINUOUS
10
1.5349649999999999
20
0.73786
11
1.556457
21
0.719411
0
LINE
8
BLACK
6
CONTINUOUS
10
1.556457
20
0.719411
11
1.5810279999999999
21
0.7056359999999999
0
LINE
8
BLACK
6
CONTINUOUS
10
1.5810279999999999
20
0.7056359999999999
11
1.607855
21
0.697338
0
LINE
8
BLACK
6
CONTINUOUS
10
1.607855
20
0.697338
11
1.6375609999999998
21
0.6944979999999999
0
LINE
8
BLACK
6
CONTINUOUS
10
1.6375609999999998
20
0.6944979999999999
11
1.6694129999999998
21
0.697357
0
LINE
8
BLACK
6
CONTINUOUS
10
1.6694129999999998
20
0.697357
11
1.6981619999999999
21
0.705693
0
LINE
8
BLACK
6
CONTINUOUS
10
1.6981619999999999
20
0.705693
11
1.7244349999999999
21
0.719457
0
LINE
8
BLACK
6
CONTINUOUS
10
1.7244349999999999
20
0.719457
11
1.7477149999999999
21
0.7380169999999999
0
LINE
8
BLACK
6
CONTINUOUS
10
1.7477149999999999
20
0.7380169999999999
11
1.7677889999999998
21
0.761092
0
LINE
8
BLACK
6
CONTINUOUS
10
1.7677889999999998
20
0.761092
11
1.7847929999999999
21
0.789249
0
LINE
8
BLACK
6
CONTINUOUS
10
1.7847929999999999
20
0.789249
11
1.797056
21
0.819869
0
LINE
8
BLACK
6
CONTINUOUS
10
1.797056
20
0.819869
11
1.8046169999999999
21
0.8537439999999999
0
LINE
8
BLACK
6
CONTINUOUS
10
1.8046169999999999
20
0.8537439999999999
11
1.8072329999999999
21
0.891465
0
LINE
8
BLACK
6
CONTINUOUS
10
1.8072329999999999
20
0.891465
11
1.804732
21
0.929267
0
LINE
8
BLACK
6
CONTINUOUS
10
1.804732
20
0.929267
11
1.797515
21
0.9631459999999999
0
LINE
8
BLACK
6
CONTINUOUS
10
1.797515
20
0.9631459999999999
11
1.7858459999999998
21
0.9936809999999999
0
LINE
8
BLACK
6
CONTINUOUS
10
1.7858459999999998
20
0.9936809999999999
11
1.7694289999999999
21
1.021766
0
LINE
8
BLACK
6
CONTINUOUS
10
1.7694289999999999
20
1.021766
11
1.7495529999999999
21
1.0448439999999999
0
LINE
8
BLACK
6
CONTINUOUS
10
1.7495529999999999
20
1.0448439999999999
11
1.726038
21
1.0634729999999999
0
LINE
8
BLACK
6
CONTINUOUS
10
1.726038
20
1.0634729999999999
11
1.6994449999999999
21
1.0772519999999999
0
LINE
8
BLACK
6
CONTINUOUS
10
1.6994449999999999
20
1.0772519999999999
11
1.6705049999999999
21
1.0855809999999999
0
LINE
8
BLACK
6
CONTINUOUS
10
1.6705049999999999
20
1.0855809999999999
11
1.638614
21
1.0884319999999998
0
LINE
8
BLACK
6
CONTINUOUS
10
1.638614
20
1.0884319999999998
11
1.6089009999999999
21
1.0855969999999999
0
LINE
8
BLACK
6
CONTINUOUS
10
5.1896829999999996
20
0.7278359999999999
11
5.2087880000000002
21
0.714511
0
LINE
8
BLACK
6
CONTINUOUS
10
5.2087880000000002
20
0.714511
11
5.2217029999999998
21
0.695001
0
LINE
8
BLACK
6
CONTINUOUS
10
5.2217029999999998
20
0.695001
11
5.2260070000000001
21
0.672013
0
LINE
8
BLACK
6
CONTINUOUS
10
5.2260070000000001
20
0.672013
11
5.2217509999999994
21
0.6499309999999999
0
LINE
8
BLACK
6
CONTINUOUS
10
5.2217509999999994
20
0.6499309999999999
11
5.2087880000000002
21
0.630568
0
LINE
8
BLACK
6
CONTINUOUS
10
5.2087880000000002
20
0.630568
11
5.1896829999999996
21
0.617243
0
LINE
8
BLACK
6
CONTINUOUS
10
5.1896829999999996
20
0.617243
11
5.1667930000000002
21
0.612799
0
LINE
8
BLACK
6
CONTINUOUS
10
5.1667930000000002
20
0.612799
11
5.1438090000000001
21
0.617225
0
LINE
8
BLACK
6
CONTINUOUS
10
5.1438090000000001
20
0.617225
11
5.1242489999999998
21
0.630568
0
LINE
8
BLACK
6
CONTINUOUS
10
5.1242489999999998
20
0.630568
11
5.1108909999999996
21
0.649969
0
LINE
8
BLACK
6
CONTINUOUS
10
5.1108909999999996
20
0.649969
11
5.1065259999999997
21
0.672013
0
LINE
8
BLACK
6
CONTINUOUS
10
5.1065259999999997
20
0.672013
11
5.1109399999999994
21
0.694962
0
LINE
8
BLACK
6
CONTINUOUS
10
5.1109399999999994
20
0.694962
11
5.1242489999999998
21
0.714511
0
LINE
8
BLACK
6
CONTINUOUS
10
5.1242489999999998
20
0.714511
11
5.1438090000000001
21
0.727854
0
LINE
8
BLACK
6
CONTINUOUS
10
5.1438090000000001
20
0.727854
11
5.1667930000000002
21
0.7322799999999999
0
LINE
8
BLACK
6
CONTINUOUS
10
5.1667930000000002
20
0.7322799999999999
11
5.1896829999999996
21
0.7278359999999999
0
LINE
8
BLACK
6
CONTINUOUS
10
0.961812
20
1.3748209999999998
11
1.0104409999999999
21
1.36544
0
LINE
8
BLACK
6
CONTINUOUS
10
1.0104409999999999
20
1.36544
11
1.0553459999999999
21
1.3501559999999999
0
LINE
8
BLACK
6
CONTINUOUS
10
1.0553459999999999
20
1.3501559999999999
11
1.0970359999999999
21
1.3289949999999999
0
LINE
8
BLACK
6
CONTINUOUS
10
1.0970359999999999
20
1.3289949999999999
11
1.147465
21
1.2922169999999999
0
LINE
8
BLACK
6
CONTINUOUS
10
1.147465
20
1.2922169999999999
11
1.189608
21
1.2474969999999999
0
LINE
8
BLACK
6
CONTINUOUS
10
1.189608
20
1.2474969999999999
11
1.224073
21
1.1940359999999999
0
LINE
8
BLACK
6
CONTINUOUS
10
1.224073
20
1.1940359999999999
11
1.248837
21
1.1352149999999999
0
LINE
8
BLACK
6
CONTINUOUS
10
1.248837
20
1.1352149999999999
11
1.2641149999999999
21
1.06978
0
LINE
8
BLACK
6
CONTINUOUS
10
1.2641149999999999
20
1.06978
11
1.2694099999999999
21
0.996474
0
LINE
8
BLACK
6
CONTINUOUS
10
1.2694099999999999
20
0.996474
11
1.264124
21
0.923134
0
LINE
8
BLACK
6
CONTINUOUS
10
1.264124
20
0.923134
11
1.248853
21
0.85749
0
LINE
8
BLACK
6
CONTINUOUS
10
1.248853
20
0.85749
11
1.224073
21
0.7983169999999999
0
LINE
8
BLACK
6
CONTINUOUS
10
1.224073
20
0.7983169999999999
11
1.1896179999999998
21
0.744497
0
LINE
8
BLACK
6
CONTINUOUS
10
1.1896179999999998
20
0.744497
11
1.147805
21
0.699819
0
LINE
8
BLACK
6
CONTINUOUS
10
1.147805
20
0.699819
11
1.0980889999999999
21
0.663403
0
LINE
8
BLACK
6
CONTINUOUS
10
1.0980889999999999
20
0.663403
11
1.0569379999999999
21
0.6424879999999999
0
LINE
8
BLACK
6
CONTINUOUS
10
1.0569379999999999
20
0.6424879999999999
11
1.0125629999999999
21
0.627375
0
LINE
8
BLACK
6
CONTINUOUS
10
1.0125629999999999
20
0.627375
11
0.964457
21
0.6180939999999999
0
LINE
8
BLACK
6
CONTINUOUS
10
0.964457
20
0.6180939999999999
11
0.912022
21
0.614906
0
LINE
8
BLACK
6
CONTINUOUS
10
0.912022
20
0.614906
11
0.8590629999999999
21
0.618088
0
LINE
8
BLACK
6
CONTINUOUS
10
0.8590629999999999
20
0.618088
11
0.8103269999999999
21
0.6273609999999999
0
LINE
8
BLACK
6
CONTINUOUS
10
0.8103269999999999
20
0.6273609999999999
11
0.7652369999999999
21
0.642475
0
LINE
8
BLACK
6
CONTINUOUS
10
0.7652369999999999
20
0.642475
11
0.7232989999999999
21
0.663403
0
LINE
8
BLACK
6
CONTINUOUS
10
0.7232989999999999
20
0.663403
11
0.672531
21
0.699878
0
LINE
8
BLACK
6
CONTINUOUS
10
0.672531
20
0.699878
11
0.6298469999999999
21
0.74457
0
LINE
8
BLACK
6
CONTINUOUS
10
0.6298469999999999
20
0.74457
11
0.5946589999999999
21
0.7983169999999999
0
LINE
8
BLACK
6
CONTINUOUS
10
0.5946589999999999
20
0.7983169999999999
11
0.56931
21
0.8575459999999999
0
LINE
8
BLACK
6
CONTINUOUS
10
0.56931
20
0.8575459999999999
11
0.5537099999999999
21
0.923184
0
LINE
8
BLACK
6
CONTINUOUS
10
0.5537099999999999
20
0.923184
11
0.548314
21
0.996474
0
LINE
8
BLACK
6
CONTINUOUS
10
0.548314
20
0.996474
11
0.553681
21
1.070462
0
LINE
8
BLACK
6
CONTINUOUS
10
0.553681
20
1.070462
11
0.569139
21
1.1362289999999999
0
LINE
8
BLACK
6
CONTINUOUS
10
0.569139
20
1.1362289999999999
11
0.594155
21
1.1950889999999998
0
LINE
8
BLACK
6
CONTINUOUS
10
0.594155
20
1.1950889999999998
11
0.628931
21
1.248572
0
LINE
8
BLACK
6
CONTINUOUS
10
0.628931
20
1.248572
11
0.6710889999999999
21
1.2930969999999999
0
LINE
8
BLACK
6
CONTINUOUS
10
0.6710889999999999
20
1.2930969999999999
11
0.7211919999999999
21
1.329499
0
LINE
8
BLACK
6
CONTINUOUS
10
0.7211919999999999
20
1.329499
11
0.7626029999999999
21
1.350417
0
LINE
8
BLACK
6
CONTINUOUS
10
0.7626029999999999
20
1.350417
11
0.807327
21
1.3655469999999998
0
LINE
8
BLACK
6
CONTINUOUS
10
0.807327
20
1.3655469999999998
11
0.8558779999999999
21
1.374846
0
LINE
8
BLACK
6
CONTINUOUS
10
0.8558779999999999
20
1.374846
11
0.9088619999999999
21
1.3780429999999999
0
LINE
8
BLACK
6
CONTINUOUS
10
0.9088619999999999
20
1.3780429999999999
11
0.961812
21
1.3748209999999998
0
LINE
8
BLACK
6
CONTINUOUS
10
0.857737
20
1.2898499999999999
11
0.8117639999999999
21
1.2770949999999999
0
LINE
8
BLACK
6
CONTINUOUS
10
0.8117639999999999
20
1.2770949999999999
11
0.769964
21
1.256135
0
LINE
8
BLACK
6
CONTINUOUS
10
0.769964
20
1.256135
11
0.732734
21
1.227719
0
LINE
8
BLACK
6
CONTINUOUS
10
0.732734
20
1.227719
11
0.70117
21
1.1928079999999999
0
LINE
8
BLACK
6
CONTINUOUS
10
0.70117
20
1.1928079999999999
11
0.6749379999999999
21
1.150668
0
LINE
8
BLACK
6
CONTINUOUS
10
0.6749379999999999
20
1.150668
11
0.656122
21
1.1045849999999999
0
LINE
8
BLACK
6
CONTINUOUS
10
0.656122
20
1.1045849999999999
11
0.6445179999999999
21
1.053496
0
LINE
8
BLACK
6
CONTINUOUS
10
0.6445179999999999
20
1.053496
11
0.6405
21
0.996474
0
LINE
8
BLACK
6
CONTINUOUS
10
0.6405
20
0.996474
11
0.644543
21
0.938746
0
LINE
8
BLACK
6
CONTINUOUS
10
0.644543
20
0.938746
11
0.6561709999999999
21
0.887517
0
LINE
8
BLACK
6
CONTINUOUS
10
0.6561709999999999
20
0.887517
11
0.6749379999999999
21
0.841777
0
LINE
8
BLACK
6
CONTINUOUS
10
0.6749379999999999
20
0.841777
11
0.701197
21
0.800056
0
LINE
8
BLACK
6
CONTINUOUS
10
0.701197
20
0.800056
11
0.7330909999999999
21
0.765277
0
LINE
8
BLACK
6
CONTINUOUS
10
0.7330909999999999
20
0.765277
11
0.771017
21
0.736768
0
LINE
8
BLACK
6
CONTINUOUS
10
0.771017
20
0.736768
11
0.8135009999999999
21
0.715811
0
LINE
8
BLACK
6
CONTINUOUS
10
0.8135009999999999
20
0.715811
11
0.8601789999999999
21
0.7030529999999999
0
LINE
8
BLACK
6
CONTINUOUS
10
0.8601789999999999
20
0.7030529999999999
11
0.912022
21
0.698666
0
LINE
8
BLACK
6
CONTINUOUS
10
0.912022
20
0.698666
11
0.963101
21
0.703071
0
LINE
8
BLACK
6
CONTINUOUS
10
0.963101
20
0.703071
11
1.0086899999999999
21
0.7158399999999999
0
LINE
8
BLACK
6
CONTINUOUS
10
1.0086899999999999
20
0.7158399999999999
11
1.0498209999999999
21
0.736768
0
LINE
8
BLACK
6
CONTINUOUS
10
1.0498209999999999
20
0.736768
11
1.0863970000000001
21
0.765133
0
LINE
8
BLACK
6
CONTINUOUS
10
1.0863970000000001
20
0.765133
11
1.1174500000000001
21
0.799879
0
LINE
8
BLACK
6
CONTINUOUS
10
1.1174500000000001
20
0.799879
11
1.143289
21
0.841731
0
LINE
8
BLACK
6
CONTINUOUS
10
1.143289
20
0.841731
11
1.1618009999999999
21
0.8874759999999999
0
LINE
8
BLACK
6
CONTINUOUS
10
1.1618009999999999
20
0.8874759999999999
11
1.173278
21
0.938723
0
LINE
8
BLACK
6
CONTINUOUS
10
1.173278
20
0.938723
11
1.17727
21
0.996474
0
LINE
8
BLACK
6
CONTINUOUS
10
1.17727
20
0.996474
11
1.1732419999999999
21
1.0534919999999999
0
LINE
8
BLACK
6
CONTINUOUS
10
1.1732419999999999
20
1.0534919999999999
11
1.161608
21
1.1045799999999999
0
LINE
8
BLACK
6
CONTINUOUS
10
1.161608
20
1.1045799999999999
11
1.1427399999999999
21
1.150668
0
LINE
8
BLACK
6
CONTINUOUS
10
1.1427399999999999
20
1.150668
11
1.116541
21
1.1928479999999999
0
LINE
8
BLACK
6
CONTINUOUS
10
1.116541
20
1.1928479999999999
11
1.0851519999999999
21
1.2277549999999999
0
LINE
8
BLACK
6
CONTINUOUS
10
1.0851519999999999
20
1.2277549999999999
11
1.0482639999999999
21
1.256135
0
LINE
8
BLACK
6
CONTINUOUS
10
1.0482639999999999
20
1.256135
11
1.0067979999999999
21
1.277039
0
LINE
8
BLACK
6
CONTINUOUS
10
1.0067979999999999
20
1.277039
11
0.960683
21
1.28982
0
LINE
8
BLACK
6
CONTINUOUS
10
0.960683
20
1.28982
11
0.9088619999999999
21
1.2942369999999999
0
LINE
8
BLACK
6
CONTINUOUS
10
0.9088619999999999
20
1.2942369999999999
11
0.857737
21
1.2898499999999999
0
LINE
8
BLACK
6
CONTINUOUS
10
2.0814569999999999
20
0.8866109999999999
11
2.08385
21
0.833792
0
LINE
8
BLACK
6
CONTINUOUS
10
2.08385
20
0.833792
11
2.090122
21
0.794994
0
LINE
8
BLACK
6
CONTINUOUS
10
2.090122
20
0.794994
11
2.0991339999999998
21
0.767222
0
LINE
8
BLACK
6
CONTINUOUS
10
2.0991339999999998
20
0.767222
11
2.1131679999999999
21
0.7420439999999999
0
LINE
8
BLACK
6
CONTINUOUS
10
2.1131679999999999
20
0.7420439999999999
11
2.1295729999999997
21
0.723903
0
LINE
8
BLACK
6
CONTINUOUS
10
2.1295729999999997
20
0.723903
11
2.1484559999999999
21
0.71158
0
LINE
8
BLACK
6
CONTINUOUS
10
2.1484559999999999
20
0.71158
11
2.1815120000000001
21
0.7004309999999999
0
LINE
8
BLACK
6
CONTINUOUS
10
2.1815120000000001
20
0.7004309999999999
11
2.219668
21
0.6965589999999999
0
LINE
8
BLACK
6
CONTINUOUS
10
2.219668
20
0.6965589999999999
11
2.2524859999999998
21
0.6998019999999999
0
LINE
8
BLACK
6
CONTINUOUS
10
2.2524859999999998
20
0.6998019999999999
11
2.2803939999999998
21
0.709059
0
LINE
8
BLACK
6
CONTINUOUS
10
2.2803939999999998
20
0.709059
11
2.304395
21
0.724117
0
LINE
8
BLACK
6
CONTINUOUS
10
2.304395
20
0.724117
11
2.325135
21
0.7454229999999999
0
LINE
8
BLACK
6
CONTINUOUS
10
2.325135
20
0.7454229999999999
11
2.3452099999999998
21
0.780053
0
LINE
8
BLACK
6
CONTINUOUS
10
2.3452099999999998
20
0.780053
11
2.3582890000000001
21
0.825121
0
LINE
8
BLACK
6
CONTINUOUS
10
2.3582890000000001
20
0.825121
11
2.3630990000000001
21
0.883497
0
LINE
8
BLACK
6
CONTINUOUS
10
2.3630990000000001
20
0.883497
11
2.3630990000000001
21
1.15543
0
LINE
8
BLACK
6
CONTINUOUS
10
2.3630990000000001
20
1.15543
11
2.4500189999999997
21
1.15543
0
LINE
8
BLACK
6
CONTINUOUS
10
2.4500189999999997
20
1.15543
11
2.4500189999999997
21
0.6274999999999999
0
LINE
8
BLACK
6
CONTINUOUS
10
2.4500189999999997
20
0.6274999999999999
11
2.368411
21
0.6274999999999999
0
LINE
8
BLACK
6
CONTINUOUS
10
2.368411
20
0.6274999999999999
11
2.3643479999999997
21
0.7024469999999999
0
LINE
8
BLACK
6
CONTINUOUS
10
2.3643479999999997
20
0.7024469999999999
11
2.3634619999999997
21
0.700697
0
LINE
8
BLACK
6
CONTINUOUS
10
2.3634619999999997
20
0.700697
11
2.3400439999999998
21
0.670393
0
LINE
8
BLACK
6
CONTINUOUS
10
2.3400439999999998
20
0.670393
11
2.3123119999999999
21
0.6466419999999999
0
LINE
8
BLACK
6
CONTINUOUS
10
2.3123119999999999
20
0.6466419999999999
11
2.2802609999999999
21
0.6293799999999999
0
LINE
8
BLACK
6
CONTINUOUS
10
2.2802609999999999
20
0.6293799999999999
11
2.2431129999999997
21
0.618667
0
LINE
8
BLACK
6
CONTINUOUS
10
2.2431129999999997
20
0.618667
11
2.1997009999999997
21
0.614906
0
LINE
8
BLACK
6
CONTINUOUS
10
2.1997009999999997
20
0.614906
11
2.1594729999999998
21
0.6178199999999999
0
LINE
8
BLACK
6
CONTINUOUS
10
2.1594729999999998
20
0.6178199999999999
11
2.123764
21
0.626208
0
LINE
8
BLACK
6
CONTINUOUS
10
2.123764
20
0.626208
11
2.0918519999999998
21
0.6397729999999999
0
LINE
8
BLACK
6
CONTINUOUS
10
2.0918519999999998
20
0.6397729999999999
11
2.0636299999999999
21
0.6592249999999999
0
LINE
8
BLACK
6
CONTINUOUS
10
2.0636299999999999
20
0.6592249999999999
11
2.0397309999999997
21
0.685319
0
LINE
8
BLACK
6
CONTINUOUS
10
2.0397309999999997
20
0.685319
11
2.0199069999999999
21
0.7190909999999999
0
LINE
8
BLACK
6
CONTINUOUS
10
2.0199069999999999
20
0.7190909999999999
11
2.0065170000000001
21
0.756285
0
LINE
8
BLACK
6
CONTINUOUS
10
2.0065170000000001
20
0.756285
11
1.9977369999999999
21
0.8026099999999999
0
LINE
8
BLACK
6
CONTINUOUS
10
1.9977369999999999
20
0.8026099999999999
11
1.994537
21
0.859958
0
LINE
8
BLACK
6
CONTINUOUS
10
1.994537
20
0.859958
11
1.994537
21
0.8836799999999999
0
LINE
8
BLACK
6
CONTINUOUS
10
1.994537
20
0.8836799999999999
11
1.994537
21
1.15543
0
LINE
8
BLACK
6
CONTINUOUS
10
1.994537
20
1.15543
11
2.0814569999999999
21
1.15543
0
LINE
8
BLACK
6
CONTINUOUS
10
2.0814569999999999
20
1.15543
11
2.0814569999999999
21
0.8866109999999999
0
LINE
8
BLACK
6
CONTINUOUS
10
3.1069519999999997
20
1.163913
11
3.1525629999999998
21
1.1520219999999999
0
LINE
8
BLACK
6
CONTINUOUS
10
3.1525629999999998
20
1.1520219999999999
11
3.1936469999999999
21
1.1326239999999999
0
LINE
8
BLACK
6
CONTINUOUS
10
3.1936469999999999
20
1.1326239999999999
11
3.2304809999999997
21
1.1060669999999999
0
LINE
8
BLACK
6
CONTINUOUS
10
3.2304809999999997
20
1.1060669999999999
11
3.2613049999999997
21
1.0736999999999999
0
LINE
8
BLACK
6
CONTINUOUS
10
3.2613049999999997
20
1.0736999999999999
11
3.2865659999999997
21
1.034942
0
LINE
8
BLACK
6
CONTINUOUS
10
3.2865659999999997
20
1.034942
11
3.3047260000000001
21
0.9922759999999999
0
LINE
8
BLACK
6
CONTINUOUS
10
3.3047260000000001
20
0.9922759999999999
11
3.3159299999999998
21
0.9447599999999999
0
LINE
8
BLACK
6
CONTINUOUS
10
3.3159299999999998
20
0.9447599999999999
11
3.319814
21
0.891465
0
LINE
8
BLACK
6
CONTINUOUS
10
3.319814
20
0.891465
11
3.3159299999999998
21
0.8381689999999999
0
LINE
8
BLACK
6
CONTINUOUS
10
3.3159299999999998
20
0.8381689999999999
11
3.3047269999999997
21
0.7906369999999999
0
LINE
8
BLACK
6
CONTINUOUS
10
3.3047269999999997
20
0.7906369999999999
11
3.2865659999999997
21
0.747942
0
LINE
8
BLACK
6
CONTINUOUS
10
3.2865659999999997
20
0.747942
11
3.2613379999999998
21
0.709175
0
LINE
8
BLACK
6
CONTINUOUS
10
3.2613379999999998
20
0.709175
11
3.230674
21
0.67681
0
LINE
8
BLACK
6
CONTINUOUS
10
3.230674
20
0.67681
11
3.1941509999999997
21
0.6502599999999999
0
LINE
8
BLACK
6
CONTINUOUS
10
3.1941509999999997
20
0.6502599999999999
11
3.1534329999999997
21
0.6308699999999999
0
LINE
8
BLACK
6
CONTINUOUS
10
3.1534329999999997
20
0.6308699999999999
11
3.1083499999999997
21
0.619003
0
LINE
8
BLACK
6
CONTINUOUS
10
3.1083499999999997
20
0.619003
11
3.0579549999999998
21
0.614906
0
LINE
8
BLACK
6
CONTINUOUS
10
3.0579549999999998
20
0.614906
11
3.0075529999999997
21
0.618993
0
LINE
8
BLACK
6
CONTINUOUS
10
3.0075529999999997
20
0.618993
11
2.9622769999999998
21
0.630853
0
LINE
8
BLACK
6
CONTINUOUS
10
2.9622769999999998
20
0.630853
11
2.9212089999999997
21
0.6502599999999999
0
LINE
8
BLACK
6
CONTINUOUS
10
2.9212089999999997
20
0.6502599999999999
11
2.8843319999999997
21
0.6768219999999999
0
LINE
8
BLACK
6
CONTINUOUS
10
2.8843319999999997
20
0.6768219999999999
11
2.8533189999999999
21
0.709191
0
LINE
8
BLACK
6
CONTINUOUS
10
2.8533189999999999
20
0.709191
11
2.8277410000000001
21
0.747942
0
LINE
8
BLACK
6
CONTINUOUS
10
2.8277410000000001
20
0.747942
11
2.8092949999999997
21
0.790665
0
LINE
8
BLACK
6
CONTINUOUS
10
2.8092949999999997
20
0.790665
11
2.7979279999999997
21
0.8381949999999999
0
LINE
8
BLACK
6
CONTINUOUS
10
2.7979279999999997
20
0.8381949999999999
11
2.7939889999999998
21
0.891465
0
LINE
8
BLACK
6
CONTINUOUS
10
2.7939889999999998
20
0.891465
11
2.7978739999999998
21
0.9447599999999999
0
LINE
8
BLACK
6
CONTINUOUS
10
2.7978739999999998
20
0.9447599999999999
11
2.8090769999999998
21
0.9922759999999999
0
LINE
8
BLACK
6
CONTINUOUS
10
2.8090769999999998
20
0.9922759999999999
11
2.8272369999999998
21
1.034942
0
LINE
8
BLACK
6
CONTINUOUS
10
2.8272369999999998
20
1.034942
11
2.852522
21
1.0737049999999999
0
LINE
8
BLACK
6
CONTINUOUS
10
2.852522
20
1.0737049999999999
11
2.8833469999999997
21
1.1060719999999999
0
LINE
8
BLACK
6
CONTINUOUS
10
2.8833469999999997
20
1.1060719999999999
11
2.920156
21
1.1326239999999999
0
LINE
8
BLACK
6
CONTINUOUS
10
2.920156
20
1.1326239999999999
11
2.9612119999999997
21
1.152094
0
LINE
8
BLACK
6
CONTINUOUS
10
2.9612119999999997
20
1.152094
11
3.0061519999999997
21
1.16395
0
LINE
8
BLACK
6
CONTINUOUS
10
3.0061519999999997
20
1.16395
11
3.0558479999999997
21
1.168024
0
LINE
8
BLACK
6
CONTINUOUS
10
3.0558479999999997
20
1.168024
11
3.1069519999999997
21
1.163913
0
LINE
8
BLACK
6
CONTINUOUS
10
3.0225759999999999
20
1.0844989999999999
11
2.992785
21
1.0761399999999999
0
LINE
8
BLACK
6
CONTINUOUS
10
2.992785
20
1.0761399999999999
11
2.965814
21
1.0624199999999999
0
LINE
8
BLACK
6
CONTINUOUS
10
2.965814
20
1.0624199999999999
11
2.9418089999999997
21
1.0438429999999999
0
LINE
8
BLACK
6
CONTINUOUS
10
2.9418089999999997
20
1.0438429999999999
11
2.9213909999999998
21
1.0210869999999999
0
LINE
8
BLACK
6
CONTINUOUS
10
2.9213909999999998
20
1.0210869999999999
11
2.9043570000000001
21
0.9936809999999999
0
LINE
8
BLACK
6
CONTINUOUS
10
2.9043570000000001
20
0.9936809999999999
11
2.8921829999999997
21
0.96373
0
LINE
8
BLACK
6
CONTINUOUS
10
2.8921829999999997
20
0.96373
11
2.8846069999999999
21
0.929894
0
LINE
8
BLACK
6
CONTINUOUS
10
2.8846069999999999
20
0.929894
11
2.8819629999999998
21
0.891465
0
LINE
8
BLACK
6
CONTINUOUS
10
2.8819629999999998
20
0.891465
11
2.884582
21
0.8537439999999999
0
LINE
8
BLACK
6
CONTINUOUS
10
2.884582
20
0.8537439999999999
11
2.8921349999999997
21
0.820047
0
LINE
8
BLACK
6
CONTINUOUS
10
2.8921349999999997
20
0.820047
11
2.9043570000000001
21
0.7897529999999999
0
LINE
8
BLACK
6
CONTINUOUS
10
2.9043570000000001
20
0.7897529999999999
11
2.9214829999999998
21
0.7621009999999999
0
LINE
8
BLACK
6
CONTINUOUS
10
2.9214829999999998
20
0.7621009999999999
11
2.94224
21
0.7391789999999999
0
LINE
8
BLACK
6
CONTINUOUS
10
2.94224
20
0.7391789999999999
11
2.9668679999999998
21
0.72051
0
LINE
8
BLACK
6
CONTINUOUS
10
2.9668679999999998
20
0.72051
11
2.9945059999999999
21
0.7067559999999999
0
LINE
8
BLACK
6
CONTINUOUS
10
2.9945059999999999
20
0.7067559999999999
11
3.0246659999999999
21
0.6984119999999999
0
LINE
8
BLACK
6
CONTINUOUS
10
3.0246659999999999
20
0.6984119999999999
11
3.0579549999999998
21
0.6955519999999999
0
LINE
8
BLACK
6
CONTINUOUS
10
3.0579549999999998
20
0.6955519999999999
11
3.0919239999999997
21
0.698461
0
LINE
8
BLACK
6
CONTINUOUS
10
3.0919239999999997
20
0.698461
11
3.121855
21
0.706846
0
LINE
8
BLACK
6
CONTINUOUS
10
3.121855
20
0.706846
11
3.1484929999999998
21
0.72051
0
LINE
8
BLACK
6
CONTINUOUS
10
3.1484929999999998
20
0.72051
11
3.1721809999999997
21
0.7390559999999999
0
LINE
8
BLACK
6
CONTINUOUS
10
3.1721809999999997
20
0.7390559999999999
11
3.1924239999999999
21
0.7618079999999999
0
LINE
8
BLACK
6
CONTINUOUS
10
3.1924239999999999
20
0.7618079999999999
11
3.2094009999999997
21
0.789249
0
LINE
8
BLACK
6
CONTINUOUS
10
3.2094009999999997
20
0.789249
11
3.2216
21
0.819203
0
LINE
8
BLACK
6
CONTINUOUS
10
3.2216
20
0.819203
11
3.2291909999999997
21
0.853038
0
LINE
8
BLACK
6
CONTINUOUS
10
3.2291909999999997
20
0.853038
11
3.23184
21
0.891465
0
LINE
8
BLACK
6
CONTINUOUS
10
3.23184
20
0.891465
11
3.229196
21
0.929894
0
LINE
8
BLACK
6
CONTINUOUS
10
3.229196
20
0.929894
11
3.2216199999999997
21
0.96373
0
LINE
8
BLACK
6
CONTINUOUS
10
3.2216199999999997
20
0.96373
11
3.2094459999999998
21
0.9936809999999999
0
LINE
8
BLACK
6
CONTINUOUS
10
3.2094459999999998
20
0.9936809999999999
11
3.1924060000000001
21
1.0210459999999999
0
LINE
8
BLACK
6
CONTINUOUS
10
3.1924060000000001
20
1.0210459999999999
11
3.1718279999999996
21
1.043806
0
LINE
8
BLACK
6
CONTINUOUS
10
3.1718279999999996
20
1.043806
11
3.1474849999999996
21
1.0624199999999999
0
LINE
8
BLACK
6
CONTINUOUS
10
3.1474849999999996
20
1.0624199999999999
11
3.12018
21
1.076117
0
LINE
8
BLACK
6
CONTINUOUS
10
3.12018
20
1.076117
11
3.0898619999999997
21
1.0844879999999999
0
LINE
8
BLACK
6
CONTINUOUS
10
3.0898619999999997
20
1.0844879999999999
11
3.0558479999999997
21
1.087378
0
LINE
8
BLACK
6
CONTINUOUS
10
3.0558479999999997
20
1.087378
11
3.0225759999999999
21
1.0844989999999999
0
LINE
8
BLACK
6
CONTINUOUS
10
4.8449849999999994
20
1.164018
11
4.890104
21
1.1523459999999999
0
LINE
8
BLACK
6
CONTINUOUS
10
4.890104
20
1.1523459999999999
11
4.9314499999999999
21
1.1331739999999999
0
LINE
8
BLACK
6
CONTINUOUS
10
4.9314499999999999
20
1.1331739999999999
11
4.9683820000000001
21
1.1067199999999999
0
LINE
8
BLACK
6
CONTINUOUS
10
4.9683820000000001
20
1.1067199999999999
11
4.9990819999999996
21
1.0737669999999999
0
LINE
8
BLACK
6
CONTINUOUS
10
4.9990819999999996
20
1.0737669999999999
11
5.0240029999999996
21
1.033568
0
LINE
8
BLACK
6
CONTINUOUS
10
5.0240029999999996
20
1.033568
11
4.944731
21
0.9977109999999999
0
LINE
8
BLACK
6
CONTINUOUS
10
4.944731
20
0.9977109999999999
11
4.9282469999999998
21
1.0243629999999999
0
LINE
8
BLACK
6
CONTINUOUS
10
4.9282469999999998
20
1.0243629999999999
11
4.9080069999999996
21
1.0462909999999999
0
LINE
8
BLACK
6
CONTINUOUS
10
4.9080069999999996
20
1.0462909999999999
11
4.883731
21
1.063977
0
LINE
8
BLACK
6
CONTINUOUS
10
4.883731
20
1.063977
11
4.8565319999999996
21
1.0768219999999999
0
LINE
8
BLACK
6
CONTINUOUS
10
4.8565319999999996
20
1.0768219999999999
11
4.8265399999999996
21
1.0846719999999999
0
LINE
8
BLACK
6
CONTINUOUS
10
4.8265399999999996
20
1.0846719999999999
11
4.7931479999999995
21
1.087378
0
LINE
8
BLACK
6
CONTINUOUS
10
4.7931479999999995
20
1.087378
11
4.7598750000000001
21
1.0844989999999999
0
LINE
8
BLACK
6
CONTINUOUS
10
4.7598750000000001
20
1.0844989999999999
11
4.7300839999999997
21
1.0761399999999999
0
LINE
8
BLACK
6
CONTINUOUS
10
4.7300839999999997
20
1.0761399999999999
11
4.7031139999999994
21
1.0624199999999999
0
LINE
8
BLACK
6
CONTINUOUS
10
4.7031139999999994
20
1.0624199999999999
11
4.679144
21
1.0438159999999999
0
LINE
8
BLACK
6
CONTINUOUS
10
4.679144
20
1.0438159999999999
11
4.658722
21
1.0208889999999999
0
LINE
8
BLACK
6
CONTINUOUS
10
4.658722
20
1.0208889999999999
11
4.6416560000000002
21
0.993131
0
LINE
8
BLACK
6
CONTINUOUS
10
4.6416560000000002
20
0.993131
11
4.629435
21
0.9628669999999999
0
LINE
8
BLACK
6
CONTINUOUS
10
4.629435
20
0.9628669999999999
11
4.6218819999999994
21
0.929186
0
LINE
8
BLACK
6
CONTINUOUS
10
4.6218819999999994
20
0.929186
11
4.619262
21
0.891465
0
LINE
8
BLACK
6
CONTINUOUS
10
4.619262
20
0.891465
11
4.6218810000000001
21
0.8537439999999999
0
LINE
8
BLACK
6
CONTINUOUS
10
4.6218810000000001
20
0.8537439999999999
11
4.6294339999999998
21
0.820047
0
LINE
8
BLACK
6
CONTINUOUS
10
4.6294339999999998
20
0.820047
11
4.6416560000000002
21
0.7897529999999999
0
LINE
8
BLACK
6
CONTINUOUS
10
4.6416560000000002
20
0.7897529999999999
11
4.6587819999999995
21
0.7621009999999999
0
LINE
8
BLACK
6
CONTINUOUS
10
4.6587819999999995
20
0.7621009999999999
11
4.6795399999999994
21
0.7391789999999999
0
LINE
8
BLACK
6
CONTINUOUS
10
4.6795399999999994
20
0.7391789999999999
11
4.704167
21
0.72051
0
LINE
8
BLACK
6
CONTINUOUS
10
4.704167
20
0.72051
11
4.7318059999999997
21
0.7067559999999999
0
LINE
8
BLACK
6
CONTINUOUS
10
4.7318059999999997
20
0.7067559999999999
11
4.7619660000000001
21
0.6984119999999999
0
LINE
8
BLACK
6
CONTINUOUS
10
4.7619660000000001
20
0.6984119999999999
11
4.7952539999999999
21
0.6955519999999999
0
LINE
8
BLACK
6
CONTINUOUS
10
4.7952539999999999
20
0.6955519999999999
11
4.8285169999999997
21
0.6985239999999999
0
LINE
8
BLACK
6
CONTINUOUS
10
4.8285169999999997
20
0.6985239999999999
11
4.8586689999999999
21
0.7072069999999999
0
LINE
8
BLACK
6
CONTINUOUS
10
4.8586689999999999
20
0.7072069999999999
11
4.886342
21
0.721564
0
LINE
8
BLACK
6
CONTINUOUS
10
4.886342
20
0.721564
11
4.9106829999999997
21
0.7410709999999999
0
LINE
8
BLACK
6
CONTINUOUS
10
4.9106829999999997
20
0.7410709999999999
11
4.931127
21
0.7655689999999999
0
LINE
8
BLACK
6
CONTINUOUS
10
4.931127
20
0.7655689999999999
11
4.947845
21
0.795752
0
LINE
8
BLACK
6
CONTINUOUS
10
4.947845
20
0.795752
11
5.0271629999999998
21
0.759894
0
LINE
8
BLACK
6
CONTINUOUS
10
5.0271629999999998
20
0.759894
11
5.002122
21
0.7168319999999999
0
LINE
8
BLACK
6
CONTINUOUS
10
5.002122
20
0.7168319999999999
11
4.9713849999999997
21
0.681457
0
LINE
8
BLACK
6
CONTINUOUS
10
4.9713849999999997
20
0.681457
11
4.9346100000000002
21
0.6529159999999999
0
LINE
8
BLACK
6
CONTINUOUS
10
4.9346100000000002
20
0.6529159999999999
11
4.8930669999999994
21
0.631973
0
LINE
8
BLACK
6
CONTINUOUS
10
4.8930669999999994
20
0.631973
11
4.8476309999999998
21
0.619266
0
LINE
8
BLACK
6
CONTINUOUS
10
4.8476309999999998
20
0.619266
11
4.7973609999999995
21
0.614906
0
LINE
8
BLACK
6
CONTINUOUS
10
4.7973609999999995
20
0.614906
11
4.7462479999999996
21
0.6190019999999999
0
LINE
8
BLACK
6
CONTINUOUS
10
4.7462479999999996
20
0.6190019999999999
11
4.7004440000000001
21
0.630871
0
LINE
8
BLACK
6
CONTINUOUS
10
4.7004440000000001
20
0.630871
11
4.6590119999999997
21
0.6502599999999999
0
LINE
8
BLACK
6
CONTINUOUS
10
4.6590119999999997
20
0.6502599999999999
11
4.6218189999999995
21
0.6768529999999999
0
LINE
8
BLACK
6
CONTINUOUS
10
4.6218189999999995
20
0.6768529999999999
11
4.5906469999999997
21
0.709226
0
LINE
8
BLACK
6
CONTINUOUS
10
4.5906469999999997
20
0.709226
11
4.5650399999999998
21
0.747942
0
LINE
8
BLACK
6
CONTINUOUS
10
4.5650399999999998
20
0.747942
11
4.5465939999999998
21
0.790665
0
LINE
8
BLACK
6
CONTINUOUS
10
4.5465939999999998
20
0.790665
11
4.5352269999999999
21
0.8381949999999999
0
LINE
8
BLACK
6
CONTINUOUS
10
4.5352269999999999
20
0.8381949999999999
11
4.5312890000000001
21
0.891465
0
LINE
8
BLACK
6
CONTINUOUS
10
4.5312890000000001
20
0.891465
11
4.5351729999999995
21
0.9447599999999999
0
LINE
8
BLACK
6
CONTINUOUS
10
4.5351729999999995
20
0.9447599999999999
11
4.5463769999999997
21
0.9922759999999999
0
LINE
8
BLACK
6
CONTINUOUS
10
4.5463769999999997
20
0.9922759999999999
11
4.5645359999999995
21
1.034942
0
LINE
8
BLACK
6
CONTINUOUS
10
4.5645359999999995
20
1.034942
11
4.5898529999999997
21
1.073666
0
LINE
8
BLACK
6
CONTINUOUS
10
4.5898529999999997
20
1.073666
11
4.6208520000000002
21
1.1060369999999999
0
LINE
8
BLACK
6
CONTINUOUS
10
4.6208520000000002
20
1.1060369999999999
11
4.6580050000000002
21
1.1326239999999999
0
LINE
8
BLACK
6
CONTINUOUS
10
4.6580050000000002
20
1.1326239999999999
11
4.6993960000000001
21
1.152074
0
LINE
8
BLACK
6
CONTINUOUS
10
4.6993960000000001
20
1.152074
11
4.7448489999999994
21
1.1639409999999999
0
LINE
8
BLACK
6
CONTINUOUS
10
4.7448489999999994
20
1.1639409999999999
11
4.7952539999999999
21
1.168024
0
LINE
8
BLACK
6
CONTINUOUS
10
4.7952539999999999
20
1.168024
11
4.8449849999999994
21
1.164018
0
LINE
8
BLACK
6
CONTINUOUS
10
2.6805539999999999
20
0.6274999999999999
11
2.5936339999999998
21
0.6274999999999999
0
LINE
8
BLACK
6
CONTINUOUS
10
2.5936339999999998
20
0.6274999999999999
11
2.5936339999999998
21
1.3654489999999999
0
LINE
8
BLACK
6
CONTINUOUS
10
2.5936339999999998
20
1.3654489999999999
11
2.6805539999999999
21
1.3654489999999999
0
LINE
8
BLACK
6
CONTINUOUS
10
2.6805539999999999
20
1.3654489999999999
11
2.6805539999999999
21
0.6274999999999999
0
LINE
8
BLACK
6
CONTINUOUS
10
3.8083149999999999
20
0.6274999999999999
11
3.7161279999999999
21
0.6274999999999999
0
LINE
8
BLACK
6
CONTINUOUS
10
3.7161279999999999
20
0.6274999999999999
11
3.7161279999999999
21
1.3654489999999999
0
LINE
8
BLACK
6
CONTINUOUS
10
3.7161279999999999
20
1.3654489999999999
11
3.8083149999999999
21
1.3654489999999999
0
LINE
8
BLACK
6
CONTINUOUS
10
3.8083149999999999
20
1.3654489999999999
11
3.8083149999999999
21
0.6274999999999999
0
LINE
8
BLACK
6
CONTINUOUS
10
4.2675459999999994
20
1.165084
11
4.3033919999999997
21
1.1566719999999999
0
LINE
8
BLACK
6
CONTINUOUS
10
4.3033919999999997
20
1.1566719999999999
11
4.3349630000000001
21
1.143157
0
LINE
8
BLACK
6
CONTINUOUS
10
4.3349630000000001
20
1.143157
11
4.3629150000000001
21
1.1237839999999999
0
LINE
8
BLACK
6
CONTINUOUS
10
4.3629150000000001
20
1.1237839999999999
11
4.3868219999999996
21
1.0978489999999999
0
LINE
8
BLACK
6
CONTINUOUS
10
4.3868219999999996
20
1.0978489999999999
11
4.4069079999999996
21
1.064343
0
LINE
8
BLACK
6
CONTINUOUS
10
4.4069079999999996
20
1.064343
11
4.4204530000000002
21
1.0274539999999999
0
LINE
8
BLACK
6
CONTINUOUS
10
4.4204530000000002
20
1.0274539999999999
11
4.4291029999999996
21
0.981026
0
LINE
8
BLACK
6
CONTINUOUS
10
4.4291029999999996
20
0.981026
11
4.431775
21
0.9229719999999999
0
LINE
8
BLACK
6
CONTINUOUS
10
4.431775
20
0.9229719999999999
11
4.431775
21
0.89925
0
LINE
8
BLACK
6
CONTINUOUS
10
4.431775
20
0.89925
11
4.431775
21
0.6274999999999999
0
LINE
8
BLACK
6
CONTINUOUS
10
4.431775
20
0.6274999999999999
11
4.3448549999999999
21
0.6274999999999999
0
LINE
8
BLACK
6
CONTINUOUS
10
4.3448549999999999
20
0.6274999999999999
11
4.3448549999999999
21
0.896319
0
LINE
8
BLACK
6
CONTINUOUS
10
4.3448549999999999
20
0.896319
11
4.3424559999999994
21
0.949135
0
LINE
8
BLACK
6
CONTINUOUS
10
4.3424559999999994
20
0.949135
11
4.3361679999999998
21
0.987933
0
LINE
8
BLACK
6
CONTINUOUS
10
4.3361679999999998
20
0.987933
11
4.3271319999999998
21
1.0157080000000001
0
LINE
8
BLACK
6
CONTINUOUS
10
4.3271319999999998
20
1.0157080000000001
11
4.3131509999999995
21
1.0409279999999999
0
LINE
8
BLACK
6
CONTINUOUS
10
4.3131509999999995
20
1.0409279999999999
11
4.2969239999999997
21
1.059042
0
LINE
8
BLACK
6
CONTINUOUS
10
4.2969239999999997
20
1.059042
11
4.2783600000000002
21
1.071304
0
LINE
8
BLACK
6
CONTINUOUS
10
4.2783600000000002
20
1.071304
11
4.2457399999999996
21
1.082476
0
LINE
8
BLACK
6
CONTINUOUS
10
4.2457399999999996
20
1.082476
11
4.2076979999999997
21
1.086371
0
LINE
8
BLACK
6
CONTINUOUS
10
4.2076979999999997
20
1.086371
11
4.1742789999999994
21
1.083135
0
LINE
8
BLACK
6
CONTINUOUS
10
4.1742789999999994
20
1.083135
11
4.14602
21
1.073928
0
LINE
8
BLACK
6
CONTINUOUS
10
4.14602
20
1.073928
11
4.1218810000000001
21
1.059016
0
LINE
8
BLACK
6
CONTINUOUS
10
4.1218810000000001
20
1.059016
11
4.1011769999999999
21
1.038011
0
LINE
8
BLACK
6
CONTINUOUS
10
4.1011769999999999
20
1.038011
11
4.0811599999999997
21
1.003706
0
LINE
8
BLACK
6
CONTINUOUS
10
4.0811599999999997
20
1.003706
11
4.0680550000000002
21
0.958534
0
LINE
8
BLACK
6
CONTINUOUS
10
4.0680550000000002
20
0.958534
11
4.0632130000000002
21
0.8994329999999999
0
LINE
8
BLACK
6
CONTINUOUS
10
4.0632130000000002
20
0.8994329999999999
11
4.0632130000000002
21
0.6274999999999999
0
LINE
8
BLACK
6
CONTINUOUS
10
4.0632130000000002
20
0.6274999999999999
11
3.9762929999999996
21
0.6274999999999999
0
LINE
8
BLACK
6
CONTINUOUS
10
3.9762929999999996
20
0.6274999999999999
11
3.9762929999999996
21
1.15543
0
LINE
8
BLACK
6
CONTINUOUS
10
3.9762929999999996
20
1.15543
11
4.0579000000000001
21
1.15543
0
LINE
8
BLACK
6
CONTINUOUS
10
4.0579000000000001
20
1.15543
11
4.0619649999999998
21
1.08043
0
LINE
8
BLACK
6
CONTINUOUS
10
4.0619649999999998
20
1.08043
11
4.0628630000000001
21
1.082195
0
LINE
8
BLACK
6
CONTINUOUS
10
4.0628630000000001
20
1.082195
11
4.086443
21
1.112487
0
LINE
8
BLACK
6
CONTINUOUS
10
4.086443
20
1.112487
11
4.1144579999999999
21
1.136242
0
LINE
8
BLACK
6
CONTINUOUS
10
4.1144579999999999
20
1.136242
11
4.1468439999999998
21
1.153586
0
LINE
8
BLACK
6
CONTINUOUS
10
4.1468439999999998
20
1.153586
11
4.1838730000000002
21
1.164288
0
LINE
8
BLACK
6
CONTINUOUS
10
4.1838730000000002
20
1.164288
11
4.2266110000000001
21
1.168024
0
LINE
8
BLACK
6
CONTINUOUS
10
4.2266110000000001
20
1.168024
11
4.2675459999999994
21
1.165084
0
LINE
8
BLACK
6
CONTINUOUS
10
47.9728659999999962
20
3.4463369999999998
11
48.0862219999999994
21
3.417068
0
LINE
8
BLACK
6
CONTINUOUS
10
48.0862219999999994
20
3.417068
11
48.1936819999999955
21
3.3707249999999997
0
LINE
8
BLACK
6
CONTINUOUS
10
48.1936819999999955
20
3.3707249999999997
11
48.2908359999999988
21
3.3105469999999997
0
LINE
8
BLACK
6
CONTINUOUS
10
48.2908359999999988
20
3.3105469999999997
11
48.3757619999999946
21
3.2369779999999997
0
LINE
8
BLACK
6
CONTINUOUS
10
48.3757619999999946
20
3.2369779999999997
11
48.4422360000000012
21
3.1541099999999997
0
LINE
8
BLACK
6
CONTINUOUS
10
48.4422360000000012
20
3.1541099999999997
11
48.296605999999997
21
3.0541839999999998
0
LINE
8
BLACK
6
CONTINUOUS
10
48.296605999999997
20
3.0541839999999998
11
48.2469380000000001
21
3.1188769999999999
0
LINE
8
BLACK
6
CONTINUOUS
10
48.2469380000000001
20
3.1188769999999999
11
48.1823009999999954
21
3.176733
0
LINE
8
BLACK
6
CONTINUOUS
10
48.1823009999999954
20
3.176733
11
48.1079909999999984
21
3.223903
0
LINE
8
BLACK
6
CONTINUOUS
10
48.1079909999999984
20
3.223903
11
48.0266869999999955
21
3.2591649999999999
0
LINE
8
BLACK
6
CONTINUOUS
10
48.0266869999999955
20
3.2591649999999999
11
47.9414109999999951
21
3.2812219999999996
0
LINE
8
BLACK
6
CONTINUOUS
10
47.9414109999999951
20
3.2812219999999996
11
47.85642
21
3.2884739999999999
0
LINE
8
BLACK
6
CONTINUOUS
10
47.85642
20
3.2884739999999999
11
47.7456529999999972
21
3.2796609999999999
0
LINE
8
BLACK
6
CONTINUOUS
10
47.7456529999999972
20
3.2796609999999999
11
47.6460129999999964
21
3.2540899999999997
0
LINE
8
BLACK
6
CONTINUOUS
10
47.6460129999999964
20
3.2540899999999997
11
47.5555430000000001
21
3.2122699999999997
0
LINE
8
BLACK
6
CONTINUOUS
10
47.5555430000000001
20
3.2122699999999997
11
47.4739819999999995
21
3.1550039999999999
0
LINE
8
BLACK
6
CONTINUOUS
10
47.4739819999999995
20
3.1550039999999999
11
47.4053809999999984
21
3.0854059999999999
0
LINE
8
BLACK
6
CONTINUOUS
10
47.4053809999999984
20
3.0854059999999999
11
47.3487299999999962
21
3.0023429999999998
0
LINE
8
BLACK
6
CONTINUOUS
10
47.3487299999999962
20
3.0023429999999998
11
47.307696
21
2.9104809999999999
0
LINE
8
BLACK
6
CONTINUOUS
10
47.307696
20
2.9104809999999999
11
47.2823449999999994
21
2.807391
0
LINE
8
BLACK
6
CONTINUOUS
10
47.2823449999999994
20
2.807391
11
47.2735339999999979
21
2.690842
0
LINE
8
BLACK
6
CONTINUOUS
10
47.2735339999999979
20
2.690842
11
47.2821029999999993
21
2.578465
0
LINE
8
BLACK
6
CONTINUOUS
10
47.2821029999999993
20
2.578465
11
47.3069810000000004
21
2.476988
0
LINE
8
BLACK
6
CONTINUOUS
10
47.3069810000000004
20
2.476988
11
47.3476309999999998
21
2.3845619999999998
0
LINE
8
BLACK
6
CONTINUOUS
10
47.3476309999999998
20
2.3845619999999998
11
47.4037669999999949
21
2.3008949999999997
0
LINE
8
BLACK
6
CONTINUOUS
10
47.4037669999999949
20
2.3008949999999997
11
47.4723459999999946
21
2.2305929999999998
0
LINE
8
BLACK
6
CONTINUOUS
10
47.4723459999999946
20
2.2305929999999998
11
47.5544439999999966
21
2.1725279999999998
0
LINE
8
BLACK
6
CONTINUOUS
10
47.5544439999999966
20
2.1725279999999998
11
47.6456779999999966
21
2.1300479999999999
0
LINE
8
BLACK
6
CONTINUOUS
10
47.6456779999999966
20
2.1300479999999999
11
47.7456949999999978
21
2.1041369999999997
0
LINE
8
BLACK
6
CONTINUOUS
10
47.7456949999999978
20
2.1041369999999997
11
47.85642
21
2.0952250000000001
0
LINE
8
BLACK
6
CONTINUOUS
10
47.85642
20
2.0952250000000001
11
47.9496660000000006
21
2.1021519999999998
0
LINE
8
BLACK
6
CONTINUOUS
10
47.9496660000000006
20
2.1021519999999998
11
48.0330239999999975
21
2.1221619999999999
0
LINE
8
BLACK
6
CONTINUOUS
10
48.0330239999999975
20
2.1221619999999999
11
48.1081119999999984
21
2.154668
0
LINE
8
BLACK
6
CONTINUOUS
10
48.1081119999999984
20
2.154668
11
48.1762629999999987
21
2.1997200000000001
0
LINE
8
BLACK
6
CONTINUOUS
10
48.1762629999999987
20
2.1997200000000001
11
48.2333009999999973
21
2.2544170000000001
0
LINE
8
BLACK
6
CONTINUOUS
10
48.2333009999999973
20
2.2544170000000001
11
48.2802110000000013
21
2.3195319999999997
0
LINE
8
BLACK
6
CONTINUOUS
10
48.2802110000000013
20
2.3195319999999997
11
48.3144579999999948
21
2.3921540000000001
0
LINE
8
BLACK
6
CONTINUOUS
10
48.3144579999999948
20
2.3921540000000001
11
48.3355430000000013
21
2.4735169999999997
0
LINE
8
BLACK
6
CONTINUOUS
10
48.3355430000000013
20
2.4735169999999997
11
48.341744999999996
21
2.5514410000000001
0
LINE
8
BLACK
6
CONTINUOUS
10
48.341744999999996
20
2.5514410000000001
11
47.9816250000000011
21
2.5514410000000001
0
LINE
8
BLACK
6
CONTINUOUS
10
47.9816250000000011
20
2.5514410000000001
11
47.9816250000000011
21
2.710534
0
LINE
8
BLACK
6
CONTINUOUS
10
47.9816250000000011
20
2.710534
11
48.5188059999999979
21
2.710534
0
LINE
8
BLACK
6
CONTINUOUS
10
48.5188059999999979
20
2.710534
11
48.5188059999999979
21
2.5665529999999999
0
LINE
8
BLACK
6
CONTINUOUS
10
48.5188059999999979
20
2.5665529999999999
11
48.5178760000000011
21
2.5663899999999997
0
LINE
8
BLACK
6
CONTINUOUS
10
48.5178760000000011
20
2.5663899999999997
11
48.5088529999999949
21
2.449265
0
LINE
8
BLACK
6
CONTINUOUS
10
48.5088529999999949
20
2.449265
11
48.4803399999999982
21
2.336268
0
LINE
8
BLACK
6
CONTINUOUS
10
48.4803399999999982
20
2.336268
11
48.4343590000000006
21
2.2367339999999998
0
LINE
8
BLACK
6
CONTINUOUS
10
48.4343590000000006
20
2.2367339999999998
11
48.370868999999999
21
2.1474389999999999
0
LINE
8
BLACK
6
CONTINUOUS
10
48.370868999999999
20
2.1474389999999999
11
48.2932670000000002
21
2.0725449999999999
0
LINE
8
BLACK
6
CONTINUOUS
10
48.2932670000000002
20
2.0725449999999999
11
48.2001610000000014
21
2.0109619999999997
0
LINE
8
BLACK
6
CONTINUOUS
10
48.2001610000000014
20
2.0109619999999997
11
48.0975210000000004
21
1.9665759999999999
0
LINE
8
BLACK
6
CONTINUOUS
10
48.0975210000000004
20
1.9665759999999999
11
47.9836719999999985
21
1.939263
0
LINE
8
BLACK
6
CONTINUOUS
10
47.9836719999999985
20
1.939263
11
47.85642
21
1.9298119999999999
0
LINE
8
BLACK
6
CONTINUOUS
10
47.85642
20
1.9298119999999999
11
47.7440779999999947
21
1.9362789999999999
0
LINE
8
BLACK
6
CONTINUOUS
10
47.7440779999999947
20
1.9362789999999999
11
47.6410219999999995
21
1.955085
0
LINE
8
BLACK
6
CONTINUOUS
10
47.6410219999999995
20
1.955085
11
47.5460399999999979
21
1.985649
0
LINE
8
BLACK
6
CONTINUOUS
10
47.5460399999999979
20
1.985649
11
47.4580899999999986
21
2.0278139999999998
0
LINE
8
BLACK
6
CONTINUOUS
10
47.4580899999999986
20
2.0278139999999998
11
47.3508459999999971
21
2.101674
0
LINE
8
BLACK
6
CONTINUOUS
10
47.3508459999999971
20
2.101674
11
47.2610169999999954
21
2.1911929999999997
0
LINE
8
BLACK
6
CONTINUOUS
10
47.2610169999999954
20
2.1911929999999997
11
47.1871639999999957
21
2.297733
0
LINE
8
BLACK
6
CONTINUOUS
10
47.1871639999999957
20
2.297733
11
47.1449019999999948
21
2.3852029999999997
0
LINE
8
BLACK
6
CONTINUOUS
10
47.1449019999999948
20
2.3852029999999997
11
47.1143489999999971
21
2.4791889999999999
0
LINE
8
BLACK
6
CONTINUOUS
10
47.1143489999999971
20
2.4791889999999999
11
47.0955960000000005
21
2.5806849999999999
0
LINE
8
BLACK
6
CONTINUOUS
10
47.0955960000000005
20
2.5806849999999999
11
47.0891609999999972
21
2.690842
0
LINE
8
BLACK
6
CONTINUOUS
10
47.0891609999999972
20
2.690842
11
47.095639999999996
21
2.8032140000000001
0
LINE
8
BLACK
6
CONTINUOUS
10
47.095639999999996
20
2.8032140000000001
11
47.1144649999999956
21
2.9060790000000001
0
LINE
8
BLACK
6
CONTINUOUS
10
47.1144649999999956
20
2.9060790000000001
11
47.1450299999999984
21
3.0006759999999999
0
LINE
8
BLACK
6
CONTINUOUS
10
47.1450299999999984
20
3.0006759999999999
11
47.1871639999999957
21
3.0880730000000001
0
LINE
8
BLACK
6
CONTINUOUS
10
47.1871639999999957
20
3.0880730000000001
11
47.2610169999999954
21
3.1946129999999999
0
LINE
8
BLACK
6
CONTINUOUS
10
47.2610169999999954
20
3.1946129999999999
11
47.3508459999999971
21
3.2841320000000001
0
LINE
8
BLACK
6
CONTINUOUS
10
47.3508459999999971
20
3.2841320000000001
11
47.4580899999999986
21
3.3579909999999997
0
LINE
8
BLACK
6
CONTINUOUS
10
47.4580899999999986
20
3.3579909999999997
11
47.5460449999999994
21
3.4001980000000001
0
LINE
8
BLACK
6
CONTINUOUS
10
47.5460449999999994
20
3.4001980000000001
11
47.6410270000000011
21
3.43079
0
LINE
8
BLACK
6
CONTINUOUS
10
47.6410270000000011
20
3.43079
11
47.7440819999999988
21
3.4496129999999998
0
LINE
8
BLACK
6
CONTINUOUS
10
47.7440819999999988
20
3.4496129999999998
11
47.85642
21
3.456086
0
LINE
8
BLACK
6
CONTINUOUS
10
47.85642
20
3.456086
11
47.9728659999999962
21
3.4463369999999998
0
LINE
8
BLACK
6
CONTINUOUS
10
54.51511
20
3.4496419999999999
11
54.6123679999999965
21
3.4308799999999997
0
LINE
8
BLACK
6
CONTINUOUS
10
54.6123679999999965
20
3.4308799999999997
11
54.702179000000001
21
3.4003129999999997
0
LINE
8
BLACK
6
CONTINUOUS
10
54.702179000000001
20
3.4003129999999997
11
54.7855589999999992
21
3.3579909999999997
0
LINE
8
BLACK
6
CONTINUOUS
10
54.7855589999999992
20
3.3579909999999997
11
54.8864169999999945
21
3.2844339999999996
0
LINE
8
BLACK
6
CONTINUOUS
10
54.8864169999999945
20
3.2844339999999996
11
54.9707019999999957
21
3.1949939999999999
0
LINE
8
BLACK
6
CONTINUOUS
10
54.9707019999999957
20
3.1949939999999999
11
55.0396319999999974
21
3.0880730000000001
0
LINE
8
BLACK
6
CONTINUOUS
10
55.0396319999999974
20
3.0880730000000001
11
55.0891619999999946
21
2.970431
0
LINE
8
BLACK
6
CONTINUOUS
10
55.0891619999999946
20
2.970431
11
55.1197169999999943
21
2.8395600000000001
0
LINE
8
BLACK
6
CONTINUOUS
10
55.1197169999999943
20
2.8395600000000001
11
55.1303069999999948
21
2.692949
0
LINE
8
BLACK
6
CONTINUOUS
10
55.1303069999999948
20
2.692949
11
55.119733999999994
21
2.546268
0
LINE
8
BLACK
6
CONTINUOUS
10
55.119733999999994
20
2.546268
11
55.0891919999999971
21
2.414981
0
LINE
8
BLACK
6
CONTINUOUS
10
55.0891919999999971
20
2.414981
11
55.0396319999999974
21
2.2966340000000001
0
LINE
8
BLACK
6
CONTINUOUS
10
55.0396319999999974
20
2.2966340000000001
11
54.9707229999999996
21
2.1889949999999998
0
LINE
8
BLACK
6
CONTINUOUS
10
54.9707229999999996
20
2.1889949999999998
11
54.8870959999999997
21
2.0996380000000001
0
LINE
8
BLACK
6
CONTINUOUS
10
54.8870959999999997
20
2.0996380000000001
11
54.787664999999997
21
2.0268069999999998
0
LINE
8
BLACK
6
CONTINUOUS
10
54.787664999999997
20
2.0268069999999998
11
54.7053629999999984
21
1.984977
0
LINE
8
BLACK
6
CONTINUOUS
10
54.7053629999999984
20
1.984977
11
54.616613000000001
21
1.9547509999999999
0
LINE
8
BLACK
6
CONTINUOUS
10
54.616613000000001
20
1.9547509999999999
11
54.5203999999999951
21
1.9361889999999999
0
LINE
8
BLACK
6
CONTINUOUS
10
54.5203999999999951
20
1.9361889999999999
11
54.4155309999999943
21
1.9298119999999999
0
LINE
8
BLACK
6
CONTINUOUS
10
54.4155309999999943
20
1.9298119999999999
11
54.3096129999999988
21
1.9361759999999999
0
LINE
8
BLACK
6
CONTINUOUS
10
54.3096129999999988
20
1.9361759999999999
11
54.2121409999999955
21
1.9547219999999998
0
LINE
8
BLACK
6
CONTINUOUS
10
54.2121409999999955
20
1.9547219999999998
11
54.1219609999999989
21
1.98495
0
LINE
8
BLACK
6
CONTINUOUS
10
54.1219609999999989
20
1.98495
11
54.0380839999999978
21
2.0268069999999998
0
LINE
8
BLACK
6
CONTINUOUS
10
54.0380839999999978
20
2.0268069999999998
11
53.9365489999999994
21
2.0997559999999997
0
LINE
8
BLACK
6
CONTINUOUS
10
53.9365489999999994
20
2.0997559999999997
11
53.8511809999999969
21
2.1891400000000001
0
LINE
8
BLACK
6
CONTINUOUS
10
53.8511809999999969
20
2.1891400000000001
11
53.7808050000000009
21
2.2966340000000001
0
LINE
8
BLACK
6
CONTINUOUS
10
53.7808050000000009
20
2.2966340000000001
11
53.7301059999999993
21
2.4150929999999997
0
LINE
8
BLACK
6
CONTINUOUS
10
53.7301059999999993
20
2.4150929999999997
11
53.6989069999999984
21
2.5463679999999997
0
LINE
8
BLACK
6
CONTINUOUS
10
53.6989069999999984
20
2.5463679999999997
11
53.6881139999999988
21
2.692949
0
LINE
8
BLACK
6
CONTINUOUS
10
53.6881139999999988
20
2.692949
11
53.6988479999999981
21
2.8409249999999999
0
LINE
8
BLACK
6
CONTINUOUS
10
53.6988479999999981
20
2.8409249999999999
11
53.7297650000000004
21
2.972458
0
LINE
8
BLACK
6
CONTINUOUS
10
53.7297650000000004
20
2.972458
11
53.779796999999995
21
3.090179
0
LINE
8
BLACK
6
CONTINUOUS
10
53.779796999999995
20
3.090179
11
53.8493489999999966
21
3.1971439999999998
0
LINE
8
BLACK
6
CONTINUOUS
10
53.8493489999999966
20
3.1971439999999998
11
53.9336649999999977
21
3.2861949999999998
0
LINE
8
BLACK
6
CONTINUOUS
10
53.9336649999999977
20
3.2861949999999998
11
54.0338709999999978
21
3.3589989999999998
0
LINE
8
BLACK
6
CONTINUOUS
10
54.0338709999999978
20
3.3589989999999998
11
54.1166939999999954
21
3.4008349999999998
0
LINE
8
BLACK
6
CONTINUOUS
10
54.1166939999999954
20
3.4008349999999998
11
54.2061399999999978
21
3.4310939999999999
0
LINE
8
BLACK
6
CONTINUOUS
10
54.2061399999999978
20
3.4310939999999999
11
54.3032429999999948
21
3.4496919999999998
0
LINE
8
BLACK
6
CONTINUOUS
10
54.3032429999999948
20
3.4496919999999998
11
54.4092109999999991
21
3.456086
0
LINE
8
BLACK
6
CONTINUOUS
10
54.4092109999999991
20
3.456086
11
54.51511
21
3.4496419999999999
0
LINE
8
BLACK
6
CONTINUOUS
10
54.306960999999994
20
3.2797000000000001
11
54.2150150000000011
21
3.2541910000000001
0
LINE
8
BLACK
6
CONTINUOUS
10
54.2150150000000011
20
3.2541910000000001
11
54.131414999999997
21
3.2122699999999997
0
LINE
8
BLACK
6
CONTINUOUS
10
54.131414999999997
20
3.2122699999999997
11
54.0569539999999975
21
3.1554389999999999
0
LINE
8
BLACK
6
CONTINUOUS
10
54.0569539999999975
20
3.1554389999999999
11
53.9938259999999985
21
3.0856170000000001
0
LINE
8
BLACK
6
CONTINUOUS
10
53.9938259999999985
20
3.0856170000000001
11
53.9413640000000001
21
3.0013359999999998
0
LINE
8
BLACK
6
CONTINUOUS
10
53.9413640000000001
20
3.0013359999999998
11
53.9037310000000005
21
2.9091709999999997
0
LINE
8
BLACK
6
CONTINUOUS
10
53.9037310000000005
20
2.9091709999999997
11
53.8805219999999991
21
2.8069929999999998
0
LINE
8
BLACK
6
CONTINUOUS
10
53.8805219999999991
20
2.8069929999999998
11
53.8724869999999996
21
2.692949
0
LINE
8
BLACK
6
CONTINUOUS
10
53.8724869999999996
20
2.692949
11
53.8805729999999983
21
2.577493
0
LINE
8
BLACK
6
CONTINUOUS
10
53.8805729999999983
20
2.577493
11
53.9038279999999972
21
2.4750350000000001
0
LINE
8
BLACK
6
CONTINUOUS
10
53.9038279999999972
20
2.4750350000000001
11
53.9413640000000001
21
2.3835539999999997
0
LINE
8
BLACK
6
CONTINUOUS
10
53.9413640000000001
20
2.3835539999999997
11
53.9938799999999972
21
2.3001119999999999
0
LINE
8
BLACK
6
CONTINUOUS
10
53.9938799999999972
20
2.3001119999999999
11
54.0576689999999971
21
2.2305539999999997
0
LINE
8
BLACK
6
CONTINUOUS
10
54.0576689999999971
20
2.2305539999999997
11
54.1335219999999993
21
2.1735359999999999
0
LINE
8
BLACK
6
CONTINUOUS
10
54.1335219999999993
20
2.1735359999999999
11
54.2184880000000007
21
2.1316229999999998
0
LINE
8
BLACK
6
CONTINUOUS
10
54.2184880000000007
20
2.1316229999999998
11
54.3118449999999982
21
2.1061069999999997
0
LINE
8
BLACK
6
CONTINUOUS
10
54.3118449999999982
20
2.1061069999999997
11
54.4155309999999943
21
2.0973319999999998
0
LINE
8
BLACK
6
CONTINUOUS
10
54.4155309999999943
20
2.0973319999999998
11
54.5176889999999972
21
2.1061429999999999
0
LINE
8
BLACK
6
CONTINUOUS
10
54.5176889999999972
20
2.1061429999999999
11
54.608865999999999
21
2.1316809999999999
0
LINE
8
BLACK
6
CONTINUOUS
10
54.608865999999999
20
2.1316809999999999
11
54.6911279999999991
21
2.1735359999999999
0
LINE
8
BLACK
6
CONTINUOUS
10
54.6911279999999991
20
2.1735359999999999
11
54.7642819999999944
21
2.2302659999999999
0
LINE
8
BLACK
6
CONTINUOUS
10
54.7642819999999944
20
2.2302659999999999
11
54.8263869999999969
21
2.2997589999999999
0
LINE
8
BLACK
6
CONTINUOUS
10
54.8263869999999969
20
2.2997589999999999
11
54.8780659999999969
21
2.3834629999999999
0
LINE
8
BLACK
6
CONTINUOUS
10
54.8780659999999969
20
2.3834629999999999
11
54.9150889999999947
21
2.474952
0
LINE
8
BLACK
6
CONTINUOUS
10
54.9150889999999947
20
2.474952
11
54.9380430000000004
21
2.5774459999999997
0
LINE
8
BLACK
6
CONTINUOUS
10
54.9380430000000004
20
2.5774459999999997
11
54.9460259999999963
21
2.692949
0
LINE
8
BLACK
6
CONTINUOUS
10
54.9460259999999963
20
2.692949
11
54.9379709999999974
21
2.8069839999999999
0
LINE
8
BLACK
6
CONTINUOUS
10
54.9379709999999974
20
2.8069839999999999
11
54.9147019999999983
21
2.9091609999999997
0
LINE
8
BLACK
6
CONTINUOUS
10
54.9147019999999983
20
2.9091609999999997
11
54.8769670000000005
21
3.0013359999999998
0
LINE
8
BLACK
6
CONTINUOUS
10
54.8769670000000005
20
3.0013359999999998
11
54.8245699999999943
21
3.085696
0
LINE
8
BLACK
6
CONTINUOUS
10
54.8245699999999943
20
3.085696
11
54.7617909999999952
21
3.15551
0
LINE
8
BLACK
6
CONTINUOUS
10
54.7617909999999952
20
3.15551
11
54.6880139999999955
21
3.2122699999999997
0
LINE
8
BLACK
6
CONTINUOUS
10
54.6880139999999955
20
3.2122699999999997
11
54.6050819999999959
21
3.2540789999999999
0
LINE
8
BLACK
6
CONTINUOUS
10
54.6050819999999959
20
3.2540789999999999
11
54.5128519999999952
21
3.2796409999999998
0
LINE
8
BLACK
6
CONTINUOUS
10
54.5128519999999952
20
3.2796409999999998
11
54.4092109999999991
21
3.2884739999999999
0
LINE
8
BLACK
6
CONTINUOUS
10
54.4092109999999991
20
3.2884739999999999
11
54.306960999999994
21
3.2797000000000001
0
LINE
8
BLACK
6
CONTINUOUS
10
44.3286200000000008
20
2.1587999999999998
11
44.8483859999999979
21
3.430898
0
LINE
8
BLACK
6
CONTINUOUS
10
44.8483859999999979
20
3.430898
11
45.0416430000000005
21
3.430898
0
LINE
8
BLACK
6
CONTINUOUS
10
45.0416430000000005
20
3.430898
11
44.4301809999999975
21
1.9549999999999998
0
LINE
8
BLACK
6
CONTINUOUS
10
44.4301809999999975
20
1.9549999999999998
11
44.2453499999999948
21
1.9549999999999998
0
LINE
8
BLACK
6
CONTINUOUS
10
44.2453499999999948
20
1.9549999999999998
11
44.2288640000000015
21
1.9549999999999998
0
LINE
8
BLACK
6
CONTINUOUS
10
44.2288640000000015
20
1.9549999999999998
11
43.6174019999999985
21
3.430898
0
LINE
8
BLACK
6
CONTINUOUS
10
43.6174019999999985
20
3.430898
11
43.8107509999999962
21
3.430898
0
LINE
8
BLACK
6
CONTINUOUS
10
43.8107509999999962
20
3.430898
11
44.3286200000000008
21
2.1587999999999998
0
LINE
8
BLACK
6
CONTINUOUS
10
45.4348430000000008
20
1.9549999999999998
11
45.2504709999999974
21
1.9549999999999998
0
LINE
8
BLACK
6
CONTINUOUS
10
45.2504709999999974
20
1.9549999999999998
11
45.2504709999999974
21
3.430898
0
LINE
8
BLACK
6
CONTINUOUS
10
45.2504709999999974
20
3.430898
11
45.4348430000000008
21
3.430898
0
LINE
8
BLACK
6
CONTINUOUS
10
45.4348430000000008
20
3.430898
11
45.4348430000000008
21
1.9549999999999998
0
LINE
8
BLACK
6
CONTINUOUS
10
47.0318249999999978
20
1.9549999999999998
11
46.838476
21
1.9549999999999998
0
LINE
8
BLACK
6
CONTINUOUS
10
46.838476
20
1.9549999999999998
11
46.6707490000000007
21
2.3729299999999998
0
LINE
8
BLACK
6
CONTINUOUS
10
46.6707490000000007
20
2.3729299999999998
11
46.0044059999999959
21
2.3729299999999998
0
LINE
8
BLACK
6
CONTINUOUS
10
46.0044059999999959
20
2.3729299999999998
11
45.8366529999999983
21
1.9549999999999998
0
LINE
8
BLACK
6
CONTINUOUS
10
45.8366529999999983
20
1.9549999999999998
11
45.6411979999999957
21
1.9549999999999998
0
LINE
8
BLACK
6
CONTINUOUS
10
45.6411979999999957
20
1.9549999999999998
11
45.8787129999999976
21
2.5383429999999998
0
LINE
8
BLACK
6
CONTINUOUS
10
45.8787129999999976
20
2.5383429999999998
11
46.2421269999999964
21
3.430898
0
LINE
8
BLACK
6
CONTINUOUS
10
46.2421269999999964
20
3.430898
11
46.4290639999999968
21
3.430898
0
LINE
8
BLACK
6
CONTINUOUS
10
46.4290639999999968
20
3.430898
11
46.4308959999999971
21
3.430898
0
LINE
8
BLACK
6
CONTINUOUS
10
46.4308959999999971
20
3.430898
11
47.0318249999999978
21
1.9549999999999998
0
LINE
8
BLACK
6
CONTINUOUS
10
46.0708009999999959
20
2.5383429999999998
11
46.6043639999999968
21
2.5383429999999998
0
LINE
8
BLACK
6
CONTINUOUS
10
46.6043639999999968
20
2.5383429999999998
11
46.3376030000000014
21
3.2030379999999998
0
LINE
8
BLACK
6
CONTINUOUS
10
46.3376030000000014
20
3.2030379999999998
11
46.0708009999999959
21
2.5383429999999998
0
LINE
8
BLACK
6
CONTINUOUS
10
49.3597479999999962
20
3.424223
11
49.4440389999999965
21
3.4049579999999997
0
LINE
8
BLACK
6
CONTINUOUS
10
49.4440389999999965
20
3.4049579999999997
11
49.5198970000000003
21
3.373745
0
LINE
8
BLACK
6
CONTINUOUS
10
49.5198970000000003
20
3.373745
11
49.5890950000000004
21
3.330276
0
LINE
8
BLACK
6
CONTINUOUS
10
49.5890950000000004
20
3.330276
11
49.6464670000000012
21
3.2776369999999999
0
LINE
8
BLACK
6
CONTINUOUS
10
49.6464670000000012
20
3.2776369999999999
11
49.6931869999999947
21
3.215201
0
LINE
8
BLACK
6
CONTINUOUS
10
49.6931869999999947
20
3.215201
11
49.7274789999999953
21
3.1452279999999999
0
LINE
8
BLACK
6
CONTINUOUS
10
49.7274789999999953
20
3.1452279999999999
11
49.7483709999999988
21
3.0682739999999997
0
LINE
8
BLACK
6
CONTINUOUS
10
49.7483709999999988
20
3.0682739999999997
11
49.7555599999999956
21
2.9827429999999997
0
LINE
8
BLACK
6
CONTINUOUS
10
49.7555599999999956
20
2.9827429999999997
11
49.7478100000000012
21
2.8973739999999997
0
LINE
8
BLACK
6
CONTINUOUS
10
49.7478100000000012
20
2.8973739999999997
11
49.725209999999997
21
2.820395
0
LINE
8
BLACK
6
CONTINUOUS
10
49.725209999999997
20
2.820395
11
49.6878749999999982
21
2.750102
0
LINE
8
BLACK
6
CONTINUOUS
10
49.6878749999999982
20
2.750102
11
49.6378579999999943
21
2.6877279999999999
0
LINE
8
BLACK
6
CONTINUOUS
10
49.6378579999999943
20
2.6877279999999999
11
49.577024999999999
21
2.6347049999999999
0
LINE
8
BLACK
6
CONTINUOUS
10
49.577024999999999
20
2.6347049999999999
11
49.5041429999999991
21
2.5905499999999999
0
LINE
8
BLACK
6
CONTINUOUS
10
49.5041429999999991
20
2.5905499999999999
11
49.4555079999999947
21
2.5710289999999998
0
LINE
8
BLACK
6
CONTINUOUS
10
49.4555079999999947
20
2.5710289999999998
11
49.8165599999999955
21
1.9549999999999998
0
LINE
8
BLACK
6
CONTINUOUS
10
49.8165599999999955
20
1.9549999999999998
11
49.6145099999999957
21
1.9549999999999998
0
LINE
8
BLACK
6
CONTINUOUS
10
49.6145099999999957
20
1.9549999999999998
11
49.2750659999999954
21
2.5347770000000001
0
LINE
8
BLACK
6
CONTINUOUS
10
49.2750659999999954
20
2.5347770000000001
11
49.2423760000000001
21
2.5324809999999998
0
LINE
8
BLACK
6
CONTINUOUS
10
49.2423760000000001
20
2.5324809999999998
11
48.9680600000000013
21
2.5324809999999998
0
LINE
8
BLACK
6
CONTINUOUS
10
48.9680600000000013
20
2.5324809999999998
11
48.9680600000000013
21
1.9549999999999998
0
LINE
8
BLACK
6
CONTINUOUS
10
48.9680600000000013
20
1.9549999999999998
11
48.7836879999999979
21
1.9549999999999998
0
LINE
8
BLACK
6
CONTINUOUS
10
48.7836879999999979
20
1.9549999999999998
11
48.7836879999999979
21
2.7021989999999998
0
LINE
8
BLACK
6
CONTINUOUS
10
48.7836879999999979
20
2.7021989999999998
11
48.7836879999999979
21
3.430898
0
LINE
8
BLACK
6
CONTINUOUS
10
48.7836879999999979
20
3.430898
11
49.2654569999999978
21
3.430898
0
LINE
8
BLACK
6
CONTINUOUS
10
49.2654569999999978
20
3.430898
11
49.3597479999999962
21
3.424223
0
LINE
8
BLACK
6
CONTINUOUS
10
48.9680600000000013
20
2.7021989999999998
11
49.2906440000000003
21
2.7021989999999998
0
LINE
8
BLACK
6
CONTINUOUS
10
49.2906440000000003
20
2.7021989999999998
11
49.3662330000000011
21
2.7114919999999998
0
LINE
8
BLACK
6
CONTINUOUS
10
49.3662330000000011
20
2.7114919999999998
11
49.4319689999999952
21
2.7385609999999998
0
LINE
8
BLACK
6
CONTINUOUS
10
49.4319689999999952
20
2.7385609999999998
11
49.4881829999999994
21
2.7815189999999999
0
LINE
8
BLACK
6
CONTINUOUS
10
49.4881829999999994
20
2.7815189999999999
11
49.5327190000000002
21
2.8383039999999999
0
LINE
8
BLACK
6
CONTINUOUS
10
49.5327190000000002
20
2.8383039999999999
11
49.5613559999999964
21
2.9053049999999998
0
LINE
8
BLACK
6
CONTINUOUS
10
49.5613559999999964
20
2.9053049999999998
11
49.5711879999999994
21
2.9827429999999997
0
LINE
8
BLACK
6
CONTINUOUS
10
49.5711879999999994
20
2.9827429999999997
11
49.561236000000001
21
3.0620689999999997
0
LINE
8
BLACK
6
CONTINUOUS
10
49.561236000000001
20
3.0620689999999997
11
49.5326219999999964
21
3.1285859999999999
0
LINE
8
BLACK
6
CONTINUOUS
10
49.5326219999999964
20
3.1285859999999999
11
49.4849089999999947
21
3.1853419999999999
0
LINE
8
BLACK
6
CONTINUOUS
10
49.4849089999999947
20
3.1853419999999999
11
49.4233819999999966
21
3.2278179999999996
0
LINE
8
BLACK
6
CONTINUOUS
10
49.4233819999999966
20
3.2278179999999996
11
49.3499079999999992
21
3.2540290000000001
0
LINE
8
BLACK
6
CONTINUOUS
10
49.3499079999999992
20
3.2540290000000001
11
49.2612430000000003
21
3.2632859999999999
0
LINE
8
BLACK
6
CONTINUOUS
10
49.2612430000000003
20
3.2632859999999999
11
48.9680600000000013
21
3.2632859999999999
0
LINE
8
BLACK
6
CONTINUOUS
10
48.9680600000000013
20
3.2632859999999999
11
48.9680600000000013
21
2.7021989999999998
0
LINE
8
BLACK
6
CONTINUOUS
10
50.2825749999999942
20
1.9549999999999998
11
50.098202999999998
21
1.9549999999999998
0
LINE
8
BLACK
6
CONTINUOUS
10
50.098202999999998
20
1.9549999999999998
11
50.098202999999998
21
3.430898
0
LINE
8
BLACK
6
CONTINUOUS
10
50.098202999999998
20
3.430898
11
50.2825749999999942
21
3.430898
0
LINE
8
BLACK
6
CONTINUOUS
10
50.2825749999999942
20
3.430898
11
50.2825749999999942
21
1.9549999999999998
0
LINE
8
BLACK
6
CONTINUOUS
10
51.2536319999999961
20
3.4199859999999997
11
51.3754109999999997
21
3.3884369999999997
0
LINE
8
BLACK
6
CONTINUOUS
10
51.3754109999999997
20
3.3884369999999997
11
51.4849829999999997
21
3.3370169999999999
0
LINE
8
BLACK
6
CONTINUOUS
10
51.4849829999999997
20
3.3370169999999999
11
51.5834019999999995
21
3.2664739999999997
0
LINE
8
BLACK
6
CONTINUOUS
10
51.5834019999999995
20
3.2664739999999997
11
51.6663439999999952
21
3.1801699999999999
0
LINE
8
BLACK
6
CONTINUOUS
10
51.6663439999999952
20
3.1801699999999999
11
51.7349350000000001
21
3.0765319999999998
0
LINE
8
BLACK
6
CONTINUOUS
10
51.7349350000000001
20
3.0765319999999998
11
51.7845009999999988
21
2.9623059999999999
0
LINE
8
BLACK
6
CONTINUOUS
10
51.7845009999999988
20
2.9623059999999999
11
51.8150339999999971
21
2.8352789999999999
0
LINE
8
BLACK
6
CONTINUOUS
10
51.8150339999999971
20
2.8352789999999999
11
51.8256099999999975
21
2.692949
0
LINE
8
BLACK
6
CONTINUOUS
10
51.8256099999999975
20
2.692949
11
51.8150669999999991
21
2.5519699999999998
0
LINE
8
BLACK
6
CONTINUOUS
10
51.8150669999999991
20
2.5519699999999998
11
51.7845650000000006
21
2.425583
0
LINE
8
BLACK
6
CONTINUOUS
10
51.7845650000000006
20
2.425583
11
51.7349350000000001
21
2.3113799999999998
0
LINE
8
BLACK
6
CONTINUOUS
10
51.7349350000000001
20
2.3113799999999998
11
51.6663919999999948
21
2.2077290000000001
0
LINE
8
BLACK
6
CONTINUOUS
10
51.6663919999999948
20
2.2077290000000001
11
51.5834489999999946
21
2.1210719999999998
0
LINE
8
BLACK
6
CONTINUOUS
10
51.5834489999999946
20
2.1210719999999998
11
51.4849829999999997
21
2.0498879999999997
0
LINE
8
BLACK
6
CONTINUOUS
10
51.4849829999999997
20
2.0498879999999997
11
51.3753519999999995
21
1.997895
0
LINE
8
BLACK
6
CONTINUOUS
10
51.3753519999999995
20
1.997895
11
51.2535789999999949
21
1.9660199999999999
0
LINE
8
BLACK
6
CONTINUOUS
10
51.2535789999999949
20
1.9660199999999999
11
51.1170619999999971
21
1.9549999999999998
0
LINE
8
BLACK
6
CONTINUOUS
10
51.1170619999999971
20
1.9549999999999998
11
50.666799999999995
21
1.9549999999999998
0
LINE
8
BLACK
6
CONTINUOUS
10
50.666799999999995
20
1.9549999999999998
11
50.666799999999995
21
2.1246260000000001
0
LINE
8
BLACK
6
CONTINUOUS
10
50.666799999999995
20
2.1246260000000001
11
50.666799999999995
21
3.430898
0
LINE
8
BLACK
6
CONTINUOUS
10
50.666799999999995
20
3.430898
11
51.1170619999999971
21
3.430898
0
LINE
8
BLACK
6
CONTINUOUS
10
51.1170619999999971
20
3.430898
11
51.2536319999999961
21
3.4199859999999997
0
LINE
8
BLACK
6
CONTINUOUS
10
50.8511729999999957
20
2.1246260000000001
11
51.1170619999999971
21
2.1246260000000001
0
LINE
8
BLACK
6
CONTINUOUS
10
51.1170619999999971
20
2.1246260000000001
11
51.2244010000000003
21
2.1355010000000001
0
LINE
8
BLACK
6
CONTINUOUS
10
51.2244010000000003
20
2.1355010000000001
11
51.3216759999999965
21
2.1673990000000001
0
LINE
8
BLACK
6
CONTINUOUS
10
51.3216759999999965
20
2.1673990000000001
11
51.4097760000000008
21
2.2190539999999999
0
LINE
8
BLACK
6
CONTINUOUS
10
51.4097760000000008
20
2.2190539999999999
11
51.4876389999999944
21
2.2895819999999998
0
LINE
8
BLACK
6
CONTINUOUS
10
51.4876389999999944
20
2.2895819999999998
11
51.5516459999999981
21
2.3745949999999998
0
LINE
8
BLACK
6
CONTINUOUS
10
51.5516459999999981
20
2.3745949999999998
11
51.600479
21
2.472397
0
LINE
8
BLACK
6
CONTINUOUS
10
51.600479
20
2.472397
11
51.6309210000000007
21
2.5786020000000001
0
LINE
8
BLACK
6
CONTINUOUS
10
51.6309210000000007
20
2.5786020000000001
11
51.6412369999999967
21
2.692949
0
LINE
8
BLACK
6
CONTINUOUS
10
51.6412369999999967
20
2.692949
11
51.6309189999999987
21
2.807283
0
LINE
8
BLACK
6
CONTINUOUS
10
51.6309189999999987
20
2.807283
11
51.600479
21
2.913408
0
LINE
8
BLACK
6
CONTINUOUS
10
51.600479
20
2.913408
11
51.5516359999999949
21
3.0112719999999999
0
LINE
8
BLACK
6
CONTINUOUS
10
51.5516359999999949
20
3.0112719999999999
11
51.4876389999999944
21
3.0962239999999999
0
LINE
8
BLACK
6
CONTINUOUS
10
51.4876389999999944
20
3.0962239999999999
11
51.4097760000000008
21
3.1667519999999998
0
LINE
8
BLACK
6
CONTINUOUS
10
51.4097760000000008
20
3.1667519999999998
11
51.3216759999999965
21
3.218407
0
LINE
8
BLACK
6
CONTINUOUS
10
51.3216759999999965
20
3.218407
11
51.2244010000000003
21
3.250305
0
LINE
8
BLACK
6
CONTINUOUS
10
51.2244010000000003
20
3.250305
11
51.1170619999999971
21
3.26118
0
LINE
8
BLACK
6
CONTINUOUS
10
51.1170619999999971
20
3.26118
11
50.8511729999999957
21
3.26118
0
LINE
8
BLACK
6
CONTINUOUS
10
50.8511729999999957
20
3.26118
11
50.8511729999999957
21
2.1246260000000001
0
LINE
8
BLACK
6
CONTINUOUS
10
53.574266999999999
20
3.2632859999999999
11
53.1059619999999981
21
3.2632859999999999
0
LINE
8
BLACK
6
CONTINUOUS
10
53.1059619999999981
20
3.2632859999999999
11
53.1059619999999981
21
1.9549999999999998
0
LINE
8
BLACK
6
CONTINUOUS
10
53.1059619999999981
20
1.9549999999999998
11
52.923694999999995
21
1.9549999999999998
0
LINE
8
BLACK
6
CONTINUOUS
10
52.923694999999995
20
1.9549999999999998
11
52.923694999999995
21
3.2632859999999999
0
LINE
8
BLACK
6
CONTINUOUS
10
52.923694999999995
20
3.2632859999999999
11
52.4553899999999942
21
3.2632859999999999
0
LINE
8
BLACK
6
CONTINUOUS
10
52.4553899999999942
20
3.2632859999999999
11
52.4553899999999942
21
3.430898
0
LINE
8
BLACK
6
CONTINUOUS
10
52.4553899999999942
20
3.430898
11
53.574266999999999
21
3.430898
0
LINE
8
BLACK
6
CONTINUOUS
10
53.574266999999999
20
3.430898
11
53.574266999999999
21
3.2632859999999999
0
LINE
8
BLACK
6
CONTINUOUS
10
55.9923079999999942
20
3.4240019999999998
11
56.0765869999999964
21
3.40408
0
LINE
8
BLACK
6
CONTINUOUS
10
56.0765869999999964
20
3.40408
11
56.1525549999999996
21
3.3717299999999999
0
LINE
8
BLACK
6
CONTINUOUS
10
56.1525549999999996
20
3.3717299999999999
11
56.2215269999999947
21
3.3267829999999998
0
LINE
8
BLACK
6
CONTINUOUS
10
56.2215269999999947
20
3.3267829999999998
11
56.278934999999997
21
3.2720859999999998
0
LINE
8
BLACK
6
CONTINUOUS
10
56.278934999999997
20
3.2720859999999998
11
56.3258459999999985
21
3.2068659999999998
0
LINE
8
BLACK
6
CONTINUOUS
10
56.3258459999999985
20
3.2068659999999998
11
56.3599819999999951
21
3.1340999999999997
0
LINE
8
BLACK
6
CONTINUOUS
10
56.3599819999999951
20
3.1340999999999997
11
56.3809559999999976
21
3.0529859999999998
0
LINE
8
BLACK
6
CONTINUOUS
10
56.3809559999999976
20
3.0529859999999998
11
56.3882189999999994
21
2.9617689999999999
0
LINE
8
BLACK
6
CONTINUOUS
10
56.3882189999999994
20
2.9617689999999999
11
56.3815999999999988
21
2.8731019999999998
0
LINE
8
BLACK
6
CONTINUOUS
10
56.3815999999999988
20
2.8731019999999998
11
56.3624189999999956
21
2.7932959999999998
0
LINE
8
BLACK
6
CONTINUOUS
10
56.3624189999999956
20
2.7932959999999998
11
56.331157999999995
21
2.7208839999999999
0
LINE
8
BLACK
6
CONTINUOUS
10
56.331157999999995
20
2.7208839999999999
11
56.2880380000000002
21
2.6549879999999999
0
LINE
8
BLACK
6
CONTINUOUS
10
56.2880380000000002
20
2.6549879999999999
11
56.236106999999997
21
2.6000030000000001
0
LINE
8
BLACK
6
CONTINUOUS
10
56.236106999999997
20
2.6000030000000001
11
56.1747200000000007
21
2.5549209999999998
0
LINE
8
BLACK
6
CONTINUOUS
10
56.1747200000000007
20
2.5549209999999998
11
56.1062089999999998
21
2.521903
0
LINE
8
BLACK
6
CONTINUOUS
10
56.1062089999999998
20
2.521903
11
56.0299539999999965
21
2.5016579999999999
0
LINE
8
BLACK
6
CONTINUOUS
10
56.0299539999999965
20
2.5016579999999999
11
55.9442769999999996
21
2.4946539999999997
0
LINE
8
BLACK
6
CONTINUOUS
10
55.9442769999999996
20
2.4946539999999997
11
55.600718999999998
21
2.4946539999999997
0
LINE
8
BLACK
6
CONTINUOUS
10
55.600718999999998
20
2.4946539999999997
11
55.600718999999998
21
1.9549999999999998
0
LINE
8
BLACK
6
CONTINUOUS
10
55.600718999999998
20
1.9549999999999998
11
55.4163459999999972
21
1.9549999999999998
0
LINE
8
BLACK
6
CONTINUOUS
10
55.4163459999999972
20
1.9549999999999998
11
55.4163459999999972
21
2.6622659999999998
0
LINE
8
BLACK
6
CONTINUOUS
10
55.4163459999999972
20
2.6622659999999998
11
55.4163459999999972
21
3.430898
0
LINE
8
BLACK
6
CONTINUOUS
10
55.4163459999999972
20
3.430898
11
55.8981149999999971
21
3.430898
0
LINE
8
BLACK
6
CONTINUOUS
10
55.8981149999999971
20
3.430898
11
55.9923079999999942
21
3.4240019999999998
0
LINE
8
BLACK
6
CONTINUOUS
10
55.600718999999998
20
2.6622659999999998
11
55.9442769999999996
21
2.6622659999999998
0
LINE
8
BLACK
6
CONTINUOUS
10
55.9442769999999996
20
2.6622659999999998
11
56.0165639999999954
21
2.671802
0
LINE
8
BLACK
6
CONTINUOUS
10
56.0165639999999954
20
2.671802
11
56.0782979999999966
21
2.6995119999999999
0
LINE
8
BLACK
6
CONTINUOUS
10
56.0782979999999966
20
2.6995119999999999
11
56.132130999999994
21
2.746346
0
LINE
8
BLACK
6
CONTINUOUS
10
56.132130999999994
20
2.746346
11
56.1724079999999972
21
2.8062109999999998
0
LINE
8
BLACK
6
CONTINUOUS
10
56.1724079999999972
20
2.8062109999999998
11
56.1972169999999949
21
2.87704
0
LINE
8
BLACK
6
CONTINUOUS
10
56.1972169999999949
20
2.87704
11
56.2059530000000009
21
2.9617689999999999
0
LINE
8
BLACK
6
CONTINUOUS
10
56.2059530000000009
20
2.9617689999999999
11
56.1957349999999991
21
3.0481419999999999
0
LINE
8
BLACK
6
CONTINUOUS
10
56.1957349999999991
20
3.0481419999999999
11
56.1665909999999968
21
3.1198039999999998
0
LINE
8
BLACK
6
CONTINUOUS
10
56.1665909999999968
20
3.1198039999999998
11
56.1185749999999999
21
3.1801219999999999
0
LINE
8
BLACK
6
CONTINUOUS
10
56.1185749999999999
20
3.1801219999999999
11
56.0560359999999989
21
3.2257929999999999
0
LINE
8
BLACK
6
CONTINUOUS
10
56.0560359999999989
20
3.2257929999999999
11
55.9828589999999977
21
3.2535749999999997
0
LINE
8
BLACK
6
CONTINUOUS
10
55.9828589999999977
20
3.2535749999999997
11
55.8960089999999994
21
3.2632859999999999
0
LINE
8
BLACK
6
CONTINUOUS
10
55.8960089999999994
20
3.2632859999999999
11
55.600718999999998
21
3.2632859999999999
0
LINE
8
BLACK
6
CONTINUOUS
10
55.600718999999998
20
3.2632859999999999
11
55.600718999999998
21
2.6622659999999998
0
LINE
8
BLACK
6
CONTINUOUS
10
7.4999989999999999
20
4.7999999999999998
11
7.4938929999999999
21
4.7297769999999995
0
LINE
8
BLACK
6
CONTINUOUS
10
7.4938929999999999
20
4.7297769999999995
11
7.474774
21
4.5901040000000002
0
LINE
8
BLACK
6
CONTINUOUS
10
7.474774
20
4.5901040000000002
11
7.4478390000000001
21
4.4517259999999998
0
LINE
8
BLACK
6
CONTINUOUS
10
7.4478390000000001
20
4.4517259999999998
11
7.4131729999999996
21
4.31508
0
LINE
8
BLACK
6
CONTINUOUS
10
7.4131729999999996
20
4.31508
11
7.3708859999999996
21
4.1805969999999997
0
LINE
8
BLACK
6
CONTINUOUS
10
7.3708859999999996
20
4.1805969999999997
11
7.32111
21
4.0487019999999996
0
LINE
8
BLACK
6
CONTINUOUS
10
7.32111
20
4.0487019999999996
11
7.2640039999999999
21
3.9198109999999997
0
LINE
8
BLACK
6
CONTINUOUS
10
7.2640039999999999
20
3.9198109999999997
11
7.1997469999999995
21
3.7943319999999998
0
LINE
8
BLACK
6
CONTINUOUS
10
7.1997469999999995
20
3.7943319999999998
11
7.1285419999999995
21
3.6726609999999997
0
LINE
8
BLACK
6
CONTINUOUS
10
7.1285419999999995
20
3.6726609999999997
11
7.0506149999999996
21
3.5551819999999998
0
LINE
8
BLACK
6
CONTINUOUS
10
7.0506149999999996
20
3.5551819999999998
11
6.9662109999999995
21
3.442266
0
LINE
8
BLACK
6
CONTINUOUS
10
6.9662109999999995
20
3.442266
11
6.8755980000000001
21
3.3342709999999998
0
LINE
8
BLACK
6
CONTINUOUS
10
6.8755980000000001
20
3.3342709999999998
11
6.7790599999999994
21
3.2315359999999997
0
LINE
8
BLACK
6
CONTINUOUS
10
6.7790599999999994
20
3.2315359999999997
11
6.6769039999999995
21
3.1343859999999997
0
LINE
8
BLACK
6
CONTINUOUS
10
6.6769039999999995
20
3.1343859999999997
11
6.5694509999999999
21
3.043129
0
LINE
8
BLACK
6
CONTINUOUS
10
6.5694509999999999
20
3.043129
11
6.4570419999999995
21
2.9580519999999999
0
LINE
8
BLACK
6
CONTINUOUS
10
6.4570419999999995
20
2.9580519999999999
11
6.3400299999999996
21
2.8794249999999999
0
LINE
8
BLACK
6
CONTINUOUS
10
6.3400299999999996
20
2.8794249999999999
11
6.2187869999999998
21
2.8074949999999999
0
LINE
8
BLACK
6
CONTINUOUS
10
6.2187869999999998
20
2.8074949999999999
11
6.0936940000000002
21
2.742489
0
LINE
8
BLACK
6
CONTINUOUS
10
6.0936940000000002
20
2.742489
11
5.965147
21
2.6846139999999998
0
LINE
8
BLACK
6
CONTINUOUS
10
5.965147
20
2.6846139999999998
11
5.8335509999999999
21
2.6340509999999999
0
LINE
8
BLACK
6
CONTINUOUS
10
5.8335509999999999
20
2.6340509999999999
11
5.6993229999999997
21
2.5909610000000001
0
LINE
8
BLACK
6
CONTINUOUS
10
5.6993229999999997
20
2.5909610000000001
11
5.5628859999999998
21
2.5554799999999998
0
LINE
8
BLACK
6
CONTINUOUS
10
5.5628859999999998
20
2.5554799999999998
11
5.4246720000000002
21
2.5277189999999998
0
LINE
8
BLACK
6
CONTINUOUS
10
5.4246720000000002
20
2.5277189999999998
11
5.2851159999999995
21
2.5077659999999997
0
LINE
8
BLACK
6
CONTINUOUS
10
5.2851159999999995
20
2.5077659999999997
11
5.1446589999999999
21
2.4956849999999999
0
LINE
8
BLACK
6
CONTINUOUS
10
5.1446589999999999
20
2.4956849999999999
11
5.0037459999999996
21
2.4915129999999999
0
LINE
8
BLACK
6
CONTINUOUS
10
5.0037459999999996
20
2.4915129999999999
11
4.8628209999999994
21
2.4952639999999997
0
LINE
8
BLACK
6
CONTINUOUS
10
4.8628209999999994
20
2.4952639999999997
11
4.7223290000000002
21
2.506926
0
LINE
8
BLACK
6
CONTINUOUS
10
4.7223290000000002
20
2.506926
11
4.5827149999999994
21
2.5264609999999998
0
LINE
8
BLACK
6
CONTINUOUS
10
4.5827149999999994
20
2.5264609999999998
11
4.4444179999999998
21
2.5538089999999998
0
LINE
8
BLACK
6
CONTINUOUS
10
4.4444179999999998
20
2.5538089999999998
11
4.3078750000000001
21
2.588883
0
LINE
8
BLACK
6
CONTINUOUS
10
4.3078750000000001
20
2.588883
11
4.1735189999999998
21
2.6315719999999998
0
LINE
8
BLACK
6
CONTINUOUS
10
4.1735189999999998
20
2.6315719999999998
11
4.0417730000000001
21
2.6817419999999998
0
LINE
8
BLACK
6
CONTINUOUS
10
4.0417730000000001
20
2.6817419999999998
11
3.9130539999999998
21
2.739233
0
LINE
8
BLACK
6
CONTINUOUS
10
3.9130539999999998
20
2.739233
11
3.7877669999999997
21
2.8038639999999999
0
LINE
8
BLACK
6
CONTINUOUS
10
3.7877669999999997
20
2.8038639999999999
11
3.666309
21
2.875432
0
LINE
8
BLACK
6
CONTINUOUS
10
3.666309
20
2.875432
11
3.549064
21
2.9537100000000001
0
LINE
8
BLACK
6
CONTINUOUS
10
3.549064
20
2.9537100000000001
11
3.436401
21
3.0384499999999997
0
LINE
8
BLACK
6
CONTINUOUS
10
3.436401
20
3.0384499999999997
11
3.3286759999999997
21
3.1293859999999998
0
LINE
8
BLACK
6
CONTINUOUS
10
3.3286759999999997
20
3.1293859999999998
11
3.2262299999999997
21
3.2262299999999997
0
LINE
8
BLACK
6
CONTINUOUS
10
3.2262299999999997
20
3.2262299999999997
11
3.1293859999999998
21
3.3286759999999997
0
LINE
8
BLACK
6
CONTINUOUS
10
3.1293859999999998
20
3.3286759999999997
11
3.0384499999999997
21
3.436401
0
LINE
8
BLACK
6
CONTINUOUS
10
3.0384499999999997
20
3.436401
11
2.9537100000000001
21
3.549064
0
LINE
8
BLACK
6
CONTINUOUS
10
2.9537100000000001
20
3.549064
11
2.875432
21
3.666309
0
LINE
8
BLACK
6
CONTINUOUS
10
2.875432
20
3.666309
11
2.8038639999999999
21
3.7877669999999997
0
LINE
8
BLACK
6
CONTINUOUS
10
2.8038639999999999
20
3.7877669999999997
11
2.739233
21
3.9130539999999998
0
LINE
8
BLACK
6
CONTINUOUS
10
2.739233
20
3.9130539999999998
11
2.6817419999999998
21
4.0417730000000001
0
LINE
8
BLACK
6
CONTINUOUS
10
2.6817419999999998
20
4.0417730000000001
11
2.6315719999999998
21
4.1735189999999998
0
LINE
8
BLACK
6
CONTINUOUS
10
2.6315719999999998
20
4.1735189999999998
11
2.588883
21
4.3078750000000001
0
LINE
8
BLACK
6
CONTINUOUS
10
2.588883
20
4.3078750000000001
11
2.5538089999999998
21
4.4444179999999998
0
LINE
8
BLACK
6
CONTINUOUS
10
2.5538089999999998
20
4.4444179999999998
11
2.5264609999999998
21
4.5827149999999994
0
LINE
8
BLACK
6
CONTINUOUS
10
2.5264609999999998
20
4.5827149999999994
11
2.506926
21
4.7223290000000002
0
LINE
8
BLACK
6
CONTINUOUS
10
2.506926
20
4.7223290000000002
11
2.4952639999999997
21
4.8628209999999994
0
LINE
8
BLACK
6
CONTINUOUS
10
2.4952639999999997
20
4.8628209999999994
11
2.4915129999999999
21
5.0037459999999996
0
LINE
8
BLACK
6
CONTINUOUS
10
2.4915129999999999
20
5.0037459999999996
11
2.4956849999999999
21
5.1446589999999999
0
LINE
8
BLACK
6
CONTINUOUS
10
2.4956849999999999
20
5.1446589999999999
11
2.5077659999999997
21
5.2851159999999995
0
LINE
8
BLACK
6
CONTINUOUS
10
2.5077659999999997
20
5.2851159999999995
11
2.5277189999999998
21
5.4246720000000002
0
LINE
8
BLACK
6
CONTINUOUS
10
2.5277189999999998
20
5.4246720000000002
11
2.5554799999999998
21
5.5628859999999998
0
LINE
8
BLACK
6
CONTINUOUS
10
2.5554799999999998
20
5.5628859999999998
11
2.5909610000000001
21
5.6993229999999997
0
LINE
8
BLACK
6
CONTINUOUS
10
2.5909610000000001
20
5.6993229999999997
11
2.6340509999999999
21
5.8335509999999999
0
LINE
8
BLACK
6
CONTINUOUS
10
2.6340509999999999
20
5.8335509999999999
11
2.6846139999999998
21
5.965147
0
LINE
8
BLACK
6
CONTINUOUS
10
2.6846139999999998
20
5.965147
11
2.742489
21
6.0936940000000002
0
LINE
8
BLACK
6
CONTINUOUS
10
2.742489
20
6.0936940000000002
11
2.8074949999999999
21
6.2187869999999998
0
LINE
8
BLACK
6
CONTINUOUS
10
2.8074949999999999
20
6.2187869999999998
11
2.8794249999999999
21
6.3400299999999996
0
LINE
8
BLACK
6
CONTINUOUS
10
2.8794249999999999
20
6.3400299999999996
11
2.9580519999999999
21
6.4570419999999995
0
LINE
8
BLACK
6
CONTINUOUS
10
2.9580519999999999
20
6.4570419999999995
11
3.043129
21
6.5694509999999999
0
LINE
8
BLACK
6
CONTINUOUS
10
3.043129
20
6.5694509999999999
11
3.1343859999999997
21
6.6769039999999995
0
LINE
8
BLACK
6
CONTINUOUS
10
3.1343859999999997
20
6.6769039999999995
11
3.2315359999999997
21
6.7790599999999994
0
LINE
8
BLACK
6
CONTINUOUS
10
3.2315359999999997
20
6.7790599999999994
11
3.3342709999999998
21
6.8755980000000001
0
LINE
8
BLACK
6
CONTINUOUS
10
3.3342709999999998
20
6.8755980000000001
11
3.442266
21
6.9662109999999995
0
LINE
8
BLACK
6
CONTINUOUS
10
3.442266
20
6.9662109999999995
11
3.5551819999999998
21
7.0506149999999996
0
LINE
8
BLACK
6
CONTINUOUS
10
3.5551819999999998
20
7.0506149999999996
11
3.6726609999999997
21
7.1285419999999995
0
LINE
8
BLACK
6
CONTINUOUS
10
3.6726609999999997
20
7.1285419999999995
11
3.7943319999999998
21
7.1997469999999995
0
LINE
8
BLACK
6
CONTINUOUS
10
3.7943319999999998
20
7.1997469999999995
11
3.9198109999999997
21
7.2640039999999999
0
LINE
8
BLACK
6
CONTINUOUS
10
3.9198109999999997
20
7.2640039999999999
11
4.0487019999999996
21
7.32111
0
LINE
8
BLACK
6
CONTINUOUS
10
4.0487019999999996
20
7.32111
11
4.1805969999999997
21
7.3708859999999996
0
LINE
8
BLACK
6
CONTINUOUS
10
4.1805969999999997
20
7.3708859999999996
11
4.31508
21
7.4131729999999996
0
LINE
8
BLACK
6
CONTINUOUS
10
4.31508
20
7.4131729999999996
11
4.4517259999999998
21
7.4478390000000001
0
LINE
8
BLACK
6
CONTINUOUS
10
4.4517259999999998
20
7.4478390000000001
11
4.5901040000000002
21
7.474774
0
LINE
8
BLACK
6
CONTINUOUS
10
4.5901040000000002
20
7.474774
11
4.7297769999999995
21
7.4938929999999999
0
LINE
8
BLACK
6
CONTINUOUS
10
4.7297769999999995
20
7.4938929999999999
11
4.800001
21
7.5
0
LINE
8
BLACK
6
CONTINUOUS
10
4.800001
20
7.5
11
4.8000039999999995
21
7.5
0
LINE
8
BLACK
6
CONTINUOUS
10
4.8000039999999995
20
7.5
11
4.7999999999999998
21
4.7999999999999998
0
LINE
8
BLACK
6
CONTINUOUS
10
4.7999999999999998
20
4.7999999999999998
11
7.4999989999999999
21
4.7999999999999998
0
LINE
8
BLACK
6
CONTINUOUS
10
95.2702230000000014
20
7.4938929999999999
11
95.4098959999999892
21
7.474774
0
LINE
8
BLACK
6
CONTINUOUS
10
95.4098959999999892
20
7.474774
11
95.5482739999999922
21
7.4478390000000001
0
LINE
8
BLACK
6
CONTINUOUS
10
95.5482739999999922
20
7.4478390000000001
11
95.6849199999999911
21
7.4131729999999996
0
LINE
8
BLACK
6
CONTINUOUS
10
95.6849199999999911
20
7.4131729999999996
11
95.8194029999999941
21
7.3708859999999996
0
LINE
8
BLACK
6
CONTINUOUS
10
95.8194029999999941
20
7.3708859999999996
11
95.9512979999999942
21
7.32111
0
LINE
8
BLACK
6
CONTINUOUS
10
95.9512979999999942
20
7.32111
11
96.0801889999999901
21
7.2640039999999999
0
LINE
8
BLACK
6
CONTINUOUS
10
96.0801889999999901
20
7.2640039999999999
11
96.2056679999999886
21
7.1997469999999995
0
LINE
8
BLACK
6
CONTINUOUS
10
96.2056679999999886
20
7.1997469999999995
11
96.3273389999999949
21
7.1285419999999995
0
LINE
8
BLACK
6
CONTINUOUS
10
96.3273389999999949
20
7.1285419999999995
11
96.4448179999999979
21
7.0506149999999996
0
LINE
8
BLACK
6
CONTINUOUS
10
96.4448179999999979
20
7.0506149999999996
11
96.5577339999999964
21
6.9662109999999995
0
LINE
8
BLACK
6
CONTINUOUS
10
96.5577339999999964
20
6.9662109999999995
11
96.6657289999999989
21
6.8755980000000001
0
LINE
8
BLACK
6
CONTINUOUS
10
96.6657289999999989
20
6.8755980000000001
11
96.7684639999999945
21
6.7790599999999994
0
LINE
8
BLACK
6
CONTINUOUS
10
96.7684639999999945
20
6.7790599999999994
11
96.8656139999999937
21
6.6769039999999995
0
LINE
8
BLACK
6
CONTINUOUS
10
96.8656139999999937
20
6.6769039999999995
11
96.9568709999999925
21
6.5694509999999999
0
LINE
8
BLACK
6
CONTINUOUS
10
96.9568709999999925
20
6.5694509999999999
11
97.0419479999999908
21
6.4570419999999995
0
LINE
8
BLACK
6
CONTINUOUS
10
97.0419479999999908
20
6.4570419999999995
11
97.1205750000000023
21
6.3400299999999996
0
LINE
8
BLACK
6
CONTINUOUS
10
97.1205750000000023
20
6.3400299999999996
11
97.192504999999997
21
6.2187869999999998
0
LINE
8
BLACK
6
CONTINUOUS
10
97.192504999999997
20
6.2187869999999998
11
97.2575109999999938
21
6.0936940000000002
0
LINE
8
BLACK
6
CONTINUOUS
10
97.2575109999999938
20
6.0936940000000002
11
97.3153859999999895
21
5.965147
0
LINE
8
BLACK
6
CONTINUOUS
10
97.3153859999999895
20
5.965147
11
97.3659490000000005
21
5.8335509999999999
0
LINE
8
BLACK
6
CONTINUOUS
10
97.3659490000000005
20
5.8335509999999999
11
97.4090389999999928
21
5.6993229999999997
0
LINE
8
BLACK
6
CONTINUOUS
10
97.4090389999999928
20
5.6993229999999997
11
97.4445199999999971
21
5.5628859999999998
0
LINE
8
BLACK
6
CONTINUOUS
10
97.4445199999999971
20
5.5628859999999998
11
97.4722809999999953
21
5.4246720000000002
0
LINE
8
BLACK
6
CONTINUOUS
10
97.4722809999999953
20
5.4246720000000002
11
97.4922339999999963
21
5.2851159999999995
0
LINE
8
BLACK
6
CONTINUOUS
10
97.4922339999999963
20
5.2851159999999995
11
97.5043149999999912
21
5.1446589999999999
0
LINE
8
BLACK
6
CONTINUOUS
10
97.5043149999999912
20
5.1446589999999999
11
97.5084870000000024
21
5.0037459999999996
0
LINE
8
BLACK
6
CONTINUOUS
10
97.5084870000000024
20
5.0037459999999996
11
97.5047359999999941
21
4.8628209999999994
0
LINE
8
BLACK
6
CONTINUOUS
10
97.5047359999999941
20
4.8628209999999994
11
97.4930739999999929
21
4.7223290000000002
0
LINE
8
BLACK
6
CONTINUOUS
10
97.4930739999999929
20
4.7223290000000002
11
97.4735390000000024
21
4.5827149999999994
0
LINE
8
BLACK
6
CONTINUOUS
10
97.4735390000000024
20
4.5827149999999994
11
97.4461909999999989
21
4.4444179999999998
0
LINE
8
BLACK
6
CONTINUOUS
10
97.4461909999999989
20
4.4444179999999998
11
97.4111169999999902
21
4.3078750000000001
0
LINE
8
BLACK
6
CONTINUOUS
10
97.4111169999999902
20
4.3078750000000001
11
97.3684279999999944
21
4.1735189999999998
0
LINE
8
BLACK
6
CONTINUOUS
10
97.3684279999999944
20
4.1735189999999998
11
97.3182580000000002
21
4.0417730000000001
0
LINE
8
BLACK
6
CONTINUOUS
10
97.3182580000000002
20
4.0417730000000001
11
97.2607670000000013
21
3.9130539999999998
0
LINE
8
BLACK
6
CONTINUOUS
10
97.2607670000000013
20
3.9130539999999998
11
97.1961359999999956
21
3.7877669999999997
0
LINE
8
BLACK
6
CONTINUOUS
10
97.1961359999999956
20
3.7877669999999997
11
97.1245679999999965
21
3.666309
0
LINE
8
BLACK
6
CONTINUOUS
10
97.1245679999999965
20
3.666309
11
97.0462899999999991
21
3.549064
0
LINE
8
BLACK
6
CONTINUOUS
10
97.0462899999999991
20
3.549064
11
96.9615500000000026
21
3.436401
0
LINE
8
BLACK
6
CONTINUOUS
10
96.9615500000000026
20
3.436401
11
96.8706139999999891
21
3.3286759999999997
0
LINE
8
BLACK
6
CONTINUOUS
10
96.8706139999999891
20
3.3286759999999997
11
96.773769999999999
21
3.2262299999999997
0
LINE
8
BLACK
6
CONTINUOUS
10
96.773769999999999
20
3.2262299999999997
11
96.6713239999999985
21
3.1293859999999998
0
LINE
8
BLACK
6
CONTINUOUS
10
96.6713239999999985
20
3.1293859999999998
11
96.5635989999999964
21
3.0384499999999997
0
LINE
8
BLACK
6
CONTINUOUS
10
96.5635989999999964
20
3.0384499999999997
11
96.4509359999999987
21
2.9537100000000001
0
LINE
8
BLACK
6
CONTINUOUS
10
96.4509359999999987
20
2.9537100000000001
11
96.3336910000000017
21
2.875432
0
LINE
8
BLACK
6
CONTINUOUS
10
96.3336910000000017
20
2.875432
11
96.2122329999999977
21
2.8038639999999999
0
LINE
8
BLACK
6
CONTINUOUS
10
96.2122329999999977
20
2.8038639999999999
11
96.0869459999999975
21
2.739233
0
LINE
8
BLACK
6
CONTINUOUS
10
96.0869459999999975
20
2.739233
11
95.9582269999999937
21
2.6817419999999998
0
LINE
8
BLACK
6
CONTINUOUS
10
95.9582269999999937
20
2.6817419999999998
11
95.8264810000000011
21
2.6315719999999998
0
LINE
8
BLACK
6
CONTINUOUS
10
95.8264810000000011
20
2.6315719999999998
11
95.6921249999999901
21
2.588883
0
LINE
8
BLACK
6
CONTINUOUS
10
95.6921249999999901
20
2.588883
11
95.5555820000000011
21
2.5538089999999998
0
LINE
8
BLACK
6
CONTINUOUS
10
95.5555820000000011
20
2.5538089999999998
11
95.4172849999999926
21
2.5264609999999998
0
LINE
8
BLACK
6
CONTINUOUS
10
95.4172849999999926
20
2.5264609999999998
11
95.277670999999998
21
2.506926
0
LINE
8
BLACK
6
CONTINUOUS
10
95.277670999999998
20
2.506926
11
95.1371789999999891
21
2.4952639999999997
0
LINE
8
BLACK
6
CONTINUOUS
10
95.1371789999999891
20
2.4952639999999997
11
94.9962539999999933
21
2.4915129999999999
0
LINE
8
BLACK
6
CONTINUOUS
10
94.9962539999999933
20
2.4915129999999999
11
94.8553409999999957
21
2.4956849999999999
0
LINE
8
BLACK
6
CONTINUOUS
10
94.8553409999999957
20
2.4956849999999999
11
94.7148839999999979
21
2.5077659999999997
0
LINE
8
BLACK
6
CONTINUOUS
10
94.7148839999999979
20
2.5077659999999997
11
94.575327999999999
21
2.5277189999999998
0
LINE
8
BLACK
6
CONTINUOUS
10
94.575327999999999
20
2.5277189999999998
11
94.437113999999994
21
2.5554799999999998
0
LINE
8
BLACK
6
CONTINUOUS
10
94.437113999999994
20
2.5554799999999998
11
94.3006769999999932
21
2.5909610000000001
0
LINE
8
BLACK
6
CONTINUOUS
10
94.3006769999999932
20
2.5909610000000001
11
94.1664490000000001
21
2.6340509999999999
0
LINE
8
BLACK
6
CONTINUOUS
10
94.1664490000000001
20
2.6340509999999999
11
94.0348529999999982
21
2.6846139999999998
0
LINE
8
BLACK
6
CONTINUOUS
10
94.0348529999999982
20
2.6846139999999998
11
93.9063060000000007
21
2.742489
0
LINE
8
BLACK
6
CONTINUOUS
10
93.9063060000000007
20
2.742489
11
93.7812129999999939
21
2.8074949999999999
0
LINE
8
BLACK
6
CONTINUOUS
10
93.7812129999999939
20
2.8074949999999999
11
93.6599700000000013
21
2.8794249999999999
0
LINE
8
BLACK
6
CONTINUOUS
10
93.6599700000000013
20
2.8794249999999999
11
93.5429579999999987
21
2.9580519999999999
0
LINE
8
BLACK
6
CONTINUOUS
10
93.5429579999999987
20
2.9580519999999999
11
93.4305489999999992
21
3.043129
0
LINE
8
BLACK
6
CONTINUOUS
10
93.4305489999999992
20
3.043129
11
93.3230959999999925
21
3.1343859999999997
0
LINE
8
BLACK
6
CONTINUOUS
10
93.3230959999999925
20
3.1343859999999997
11
93.2209399999999988
21
3.2315359999999997
0
LINE
8
BLACK
6
CONTINUOUS
10
93.2209399999999988
20
3.2315359999999997
11
93.1244019999999892
21
3.3342709999999998
0
LINE
8
BLACK
6
CONTINUOUS
10
93.1244019999999892
20
3.3342709999999998
11
93.0337889999999987
21
3.442266
0
LINE
8
BLACK
6
CONTINUOUS
10
93.0337889999999987
20
3.442266
11
92.9493849999999924
21
3.5551819999999998
0
LINE
8
BLACK
6
CONTINUOUS
10
92.9493849999999924
20
3.5551819999999998
11
92.8714579999999899
21
3.6726609999999997
0
LINE
8
BLACK
6
CONTINUOUS
10
92.8714579999999899
20
3.6726609999999997
11
92.8002529999999979
21
3.7943319999999998
0
LINE
8
BLACK
6
CONTINUOUS
10
92.8002529999999979
20
3.7943319999999998
11
92.7359960000000001
21
3.9198109999999997
0
LINE
8
BLACK
6
CONTINUOUS
10
92.7359960000000001
20
3.9198109999999997
11
92.6788899999999956
21
4.0487019999999996
0
LINE
8
BLACK
6
CONTINUOUS
10
92.6788899999999956
20
4.0487019999999996
11
92.6291140000000013
21
4.1805969999999997
0
LINE
8
BLACK
6
CONTINUOUS
10
92.6291140000000013
20
4.1805969999999997
11
92.5868269999999995
21
4.31508
0
LINE
8
BLACK
6
CONTINUOUS
10
92.5868269999999995
20
4.31508
11
92.5521609999999981
21
4.4517259999999998
0
LINE
8
BLACK
6
CONTINUOUS
10
92.5521609999999981
20
4.4517259999999998
11
92.5252259999999893
21
4.5901040000000002
0
LINE
8
BLACK
6
CONTINUOUS
10
92.5252259999999893
20
4.5901040000000002
11
92.5061070000000001
21
4.7297769999999995
0
LINE
8
BLACK
6
CONTINUOUS
10
92.5061070000000001
20
4.7297769999999995
11
92.5
21
4.800001
0
LINE
8
BLACK
6
CONTINUOUS
10
92.5
20
4.800001
11
92.5
21
4.8000039999999995
0
LINE
8
BLACK
6
CONTINUOUS
10
92.5
20
4.8000039999999995
11
95.1999999999999886
21
4.7999999999999998
0
LINE
8
BLACK
6
CONTINUOUS
10
95.1999999999999886
20
4.7999999999999998
11
95.1999999999999886
21
7.4999989999999999
0
LINE
8
BLACK
6
CONTINUOUS
10
95.1999999999999886
20
7.4999989999999999
11
95.2702230000000014
21
7.4938929999999999
0
LINE
8
BLACK
6
CONTINUOUS
10
94.9430389999999989
20
59.9803149999999974
11
94.9887939999999986
21
59.9275109999999955
0
LINE
8
BLACK
6
CONTINUOUS
10
94.9887939999999986
20
59.9275109999999955
11
95.
21
59.8759999999999977
0
LINE
8
BLACK
6
CONTINUOUS
10
95.
20
59.8759999999999977
11
95.
21
5.1239999999999997
0
LINE
8
BLACK
6
CONTINUOUS
10
95.
20
5.1239999999999997
11
94.9803149999999903
21
5.0569609999999994
0
LINE
8
BLACK
6
CONTINUOUS
10
94.9803149999999903
20
5.0569609999999994
11
94.9275109999999955
21
5.0112059999999996
0
LINE
8
BLACK
6
CONTINUOUS
10
94.9275109999999955
20
5.0112059999999996
11
94.8759999999999906
21
5.
0
LINE
8
BLACK
6
CONTINUOUS
10
94.8759999999999906
20
5.
11
5.1239999999999997
21
5.
0
LINE
8
BLACK
6
CONTINUOUS
10
5.1239999999999997
20
5.
11
5.0569609999999994
21
5.019685
0
LINE
8
BLACK
6
CONTINUOUS
10
5.0569609999999994
20
5.019685
11
5.0112059999999996
21
5.072489
0
LINE
8
BLACK
6
CONTINUOUS
10
5.0112059999999996
20
5.072489
11
5.
21
5.1239999999999997
0
LINE
8
BLACK
6
CONTINUOUS
10
5.
20
5.1239999999999997
11
5.
21
59.8759999999999977
0
LINE
8
BLACK
6
CONTINUOUS
10
5.
20
59.8759999999999977
11
5.019685
21
59.9430389999999989
0
LINE
8
BLACK
6
CONTINUOUS
10
5.019685
20
59.9430389999999989
11
5.072489
21
59.9887939999999986
0
LINE
8
BLACK
6
CONTINUOUS
10
5.072489
20
59.9887939999999986
11
5.1239999999999997
21
60.
0
LINE
8
BLACK
6
CONTINUOUS
10
5.1239999999999997
20
60.
11
94.8759999999999906
21
60.
0
LINE
8
BLACK
6
CONTINUOUS
10
94.8759999999999906
20
60.
11
94.9430389999999989
21
59.9803149999999974
0
LINE
8
BLACK
6
CONTINUOUS
10
5.1446589999999999
20
62.5043149999999983
11
5.2851149999999993
21
62.4922339999999963
0
LINE
8
BLACK
6
CONTINUOUS
10
5.2851149999999993
20
62.4922339999999963
11
5.424671
21
62.4722809999999953
0
LINE
8
BLACK
6
CONTINUOUS
10
5.424671
20
62.4722809999999953
11
5.5628859999999998
21
62.4445199999999971
0
LINE
8
BLACK
6
CONTINUOUS
10
5.5628859999999998
20
62.4445199999999971
11
5.6993229999999997
21
62.4090389999999999
0
LINE
8
BLACK
6
CONTINUOUS
10
5.6993229999999997
20
62.4090389999999999
11
5.8335509999999999
21
62.3659490000000005
0
LINE
8
BLACK
6
CONTINUOUS
10
5.8335509999999999
20
62.3659490000000005
11
5.9651459999999998
21
62.3153859999999966
0
LINE
8
BLACK
6
CONTINUOUS
10
5.9651459999999998
20
62.3153859999999966
11
6.093693
21
62.2575109999999938
0
LINE
8
BLACK
6
CONTINUOUS
10
6.093693
20
62.2575109999999938
11
6.2187859999999997
21
62.1925059999999945
0
LINE
8
BLACK
6
CONTINUOUS
10
6.2187859999999997
20
62.1925059999999945
11
6.3400299999999996
21
62.1205759999999998
0
LINE
8
BLACK
6
CONTINUOUS
10
6.3400299999999996
20
62.1205759999999998
11
6.4570409999999994
21
62.0419479999999979
0
LINE
8
BLACK
6
CONTINUOUS
10
6.4570409999999994
20
62.0419479999999979
11
6.5694509999999999
21
61.9568709999999996
0
LINE
8
BLACK
6
CONTINUOUS
10
6.5694509999999999
20
61.9568709999999996
11
6.6769029999999994
21
61.8656139999999937
0
LINE
8
BLACK
6
CONTINUOUS
10
6.6769029999999994
20
61.8656139999999937
11
6.7790599999999994
21
61.7684649999999991
0
LINE
8
BLACK
6
CONTINUOUS
10
6.7790599999999994
20
61.7684649999999991
11
6.875597
21
61.6657299999999964
0
LINE
8
BLACK
6
CONTINUOUS
10
6.875597
20
61.6657299999999964
11
6.9662109999999995
21
61.5577339999999964
0
LINE
8
BLACK
6
CONTINUOUS
10
6.9662109999999995
20
61.5577339999999964
11
7.0506149999999996
21
61.4448189999999954
0
LINE
8
BLACK
6
CONTINUOUS
10
7.0506149999999996
20
61.4448189999999954
11
7.1285419999999995
21
61.3273399999999995
0
LINE
8
BLACK
6
CONTINUOUS
10
7.1285419999999995
20
61.3273399999999995
11
7.1997459999999993
21
61.2056690000000003
0
LINE
8
BLACK
6
CONTINUOUS
10
7.1997459999999993
20
61.2056690000000003
11
7.2640029999999998
21
61.0801899999999947
0
LINE
8
BLACK
6
CONTINUOUS
10
7.2640029999999998
20
61.0801899999999947
11
7.32111
21
60.9512989999999988
0
LINE
8
BLACK
6
CONTINUOUS
10
7.32111
20
60.9512989999999988
11
7.3708849999999995
21
60.8194039999999987
0
LINE
8
BLACK
6
CONTINUOUS
10
7.3708849999999995
20
60.8194039999999987
11
7.4131729999999996
21
60.6849209999999957
0
LINE
8
BLACK
6
CONTINUOUS
10
7.4131729999999996
20
60.6849209999999957
11
7.4478390000000001
21
60.5482749999999967
0
LINE
8
BLACK
6
CONTINUOUS
10
7.4478390000000001
20
60.5482749999999967
11
7.474774
21
60.4098969999999937
0
LINE
8
BLACK
6
CONTINUOUS
10
7.474774
20
60.4098969999999937
11
7.4938919999999998
21
60.2702239999999989
0
LINE
8
BLACK
6
CONTINUOUS
10
7.4938919999999998
20
60.2702239999999989
11
7.5
21
60.1999999999999957
0
LINE
8
BLACK
6
CONTINUOUS
10
7.5
20
60.1999999999999957
11
7.5
21
60.1999959999999987
0
LINE
8
BLACK
6
CONTINUOUS
10
7.5
20
60.1999959999999987
11
4.7999999999999998
21
60.1999999999999957
0
LINE
8
BLACK
6
CONTINUOUS
10
4.7999999999999998
20
60.1999999999999957
11
4.7999999999999998
21
57.5000009999999975
0
LINE
8
BLACK
6
CONTINUOUS
10
4.7999999999999998
20
57.5000009999999975
11
4.7999999999999998
21
57.5
0
LINE
8
BLACK
6
CONTINUOUS
10
4.7999999999999998
20
57.5
11
4.7297760000000002
21
57.5061079999999976
0
LINE
8
BLACK
6
CONTINUOUS
10
4.7297760000000002
20
57.5061079999999976
11
4.590103
21
57.5252259999999964
0
LINE
8
BLACK
6
CONTINUOUS
10
4.590103
20
57.5252259999999964
11
4.4517249999999997
21
57.5521609999999981
0
LINE
8
BLACK
6
CONTINUOUS
10
4.4517249999999997
20
57.5521609999999981
11
4.3150789999999999
21
57.5868269999999995
0
LINE
8
BLACK
6
CONTINUOUS
10
4.3150789999999999
20
57.5868269999999995
11
4.1805959999999995
21
57.6291149999999988
0
LINE
8
BLACK
6
CONTINUOUS
10
4.1805959999999995
20
57.6291149999999988
11
4.0487009999999994
21
57.6788899999999956
0
LINE
8
BLACK
6
CONTINUOUS
10
4.0487009999999994
20
57.6788899999999956
11
3.91981
21
57.7359969999999976
0
LINE
8
BLACK
6
CONTINUOUS
10
3.91981
20
57.7359969999999976
11
3.7943309999999997
21
57.8002539999999954
0
LINE
8
BLACK
6
CONTINUOUS
10
3.7943309999999997
20
57.8002539999999954
11
3.67266
21
57.871457999999997
0
LINE
8
BLACK
6
CONTINUOUS
10
3.67266
20
57.871457999999997
11
3.5551809999999997
21
57.9493849999999995
0
LINE
8
BLACK
6
CONTINUOUS
10
3.5551809999999997
20
57.9493849999999995
11
3.442266
21
58.0337889999999987
0
LINE
8
BLACK
6
CONTINUOUS
10
3.442266
20
58.0337889999999987
11
3.3342700000000001
21
58.1244029999999938
0
LINE
8
BLACK
6
CONTINUOUS
10
3.3342700000000001
20
58.1244029999999938
11
3.231535
21
58.2209399999999988
0
LINE
8
BLACK
6
CONTINUOUS
10
3.231535
20
58.2209399999999988
11
3.1343859999999997
21
58.3230969999999971
0
LINE
8
BLACK
6
CONTINUOUS
10
3.1343859999999997
20
58.3230969999999971
11
3.043129
21
58.4305489999999992
0
LINE
8
BLACK
6
CONTINUOUS
10
3.043129
20
58.4305489999999992
11
2.9580519999999999
21
58.5429589999999962
0
LINE
8
BLACK
6
CONTINUOUS
10
2.9580519999999999
20
58.5429589999999962
11
2.8794239999999998
21
58.6599699999999942
0
LINE
8
BLACK
6
CONTINUOUS
10
2.8794239999999998
20
58.6599699999999942
11
2.8074939999999997
21
58.7812139999999985
0
LINE
8
BLACK
6
CONTINUOUS
10
2.8074939999999997
20
58.7812139999999985
11
2.742489
21
58.9063069999999982
0
LINE
8
BLACK
6
CONTINUOUS
10
2.742489
20
58.9063069999999982
11
2.6846139999999998
21
59.0348539999999957
0
LINE
8
BLACK
6
CONTINUOUS
10
2.6846139999999998
20
59.0348539999999957
11
2.6340509999999999
21
59.1664490000000001
0
LINE
8
BLACK
6
CONTINUOUS
10
2.6340509999999999
20
59.1664490000000001
11
2.5909610000000001
21
59.3006770000000003
0
LINE
8
BLACK
6
CONTINUOUS
10
2.5909610000000001
20
59.3006770000000003
11
2.5554799999999998
21
59.437113999999994
0
LINE
8
BLACK
6
CONTINUOUS
10
2.5554799999999998
20
59.437113999999994
11
2.5277189999999998
21
59.5753289999999964
0
LINE
8
BLACK
6
CONTINUOUS
10
2.5277189999999998
20
59.5753289999999964
11
2.5077659999999997
21
59.7148849999999953
0
LINE
8
BLACK
6
CONTINUOUS
10
2.5077659999999997
20
59.7148849999999953
11
2.4956849999999999
21
59.8553409999999957
0
LINE
8
BLACK
6
CONTINUOUS
10
2.4956849999999999
20
59.8553409999999957
11
2.4915129999999999
21
59.9962540000000004
0
LINE
8
BLACK
6
CONTINUOUS
10
2.4915129999999999
20
59.9962540000000004
11
2.4952639999999997
21
60.1371789999999962
0
LINE
8
BLACK
6
CONTINUOUS
10
2.4952639999999997
20
60.1371789999999962
11
2.506926
21
60.277670999999998
0
LINE
8
BLACK
6
CONTINUOUS
10
2.506926
20
60.277670999999998
11
2.5264609999999998
21
60.4172859999999972
0
LINE
8
BLACK
6
CONTINUOUS
10
2.5264609999999998
20
60.4172859999999972
11
2.5538089999999998
21
60.5555829999999986
0
LINE
8
BLACK
6
CONTINUOUS
10
2.5538089999999998
20
60.5555829999999986
11
2.588883
21
60.6921249999999972
0
LINE
8
BLACK
6
CONTINUOUS
10
2.588883
20
60.6921249999999972
11
2.6315719999999998
21
60.826480999999994
0
LINE
8
BLACK
6
CONTINUOUS
10
2.6315719999999998
20
60.826480999999994
11
2.6817419999999998
21
60.9582269999999937
0
LINE
8
BLACK
6
CONTINUOUS
10
2.6817419999999998
20
60.9582269999999937
11
2.739233
21
61.0869459999999975
0
LINE
8
BLACK
6
CONTINUOUS
10
2.739233
20
61.0869459999999975
11
2.8038639999999999
21
61.2122329999999977
0
LINE
8
BLACK
6
CONTINUOUS
10
2.8038639999999999
20
61.2122329999999977
11
2.875432
21
61.3336909999999946
0
LINE
8
BLACK
6
CONTINUOUS
10
2.875432
20
61.3336909999999946
11
2.9537100000000001
21
61.4509359999999987
0
LINE
8
BLACK
6
CONTINUOUS
10
2.9537100000000001
20
61.4509359999999987
11
3.0384499999999997
21
61.5635989999999964
0
LINE
8
BLACK
6
CONTINUOUS
10
3.0384499999999997
20
61.5635989999999964
11
3.1293859999999998
21
61.6713239999999985
0
LINE
8
BLACK
6
CONTINUOUS
10
3.1293859999999998
20
61.6713239999999985
11
3.2262299999999997
21
61.773769999999999
0
LINE
8
BLACK
6
CONTINUOUS
10
3.2262299999999997
20
61.773769999999999
11
3.3286759999999997
21
61.8706139999999962
0
LINE
8
BLACK
6
CONTINUOUS
10
3.3286759999999997
20
61.8706139999999962
11
3.436401
21
61.9615499999999955
0
LINE
8
BLACK
6
CONTINUOUS
10
3.436401
20
61.9615499999999955
11
3.549064
21
62.0462899999999991
0
LINE
8
BLACK
6
CONTINUOUS
10
3.549064
20
62.0462899999999991
11
3.666309
21
62.1245679999999965
0
LINE
8
BLACK
6
CONTINUOUS
10
3.666309
20
62.1245679999999965
11
3.7877669999999997
21
62.1961359999999956
0
LINE
8
BLACK
6
CONTINUOUS
10
3.7877669999999997
20
62.1961359999999956
11
3.9130539999999998
21
62.2607669999999942
0
LINE
8
BLACK
6
CONTINUOUS
10
3.9130539999999998
20
62.2607669999999942
11
4.0417730000000001
21
62.3182580000000002
0
LINE
8
BLACK
6
CONTINUOUS
10
4.0417730000000001
20
62.3182580000000002
11
4.1735189999999998
21
62.3684279999999944
0
LINE
8
BLACK
6
CONTINUOUS
10
4.1735189999999998
20
62.3684279999999944
11
4.3078750000000001
21
62.4111169999999973
0
LINE
8
BLACK
6
CONTINUOUS
10
4.3078750000000001
20
62.4111169999999973
11
4.4444169999999996
21
62.4461909999999989
0
LINE
8
BLACK
6
CONTINUOUS
10
4.4444169999999996
20
62.4461909999999989
11
4.5827140000000002
21
62.4735389999999953
0
LINE
8
BLACK
6
CONTINUOUS
10
4.5827140000000002
20
62.4735389999999953
11
4.7223290000000002
21
62.493074
0
LINE
8
BLACK
6
CONTINUOUS
10
4.7223290000000002
20
62.493074
11
4.8628209999999994
21
62.5047359999999941
0
LINE
8
BLACK
6
CONTINUOUS
10
4.8628209999999994
20
62.5047359999999941
11
5.0037459999999996
21
62.5084869999999952
0
LINE
8
BLACK
6
CONTINUOUS
10
5.0037459999999996
20
62.5084869999999952
11
5.1446589999999999
21
62.5043149999999983
0
LINE
8
BLACK
6
CONTINUOUS
10
95.1371789999999891
20
62.5047359999999941
11
95.277670999999998
21
62.493074
0
LINE
8
BLACK
6
CONTINUOUS
10
95.277670999999998
20
62.493074
11
95.4172849999999926
21
62.4735389999999953
0
LINE
8
BLACK
6
CONTINUOUS
10
95.4172849999999926
20
62.4735389999999953
11
95.5555820000000011
21
62.4461909999999989
0
LINE
8
BLACK
6
CONTINUOUS
10
95.5555820000000011
20
62.4461909999999989
11
95.6921249999999901
21
62.4111169999999973
0
LINE
8
BLACK
6
CONTINUOUS
10
95.6921249999999901
20
62.4111169999999973
11
95.8264810000000011
21
62.3684279999999944
0
LINE
8
BLACK
6
CONTINUOUS
10
95.8264810000000011
20
62.3684279999999944
11
95.9582269999999937
21
62.3182580000000002
0
LINE
8
BLACK
6
CONTINUOUS
10
95.9582269999999937
20
62.3182580000000002
11
96.0869459999999975
21
62.2607669999999942
0
LINE
8
BLACK
6
CONTINUOUS
10
96.0869459999999975
20
62.2607669999999942
11
96.2122329999999977
21
62.1961359999999956
0
LINE
8
BLACK
6
CONTINUOUS
10
96.2122329999999977
20
62.1961359999999956
11
96.3336910000000017
21
62.1245679999999965
0
LINE
8
BLACK
6
CONTINUOUS
10
96.3336910000000017
20
62.1245679999999965
11
96.4509359999999987
21
62.0462899999999991
0
LINE
8
BLACK
6
CONTINUOUS
10
96.4509359999999987
20
62.0462899999999991
11
96.5635989999999964
21
61.9615499999999955
0
LINE
8
BLACK
6
CONTINUOUS
10
96.5635989999999964
20
61.9615499999999955
11
96.6713239999999985
21
61.8706139999999962
0
LINE
8
BLACK
6
CONTINUOUS
10
96.6713239999999985
20
61.8706139999999962
11
96.773769999999999
21
61.773769999999999
0
LINE
8
BLACK
6
CONTINUOUS
10
96.773769999999999
20
61.773769999999999
11
96.8706139999999891
21
61.6713239999999985
0
LINE
8
BLACK
6
CONTINUOUS
10
96.8706139999999891
20
61.6713239999999985
11
96.9615500000000026
21
61.5635989999999964
0
LINE
8
BLACK
6
CONTINUOUS
10
96.9615500000000026
20
61.5635989999999964
11
97.0462899999999991
21
61.4509359999999987
0
LINE
8
BLACK
6
CONTINUOUS
10
97.0462899999999991
20
61.4509359999999987
11
97.1245679999999965
21
61.3336909999999946
0
LINE
8
BLACK
6
CONTINUOUS
10
97.1245679999999965
20
61.3336909999999946
11
97.1961359999999956
21
61.2122329999999977
0
LINE
8
BLACK
6
CONTINUOUS
10
97.1961359999999956
20
61.2122329999999977
11
97.2607670000000013
21
61.0869459999999975
0
LINE
8
BLACK
6
CONTINUOUS
10
97.2607670000000013
20
61.0869459999999975
11
97.3182580000000002
21
60.9582269999999937
0
LINE
8
BLACK
6
CONTINUOUS
10
97.3182580000000002
20
60.9582269999999937
11
97.3684279999999944
21
60.826480999999994
0
LINE
8
BLACK
6
CONTINUOUS
10
97.3684279999999944
20
60.826480999999994
11
97.4111169999999902
21
60.6921249999999972
0
LINE
8
BLACK
6
CONTINUOUS
10
97.4111169999999902
20
60.6921249999999972
11
97.4461909999999989
21
60.555581999999994
0
LINE
8
BLACK
6
CONTINUOUS
10
97.4461909999999989
20
60.555581999999994
11
97.4735390000000024
21
60.4172849999999997
0
LINE
8
BLACK
6
CONTINUOUS
10
97.4735390000000024
20
60.4172849999999997
11
97.4930739999999929
21
60.277670999999998
0
LINE
8
BLACK
6
CONTINUOUS
10
97.4930739999999929
20
60.277670999999998
11
97.5047359999999941
21
60.1371789999999962
0
LINE
8
BLACK
6
CONTINUOUS
10
97.5047359999999941
20
60.1371789999999962
11
97.5084870000000024
21
59.9962540000000004
0
LINE
8
BLACK
6
CONTINUOUS
10
97.5084870000000024
20
59.9962540000000004
11
97.5043149999999912
21
59.8553409999999957
0
LINE
8
BLACK
6
CONTINUOUS
10
97.5043149999999912
20
59.8553409999999957
11
97.4922339999999963
21
59.7148839999999979
0
LINE
8
BLACK
6
CONTINUOUS
10
97.4922339999999963
20
59.7148839999999979
11
97.4722809999999953
21
59.575327999999999
0
LINE
8
BLACK
6
CONTINUOUS
10
97.4722809999999953
20
59.575327999999999
11
97.4445199999999971
21
59.437113999999994
0
LINE
8
BLACK
6
CONTINUOUS
10
97.4445199999999971
20
59.437113999999994
11
97.4090389999999928
21
59.3006770000000003
0
LINE
8
BLACK
6
CONTINUOUS
10
97.4090389999999928
20
59.3006770000000003
11
97.3659490000000005
21
59.1664490000000001
0
LINE
8
BLACK
6
CONTINUOUS
10
97.3659490000000005
20
59.1664490000000001
11
97.3153859999999895
21
59.0348529999999982
0
LINE
8
BLACK
6
CONTINUOUS
10
97.3153859999999895
20
59.0348529999999982
11
97.2575109999999938
21
58.9063060000000007
0
LINE
8
BLACK
6
CONTINUOUS
10
97.2575109999999938
20
58.9063060000000007
11
97.192504999999997
21
58.7812129999999939
0
LINE
8
BLACK
6
CONTINUOUS
10
97.192504999999997
20
58.7812129999999939
11
97.1205750000000023
21
58.6599699999999942
0
LINE
8
BLACK
6
CONTINUOUS
10
97.1205750000000023
20
58.6599699999999942
11
97.0419479999999908
21
58.5429579999999987
0
LINE
8
BLACK
6
CONTINUOUS
10
97.0419479999999908
20
58.5429579999999987
11
96.9568709999999925
21
58.4305489999999992
0
LINE
8
BLACK
6
CONTINUOUS
10
96.9568709999999925
20
58.4305489999999992
11
96.8656139999999937
21
58.3230959999999996
0
LINE
8
BLACK
6
CONTINUOUS
10
96.8656139999999937
20
58.3230959999999996
11
96.7684639999999945
21
58.2209399999999988
0
LINE
8
BLACK
6
CONTINUOUS
10
96.7684639999999945
20
58.2209399999999988
11
96.6657289999999989
21
58.1244019999999963
0
LINE
8
BLACK
6
CONTINUOUS
10
96.6657289999999989
20
58.1244019999999963
11
96.5577339999999964
21
58.0337889999999987
0
LINE
8
BLACK
6
CONTINUOUS
10
96.5577339999999964
20
58.0337889999999987
11
96.4448179999999979
21
57.9493849999999995
0
LINE
8
BLACK
6
CONTINUOUS
10
96.4448179999999979
20
57.9493849999999995
11
96.3273389999999949
21
57.871457999999997
0
LINE
8
BLACK
6
CONTINUOUS
10
96.3273389999999949
20
57.871457999999997
11
96.2056679999999886
21
57.8002529999999979
0
LINE
8
BLACK
6
CONTINUOUS
10
96.2056679999999886
20
57.8002529999999979
11
96.0801889999999901
21
57.7359960000000001
0
LINE
8
BLACK
6
CONTINUOUS
10
96.0801889999999901
20
57.7359960000000001
11
95.9512979999999942
21
57.6788899999999956
0
LINE
8
BLACK
6
CONTINUOUS
10
95.9512979999999942
20
57.6788899999999956
11
95.8194029999999941
21
57.6291139999999942
0
LINE
8
BLACK
6
CONTINUOUS
10
95.8194029999999941
20
57.6291139999999942
11
95.6849199999999911
21
57.5868269999999995
0
LINE
8
BLACK
6
CONTINUOUS
10
95.6849199999999911
20
57.5868269999999995
11
95.5482739999999922
21
57.5521609999999981
0
LINE
8
BLACK
6
CONTINUOUS
10
95.5482739999999922
20
57.5521609999999981
11
95.4098959999999892
21
57.5252259999999964
0
LINE
8
BLACK
6
CONTINUOUS
10
95.4098959999999892
20
57.5252259999999964
11
95.2702230000000014
21
57.5061070000000001
0
LINE
8
BLACK
6
CONTINUOUS
10
95.2702230000000014
20
57.5061070000000001
11
95.1999989999999912
21
57.5
0
LINE
8
BLACK
6
CONTINUOUS
10
95.1999989999999912
20
57.5
11
95.1999959999999987
21
57.5
0
LINE
8
BLACK
6
CONTINUOUS
10
95.1999959999999987
20
57.5
11
95.1999999999999886
21
60.1999999999999957
0
LINE
8
BLACK
6
CONTINUOUS
10
95.1999999999999886
20
60.1999999999999957
11
92.5
21
60.1999999999999957
0
LINE
8
BLACK
6
CONTINUOUS
10
92.5
20
60.1999999999999957
11
92.5061070000000001
21
60.2702229999999943
0
LINE
8
BLACK
6
CONTINUOUS
10
92.5061070000000001
20
60.2702229999999943
11
92.5252259999999893
21
60.4098959999999963
0
LINE
8
BLACK
6
CONTINUOUS
10
92.5252259999999893
20
60.4098959999999963
11
92.5521609999999981
21
60.5482739999999993
0
LINE
8
BLACK
6
CONTINUOUS
10
92.5521609999999981
20
60.5482739999999993
11
92.5868269999999995
21
60.6849199999999982
0
LINE
8
BLACK
6
CONTINUOUS
10
92.5868269999999995
20
60.6849199999999982
11
92.6291140000000013
21
60.8194029999999941
0
LINE
8
BLACK
6
CONTINUOUS
10
92.6291140000000013
20
60.8194029999999941
11
92.6788899999999956
21
60.9512979999999942
0
LINE
8
BLACK
6
CONTINUOUS
10
92.6788899999999956
20
60.9512979999999942
11
92.7359960000000001
21
61.0801889999999972
0
LINE
8
BLACK
6
CONTINUOUS
10
92.7359960000000001
20
61.0801889999999972
11
92.8002529999999979
21
61.2056679999999957
0
LINE
8
BLACK
6
CONTINUOUS
10
92.8002529999999979
20
61.2056679999999957
11
92.8714579999999899
21
61.3273389999999949
0
LINE
8
BLACK
6
CONTINUOUS
10
92.8714579999999899
20
61.3273389999999949
11
92.9493849999999924
21
61.4448179999999979
0
LINE
8
BLACK
6
CONTINUOUS
10
92.9493849999999924
20
61.4448179999999979
11
93.0337889999999987
21
61.5577339999999964
0
LINE
8
BLACK
6
CONTINUOUS
10
93.0337889999999987
20
61.5577339999999964
11
93.1244019999999892
21
61.6657289999999989
0
LINE
8
BLACK
6
CONTINUOUS
10
93.1244019999999892
20
61.6657289999999989
11
93.2209399999999988
21
61.7684639999999945
0
LINE
8
BLACK
6
CONTINUOUS
10
93.2209399999999988
20
61.7684639999999945
11
93.3230959999999925
21
61.8656139999999937
0
LINE
8
BLACK
6
CONTINUOUS
10
93.3230959999999925
20
61.8656139999999937
11
93.4305489999999992
21
61.9568709999999996
0
LINE
8
BLACK
6
CONTINUOUS
10
93.4305489999999992
20
61.9568709999999996
11
93.5429579999999987
21
62.0419479999999979
0
LINE
8
BLACK
6
CONTINUOUS
10
93.5429579999999987
20
62.0419479999999979
11
93.6599700000000013
21
62.1205749999999952
0
LINE
8
BLACK
6
CONTINUOUS
10
93.6599700000000013
20
62.1205749999999952
11
93.7812129999999939
21
62.192504999999997
0
LINE
8
BLACK
6
CONTINUOUS
10
93.7812129999999939
20
62.192504999999997
11
93.9063060000000007
21
62.2575109999999938
0
LINE
8
BLACK
6
CONTINUOUS
10
93.9063060000000007
20
62.2575109999999938
11
94.0348529999999982
21
62.3153859999999966
0
LINE
8
BLACK
6
CONTINUOUS
10
94.0348529999999982
20
62.3153859999999966
11
94.1664490000000001
21
62.3659490000000005
0
LINE
8
BLACK
6
CONTINUOUS
10
94.1664490000000001
20
62.3659490000000005
11
94.3006769999999932
21
62.4090389999999999
0
LINE
8
BLACK
6
CONTINUOUS
10
94.3006769999999932
20
62.4090389999999999
11
94.437113999999994
21
62.4445199999999971
0
LINE
8
BLACK
6
CONTINUOUS
10
94.437113999999994
20
62.4445199999999971
11
94.575327999999999
21
62.4722809999999953
0
LINE
8
BLACK
6
CONTINUOUS
10
94.575327999999999
20
62.4722809999999953
11
94.7148839999999979
21
62.4922339999999963
0
LINE
8
BLACK
6
CONTINUOUS
10
94.7148839999999979
20
62.4922339999999963
11
94.8553409999999957
21
62.5043149999999983
0
LINE
8
BLACK
6
CONTINUOUS
10
94.8553409999999957
20
62.5043149999999983
11
94.9962539999999933
21
62.5084869999999952
0
LINE
8
BLACK
6
CONTINUOUS
10
94.9962539999999933
20
62.5084869999999952
11
95.1371789999999891
21
62.5047359999999941
0
LINE
8
BLACK
6
CONTINUOUS
10
70.0652630000000016
20
64.4957220000000007
11
70.1913419999999917
21
64.4619399999999985
0
LINE
8
BLACK
6
CONTINUOUS
10
70.1913419999999917
20
64.4619399999999985
11
70.3043809999999922
21
64.3966769999999968
0
LINE
8
BLACK
6
CONTINUOUS
10
70.3043809999999922
20
64.3966769999999968
11
70.3966769999999968
21
64.3043809999999922
0
LINE
8
BLACK
6
CONTINUOUS
10
70.3966769999999968
20
64.3043809999999922
11
70.4619399999999985
21
64.1913419999999917
0
LINE
8
BLACK
6
CONTINUOUS
10
70.4619399999999985
20
64.1913419999999917
11
70.4957220000000007
21
64.0652630000000016
0
LINE
8
BLACK
6
CONTINUOUS
10
70.4957220000000007
20
64.0652630000000016
11
70.5
21
64.
0
LINE
8
BLACK
6
CONTINUOUS
10
70.5
20
64.
11
70.5
21
61.
0
LINE
8
BLACK
6
CONTINUOUS
10
70.5
20
61.
11
70.4957220000000007
21
60.9347369999999984
0
LINE
8
BLACK
6
CONTINUOUS
10
70.4957220000000007
20
60.9347369999999984
11
70.4619399999999985
21
60.8086579999999941
0
LINE
8
BLACK
6
CONTINUOUS
10
70.4619399999999985
20
60.8086579999999941
11
70.3966769999999968
21
60.6956190000000007
0
LINE
8
BLACK
6
CONTINUOUS
10
70.3966769999999968
20
60.6956190000000007
11
70.3043809999999922
21
60.6033229999999961
0
LINE
8
BLACK
6
CONTINUOUS
10
70.3043809999999922
20
60.6033229999999961
11
70.1913419999999917
21
60.5380599999999944
0
LINE
8
BLACK
6
CONTINUOUS
10
70.1913419999999917
20
60.5380599999999944
11
70.0652630000000016
21
60.5042779999999993
0
LINE
8
BLACK
6
CONTINUOUS
10
70.0652630000000016
20
60.5042779999999993
11
70.
21
60.5
0
LINE
8
BLACK
6
CONTINUOUS
10
70.
20
60.5
11
30.
21
60.5
0
LINE
8
BLACK
6
CONTINUOUS
10
30.
20
60.5
11
29.9347369999999984
21
60.5042779999999993
0
LINE
8
BLACK
6
CONTINUOUS
10
29.9347369999999984
20
60.5042779999999993
11
29.8086579999999977
21
60.5380599999999944
0
LINE
8
BLACK
6
CONTINUOUS
10
29.8086579999999977
20
60.5380599999999944
11
29.6956189999999971
21
60.6033229999999961
0
LINE
8
BLACK
6
CONTINUOUS
10
29.6956189999999971
20
60.6033229999999961
11
29.6033229999999996
21
60.6956190000000007
0
LINE
8
BLACK
6
CONTINUOUS
10
29.6033229999999996
20
60.6956190000000007
11
29.538059999999998
21
60.8086579999999941
0
LINE
8
BLACK
6
CONTINUOUS
10
29.538059999999998
20
60.8086579999999941
11
29.5042779999999993
21
60.9347369999999984
0
LINE
8
BLACK
6
CONTINUOUS
10
29.5042779999999993
20
60.9347369999999984
11
29.5
21
61.
0
LINE
8
BLACK
6
CONTINUOUS
10
29.5
20
61.
11
29.5
21
64.
0
LINE
8
BLACK
6
CONTINUOUS
10
29.5
20
64.
11
29.5042779999999993
21
64.0652630000000016
0
LINE
8
BLACK
6
CONTINUOUS
10
29.5042779999999993
20
64.0652630000000016
11
29.538059999999998
21
64.1913419999999917
0
LINE
8
BLACK
6
CONTINUOUS
10
29.538059999999998
20
64.1913419999999917
11
29.6033229999999996
21
64.3043809999999922
0
LINE
8
BLACK
6
CONTINUOUS
10
29.6033229999999996
20
64.3043809999999922
11
29.6956189999999971
21
64.3966769999999968
0
LINE
8
BLACK
6
CONTINUOUS
10
29.6956189999999971
20
64.3966769999999968
11
29.8086579999999977
21
64.4619399999999985
0
LINE
8
BLACK
6
CONTINUOUS
10
29.8086579999999977
20
64.4619399999999985
11
29.9347369999999984
21
64.4957220000000007
0
LINE
8
BLACK
6
CONTINUOUS
10
29.9347369999999984
20
64.4957220000000007
11
30.
21
64.5
0
LINE
8
BLACK
6
CONTINUOUS
10
30.
20
64.5
11
70.
21
64.5
0
LINE
8
BLACK
6
CONTINUOUS
10
70.
20
64.5
11
70.0652630000000016
21
64.4957220000000007
0
CIRCLE
8
BLACK
10
32.5
20
25.
40
0.15
0
CIRCLE
8
BLACK
10
40.
20
10.
40
0.15
0
CIRCLE
8
BLACK
10
80.
20
10.
40
0.15
0
CIRCLE
8
BLACK
10
10.
20
25.
40
0.15
0
CIRCLE
8
BLACK
10
90.
20
50.
40
0.15
0
CIRCLE
8
BLACK
10
90.
20
30.
40
0.15
0
CIRCLE
8
BLACK
10
25.
20
55.
40
0.15
0
CIRCLE
8
BLACK
10
10.
20
35.
40
0.15
0
CIRCLE
8
BLACK
10
32.5
20
40.
40
0.15
0
CIRCLE
8
BLACK
10
90.
20
10.
40
0.15
0
CIRCLE
8
BLACK
10
30.
20
25.
40
0.15
0
CIRCLE
8
BLACK
10
10.
20
50.
40
0.15
0
CIRCLE
8
BLACK
10
55.
20
55.
40
0.15
0
CIRCLE
8
BLACK
10
20.
20
10.
40
0.15
0
CIRCLE
8
BLACK
10
65.
20
10.
40
0.15
0
CIRCLE
8
BLACK
10
25.
20
10.
40
0.15
0
CIRCLE
8
BLACK
10
30.
20
55.
40
0.15
0
CIRCLE
8
BLACK
10
72.5
20
25.
40
0.15
0
CIRCLE
8
BLACK
10
67.5
20
40.
40
0.15
0
CIRCLE
8
BLACK
10
10.
20
10.
40
0.15
0
CIRCLE
8
BLACK
10
15.
20
55.
40
0.15
0
CIRCLE
8
BLACK
10
55.
20
10.
40
0.15
0
CIRCLE
8
BLACK
10
10.
20
55.
40
0.15
0
CIRCLE
8
BLACK
10
70.
20
42.5
40
0.15
0
CIRCLE
8
BLACK
10
75.
20
55.
40
0.15
0
CIRCLE
8
BLACK
10
60.
20
10.
40
0.15
0
CIRCLE
8
BLACK
10
90.
20
15.
40
0.15
0
CIRCLE
8
BLACK
10
30.
20
27.5
40
0.15
0
CIRCLE
8
BLACK
10
30.
20
22.5
40
0.15
0
CIRCLE
8
BLACK
10
45.
20
55.
40
0.15
0
CIRCLE
8
BLACK
10
67.5
20
25.
40
0.15
0
CIRCLE
8
BLACK
10
40.
20
55.
40
0.15
0
CIRCLE
8
BLACK
10
72.5
20
40.
40
0.15
0
CIRCLE
8
BLACK
10
65.
20
55.
40
0.15
0
CIRCLE
8
BLACK
10
45.
20
10.
40
0.15
0
CIRCLE
8
BLACK
10
10.
20
45.
40
0.15
0
CIRCLE
8
BLACK
10
50.
20
10.
40
0.15
0
CIRCLE
8
BLACK
10
70.
20
55.
40
0.15
0
CIRCLE
8
BLACK
10
90.
20
40.
40
0.15
0
CIRCLE
8
BLACK
10
85.
20
55.
40
0.15
0
CIRCLE
8
BLACK
10
35.
20
55.
40
0.15
0
CIRCLE
8
BLACK
10
30.
20
42.5
40
0.15
0
CIRCLE
8
BLACK
10
90.
20
35.
40
0.15
0
CIRCLE
8
BLACK
10
80.
20
55.
40
0.15
0
CIRCLE
8
BLACK
10
90.
20
20.
40
0.15
0
CIRCLE
8
BLACK
10
60.
20
55.
40
0.15
0
CIRCLE
8
BLACK
10
10.
20
30.
40
0.15
0
CIRCLE
8
BLACK
10
75.
20
10.
40
0.15
0
CIRCLE
8
BLACK
10
30.
20
37.5
40
0.15
0
CIRCLE
8
BLACK
10
90.
20
25.
40
0.15
0
CIRCLE
8
BLACK
10
15.
20
10.
40
0.15
0
CIRCLE
8
BLACK
10
90.
20
45.
40
0.15
0
CIRCLE
8
BLACK
10
70.
20
25.
40
0.15
0
CIRCLE
8
BLACK
10
10.
20
20.
40
0.15
0
CIRCLE
8
BLACK
10
85.
20
10.
40
0.15
0
CIRCLE
8
BLACK
10
70.
20
22.5
40
0.15
0
CIRCLE
8
BLACK
10
70.
20
37.5
40
0.15
0
CIRCLE
8
BLACK
10
70.
20
40.
40
0.15
0
CIRCLE
8
BLACK
10
10.
20
15.
40
0.15
0
CIRCLE
8
BLACK
10
90.
20
55.
40
0.15
0
CIRCLE
8
BLACK
10
50.
20
55.
40
0.15
0
CIRCLE
8
BLACK
10
30.
20
40.
40
0.15
0
CIRCLE
8
BLACK
10
20.
20
55.
40
0.15
0
CIRCLE
8
BLACK
10
10.
20
40.
40
0.15
0
CIRCLE
8
BLACK
10
35.
20
10.
40
0.15
0
CIRCLE
8
BLACK
10
30.
20
10.
40
0.15
0
CIRCLE
8
BLACK
10
70.
20
10.
40
0.15
0
CIRCLE
8
BLACK
10
70.
20
27.5
40
0.15
0
CIRCLE
8
BLACK
10
27.5
20
25.
40
0.15
0
CIRCLE
8
BLACK
10
27.5
20
40.
40
0.15
  0
ENDSEC
  0
EOF
