M48
METRIC,TZ
T1C0.300
%
G90
G05
T1
X4250Y65750
X4250Y64250
X4250Y45750
X4250Y44250
X4250Y25750
X4250Y24250
X4250Y5750
X4250Y4250
X5000Y65000
X5000Y45000
X5000Y25000
X5000Y5000
X5750Y65750
X5750Y64250
X5750Y45750
X5750Y44250
X5750Y25750
X5750Y24250
X5750Y5750
X5750Y4250
X9250Y65750
X9250Y64250
X9250Y5750
X9250Y4250
X10000Y65000
X10000Y5000
X10750Y65750
X10750Y64250
X10750Y5750
X10750Y4250
X14250Y65750
X14250Y64250
X14250Y5750
X14250Y4250
X15000Y65000
X15000Y5000
X15750Y65750
X15750Y64250
X15750Y5750
X15750Y4250
X19250Y65750
X19250Y64250
X19250Y5750
X19250Y4250
X20000Y65000
X20000Y5000
X20750Y65750
X20750Y64250
X20750Y5750
X20750Y4250
X24250Y65750
X24250Y64250
X24250Y45750
X24250Y44250
X24250Y25750
X24250Y24250
X24250Y5750
X24250Y4250
X25000Y65000
X25000Y45000
X25000Y25000
X25000Y5000
X25750Y65750
X25750Y64250
X25750Y45750
X25750Y44250
X25750Y25750
X25750Y24250
X25750Y5750
X25750Y4250
X29250Y65750
X29250Y64250
X29250Y5750
X29250Y4250
X30000Y65000
X30000Y5000
X30750Y65750
X30750Y64250
X30750Y5750
X30750Y4250
X34250Y65750
X34250Y64250
X34250Y5750
X34250Y4250
X35000Y65000
X35000Y5000
X35750Y65750
X35750Y64250
X35750Y5750
X35750Y4250
X39250Y65750
X39250Y64250
X39250Y5750
X39250Y4250
X40000Y65000
X40000Y5000
X40750Y65750
X40750Y64250
X40750Y5750
X40750Y4250
X44250Y65750
X44250Y64250
X44250Y45750
X44250Y44250
X44250Y25750
X44250Y24250
X44250Y5750
X44250Y4250
X45000Y65000
X45000Y45000
X45000Y25000
X45000Y5000
X45750Y65750
X45750Y64250
X45750Y45750
X45750Y44250
X45750Y25750
X45750Y24250
X45750Y5750
X45750Y4250
X49250Y65750
X49250Y64250
X49250Y5750
X49250Y4250
X50000Y65000
X50000Y5000
X50750Y65750
X50750Y64250
X50750Y5750
X50750Y4250
X54250Y65750
X54250Y64250
X54250Y5750
X54250Y4250
X55000Y65000
X55000Y5000
X55750Y65750
X55750Y64250
X55750Y5750
X55750Y4250
X59250Y65750
X59250Y64250
X59250Y5750
X59250Y4250
X60000Y65000
X60000Y5000
X60750Y65750
X60750Y64250
X60750Y5750
X60750Y4250
X64250Y65750
X64250Y64250
X64250Y45750
X64250Y44250
X64250Y25750
X64250Y24250
X64250Y5750
X64250Y4250
X65000Y65000
X65000Y45000
X65000Y25000
X65000Y5000
X65750Y65750
X65750Y64250
X65750Y45750
X65750Y44250
X65750Y25750
X65750Y24250
X65750Y5750
X65750Y4250
X69250Y65750
X69250Y64250
X69250Y5750
X69250Y4250
X70000Y65000
X70000Y5000
X70750Y65750
X70750Y64250
X70750Y5750
X70750Y4250
X74250Y65750
X74250Y64250
X74250Y5750
X74250Y4250
X75000Y65000
X75000Y5000
X75750Y65750
X75750Y64250
X75750Y5750
X75750Y4250
X79250Y65750
X79250Y64250
X79250Y5750
X79250Y4250
X80000Y65000
X80000Y5000
X80750Y65750
X80750Y64250
X80750Y5750
X80750Y4250
X84250Y65750
X84250Y64250
X84250Y45750
X84250Y44250
X84250Y25750
X84250Y24250
X84250Y5750
X84250Y4250
X85000Y65000
X85000Y45000
X85000Y25000
X85000Y5000
X85750Y65750
X85750Y64250
X85750Y45750
X85750Y44250
X85750Y25750
X85750Y24250
X85750Y5750
X85750Y4250
X89250Y65750
X89250Y64250
X89250Y5750
X89250Y4250
X90000Y65000
X90000Y5000
X90750Y65750
X90750Y64250
X90750Y5750
X90750Y4250
X94250Y65750
X94250Y64250
X94250Y5750
X94250Y4250
X95000Y65000
X95000Y5000
X95750Y65750
X95750Y64250
X95750Y5750
X95750Y4250
X99250Y65750
X99250Y64250
X99250Y5750
X99250Y4250
X100000Y65000
X100000Y5000
X100750Y65750
X100750Y64250
X100750Y5750
X100750Y4250
X104250Y40750
X104250Y34250
X104250Y29250
X104250Y65750
X104250Y64250
X104250Y60750
X104250Y59250
X104250Y55750
X104250Y54250
X104250Y50750
X104250Y49250
X104250Y45750
X104250Y44250
X104250Y39250
X104250Y35750
X104250Y30750
X104250Y25750
X104250Y24250
X104250Y20750
X104250Y19250
X104250Y15750
X104250Y14250
X104250Y10750
X104250Y9250
X104250Y5750
X104250Y4250
X105000Y65000
X105000Y60000
X105000Y55000
X105000Y50000
X105000Y45000
X105000Y40000
X105000Y35000
X105000Y30000
X105000Y25000
X105000Y20000
X105000Y15000
X105000Y10000
X105000Y5000
X105750Y65750
X105750Y64250
X105750Y60750
X105750Y59250
X105750Y55750
X105750Y54250
X105750Y50750
X105750Y49250
X105750Y45750
X105750Y44250
X105750Y39250
X105750Y35750
X105750Y30750
X105750Y25750
X105750Y24250
X105750Y20750
X105750Y19250
X105750Y15750
X105750Y14250
X105750Y10750
X105750Y9250
X105750Y5750
X105750Y4250
X105750Y40750
X105750Y34250
X105750Y29250
M30
