  0
SECTION
  2
HEADER
  9
$ANGBASE
  50
0.0
  9
$ANGDIR
  70
1
  9
$MEASUREMENT
  70
1
  0
ENDSEC
  0
SECTION
  2
TABLES
  0
TABLE
  2
LTYPE
  70
4
  0
LTYPE
  5
40F
  2
CONTINUOUS
  70
0
  3
Solid line
  72
65
  73
0
  40
0.0
  0
LTYPE
  5
410
  2
DASHDOT
 70
0
  3
Dash Dot ____ _ ____ _
 72
65
 73
4
 40
2.0
 49
1.25
 49
-0.25
 49
0.25
 49
-0.25
  0
LTYPE
  5
411
  2
DASHED
 70
0
  3
Dashed __ __ __ __ __
 72
65
 73
2
 40
0.75
 49
0.5
 49
-0.25
  0
LTYPE
  5
43B
  2
DOTTED
 70
0
  3
Dotted .  .  .  .
 72
65
 73
2
 40
0.2
 49
0.0
 49
-0.2
  0
ENDTAB
  0
TABLE
  2
STYLE
  70
4
  0
STYLE
  2
KICAD
  70
0
  40
0
  41
1
  42
1
  50
0
  71
0
  3
isocp.shx
  0
STYLE
  2
KICADB
  70
0
  40
0
  41
1
  42
1
  50
0
  71
0
  3
isocp.shx
  0
STYLE
  2
KICADI
  70
0
  40
0
  41
1
  42
1
  50
15
  71
0
  3
isocp.shx
  0
STYLE
  2
KICADBI
  70
0
  40
0
  41
1
  42
1
  50
15
  71
0
  3
isocp.shx
  0
ENDTAB
  0
TABLE
  2
LAYER
  70
1
  0
LAYER
  2
BLACK
  70
0
  62
7
  6
CONTINUOUS
  0
ENDTAB
  0
ENDSEC
  0
SECTION
  2
ENTITIES
0
LINE
8
BLACK
6
CONTINUOUS
10
28.6574999999999989
20
50.6099999999999994
11
28.6804609999999975
21
50.6054329999999979
0
LINE
8
BLACK
6
CONTINUOUS
10
28.6804609999999975
20
50.6054329999999979
11
28.7129329999999996
21
50.5729609999999994
0
LINE
8
BLACK
6
CONTINUOUS
10
28.7129329999999996
20
50.5729609999999994
11
28.7174999999999976
21
50.5499999999999972
0
LINE
8
BLACK
6
CONTINUOUS
10
28.7174999999999976
20
50.5499999999999972
11
28.7174999999999976
21
35.8500000000000014
0
LINE
8
BLACK
6
CONTINUOUS
10
28.7174999999999976
20
35.8500000000000014
11
28.7129329999999996
21
35.8270389999999992
0
LINE
8
BLACK
6
CONTINUOUS
10
28.7129329999999996
20
35.8270389999999992
11
28.6804609999999975
21
35.7945670000000007
0
LINE
8
BLACK
6
CONTINUOUS
10
28.6804609999999975
20
35.7945670000000007
11
28.6574999999999989
21
35.7899999999999991
0
LINE
8
BLACK
6
CONTINUOUS
10
28.6574999999999989
20
35.7899999999999991
11
19.4574999999999996
21
35.7899999999999991
0
LINE
8
BLACK
6
CONTINUOUS
10
19.4574999999999996
20
35.7899999999999991
11
19.4345390000000009
21
35.7945670000000007
0
LINE
8
BLACK
6
CONTINUOUS
10
19.4345390000000009
20
35.7945670000000007
11
19.4020669999999988
21
35.8270389999999992
0
LINE
8
BLACK
6
CONTINUOUS
10
19.4020669999999988
20
35.8270389999999992
11
19.3975000000000009
21
35.8500000000000014
0
LINE
8
BLACK
6
CONTINUOUS
10
19.3975000000000009
20
35.8500000000000014
11
19.3975000000000009
21
44.6499999999999986
0
LINE
8
BLACK
6
CONTINUOUS
10
19.3975000000000009
20
44.6499999999999986
11
19.4020669999999988
21
44.6729610000000008
0
LINE
8
BLACK
6
CONTINUOUS
10
19.4020669999999988
20
44.6729610000000008
11
19.4345390000000009
21
44.7054329999999993
0
LINE
8
BLACK
6
CONTINUOUS
10
19.4345390000000009
20
44.7054329999999993
11
19.4804609999999983
21
44.7054329999999993
0
LINE
8
BLACK
6
CONTINUOUS
10
19.4804609999999983
20
44.7054329999999993
11
19.5129330000000003
21
44.6729610000000008
0
LINE
8
BLACK
6
CONTINUOUS
10
19.5129330000000003
20
44.6729610000000008
11
19.5174999999999983
21
44.6499999999999986
0
LINE
8
BLACK
6
CONTINUOUS
10
19.5174999999999983
20
44.6499999999999986
11
19.5174999999999983
21
35.9099999999999966
0
LINE
8
BLACK
6
CONTINUOUS
10
19.5174999999999983
20
35.9099999999999966
11
28.5975000000000001
21
35.9099999999999966
0
LINE
8
BLACK
6
CONTINUOUS
10
28.5975000000000001
20
35.9099999999999966
11
28.5975000000000001
21
50.4899999999999949
0
LINE
8
BLACK
6
CONTINUOUS
10
28.5975000000000001
20
50.4899999999999949
11
26.0574999999999974
21
50.4900009999999995
0
LINE
8
BLACK
6
CONTINUOUS
10
26.0574999999999974
20
50.4900009999999995
11
26.0345389999999988
21
50.494568000000001
0
LINE
8
BLACK
6
CONTINUOUS
10
26.0345389999999988
20
50.494568000000001
11
26.0020670000000003
21
50.5270399999999995
0
LINE
8
BLACK
6
CONTINUOUS
10
26.0020670000000003
20
50.5270399999999995
11
26.0020670000000003
21
50.5729619999999969
0
LINE
8
BLACK
6
CONTINUOUS
10
26.0020670000000003
20
50.5729619999999969
11
26.0345389999999988
21
50.6054339999999954
0
LINE
8
BLACK
6
CONTINUOUS
10
26.0345389999999988
20
50.6054339999999954
11
26.0574999999999974
21
50.6100009999999969
0
LINE
8
BLACK
6
CONTINUOUS
10
26.0574999999999974
20
50.6100009999999969
11
28.6574999999999989
21
50.6099999999999994
0
LINE
8
BLACK
6
CONTINUOUS
10
18.2493650000000009
20
41.1783199999999994
11
18.2531399999999984
21
41.1783199999999994
0
LINE
8
BLACK
6
CONTINUOUS
10
18.2531399999999984
20
41.1783199999999994
11
18.2632639999999995
21
41.1741260000000011
0
LINE
8
BLACK
6
CONTINUOUS
10
18.2632639999999995
20
41.1741260000000011
11
18.2737650000000009
21
41.1709579999999988
0
LINE
8
BLACK
6
CONTINUOUS
10
18.2737650000000009
20
41.1709579999999988
11
18.2766889999999975
21
41.168565000000001
0
LINE
8
BLACK
6
CONTINUOUS
10
18.2766889999999975
20
41.168565000000001
11
18.2801760000000009
21
41.1671210000000016
0
LINE
8
BLACK
6
CONTINUOUS
10
18.2801760000000009
20
41.1671210000000016
11
18.2879240000000003
21
41.1593719999999976
0
LINE
8
BLACK
6
CONTINUOUS
10
18.2879240000000003
20
41.1593719999999976
11
18.2964129999999976
21
41.1524269999999959
0
LINE
8
BLACK
6
CONTINUOUS
10
18.2964129999999976
20
41.1524269999999959
11
18.2981979999999993
21
41.1490979999999951
0
LINE
8
BLACK
6
CONTINUOUS
10
18.2981979999999993
20
41.1490979999999951
11
18.3008689999999987
21
41.1464280000000002
0
LINE
8
BLACK
6
CONTINUOUS
10
18.3008689999999987
20
41.1464280000000002
11
18.3050619999999995
21
41.1363029999999981
0
LINE
8
BLACK
6
CONTINUOUS
10
18.3050619999999995
20
41.1363029999999981
11
18.3102470000000004
21
41.1266399999999948
0
LINE
8
BLACK
6
CONTINUOUS
10
18.3102470000000004
20
41.1266399999999948
11
18.3106219999999986
21
41.122879999999995
0
LINE
8
BLACK
6
CONTINUOUS
10
18.3106219999999986
20
41.122879999999995
11
18.312068
21
41.1193919999999977
0
LINE
8
BLACK
6
CONTINUOUS
10
18.312068
20
41.1193919999999977
11
18.312068
21
41.1084299999999985
0
LINE
8
BLACK
6
CONTINUOUS
10
18.312068
20
41.1084299999999985
11
18.3131589999999989
21
41.0975210000000004
0
LINE
8
BLACK
6
CONTINUOUS
10
18.3131589999999989
20
41.0975210000000004
11
18.312068
21
41.0939049999999995
0
LINE
8
BLACK
6
CONTINUOUS
10
18.312068
20
41.0939049999999995
11
18.312068
21
41.0901289999999975
0
LINE
8
BLACK
6
CONTINUOUS
10
18.312068
20
41.0901289999999975
11
18.3078730000000007
21
41.0800020000000004
0
LINE
8
BLACK
6
CONTINUOUS
10
18.3078730000000007
20
41.0800020000000004
11
18.3047059999999995
21
41.0695049999999995
0
LINE
8
BLACK
6
CONTINUOUS
10
18.3047059999999995
20
41.0695049999999995
11
18.3023139999999991
21
41.0665809999999993
0
LINE
8
BLACK
6
CONTINUOUS
10
18.3023139999999991
20
41.0665809999999993
11
18.3008689999999987
21
41.063092999999995
0
LINE
8
BLACK
6
CONTINUOUS
10
18.3008689999999987
20
41.063092999999995
11
18.2915419999999997
21
41.0517279999999971
0
LINE
8
BLACK
6
CONTINUOUS
10
18.2915419999999997
20
41.0517279999999971
11
18.2525289999999991
21
41.012715
0
LINE
8
BLACK
6
CONTINUOUS
10
18.2525289999999991
20
41.012715
11
18.2182709999999979
21
40.9441989999999976
0
LINE
8
BLACK
6
CONTINUOUS
10
18.2182709999999979
20
40.9441989999999976
11
18.2182709999999979
21
40.7415139999999951
0
LINE
8
BLACK
6
CONTINUOUS
10
18.2182709999999979
20
40.7415139999999951
11
18.2525289999999991
21
40.6729979999999998
0
LINE
8
BLACK
6
CONTINUOUS
10
18.2525289999999991
20
40.6729979999999998
11
18.2829359999999994
21
40.6425909999999959
0
LINE
8
BLACK
6
CONTINUOUS
10
18.2829359999999994
20
40.6425909999999959
11
18.3514519999999983
21
40.6083329999999947
0
LINE
8
BLACK
6
CONTINUOUS
10
18.3514519999999983
20
40.6083329999999947
11
18.5541370000000008
21
40.6083329999999947
0
LINE
8
BLACK
6
CONTINUOUS
10
18.5541370000000008
20
40.6083329999999947
11
18.6226529999999997
21
40.6425909999999959
0
LINE
8
BLACK
6
CONTINUOUS
10
18.6226529999999997
20
40.6425909999999959
11
18.6530609999999974
21
40.6729979999999998
0
LINE
8
BLACK
6
CONTINUOUS
10
18.6530609999999974
20
40.6729979999999998
11
18.6873189999999987
21
40.7415139999999951
0
LINE
8
BLACK
6
CONTINUOUS
10
18.6873189999999987
20
40.7415139999999951
11
18.6873189999999987
21
40.9441989999999976
0
LINE
8
BLACK
6
CONTINUOUS
10
18.6873189999999987
20
40.9441989999999976
11
18.6530609999999974
21
41.0127139999999955
0
LINE
8
BLACK
6
CONTINUOUS
10
18.6530609999999974
20
41.0127139999999955
11
18.6140480000000004
21
41.0517269999999996
0
LINE
8
BLACK
6
CONTINUOUS
10
18.6140480000000004
20
41.0517269999999996
11
18.6047200000000004
21
41.063092999999995
0
LINE
8
BLACK
6
CONTINUOUS
10
18.6047200000000004
20
41.063092999999995
11
18.5935209999999991
21
41.0901289999999975
0
LINE
8
BLACK
6
CONTINUOUS
10
18.5935209999999991
20
41.0901289999999975
11
18.5935209999999991
21
41.1193919999999977
0
LINE
8
BLACK
6
CONTINUOUS
10
18.5935209999999991
20
41.1193919999999977
11
18.6047189999999993
21
41.1464280000000002
0
LINE
8
BLACK
6
CONTINUOUS
10
18.6047189999999993
20
41.1464280000000002
11
18.6254120000000007
21
41.1671210000000016
0
LINE
8
BLACK
6
CONTINUOUS
10
18.6254120000000007
20
41.1671210000000016
11
18.6524479999999997
21
41.1783199999999994
0
LINE
8
BLACK
6
CONTINUOUS
10
18.6524479999999997
20
41.1783199999999994
11
18.681711
21
41.1783199999999994
0
LINE
8
BLACK
6
CONTINUOUS
10
18.681711
20
41.1783199999999994
11
18.7087469999999989
21
41.1671219999999991
0
LINE
8
BLACK
6
CONTINUOUS
10
18.7087469999999989
20
41.1671219999999991
11
18.7201120000000003
21
41.1577950000000001
0
LINE
8
BLACK
6
CONTINUOUS
10
18.7201120000000003
20
41.1577950000000001
11
18.7677319999999987
21
41.1101759999999956
0
LINE
8
BLACK
6
CONTINUOUS
10
18.7677319999999987
20
41.1101759999999956
11
18.7724499999999992
21
41.1044259999999966
0
LINE
8
BLACK
6
CONTINUOUS
10
18.7724499999999992
20
41.1044259999999966
11
18.7739499999999992
21
41.1031259999999961
0
LINE
8
BLACK
6
CONTINUOUS
10
18.7739499999999992
20
41.1031259999999961
11
18.7753720000000008
21
41.1008659999999963
0
LINE
8
BLACK
6
CONTINUOUS
10
18.7753720000000008
20
41.1008659999999963
11
18.7770599999999988
21
41.0988100000000003
0
LINE
8
BLACK
6
CONTINUOUS
10
18.7770599999999988
20
41.0988100000000003
11
18.7778169999999989
21
41.096981999999997
0
LINE
8
BLACK
6
CONTINUOUS
10
18.7778169999999989
20
41.096981999999997
11
18.7817819999999998
21
41.0906829999999985
0
LINE
8
BLACK
6
CONTINUOUS
10
18.7817819999999998
20
41.0906829999999985
11
18.8294010000000007
21
40.9954449999999966
0
LINE
8
BLACK
6
CONTINUOUS
10
18.8294010000000007
20
40.9954449999999966
11
18.834655999999999
21
40.9817139999999966
0
LINE
8
BLACK
6
CONTINUOUS
10
18.834655999999999
20
40.9817139999999966
11
18.8348469999999999
21
40.9790239999999955
0
LINE
8
BLACK
6
CONTINUOUS
10
18.8348469999999999
20
40.9790239999999955
11
18.8358779999999975
21
40.9765359999999959
0
LINE
8
BLACK
6
CONTINUOUS
10
18.8358779999999975
20
40.9765359999999959
11
18.8373190000000008
21
40.961903999999997
0
LINE
8
BLACK
6
CONTINUOUS
10
18.8373190000000008
20
40.961903999999997
11
18.8373190000000008
21
40.7238089999999957
0
LINE
8
BLACK
6
CONTINUOUS
10
18.8373190000000008
20
40.7238089999999957
11
18.8358779999999975
21
40.7091769999999968
0
LINE
8
BLACK
6
CONTINUOUS
10
18.8358779999999975
20
40.7091769999999968
11
18.8348469999999999
21
40.7066879999999998
0
LINE
8
BLACK
6
CONTINUOUS
10
18.8348469999999999
20
40.7066879999999998
11
18.834655999999999
21
40.703998999999996
0
LINE
8
BLACK
6
CONTINUOUS
10
18.834655999999999
20
40.703998999999996
11
18.8294010000000007
21
40.6902679999999961
0
LINE
8
BLACK
6
CONTINUOUS
10
18.8294010000000007
20
40.6902679999999961
11
18.7817819999999998
21
40.5950300000000013
0
LINE
8
BLACK
6
CONTINUOUS
10
18.7817819999999998
20
40.5950300000000013
11
18.7778169999999989
21
40.5887299999999982
0
LINE
8
BLACK
6
CONTINUOUS
10
18.7778169999999989
20
40.5887299999999982
11
18.7770599999999988
21
40.5869029999999995
0
LINE
8
BLACK
6
CONTINUOUS
10
18.7770599999999988
20
40.5869029999999995
11
18.7753720000000008
21
40.5848459999999989
0
LINE
8
BLACK
6
CONTINUOUS
10
18.7753720000000008
20
40.5848459999999989
11
18.7739499999999992
21
40.5825869999999966
0
LINE
8
BLACK
6
CONTINUOUS
10
18.7739499999999992
20
40.5825869999999966
11
18.7724499999999992
21
40.5812859999999986
0
LINE
8
BLACK
6
CONTINUOUS
10
18.7724499999999992
20
40.5812859999999986
11
18.7677319999999987
21
40.5755369999999971
0
LINE
8
BLACK
6
CONTINUOUS
10
18.7677319999999987
20
40.5755369999999971
11
18.7201120000000003
21
40.5279179999999997
0
LINE
8
BLACK
6
CONTINUOUS
10
18.7201120000000003
20
40.5279179999999997
11
18.7143629999999987
21
40.5231999999999957
0
LINE
8
BLACK
6
CONTINUOUS
10
18.7143629999999987
20
40.5231999999999957
11
18.7130639999999993
21
40.5217019999999977
0
LINE
8
BLACK
6
CONTINUOUS
10
18.7130639999999993
20
40.5217019999999977
11
18.7108050000000006
21
40.5202799999999996
0
LINE
8
BLACK
6
CONTINUOUS
10
18.7108050000000006
20
40.5202799999999996
11
18.7087469999999989
21
40.5185910000000007
0
LINE
8
BLACK
6
CONTINUOUS
10
18.7087469999999989
20
40.5185910000000007
11
18.7069170000000007
21
40.517832999999996
0
LINE
8
BLACK
6
CONTINUOUS
10
18.7069170000000007
20
40.517832999999996
11
18.7006209999999982
21
40.5138699999999972
0
LINE
8
BLACK
6
CONTINUOUS
10
18.7006209999999982
20
40.5138699999999972
11
18.6053829999999998
21
40.4662509999999997
0
LINE
8
BLACK
6
CONTINUOUS
10
18.6053829999999998
20
40.4662509999999997
11
18.5916509999999988
21
40.4609960000000015
0
LINE
8
BLACK
6
CONTINUOUS
10
18.5916509999999988
20
40.4609960000000015
11
18.5889629999999997
21
40.4608050000000006
0
LINE
8
BLACK
6
CONTINUOUS
10
18.5889629999999997
20
40.4608050000000006
11
18.5864739999999991
21
40.4597739999999959
0
LINE
8
BLACK
6
CONTINUOUS
10
18.5864739999999991
20
40.4597739999999959
11
18.5718420000000002
21
40.4583329999999961
0
LINE
8
BLACK
6
CONTINUOUS
10
18.5718420000000002
20
40.4583329999999961
11
18.3337469999999989
21
40.4583329999999961
0
LINE
8
BLACK
6
CONTINUOUS
10
18.3337469999999989
20
40.4583329999999961
11
18.319115
21
40.4597739999999959
0
LINE
8
BLACK
6
CONTINUOUS
10
18.319115
20
40.4597739999999959
11
18.3166259999999994
21
40.460803999999996
0
LINE
8
BLACK
6
CONTINUOUS
10
18.3166259999999994
20
40.460803999999996
11
18.3139369999999992
21
40.4609960000000015
0
LINE
8
BLACK
6
CONTINUOUS
10
18.3139369999999992
20
40.4609960000000015
11
18.3002059999999993
21
40.4662509999999997
0
LINE
8
BLACK
6
CONTINUOUS
10
18.3002059999999993
20
40.4662509999999997
11
18.2049680000000009
21
40.5138699999999972
0
LINE
8
BLACK
6
CONTINUOUS
10
18.2049680000000009
20
40.5138699999999972
11
18.1986679999999978
21
40.5178340000000006
0
LINE
8
BLACK
6
CONTINUOUS
10
18.1986679999999978
20
40.5178340000000006
11
18.1968409999999992
21
40.5185919999999982
0
LINE
8
BLACK
6
CONTINUOUS
10
18.1968409999999992
20
40.5185919999999982
11
18.1947839999999985
21
40.5202799999999996
0
LINE
8
BLACK
6
CONTINUOUS
10
18.1947839999999985
20
40.5202799999999996
11
18.1925249999999998
21
40.5217019999999977
0
LINE
8
BLACK
6
CONTINUOUS
10
18.1925249999999998
20
40.5217019999999977
11
18.1912249999999993
21
40.5231999999999957
0
LINE
8
BLACK
6
CONTINUOUS
10
18.1912249999999993
20
40.5231999999999957
11
18.1854759999999978
21
40.5279189999999971
0
LINE
8
BLACK
6
CONTINUOUS
10
18.1854759999999978
20
40.5279189999999971
11
18.1378570000000003
21
40.5755380000000017
0
LINE
8
BLACK
6
CONTINUOUS
10
18.1378570000000003
20
40.5755380000000017
11
18.1331379999999989
21
40.5812869999999961
0
LINE
8
BLACK
6
CONTINUOUS
10
18.1331379999999989
20
40.5812869999999961
11
18.1316400000000009
21
40.5825869999999966
0
LINE
8
BLACK
6
CONTINUOUS
10
18.1316400000000009
20
40.5825869999999966
11
18.1302179999999993
21
40.5848459999999989
0
LINE
8
BLACK
6
CONTINUOUS
10
18.1302179999999993
20
40.5848459999999989
11
18.1285299999999978
21
40.5869029999999995
0
LINE
8
BLACK
6
CONTINUOUS
10
18.1285299999999978
20
40.5869029999999995
11
18.1277720000000002
21
40.5887299999999982
0
LINE
8
BLACK
6
CONTINUOUS
10
18.1277720000000002
20
40.5887299999999982
11
18.1238080000000004
21
40.5950300000000013
0
LINE
8
BLACK
6
CONTINUOUS
10
18.1238080000000004
20
40.5950300000000013
11
18.0761889999999994
21
40.6902679999999961
0
LINE
8
BLACK
6
CONTINUOUS
10
18.0761889999999994
20
40.6902679999999961
11
18.0709339999999976
21
40.7040000000000006
0
LINE
8
BLACK
6
CONTINUOUS
10
18.0709339999999976
20
40.7040000000000006
11
18.0707430000000002
21
40.7066869999999952
0
LINE
8
BLACK
6
CONTINUOUS
10
18.0707430000000002
20
40.7066869999999952
11
18.0697119999999991
21
40.7091769999999968
0
LINE
8
BLACK
6
CONTINUOUS
10
18.0697119999999991
20
40.7091769999999968
11
18.0682709999999993
21
40.7238089999999957
0
LINE
8
BLACK
6
CONTINUOUS
10
18.0682709999999993
20
40.7238089999999957
11
18.0682709999999993
21
40.961903999999997
0
LINE
8
BLACK
6
CONTINUOUS
10
18.0682709999999993
20
40.961903999999997
11
18.0697119999999991
21
40.9765359999999959
0
LINE
8
BLACK
6
CONTINUOUS
10
18.0697119999999991
20
40.9765359999999959
11
18.0707430000000002
21
40.979025
0
LINE
8
BLACK
6
CONTINUOUS
10
18.0707430000000002
20
40.979025
11
18.0709339999999976
21
40.9817129999999992
0
LINE
8
BLACK
6
CONTINUOUS
10
18.0709339999999976
20
40.9817129999999992
11
18.0761889999999994
21
40.9954449999999966
0
LINE
8
BLACK
6
CONTINUOUS
10
18.0761889999999994
20
40.9954449999999966
11
18.0855089999999983
21
41.0140859999999989
0
LINE
8
BLACK
6
CONTINUOUS
10
18.0855089999999983
20
41.0140859999999989
11
17.8373190000000008
21
40.9892669999999981
0
LINE
8
BLACK
6
CONTINUOUS
10
17.8373190000000008
20
40.9892669999999981
11
17.8373190000000008
21
40.5809519999999964
0
LINE
8
BLACK
6
CONTINUOUS
10
17.8373190000000008
20
40.5809519999999964
11
17.8358779999999975
21
40.5663199999999975
0
LINE
8
BLACK
6
CONTINUOUS
10
17.8358779999999975
20
40.5663199999999975
11
17.8246789999999997
21
40.539283999999995
0
LINE
8
BLACK
6
CONTINUOUS
10
17.8246789999999997
20
40.539283999999995
11
17.8039869999999993
21
40.5185919999999982
0
LINE
8
BLACK
6
CONTINUOUS
10
17.8039869999999993
20
40.5185919999999982
11
17.7769510000000004
21
40.5073930000000004
0
LINE
8
BLACK
6
CONTINUOUS
10
17.7769510000000004
20
40.5073930000000004
11
17.7476869999999991
21
40.5073930000000004
0
LINE
8
BLACK
6
CONTINUOUS
10
17.7476869999999991
20
40.5073930000000004
11
17.7206510000000002
21
40.5185919999999982
0
LINE
8
BLACK
6
CONTINUOUS
10
17.7206510000000002
20
40.5185919999999982
11
17.6999589999999998
21
40.539283999999995
0
LINE
8
BLACK
6
CONTINUOUS
10
17.6999589999999998
20
40.539283999999995
11
17.6887599999999985
21
40.5663199999999975
0
LINE
8
BLACK
6
CONTINUOUS
10
17.6887599999999985
20
40.5663199999999975
11
17.6873189999999987
21
40.5809519999999964
0
LINE
8
BLACK
6
CONTINUOUS
10
17.6873189999999987
20
40.5809519999999964
11
17.6873189999999987
21
41.0571419999999989
0
LINE
8
BLACK
6
CONTINUOUS
10
17.6873189999999987
20
41.0571419999999989
11
17.6878509999999984
21
41.0625530000000012
0
LINE
8
BLACK
6
CONTINUOUS
10
17.6878509999999984
20
41.0625530000000012
11
17.6876689999999996
21
41.0643819999999948
0
LINE
8
BLACK
6
CONTINUOUS
10
17.6876689999999996
20
41.0643819999999948
11
17.6882069999999985
21
41.0661679999999976
0
LINE
8
BLACK
6
CONTINUOUS
10
17.6882069999999985
20
41.0661679999999976
11
17.6887599999999985
21
41.0717739999999978
0
LINE
8
BLACK
6
CONTINUOUS
10
17.6887599999999985
20
41.0717739999999978
11
17.6929540000000003
21
41.0818999999999974
0
LINE
8
BLACK
6
CONTINUOUS
10
17.6929540000000003
20
41.0818999999999974
11
17.696121999999999
21
41.0923979999999958
0
LINE
8
BLACK
6
CONTINUOUS
10
17.696121999999999
20
41.0923979999999958
11
17.6985129999999984
21
41.0953209999999984
0
LINE
8
BLACK
6
CONTINUOUS
10
17.6985129999999984
20
41.0953209999999984
11
17.6999589999999998
21
41.0988100000000003
0
LINE
8
BLACK
6
CONTINUOUS
10
17.6999589999999998
20
41.0988100000000003
11
17.7077120000000008
21
41.1065630000000013
0
LINE
8
BLACK
6
CONTINUOUS
10
17.7077120000000008
20
41.1065630000000013
11
17.7146529999999984
21
41.1150459999999995
0
LINE
8
BLACK
6
CONTINUOUS
10
17.7146529999999984
20
41.1150459999999995
11
17.7179789999999997
21
41.1168300000000002
0
LINE
8
BLACK
6
CONTINUOUS
10
17.7179789999999997
20
41.1168300000000002
11
17.7206510000000002
21
41.1195019999999971
0
LINE
8
BLACK
6
CONTINUOUS
10
17.7206510000000002
20
41.1195019999999971
11
17.7307799999999993
21
41.1236969999999999
0
LINE
8
BLACK
6
CONTINUOUS
10
17.7307799999999993
20
41.1236969999999999
11
17.7404399999999995
21
41.1288799999999952
0
LINE
8
BLACK
6
CONTINUOUS
10
17.7404399999999995
20
41.1288799999999952
11
17.7459640000000007
21
41.1299869999999999
0
LINE
8
BLACK
6
CONTINUOUS
10
17.7459640000000007
20
41.1299869999999999
11
17.7476869999999991
21
41.1307009999999948
0
LINE
8
BLACK
6
CONTINUOUS
10
17.7476869999999991
20
41.1307009999999948
11
17.749524000000001
21
41.1307009999999948
0
LINE
8
BLACK
6
CONTINUOUS
10
17.749524000000001
20
41.1307009999999948
11
17.7548560000000002
21
41.1317699999999959
0
LINE
8
BLACK
6
CONTINUOUS
10
17.7548560000000002
20
41.1317699999999959
11
18.2310459999999992
21
41.1793890000000005
0
LINE
8
BLACK
6
CONTINUOUS
10
18.2310459999999992
20
41.1793890000000005
11
18.245749
21
41.1794109999999947
0
LINE
8
BLACK
6
CONTINUOUS
10
18.245749
20
41.1794109999999947
11
18.2493650000000009
21
41.1783199999999994
0
LINE
8
BLACK
6
CONTINUOUS
10
18.8039869999999993
20
41.9766449999999978
11
18.8246789999999997
21
41.9559530000000009
0
LINE
8
BLACK
6
CONTINUOUS
10
18.8246789999999997
20
41.9559530000000009
11
18.8358779999999975
21
41.9289169999999984
0
LINE
8
BLACK
6
CONTINUOUS
10
18.8358779999999975
20
41.9289169999999984
11
18.8373190000000008
21
41.9142849999999996
0
LINE
8
BLACK
6
CONTINUOUS
10
18.8373190000000008
20
41.9142849999999996
11
18.8373190000000008
21
41.8190469999999976
0
LINE
8
BLACK
6
CONTINUOUS
10
18.8373190000000008
20
41.8190469999999976
11
18.836589
21
41.811639999999997
0
LINE
8
BLACK
6
CONTINUOUS
10
18.836589
20
41.811639999999997
11
18.8367299999999993
21
41.809666
0
LINE
8
BLACK
6
CONTINUOUS
10
18.8367299999999993
20
41.809666
11
18.8361389999999993
21
41.807068000000001
0
LINE
8
BLACK
6
CONTINUOUS
10
18.8361389999999993
20
41.807068000000001
11
18.8358779999999975
21
41.8044149999999988
0
LINE
8
BLACK
6
CONTINUOUS
10
18.8358779999999975
20
41.8044149999999988
11
18.8351189999999988
21
41.802583999999996
0
LINE
8
BLACK
6
CONTINUOUS
10
18.8351189999999988
20
41.802583999999996
11
18.8334699999999984
21
41.7953289999999953
0
LINE
8
BLACK
6
CONTINUOUS
10
18.8334699999999984
20
41.7953289999999953
11
18.7858509999999974
21
41.6524730000000005
0
LINE
8
BLACK
6
CONTINUOUS
10
18.7858509999999974
20
41.6524730000000005
11
18.7798569999999998
21
41.6390469999999979
0
LINE
8
BLACK
6
CONTINUOUS
10
18.7798569999999998
20
41.6390469999999979
11
18.7780920000000009
21
41.6370119999999986
0
LINE
8
BLACK
6
CONTINUOUS
10
18.7780920000000009
20
41.6370119999999986
11
18.7770609999999998
21
41.6345219999999969
0
LINE
8
BLACK
6
CONTINUOUS
10
18.7770609999999998
20
41.6345219999999969
11
18.7677329999999998
21
41.6231569999999991
0
LINE
8
BLACK
6
CONTINUOUS
10
18.7677329999999998
20
41.6231569999999991
11
18.6724940000000004
21
41.5279189999999971
0
LINE
8
BLACK
6
CONTINUOUS
10
18.6724940000000004
20
41.5279189999999971
11
18.6611279999999979
21
41.5185910000000007
0
LINE
8
BLACK
6
CONTINUOUS
10
18.6611279999999979
20
41.5185910000000007
11
18.6586369999999988
21
41.5175589999999985
0
LINE
8
BLACK
6
CONTINUOUS
10
18.6586369999999988
20
41.5175589999999985
11
18.6566030000000005
21
41.5157949999999971
0
LINE
8
BLACK
6
CONTINUOUS
10
18.6566030000000005
20
41.5157949999999971
11
18.6431779999999989
21
41.509800999999996
0
LINE
8
BLACK
6
CONTINUOUS
10
18.6431779999999989
20
41.509800999999996
11
18.5003209999999996
21
41.4621819999999985
0
LINE
8
BLACK
6
CONTINUOUS
10
18.5003209999999996
20
41.4621819999999985
11
18.4930669999999999
21
41.4605320000000006
0
LINE
8
BLACK
6
CONTINUOUS
10
18.4930669999999999
20
41.4605320000000006
11
18.4912360000000007
21
41.4597739999999959
0
LINE
8
BLACK
6
CONTINUOUS
10
18.4912360000000007
20
41.4597739999999959
11
18.4885809999999999
21
41.4595119999999966
0
LINE
8
BLACK
6
CONTINUOUS
10
18.4885809999999999
20
41.4595119999999966
11
18.4859839999999984
21
41.4589220000000012
0
LINE
8
BLACK
6
CONTINUOUS
10
18.4859839999999984
20
41.4589220000000012
11
18.4840090000000004
21
41.4590619999999959
0
LINE
8
BLACK
6
CONTINUOUS
10
18.4840090000000004
20
41.4590619999999959
11
18.4766039999999983
21
41.4583329999999961
0
LINE
8
BLACK
6
CONTINUOUS
10
18.4766039999999983
20
41.4583329999999961
11
17.762318999999998
21
41.4583329999999961
0
LINE
8
BLACK
6
CONTINUOUS
10
17.762318999999998
20
41.4583329999999961
11
17.7476869999999991
21
41.4597739999999959
0
LINE
8
BLACK
6
CONTINUOUS
10
17.7476869999999991
20
41.4597739999999959
11
17.7206510000000002
21
41.4709730000000008
0
LINE
8
BLACK
6
CONTINUOUS
10
17.7206510000000002
20
41.4709730000000008
11
17.6999589999999998
21
41.4916649999999976
0
LINE
8
BLACK
6
CONTINUOUS
10
17.6999589999999998
20
41.4916649999999976
11
17.6887599999999985
21
41.5187010000000001
0
LINE
8
BLACK
6
CONTINUOUS
10
17.6887599999999985
20
41.5187010000000001
11
17.6887599999999985
21
41.5479649999999978
0
LINE
8
BLACK
6
CONTINUOUS
10
17.6887599999999985
20
41.5479649999999978
11
17.6999589999999998
21
41.5750010000000003
0
LINE
8
BLACK
6
CONTINUOUS
10
17.6999589999999998
20
41.5750010000000003
11
17.7206510000000002
21
41.5956929999999971
0
LINE
8
BLACK
6
CONTINUOUS
10
17.7206510000000002
20
41.5956929999999971
11
17.7476869999999991
21
41.6068919999999949
0
LINE
8
BLACK
6
CONTINUOUS
10
17.7476869999999991
20
41.6068919999999949
11
17.762318999999998
21
41.6083329999999947
0
LINE
8
BLACK
6
CONTINUOUS
10
17.762318999999998
20
41.6083329999999947
11
18.4644340000000007
21
41.6083329999999947
0
LINE
8
BLACK
6
CONTINUOUS
10
18.4644340000000007
20
41.6083329999999947
11
18.5789469999999994
21
41.6465040000000002
0
LINE
8
BLACK
6
CONTINUOUS
10
18.5789469999999994
20
41.6465040000000002
11
18.6491480000000003
21
41.716704
0
LINE
8
BLACK
6
CONTINUOUS
10
18.6491480000000003
20
41.716704
11
18.6873189999999987
21
41.8312169999999952
0
LINE
8
BLACK
6
CONTINUOUS
10
18.6873189999999987
20
41.8312169999999952
11
18.6873189999999987
21
41.9142849999999996
0
LINE
8
BLACK
6
CONTINUOUS
10
18.6873189999999987
20
41.9142849999999996
11
18.6887599999999985
21
41.9289169999999984
0
LINE
8
BLACK
6
CONTINUOUS
10
18.6887599999999985
20
41.9289169999999984
11
18.6999589999999998
21
41.9559530000000009
0
LINE
8
BLACK
6
CONTINUOUS
10
18.6999589999999998
20
41.9559530000000009
11
18.7206510000000002
21
41.9766449999999978
0
LINE
8
BLACK
6
CONTINUOUS
10
18.7206510000000002
20
41.9766449999999978
11
18.7476869999999991
21
41.9878439999999955
0
LINE
8
BLACK
6
CONTINUOUS
10
18.7476869999999991
20
41.9878439999999955
11
18.7769510000000004
21
41.9878439999999955
0
LINE
8
BLACK
6
CONTINUOUS
10
18.7769510000000004
20
41.9878439999999955
11
18.8039869999999993
21
41.9766449999999978
0
LINE
8
BLACK
6
CONTINUOUS
10
22.1804609999999975
20
50.6054329999999979
11
22.2129329999999996
21
50.5729609999999994
0
LINE
8
BLACK
6
CONTINUOUS
10
22.2129329999999996
20
50.5729609999999994
11
22.2129329999999996
21
50.5270389999999949
0
LINE
8
BLACK
6
CONTINUOUS
10
22.2129329999999996
20
50.5270389999999949
11
22.1804609999999975
21
50.4945669999999964
0
LINE
8
BLACK
6
CONTINUOUS
10
22.1804609999999975
20
50.4945669999999964
11
22.1574999999999989
21
50.4899999999999949
0
LINE
8
BLACK
6
CONTINUOUS
10
22.1574999999999989
20
50.4899999999999949
11
19.5174999999999983
21
50.4899999999999949
0
LINE
8
BLACK
6
CONTINUOUS
10
19.5174999999999983
20
50.4899999999999949
11
19.5174999999999983
21
48.6499999999999986
0
LINE
8
BLACK
6
CONTINUOUS
10
19.5174999999999983
20
48.6499999999999986
11
19.5129330000000003
21
48.6270389999999963
0
LINE
8
BLACK
6
CONTINUOUS
10
19.5129330000000003
20
48.6270389999999963
11
19.4804609999999983
21
48.5945669999999978
0
LINE
8
BLACK
6
CONTINUOUS
10
19.4804609999999983
20
48.5945669999999978
11
19.4345390000000009
21
48.5945669999999978
0
LINE
8
BLACK
6
CONTINUOUS
10
19.4345390000000009
20
48.5945669999999978
11
19.4020669999999988
21
48.6270389999999963
0
LINE
8
BLACK
6
CONTINUOUS
10
19.4020669999999988
20
48.6270389999999963
11
19.3975000000000009
21
48.6499999999999986
0
LINE
8
BLACK
6
CONTINUOUS
10
19.3975000000000009
20
48.6499999999999986
11
19.3975000000000009
21
50.5499999999999972
0
LINE
8
BLACK
6
CONTINUOUS
10
19.3975000000000009
20
50.5499999999999972
11
19.4020669999999988
21
50.5729609999999994
0
LINE
8
BLACK
6
CONTINUOUS
10
19.4020669999999988
20
50.5729609999999994
11
19.4345390000000009
21
50.6054329999999979
0
LINE
8
BLACK
6
CONTINUOUS
10
19.4345390000000009
20
50.6054329999999979
11
19.4574999999999996
21
50.6099999999999994
0
LINE
8
BLACK
6
CONTINUOUS
10
19.4574999999999996
20
50.6099999999999994
11
22.1574999999999989
21
50.6099999999999994
0
LINE
8
BLACK
6
CONTINUOUS
10
22.1574999999999989
20
50.6099999999999994
11
22.1804609999999975
21
50.6054329999999979
0
LINE
8
BLACK
6
CONTINUOUS
10
28.8804610000000004
20
50.8054330000000007
11
28.9129329999999989
21
50.7729609999999951
0
LINE
8
BLACK
6
CONTINUOUS
10
28.9129329999999989
20
50.7729609999999951
11
28.9175000000000004
21
50.75
0
LINE
8
BLACK
6
CONTINUOUS
10
28.9175000000000004
20
50.75
11
28.9175000000000004
21
49.6999999999999957
0
LINE
8
BLACK
6
CONTINUOUS
10
28.9175000000000004
20
49.6999999999999957
11
28.9129329999999989
21
49.6770390000000006
0
LINE
8
BLACK
6
CONTINUOUS
10
28.9129329999999989
20
49.6770390000000006
11
28.8804610000000004
21
49.644566999999995
0
LINE
8
BLACK
6
CONTINUOUS
10
28.8804610000000004
20
49.644566999999995
11
28.8345389999999995
21
49.644566999999995
0
LINE
8
BLACK
6
CONTINUOUS
10
28.8345389999999995
20
49.644566999999995
11
28.8020669999999974
21
49.6770390000000006
0
LINE
8
BLACK
6
CONTINUOUS
10
28.8020669999999974
20
49.6770390000000006
11
28.7974999999999994
21
49.6999999999999957
0
LINE
8
BLACK
6
CONTINUOUS
10
28.7974999999999994
20
49.6999999999999957
11
28.7974999999999994
21
50.6899999999999977
0
LINE
8
BLACK
6
CONTINUOUS
10
28.7974999999999994
20
50.6899999999999977
11
27.8074999999999974
21
50.6899999999999977
0
LINE
8
BLACK
6
CONTINUOUS
10
27.8074999999999974
20
50.6899999999999977
11
27.7845389999999988
21
50.6945669999999993
0
LINE
8
BLACK
6
CONTINUOUS
10
27.7845389999999988
20
50.6945669999999993
11
27.7520670000000003
21
50.7270389999999978
0
LINE
8
BLACK
6
CONTINUOUS
10
27.7520670000000003
20
50.7270389999999978
11
27.7520670000000003
21
50.7729609999999951
0
LINE
8
BLACK
6
CONTINUOUS
10
27.7520670000000003
20
50.7729609999999951
11
27.7845389999999988
21
50.8054330000000007
0
LINE
8
BLACK
6
CONTINUOUS
10
27.7845389999999988
20
50.8054330000000007
11
27.8074999999999974
21
50.8099999999999952
0
LINE
8
BLACK
6
CONTINUOUS
10
27.8074999999999974
20
50.8099999999999952
11
28.8574999999999982
21
50.8099999999999952
0
LINE
8
BLACK
6
CONTINUOUS
10
28.8574999999999982
20
50.8099999999999952
11
28.8804610000000004
21
50.8054330000000007
  0
ENDSEC
  0
EOF
