M48
METRIC,TZ
T1C0.300
T2C1.000
%
G90
G05
T1
X22500Y20000
X25000Y17500
X27500Y35000
X40000Y5000
X45000Y50000
X50000Y50000
X55000Y50000
X60000Y50000
X62500Y35000
X65000Y37500
X65000Y35000
X65000Y32500
X67500Y35000
X85000Y45000
X85000Y40000
X85000Y35000
X85000Y30000
T2
X59970Y25650
X62510Y25650
X65050Y25650
X67590Y25650
T2
G00X19358Y45650
M15
G01X19358Y47650
M16
G05
G00X23058Y49650
M15
G01X25058Y49650
M16
G05
G00X23058Y43650
M15
G01X25058Y43650
M16
G05
M30
