  0
SECTION
  2
HEADER
  9
$ANGBASE
  50
0.0
  9
$ANGDIR
  70
1
  9
$MEASUREMENT
  70
1
  0
ENDSEC
  0
SECTION
  2
TABLES
  0
TABLE
  2
LTYPE
  70
4
  0
LTYPE
  5
40F
  2
CONTINUOUS
  70
0
  3
Solid line
  72
65
  73
0
  40
0.0
  0
LTYPE
  5
410
  2
DASHDOT
 70
0
  3
Dash Dot ____ _ ____ _
 72
65
 73
4
 40
2.0
 49
1.25
 49
-0.25
 49
0.25
 49
-0.25
  0
LTYPE
  5
411
  2
DASHED
 70
0
  3
Dashed __ __ __ __ __
 72
65
 73
2
 40
0.75
 49
0.5
 49
-0.25
  0
LTYPE
  5
43B
  2
DOTTED
 70
0
  3
Dotted .  .  .  .
 72
65
 73
2
 40
0.2
 49
0.0
 49
-0.2
  0
ENDTAB
  0
TABLE
  2
STYLE
  70
4
  0
STYLE
  2
KICAD
  70
0
  40
0
  41
1
  42
1
  50
0
  71
0
  3
isocp.shx
  0
STYLE
  2
KICADB
  70
0
  40
0
  41
1
  42
1
  50
0
  71
0
  3
isocp.shx
  0
STYLE
  2
KICADI
  70
0
  40
0
  41
1
  42
1
  50
15
  71
0
  3
isocp.shx
  0
STYLE
  2
KICADBI
  70
0
  40
0
  41
1
  42
1
  50
15
  71
0
  3
isocp.shx
  0
ENDTAB
  0
TABLE
  2
LAYER
  70
1
  0
LAYER
  2
BLACK
  70
0
  62
7
  6
CONTINUOUS
  0
ENDTAB
  0
ENDSEC
  0
SECTION
  2
ENTITIES
0
LINE
8
BLACK
6
CONTINUOUS
10
60.8200009999999978
20
24.7999999999999972
11
59.1200009999999949
21
24.7999999999999972
0
LINE
8
BLACK
6
CONTINUOUS
10
59.1200009999999949
20
24.7999999999999972
11
59.1200009999999949
21
26.5
0
LINE
8
BLACK
6
CONTINUOUS
10
59.1200009999999949
20
26.5
11
60.8200009999999978
21
26.5
0
LINE
8
BLACK
6
CONTINUOUS
10
60.8200009999999978
20
26.5
11
60.8200009999999978
21
24.7999999999999972
0
LINE
8
BLACK
6
CONTINUOUS
10
62.7567430000000002
20
26.463398999999999
11
62.9106880000000004
21
26.3996329999999979
0
LINE
8
BLACK
6
CONTINUOUS
10
62.9106880000000004
20
26.3996329999999979
11
63.0492349999999959
21
26.3070589999999989
0
LINE
8
BLACK
6
CONTINUOUS
10
63.0492349999999959
20
26.3070589999999989
11
63.1670599999999993
21
26.189233999999999
0
LINE
8
BLACK
6
CONTINUOUS
10
63.1670599999999993
20
26.189233999999999
11
63.2596339999999984
21
26.0506869999999999
0
LINE
8
BLACK
6
CONTINUOUS
10
63.2596339999999984
20
26.0506869999999999
11
63.3233999999999995
21
25.8967419999999997
0
LINE
8
BLACK
6
CONTINUOUS
10
63.3233999999999995
20
25.8967419999999997
11
63.3559079999999994
21
25.7333149999999975
0
LINE
8
BLACK
6
CONTINUOUS
10
63.3559079999999994
20
25.7333149999999975
11
63.3559079999999994
21
25.5666849999999997
0
LINE
8
BLACK
6
CONTINUOUS
10
63.3559079999999994
20
25.5666849999999997
11
63.3233999999999995
21
25.4032579999999975
0
LINE
8
BLACK
6
CONTINUOUS
10
63.3233999999999995
20
25.4032579999999975
11
63.2596339999999984
21
25.2493129999999972
0
LINE
8
BLACK
6
CONTINUOUS
10
63.2596339999999984
20
25.2493129999999972
11
63.1670599999999993
21
25.1107659999999981
0
LINE
8
BLACK
6
CONTINUOUS
10
63.1670599999999993
20
25.1107659999999981
11
63.0492349999999959
21
24.9929409999999983
0
LINE
8
BLACK
6
CONTINUOUS
10
63.0492349999999959
20
24.9929409999999983
11
62.9106880000000004
21
24.9003669999999993
0
LINE
8
BLACK
6
CONTINUOUS
10
62.9106880000000004
20
24.9003669999999993
11
62.7567430000000002
21
24.8366009999999982
0
LINE
8
BLACK
6
CONTINUOUS
10
62.7567430000000002
20
24.8366009999999982
11
62.5933159999999944
21
24.8040929999999982
0
LINE
8
BLACK
6
CONTINUOUS
10
62.5933159999999944
20
24.8040929999999982
11
62.4266859999999966
21
24.8040929999999982
0
LINE
8
BLACK
6
CONTINUOUS
10
62.4266859999999966
20
24.8040929999999982
11
62.2632589999999979
21
24.8366009999999982
0
LINE
8
BLACK
6
CONTINUOUS
10
62.2632589999999979
20
24.8366009999999982
11
62.1093139999999977
21
24.9003669999999993
0
LINE
8
BLACK
6
CONTINUOUS
10
62.1093139999999977
20
24.9003669999999993
11
61.9707669999999951
21
24.9929409999999983
0
LINE
8
BLACK
6
CONTINUOUS
10
61.9707669999999951
20
24.9929409999999983
11
61.8529419999999988
21
25.1107659999999981
0
LINE
8
BLACK
6
CONTINUOUS
10
61.8529419999999988
20
25.1107659999999981
11
61.7603679999999997
21
25.2493129999999972
0
LINE
8
BLACK
6
CONTINUOUS
10
61.7603679999999997
20
25.2493129999999972
11
61.6966019999999986
21
25.4032579999999975
0
LINE
8
BLACK
6
CONTINUOUS
10
61.6966019999999986
20
25.4032579999999975
11
61.6640939999999986
21
25.5666849999999997
0
LINE
8
BLACK
6
CONTINUOUS
10
61.6640939999999986
20
25.5666849999999997
11
61.6640939999999986
21
25.7333149999999975
0
LINE
8
BLACK
6
CONTINUOUS
10
61.6640939999999986
20
25.7333149999999975
11
61.6966019999999986
21
25.8967419999999997
0
LINE
8
BLACK
6
CONTINUOUS
10
61.6966019999999986
20
25.8967419999999997
11
61.7603679999999997
21
26.0506869999999999
0
LINE
8
BLACK
6
CONTINUOUS
10
61.7603679999999997
20
26.0506869999999999
11
61.8529419999999988
21
26.189233999999999
0
LINE
8
BLACK
6
CONTINUOUS
10
61.8529419999999988
20
26.189233999999999
11
61.9707669999999951
21
26.3070589999999989
0
LINE
8
BLACK
6
CONTINUOUS
10
61.9707669999999951
20
26.3070589999999989
11
62.1093139999999977
21
26.3996329999999979
0
LINE
8
BLACK
6
CONTINUOUS
10
62.1093139999999977
20
26.3996329999999979
11
62.2632589999999979
21
26.463398999999999
0
LINE
8
BLACK
6
CONTINUOUS
10
62.2632589999999979
20
26.463398999999999
11
62.4266859999999966
21
26.495906999999999
0
LINE
8
BLACK
6
CONTINUOUS
10
62.4266859999999966
20
26.495906999999999
11
62.5933159999999944
21
26.495906999999999
0
LINE
8
BLACK
6
CONTINUOUS
10
62.5933159999999944
20
26.495906999999999
11
62.7567430000000002
21
26.463398999999999
0
LINE
8
BLACK
6
CONTINUOUS
10
65.2967419999999947
20
26.463398999999999
11
65.4506870000000021
21
26.3996329999999979
0
LINE
8
BLACK
6
CONTINUOUS
10
65.4506870000000021
20
26.3996329999999979
11
65.5892339999999905
21
26.3070589999999989
0
LINE
8
BLACK
6
CONTINUOUS
10
65.5892339999999905
20
26.3070589999999989
11
65.707059000000001
21
26.189233999999999
0
LINE
8
BLACK
6
CONTINUOUS
10
65.707059000000001
20
26.189233999999999
11
65.799633
21
26.0506869999999999
0
LINE
8
BLACK
6
CONTINUOUS
10
65.799633
20
26.0506869999999999
11
65.8633990000000011
21
25.8967419999999997
0
LINE
8
BLACK
6
CONTINUOUS
10
65.8633990000000011
20
25.8967419999999997
11
65.895906999999994
21
25.7333149999999975
0
LINE
8
BLACK
6
CONTINUOUS
10
65.895906999999994
20
25.7333149999999975
11
65.895906999999994
21
25.5666849999999997
0
LINE
8
BLACK
6
CONTINUOUS
10
65.895906999999994
20
25.5666849999999997
11
65.8633990000000011
21
25.4032579999999975
0
LINE
8
BLACK
6
CONTINUOUS
10
65.8633990000000011
20
25.4032579999999975
11
65.799633
21
25.2493129999999972
0
LINE
8
BLACK
6
CONTINUOUS
10
65.799633
20
25.2493129999999972
11
65.707059000000001
21
25.1107659999999981
0
LINE
8
BLACK
6
CONTINUOUS
10
65.707059000000001
20
25.1107659999999981
11
65.5892339999999905
21
24.9929409999999983
0
LINE
8
BLACK
6
CONTINUOUS
10
65.5892339999999905
20
24.9929409999999983
11
65.4506870000000021
21
24.9003669999999993
0
LINE
8
BLACK
6
CONTINUOUS
10
65.4506870000000021
20
24.9003669999999993
11
65.2967419999999947
21
24.8366009999999982
0
LINE
8
BLACK
6
CONTINUOUS
10
65.2967419999999947
20
24.8366009999999982
11
65.1333149999999961
21
24.8040929999999982
0
LINE
8
BLACK
6
CONTINUOUS
10
65.1333149999999961
20
24.8040929999999982
11
64.9666849999999982
21
24.8040929999999982
0
LINE
8
BLACK
6
CONTINUOUS
10
64.9666849999999982
20
24.8040929999999982
11
64.8032579999999996
21
24.8366009999999982
0
LINE
8
BLACK
6
CONTINUOUS
10
64.8032579999999996
20
24.8366009999999982
11
64.6493129999999923
21
24.9003669999999993
0
LINE
8
BLACK
6
CONTINUOUS
10
64.6493129999999923
20
24.9003669999999993
11
64.5107660000000038
21
24.9929409999999983
0
LINE
8
BLACK
6
CONTINUOUS
10
64.5107660000000038
20
24.9929409999999983
11
64.3929409999999933
21
25.1107659999999981
0
LINE
8
BLACK
6
CONTINUOUS
10
64.3929409999999933
20
25.1107659999999981
11
64.3003669999999943
21
25.2493129999999972
0
LINE
8
BLACK
6
CONTINUOUS
10
64.3003669999999943
20
25.2493129999999972
11
64.2366009999999932
21
25.4032579999999975
0
LINE
8
BLACK
6
CONTINUOUS
10
64.2366009999999932
20
25.4032579999999975
11
64.2040930000000003
21
25.5666849999999997
0
LINE
8
BLACK
6
CONTINUOUS
10
64.2040930000000003
20
25.5666849999999997
11
64.2040930000000003
21
25.7333149999999975
0
LINE
8
BLACK
6
CONTINUOUS
10
64.2040930000000003
20
25.7333149999999975
11
64.2366009999999932
21
25.8967419999999997
0
LINE
8
BLACK
6
CONTINUOUS
10
64.2366009999999932
20
25.8967419999999997
11
64.3003669999999943
21
26.0506869999999999
0
LINE
8
BLACK
6
CONTINUOUS
10
64.3003669999999943
20
26.0506869999999999
11
64.3929409999999933
21
26.189233999999999
0
LINE
8
BLACK
6
CONTINUOUS
10
64.3929409999999933
20
26.189233999999999
11
64.5107660000000038
21
26.3070589999999989
0
LINE
8
BLACK
6
CONTINUOUS
10
64.5107660000000038
20
26.3070589999999989
11
64.6493129999999923
21
26.3996329999999979
0
LINE
8
BLACK
6
CONTINUOUS
10
64.6493129999999923
20
26.3996329999999979
11
64.8032579999999996
21
26.463398999999999
0
LINE
8
BLACK
6
CONTINUOUS
10
64.8032579999999996
20
26.463398999999999
11
64.9666849999999982
21
26.495906999999999
0
LINE
8
BLACK
6
CONTINUOUS
10
64.9666849999999982
20
26.495906999999999
11
65.1333149999999961
21
26.495906999999999
0
LINE
8
BLACK
6
CONTINUOUS
10
65.1333149999999961
20
26.495906999999999
11
65.2967419999999947
21
26.463398999999999
0
LINE
8
BLACK
6
CONTINUOUS
10
67.8367429999999985
20
26.463398999999999
11
67.9906879999999916
21
26.3996329999999979
0
LINE
8
BLACK
6
CONTINUOUS
10
67.9906879999999916
20
26.3996329999999979
11
68.1292349999999942
21
26.3070589999999989
0
LINE
8
BLACK
6
CONTINUOUS
10
68.1292349999999942
20
26.3070589999999989
11
68.2470599999999905
21
26.189233999999999
0
LINE
8
BLACK
6
CONTINUOUS
10
68.2470599999999905
20
26.189233999999999
11
68.3396340000000038
21
26.0506869999999999
0
LINE
8
BLACK
6
CONTINUOUS
10
68.3396340000000038
20
26.0506869999999999
11
68.4033999999999907
21
25.8967419999999997
0
LINE
8
BLACK
6
CONTINUOUS
10
68.4033999999999907
20
25.8967419999999997
11
68.4359079999999977
21
25.7333149999999975
0
LINE
8
BLACK
6
CONTINUOUS
10
68.4359079999999977
20
25.7333149999999975
11
68.4359079999999977
21
25.5666849999999997
0
LINE
8
BLACK
6
CONTINUOUS
10
68.4359079999999977
20
25.5666849999999997
11
68.4033999999999907
21
25.4032579999999975
0
LINE
8
BLACK
6
CONTINUOUS
10
68.4033999999999907
20
25.4032579999999975
11
68.3396340000000038
21
25.2493129999999972
0
LINE
8
BLACK
6
CONTINUOUS
10
68.3396340000000038
20
25.2493129999999972
11
68.2470599999999905
21
25.1107659999999981
0
LINE
8
BLACK
6
CONTINUOUS
10
68.2470599999999905
20
25.1107659999999981
11
68.1292349999999942
21
24.9929409999999983
0
LINE
8
BLACK
6
CONTINUOUS
10
68.1292349999999942
20
24.9929409999999983
11
67.9906879999999916
21
24.9003669999999993
0
LINE
8
BLACK
6
CONTINUOUS
10
67.9906879999999916
20
24.9003669999999993
11
67.8367429999999985
21
24.8366009999999982
0
LINE
8
BLACK
6
CONTINUOUS
10
67.8367429999999985
20
24.8366009999999982
11
67.6733159999999998
21
24.8040929999999982
0
LINE
8
BLACK
6
CONTINUOUS
10
67.6733159999999998
20
24.8040929999999982
11
67.506686000000002
21
24.8040929999999982
0
LINE
8
BLACK
6
CONTINUOUS
10
67.506686000000002
20
24.8040929999999982
11
67.3432590000000033
21
24.8366009999999982
0
LINE
8
BLACK
6
CONTINUOUS
10
67.3432590000000033
20
24.8366009999999982
11
67.189313999999996
21
24.9003669999999993
0
LINE
8
BLACK
6
CONTINUOUS
10
67.189313999999996
20
24.9003669999999993
11
67.0507669999999933
21
24.9929409999999983
0
LINE
8
BLACK
6
CONTINUOUS
10
67.0507669999999933
20
24.9929409999999983
11
66.9329419999999971
21
25.1107659999999981
0
LINE
8
BLACK
6
CONTINUOUS
10
66.9329419999999971
20
25.1107659999999981
11
66.840367999999998
21
25.2493129999999972
0
LINE
8
BLACK
6
CONTINUOUS
10
66.840367999999998
20
25.2493129999999972
11
66.7766019999999969
21
25.4032579999999975
0
LINE
8
BLACK
6
CONTINUOUS
10
66.7766019999999969
20
25.4032579999999975
11
66.744094000000004
21
25.5666849999999997
0
LINE
8
BLACK
6
CONTINUOUS
10
66.744094000000004
20
25.5666849999999997
11
66.744094000000004
21
25.7333149999999975
0
LINE
8
BLACK
6
CONTINUOUS
10
66.744094000000004
20
25.7333149999999975
11
66.7766019999999969
21
25.8967419999999997
0
LINE
8
BLACK
6
CONTINUOUS
10
66.7766019999999969
20
25.8967419999999997
11
66.840367999999998
21
26.0506869999999999
0
LINE
8
BLACK
6
CONTINUOUS
10
66.840367999999998
20
26.0506869999999999
11
66.9329419999999971
21
26.189233999999999
0
LINE
8
BLACK
6
CONTINUOUS
10
66.9329419999999971
20
26.189233999999999
11
67.0507669999999933
21
26.3070589999999989
0
LINE
8
BLACK
6
CONTINUOUS
10
67.0507669999999933
20
26.3070589999999989
11
67.189313999999996
21
26.3996329999999979
0
LINE
8
BLACK
6
CONTINUOUS
10
67.189313999999996
20
26.3996329999999979
11
67.3432590000000033
21
26.463398999999999
0
LINE
8
BLACK
6
CONTINUOUS
10
67.3432590000000033
20
26.463398999999999
11
67.506686000000002
21
26.495906999999999
0
LINE
8
BLACK
6
CONTINUOUS
10
67.506686000000002
20
26.495906999999999
11
67.6733159999999998
21
26.495906999999999
0
LINE
8
BLACK
6
CONTINUOUS
10
67.6733159999999998
20
26.495906999999999
11
67.8367429999999985
21
26.463398999999999
0
LINE
8
BLACK
6
CONTINUOUS
10
25.2091630000000002
20
45.1345049999999972
11
25.3744639999999997
21
45.0797309999999953
0
LINE
8
BLACK
6
CONTINUOUS
10
25.3744639999999997
20
45.0797309999999953
11
25.5226769999999981
21
44.9883120000000005
0
LINE
8
BLACK
6
CONTINUOUS
10
25.5226769999999981
20
44.9883120000000005
11
25.6458119999999994
21
44.8651769999999956
0
LINE
8
BLACK
6
CONTINUOUS
10
25.6458119999999994
20
44.8651769999999956
11
25.7372309999999977
21
44.7169639999999973
0
LINE
8
BLACK
6
CONTINUOUS
10
25.7372309999999977
20
44.7169639999999973
11
25.7920049999999996
21
44.5516629999999978
0
LINE
8
BLACK
6
CONTINUOUS
10
25.7920049999999996
20
44.5516629999999978
11
25.8074999999999974
21
44.3999999999999986
0
LINE
8
BLACK
6
CONTINUOUS
10
25.8074999999999974
20
44.3999999999999986
11
25.8074999999999974
21
42.8999999999999986
0
LINE
8
BLACK
6
CONTINUOUS
10
25.8074999999999974
20
42.8999999999999986
11
25.7920049999999996
21
42.7483369999999994
0
LINE
8
BLACK
6
CONTINUOUS
10
25.7920049999999996
20
42.7483369999999994
11
25.7372309999999977
21
42.5830359999999999
0
LINE
8
BLACK
6
CONTINUOUS
10
25.7372309999999977
20
42.5830359999999999
11
25.6458119999999994
21
42.4348230000000015
0
LINE
8
BLACK
6
CONTINUOUS
10
25.6458119999999994
20
42.4348230000000015
11
25.5226769999999981
21
42.3116879999999966
0
LINE
8
BLACK
6
CONTINUOUS
10
25.5226769999999981
20
42.3116879999999966
11
25.3744639999999997
21
42.2202689999999947
0
LINE
8
BLACK
6
CONTINUOUS
10
25.3744639999999997
20
42.2202689999999947
11
25.2091630000000002
21
42.1654949999999999
0
LINE
8
BLACK
6
CONTINUOUS
10
25.2091630000000002
20
42.1654949999999999
11
25.0574999999999974
21
42.1499999999999986
0
LINE
8
BLACK
6
CONTINUOUS
10
25.0574999999999974
20
42.1499999999999986
11
23.0574999999999974
21
42.1499999999999986
0
LINE
8
BLACK
6
CONTINUOUS
10
23.0574999999999974
20
42.1499999999999986
11
22.9058369999999982
21
42.1654949999999999
0
LINE
8
BLACK
6
CONTINUOUS
10
22.9058369999999982
20
42.1654949999999999
11
22.7405359999999988
21
42.2202689999999947
0
LINE
8
BLACK
6
CONTINUOUS
10
22.7405359999999988
20
42.2202689999999947
11
22.5923230000000004
21
42.3116879999999966
0
LINE
8
BLACK
6
CONTINUOUS
10
22.5923230000000004
20
42.3116879999999966
11
22.4691879999999991
21
42.4348230000000015
0
LINE
8
BLACK
6
CONTINUOUS
10
22.4691879999999991
20
42.4348230000000015
11
22.3777690000000007
21
42.5830359999999999
0
LINE
8
BLACK
6
CONTINUOUS
10
22.3777690000000007
20
42.5830359999999999
11
22.3229949999999988
21
42.7483369999999994
0
LINE
8
BLACK
6
CONTINUOUS
10
22.3229949999999988
20
42.7483369999999994
11
22.3074999999999974
21
42.8999999999999986
0
LINE
8
BLACK
6
CONTINUOUS
10
22.3074999999999974
20
42.8999999999999986
11
22.3074999999999974
21
44.3999999999999986
0
LINE
8
BLACK
6
CONTINUOUS
10
22.3074999999999974
20
44.3999999999999986
11
22.3229949999999988
21
44.5516629999999978
0
LINE
8
BLACK
6
CONTINUOUS
10
22.3229949999999988
20
44.5516629999999978
11
22.3777690000000007
21
44.7169639999999973
0
LINE
8
BLACK
6
CONTINUOUS
10
22.3777690000000007
20
44.7169639999999973
11
22.4691879999999991
21
44.8651769999999956
0
LINE
8
BLACK
6
CONTINUOUS
10
22.4691879999999991
20
44.8651769999999956
11
22.5923230000000004
21
44.9883120000000005
0
LINE
8
BLACK
6
CONTINUOUS
10
22.5923230000000004
20
44.9883120000000005
11
22.7405359999999988
21
45.0797309999999953
0
LINE
8
BLACK
6
CONTINUOUS
10
22.7405359999999988
20
45.0797309999999953
11
22.9058369999999982
21
45.1345049999999972
0
LINE
8
BLACK
6
CONTINUOUS
10
22.9058369999999982
20
45.1345049999999972
11
23.0574999999999974
21
45.1499999999999986
0
LINE
8
BLACK
6
CONTINUOUS
10
23.0574999999999974
20
45.1499999999999986
11
25.0574999999999974
21
45.1499999999999986
0
LINE
8
BLACK
6
CONTINUOUS
10
25.0574999999999974
20
45.1499999999999986
11
25.2091630000000002
21
45.1345049999999972
0
LINE
8
BLACK
6
CONTINUOUS
10
20.3506250000000009
20
48.3919899999999998
11
20.534240999999998
21
48.3463269999999952
0
LINE
8
BLACK
6
CONTINUOUS
10
20.534240999999998
20
48.3463269999999952
11
20.7037469999999999
21
48.2622590000000002
0
LINE
8
BLACK
6
CONTINUOUS
10
20.7037469999999999
20
48.2622590000000002
11
20.8512179999999994
21
48.1437179999999998
0
LINE
8
BLACK
6
CONTINUOUS
10
20.8512179999999994
20
48.1437179999999998
11
20.9697589999999998
21
47.9962469999999968
0
LINE
8
BLACK
6
CONTINUOUS
10
20.9697589999999998
20
47.9962469999999968
11
21.0538269999999983
21
47.8267409999999984
0
LINE
8
BLACK
6
CONTINUOUS
10
21.0538269999999983
20
47.8267409999999984
11
21.0994899999999994
21
47.6431249999999977
0
LINE
8
BLACK
6
CONTINUOUS
10
21.0994899999999994
20
47.6431249999999977
11
21.1074999999999982
21
47.5249999999999986
0
LINE
8
BLACK
6
CONTINUOUS
10
21.1074999999999982
20
47.5249999999999986
11
21.1074999999999982
21
45.7749999999999986
0
LINE
8
BLACK
6
CONTINUOUS
10
21.1074999999999982
20
45.7749999999999986
11
21.0994899999999994
21
45.6568749999999994
0
LINE
8
BLACK
6
CONTINUOUS
10
21.0994899999999994
20
45.6568749999999994
11
21.0538269999999983
21
45.4732589999999988
0
LINE
8
BLACK
6
CONTINUOUS
10
21.0538269999999983
20
45.4732589999999988
11
20.9697589999999998
21
45.3037530000000004
0
LINE
8
BLACK
6
CONTINUOUS
10
20.9697589999999998
20
45.3037530000000004
11
20.8512179999999994
21
45.1562819999999974
0
LINE
8
BLACK
6
CONTINUOUS
10
20.8512179999999994
20
45.1562819999999974
11
20.7037469999999999
21
45.0377409999999969
0
LINE
8
BLACK
6
CONTINUOUS
10
20.7037469999999999
20
45.0377409999999969
11
20.534240999999998
21
44.9536729999999949
0
LINE
8
BLACK
6
CONTINUOUS
10
20.534240999999998
20
44.9536729999999949
11
20.3506250000000009
21
44.9080099999999973
0
LINE
8
BLACK
6
CONTINUOUS
10
20.3506250000000009
20
44.9080099999999973
11
20.2324999999999982
21
44.8999999999999986
0
LINE
8
BLACK
6
CONTINUOUS
10
20.2324999999999982
20
44.8999999999999986
11
18.4824999999999982
21
44.8999999999999986
0
LINE
8
BLACK
6
CONTINUOUS
10
18.4824999999999982
20
44.8999999999999986
11
18.364374999999999
21
44.9080099999999973
0
LINE
8
BLACK
6
CONTINUOUS
10
18.364374999999999
20
44.9080099999999973
11
18.1807589999999983
21
44.9536729999999949
0
LINE
8
BLACK
6
CONTINUOUS
10
18.1807589999999983
20
44.9536729999999949
11
18.011253
21
45.0377409999999969
0
LINE
8
BLACK
6
CONTINUOUS
10
18.011253
20
45.0377409999999969
11
17.8637820000000005
21
45.1562819999999974
0
LINE
8
BLACK
6
CONTINUOUS
10
17.8637820000000005
20
45.1562819999999974
11
17.745241
21
45.3037530000000004
0
LINE
8
BLACK
6
CONTINUOUS
10
17.745241
20
45.3037530000000004
11
17.661172999999998
21
45.4732589999999988
0
LINE
8
BLACK
6
CONTINUOUS
10
17.661172999999998
20
45.4732589999999988
11
17.6155100000000004
21
45.6568749999999994
0
LINE
8
BLACK
6
CONTINUOUS
10
17.6155100000000004
20
45.6568749999999994
11
17.6074999999999982
21
45.7749999999999986
0
LINE
8
BLACK
6
CONTINUOUS
10
17.6074999999999982
20
45.7749999999999986
11
17.6074999999999982
21
47.5249999999999986
0
LINE
8
BLACK
6
CONTINUOUS
10
17.6074999999999982
20
47.5249999999999986
11
17.6155100000000004
21
47.6431249999999977
0
LINE
8
BLACK
6
CONTINUOUS
10
17.6155100000000004
20
47.6431249999999977
11
17.661172999999998
21
47.8267409999999984
0
LINE
8
BLACK
6
CONTINUOUS
10
17.661172999999998
20
47.8267409999999984
11
17.745241
21
47.9962469999999968
0
LINE
8
BLACK
6
CONTINUOUS
10
17.745241
20
47.9962469999999968
11
17.8637820000000005
21
48.1437179999999998
0
LINE
8
BLACK
6
CONTINUOUS
10
17.8637820000000005
20
48.1437179999999998
11
18.011253
21
48.2622590000000002
0
LINE
8
BLACK
6
CONTINUOUS
10
18.011253
20
48.2622590000000002
11
18.1807589999999983
21
48.3463269999999952
0
LINE
8
BLACK
6
CONTINUOUS
10
18.1807589999999983
20
48.3463269999999952
11
18.364374999999999
21
48.3919899999999998
0
LINE
8
BLACK
6
CONTINUOUS
10
18.364374999999999
20
48.3919899999999998
11
18.4824999999999982
21
48.3999999999999986
0
LINE
8
BLACK
6
CONTINUOUS
10
18.4824999999999982
20
48.3999999999999986
11
20.2324999999999982
21
48.3999999999999986
0
LINE
8
BLACK
6
CONTINUOUS
10
20.2324999999999982
20
48.3999999999999986
11
20.3506250000000009
21
48.3919899999999998
0
LINE
8
BLACK
6
CONTINUOUS
10
25.8074999999999974
20
47.8999999999999986
11
22.3074999999999974
21
47.8999999999999986
0
LINE
8
BLACK
6
CONTINUOUS
10
22.3074999999999974
20
47.8999999999999986
11
22.3074999999999974
21
51.3999999999999986
0
LINE
8
BLACK
6
CONTINUOUS
10
22.3074999999999974
20
51.3999999999999986
11
25.8074999999999974
21
51.3999999999999986
0
LINE
8
BLACK
6
CONTINUOUS
10
25.8074999999999974
20
51.3999999999999986
11
25.8074999999999974
21
47.8999999999999986
  0
ENDSEC
  0
EOF
