  0
SECTION
  2
HEADER
  9
$ANGBASE
  50
0.0
  9
$ANGDIR
  70
1
  9
$MEASUREMENT
  70
1
  0
ENDSEC
  0
SECTION
  2
TABLES
  0
TABLE
  2
LTYPE
  70
4
  0
LTYPE
  5
40F
  2
CONTINUOUS
  70
0
  3
Solid line
  72
65
  73
0
  40
0.0
  0
LTYPE
  5
410
  2
DASHDOT
 70
0
  3
Dash Dot ____ _ ____ _
 72
65
 73
4
 40
2.0
 49
1.25
 49
-0.25
 49
0.25
 49
-0.25
  0
LTYPE
  5
411
  2
DASHED
 70
0
  3
Dashed __ __ __ __ __
 72
65
 73
2
 40
0.75
 49
0.5
 49
-0.25
  0
LTYPE
  5
43B
  2
DOTTED
 70
0
  3
Dotted .  .  .  .
 72
65
 73
2
 40
0.2
 49
0.0
 49
-0.2
  0
ENDTAB
  0
TABLE
  2
STYLE
  70
4
  0
STYLE
  2
KICAD
  70
0
  40
0
  41
1
  42
1
  50
0
  71
0
  3
isocp.shx
  0
STYLE
  2
KICADB
  70
0
  40
0
  41
1
  42
1
  50
0
  71
0
  3
isocp.shx
  0
STYLE
  2
KICADI
  70
0
  40
0
  41
1
  42
1
  50
15
  71
0
  3
isocp.shx
  0
STYLE
  2
KICADBI
  70
0
  40
0
  41
1
  42
1
  50
15
  71
0
  3
isocp.shx
  0
ENDTAB
  0
TABLE
  2
LAYER
  70
1
  0
LAYER
  2
BLACK
  70
0
  62
7
  6
CONTINUOUS
  0
ENDTAB
  0
ENDSEC
  0
SECTION
  2
ENTITIES
0
LINE
8
BLACK
6
CONTINUOUS
10
10.7516819999999989
20
21.2519969999999994
11
10.9081460000000003
21
21.2065409999999979
0
LINE
8
BLACK
6
CONTINUOUS
10
10.9081460000000003
20
21.2065409999999979
11
11.0483899999999995
21
21.1236010000000007
0
LINE
8
BLACK
6
CONTINUOUS
10
11.0483899999999995
20
21.1236010000000007
11
11.1636009999999999
21
21.0083899999999986
0
LINE
8
BLACK
6
CONTINUOUS
10
11.1636009999999999
20
21.0083899999999986
11
11.2465409999999988
21
20.8681459999999994
0
LINE
8
BLACK
6
CONTINUOUS
10
11.2465409999999988
20
20.8681459999999994
11
11.2919970000000003
21
20.7116819999999997
0
LINE
8
BLACK
6
CONTINUOUS
10
11.2919970000000003
20
20.7116819999999997
11
11.2999999999999989
21
20.6099999999999994
0
LINE
8
BLACK
6
CONTINUOUS
10
11.2999999999999989
20
20.6099999999999994
11
11.2999999999999989
21
19.3099999999999987
0
LINE
8
BLACK
6
CONTINUOUS
10
11.2999999999999989
20
19.3099999999999987
11
11.2919970000000003
21
19.2083179999999984
0
LINE
8
BLACK
6
CONTINUOUS
10
11.2919970000000003
20
19.2083179999999984
11
11.2465409999999988
21
19.0518539999999987
0
LINE
8
BLACK
6
CONTINUOUS
10
11.2465409999999988
20
19.0518539999999987
11
11.1636009999999999
21
18.9116099999999996
0
LINE
8
BLACK
6
CONTINUOUS
10
11.1636009999999999
20
18.9116099999999996
11
11.0483899999999995
21
18.7963989999999974
0
LINE
8
BLACK
6
CONTINUOUS
10
11.0483899999999995
20
18.7963989999999974
11
10.9081460000000003
21
18.7134590000000003
0
LINE
8
BLACK
6
CONTINUOUS
10
10.9081460000000003
20
18.7134590000000003
11
10.7516819999999989
21
18.6680029999999988
0
LINE
8
BLACK
6
CONTINUOUS
10
10.7516819999999989
20
18.6680029999999988
11
10.6500000000000004
21
18.6600000000000001
0
LINE
8
BLACK
6
CONTINUOUS
10
10.6500000000000004
20
18.6600000000000001
11
9.3499999999999996
21
18.6600000000000001
0
LINE
8
BLACK
6
CONTINUOUS
10
9.3499999999999996
20
18.6600000000000001
11
9.2483179999999994
21
18.6680029999999988
0
LINE
8
BLACK
6
CONTINUOUS
10
9.2483179999999994
20
18.6680029999999988
11
9.0918539999999997
21
18.7134590000000003
0
LINE
8
BLACK
6
CONTINUOUS
10
9.0918539999999997
20
18.7134590000000003
11
8.9516099999999987
21
18.7963989999999974
0
LINE
8
BLACK
6
CONTINUOUS
10
8.9516099999999987
20
18.7963989999999974
11
8.8363990000000001
21
18.9116099999999996
0
LINE
8
BLACK
6
CONTINUOUS
10
8.8363990000000001
20
18.9116099999999996
11
8.7534589999999994
21
19.0518539999999987
0
LINE
8
BLACK
6
CONTINUOUS
10
8.7534589999999994
20
19.0518539999999987
11
8.7080029999999997
21
19.2083179999999984
0
LINE
8
BLACK
6
CONTINUOUS
10
8.7080029999999997
20
19.2083179999999984
11
8.6999999999999993
21
19.3099999999999987
0
LINE
8
BLACK
6
CONTINUOUS
10
8.6999999999999993
20
19.3099999999999987
11
8.6999999999999993
21
20.6099999999999994
0
LINE
8
BLACK
6
CONTINUOUS
10
8.6999999999999993
20
20.6099999999999994
11
8.7080029999999997
21
20.7116819999999997
0
LINE
8
BLACK
6
CONTINUOUS
10
8.7080029999999997
20
20.7116819999999997
11
8.7534589999999994
21
20.8681459999999994
0
LINE
8
BLACK
6
CONTINUOUS
10
8.7534589999999994
20
20.8681459999999994
11
8.8363990000000001
21
21.0083899999999986
0
LINE
8
BLACK
6
CONTINUOUS
10
8.8363990000000001
20
21.0083899999999986
11
8.9516099999999987
21
21.1236010000000007
0
LINE
8
BLACK
6
CONTINUOUS
10
8.9516099999999987
20
21.1236010000000007
11
9.0918539999999997
21
21.2065409999999979
0
LINE
8
BLACK
6
CONTINUOUS
10
9.0918539999999997
20
21.2065409999999979
11
9.2483179999999994
21
21.2519969999999994
0
LINE
8
BLACK
6
CONTINUOUS
10
9.2483179999999994
20
21.2519969999999994
11
9.3499999999999996
21
21.259999999999998
0
LINE
8
BLACK
6
CONTINUOUS
10
9.3499999999999996
20
21.259999999999998
11
10.6500000000000004
21
21.259999999999998
0
LINE
8
BLACK
6
CONTINUOUS
10
10.6500000000000004
20
21.259999999999998
11
10.7516819999999989
21
21.2519969999999994
0
LINE
8
BLACK
6
CONTINUOUS
10
10.3034789999999994
20
26.304079999999999
11
10.4974879999999988
21
26.2410420000000002
0
LINE
8
BLACK
6
CONTINUOUS
10
10.4974879999999988
20
26.2410420000000002
11
10.6792479999999994
21
26.1484309999999986
0
LINE
8
BLACK
6
CONTINUOUS
10
10.6792479999999994
20
26.1484309999999986
11
10.8442819999999998
21
26.0285270000000004
0
LINE
8
BLACK
6
CONTINUOUS
10
10.8442819999999998
20
26.0285270000000004
11
10.9885279999999987
21
25.8842809999999979
0
LINE
8
BLACK
6
CONTINUOUS
10
10.9885279999999987
20
25.8842809999999979
11
11.1084319999999988
21
25.7192469999999993
0
LINE
8
BLACK
6
CONTINUOUS
10
11.1084319999999988
20
25.7192469999999993
11
11.2010430000000003
21
25.5374869999999987
0
LINE
8
BLACK
6
CONTINUOUS
10
11.2010430000000003
20
25.5374869999999987
11
11.2640809999999991
21
25.3434779999999975
0
LINE
8
BLACK
6
CONTINUOUS
10
11.2640809999999991
20
25.3434779999999975
11
11.2959929999999993
21
25.1419959999999989
0
LINE
8
BLACK
6
CONTINUOUS
10
11.2959929999999993
20
25.1419959999999989
11
11.2959929999999993
21
24.9380019999999973
0
LINE
8
BLACK
6
CONTINUOUS
10
11.2959929999999993
20
24.9380019999999973
11
11.2640809999999991
21
24.7365199999999987
0
LINE
8
BLACK
6
CONTINUOUS
10
11.2640809999999991
20
24.7365199999999987
11
11.2010430000000003
21
24.5425109999999975
0
LINE
8
BLACK
6
CONTINUOUS
10
11.2010430000000003
20
24.5425109999999975
11
11.1084319999999988
21
24.3607510000000005
0
LINE
8
BLACK
6
CONTINUOUS
10
11.1084319999999988
20
24.3607510000000005
11
10.9885279999999987
21
24.1957169999999984
0
LINE
8
BLACK
6
CONTINUOUS
10
10.9885279999999987
20
24.1957169999999984
11
10.8442819999999998
21
24.0514709999999994
0
LINE
8
BLACK
6
CONTINUOUS
10
10.8442819999999998
20
24.0514709999999994
11
10.6792479999999994
21
23.9315669999999976
0
LINE
8
BLACK
6
CONTINUOUS
10
10.6792479999999994
20
23.9315669999999976
11
10.4974879999999988
21
23.8389559999999996
0
LINE
8
BLACK
6
CONTINUOUS
10
10.4974879999999988
20
23.8389559999999996
11
10.3034789999999994
21
23.7759179999999972
0
LINE
8
BLACK
6
CONTINUOUS
10
10.3034789999999994
20
23.7759179999999972
11
10.101996999999999
21
23.7440059999999988
0
LINE
8
BLACK
6
CONTINUOUS
10
10.101996999999999
20
23.7440059999999988
11
9.8980029999999992
21
23.7440059999999988
0
LINE
8
BLACK
6
CONTINUOUS
10
9.8980029999999992
20
23.7440059999999988
11
9.6965209999999988
21
23.7759179999999972
0
LINE
8
BLACK
6
CONTINUOUS
10
9.6965209999999988
20
23.7759179999999972
11
9.5025119999999994
21
23.8389559999999996
0
LINE
8
BLACK
6
CONTINUOUS
10
9.5025119999999994
20
23.8389559999999996
11
9.3207519999999988
21
23.9315669999999976
0
LINE
8
BLACK
6
CONTINUOUS
10
9.3207519999999988
20
23.9315669999999976
11
9.1557180000000002
21
24.0514709999999994
0
LINE
8
BLACK
6
CONTINUOUS
10
9.1557180000000002
20
24.0514709999999994
11
9.0114719999999995
21
24.1957169999999984
0
LINE
8
BLACK
6
CONTINUOUS
10
9.0114719999999995
20
24.1957169999999984
11
8.8915679999999995
21
24.3607510000000005
0
LINE
8
BLACK
6
CONTINUOUS
10
8.8915679999999995
20
24.3607510000000005
11
8.7989569999999997
21
24.5425109999999975
0
LINE
8
BLACK
6
CONTINUOUS
10
8.7989569999999997
20
24.5425109999999975
11
8.7359189999999991
21
24.7365199999999987
0
LINE
8
BLACK
6
CONTINUOUS
10
8.7359189999999991
20
24.7365199999999987
11
8.7040069999999989
21
24.9380019999999973
0
LINE
8
BLACK
6
CONTINUOUS
10
8.7040069999999989
20
24.9380019999999973
11
8.7040069999999989
21
25.1419959999999989
0
LINE
8
BLACK
6
CONTINUOUS
10
8.7040069999999989
20
25.1419959999999989
11
8.7359189999999991
21
25.3434779999999975
0
LINE
8
BLACK
6
CONTINUOUS
10
8.7359189999999991
20
25.3434779999999975
11
8.7989569999999997
21
25.5374869999999987
0
LINE
8
BLACK
6
CONTINUOUS
10
8.7989569999999997
20
25.5374869999999987
11
8.8915679999999995
21
25.7192469999999993
0
LINE
8
BLACK
6
CONTINUOUS
10
8.8915679999999995
20
25.7192469999999993
11
9.0114719999999995
21
25.8842809999999979
0
LINE
8
BLACK
6
CONTINUOUS
10
9.0114719999999995
20
25.8842809999999979
11
9.1557180000000002
21
26.0285270000000004
0
LINE
8
BLACK
6
CONTINUOUS
10
9.1557180000000002
20
26.0285270000000004
11
9.3207519999999988
21
26.1484309999999986
0
LINE
8
BLACK
6
CONTINUOUS
10
9.3207519999999988
20
26.1484309999999986
11
9.5025119999999994
21
26.2410420000000002
0
LINE
8
BLACK
6
CONTINUOUS
10
9.5025119999999994
20
26.2410420000000002
11
9.6965209999999988
21
26.304079999999999
0
LINE
8
BLACK
6
CONTINUOUS
10
9.6965209999999988
20
26.304079999999999
11
9.8980029999999992
21
26.3359919999999974
0
LINE
8
BLACK
6
CONTINUOUS
10
9.8980029999999992
20
26.3359919999999974
11
10.101996999999999
21
26.3359919999999974
0
LINE
8
BLACK
6
CONTINUOUS
10
10.101996999999999
20
26.3359919999999974
11
10.3034789999999994
21
26.304079999999999
  0
ENDSEC
  0
EOF
