  0
SECTION
  2
HEADER
  9
$ANGBASE
  50
0.0
  9
$ANGDIR
  70
1
  9
$MEASUREMENT
  70
1
  0
ENDSEC
  0
SECTION
  2
TABLES
  0
TABLE
  2
LTYPE
  70
4
  0
LTYPE
  5
40F
  2
CONTINUOUS
  70
0
  3
Solid line
  72
65
  73
0
  40
0.0
  0
LTYPE
  5
410
  2
DASHDOT
 70
0
  3
Dash Dot ____ _ ____ _
 72
65
 73
4
 40
2.0
 49
1.25
 49
-0.25
 49
0.25
 49
-0.25
  0
LTYPE
  5
411
  2
DASHED
 70
0
  3
Dashed __ __ __ __ __
 72
65
 73
2
 40
0.75
 49
0.5
 49
-0.25
  0
LTYPE
  5
43B
  2
DOTTED
 70
0
  3
Dotted .  .  .  .
 72
65
 73
2
 40
0.2
 49
0.0
 49
-0.2
  0
ENDTAB
  0
TABLE
  2
STYLE
  70
4
  0
STYLE
  2
KICAD
  70
0
  40
0
  41
1
  42
1
  50
0
  71
0
  3
isocp.shx
  0
STYLE
  2
KICADB
  70
0
  40
0
  41
1
  42
1
  50
0
  71
0
  3
isocp.shx
  0
STYLE
  2
KICADI
  70
0
  40
0
  41
1
  42
1
  50
15
  71
0
  3
isocp.shx
  0
STYLE
  2
KICADBI
  70
0
  40
0
  41
1
  42
1
  50
15
  71
0
  3
isocp.shx
  0
ENDTAB
  0
TABLE
  2
LAYER
  70
1
  0
LAYER
  2
BLACK
  70
0
  62
7
  6
CONTINUOUS
  0
ENDTAB
  0
ENDSEC
  0
SECTION
  2
ENTITIES
0
LINE
8
BLACK
6
CONTINUOUS
10
43.744766999999996
20
3.3496919999999997
11
43.8418700000000001
21
3.3310939999999998
0
LINE
8
BLACK
6
CONTINUOUS
10
43.8418700000000001
20
3.3310939999999998
11
43.931317
21
3.3008349999999997
0
LINE
8
BLACK
6
CONTINUOUS
10
43.931317
20
3.3008349999999997
11
44.0141390000000001
21
3.2589989999999998
0
LINE
8
BLACK
6
CONTINUOUS
10
44.0141390000000001
20
3.2589989999999998
11
44.1143450000000001
21
3.1861949999999997
0
LINE
8
BLACK
6
CONTINUOUS
10
44.1143450000000001
20
3.1861949999999997
11
44.1986610000000013
21
3.0971439999999997
0
LINE
8
BLACK
6
CONTINUOUS
10
44.1986610000000013
20
3.0971439999999997
11
44.2682129999999958
21
2.9901789999999999
0
LINE
8
BLACK
6
CONTINUOUS
10
44.2682129999999958
20
2.9901789999999999
11
44.3182449999999974
21
2.872458
0
LINE
8
BLACK
6
CONTINUOUS
10
44.3182449999999974
20
2.872458
11
44.3491619999999998
21
2.7409249999999998
0
LINE
8
BLACK
6
CONTINUOUS
10
44.3491619999999998
20
2.7409249999999998
11
44.3598959999999991
21
2.5929489999999999
0
LINE
8
BLACK
6
CONTINUOUS
10
44.3598959999999991
20
2.5929489999999999
11
44.3491029999999995
21
2.4463680000000001
0
LINE
8
BLACK
6
CONTINUOUS
10
44.3491029999999995
20
2.4463680000000001
11
44.3179039999999986
21
2.3150930000000001
0
LINE
8
BLACK
6
CONTINUOUS
10
44.3179039999999986
20
2.3150930000000001
11
44.2672059999999945
21
2.196634
0
LINE
8
BLACK
6
CONTINUOUS
10
44.2672059999999945
20
2.196634
11
44.196829000000001
21
2.08914
0
LINE
8
BLACK
6
CONTINUOUS
10
44.196829000000001
20
2.08914
11
44.1114609999999985
21
1.9997559999999999
0
LINE
8
BLACK
6
CONTINUOUS
10
44.1114609999999985
20
1.9997559999999999
11
44.0099260000000001
21
1.9268069999999999
0
LINE
8
BLACK
6
CONTINUOUS
10
44.0099260000000001
20
1.9268069999999999
11
43.9260499999999965
21
1.8849499999999999
0
LINE
8
BLACK
6
CONTINUOUS
10
43.9260499999999965
20
1.8849499999999999
11
43.8358689999999953
21
1.854722
0
LINE
8
BLACK
6
CONTINUOUS
10
43.8358689999999953
20
1.854722
11
43.7383979999999966
21
1.8361759999999998
0
LINE
8
BLACK
6
CONTINUOUS
10
43.7383979999999966
20
1.8361759999999998
11
43.6324789999999965
21
1.829812
0
LINE
8
BLACK
6
CONTINUOUS
10
43.6324789999999965
20
1.829812
11
43.5276099999999957
21
1.8361889999999998
0
LINE
8
BLACK
6
CONTINUOUS
10
43.5276099999999957
20
1.8361889999999998
11
43.4313969999999969
21
1.8547509999999998
0
LINE
8
BLACK
6
CONTINUOUS
10
43.4313969999999969
20
1.8547509999999998
11
43.3426469999999995
21
1.8849769999999999
0
LINE
8
BLACK
6
CONTINUOUS
10
43.3426469999999995
20
1.8849769999999999
11
43.2603450000000009
21
1.9268069999999999
0
LINE
8
BLACK
6
CONTINUOUS
10
43.2603450000000009
20
1.9268069999999999
11
43.1609139999999982
21
1.9996379999999998
0
LINE
8
BLACK
6
CONTINUOUS
10
43.1609139999999982
20
1.9996379999999998
11
43.0772869999999983
21
2.0889949999999997
0
LINE
8
BLACK
6
CONTINUOUS
10
43.0772869999999983
20
2.0889949999999997
11
43.0083780000000004
21
2.196634
0
LINE
8
BLACK
6
CONTINUOUS
10
43.0083780000000004
20
2.196634
11
42.9588180000000008
21
2.314981
0
LINE
8
BLACK
6
CONTINUOUS
10
42.9588180000000008
20
2.314981
11
42.9282759999999968
21
2.4462679999999999
0
LINE
8
BLACK
6
CONTINUOUS
10
42.9282759999999968
20
2.4462679999999999
11
42.9177029999999959
21
2.5929489999999999
0
LINE
8
BLACK
6
CONTINUOUS
10
42.9177029999999959
20
2.5929489999999999
11
42.9282929999999965
21
2.73956
0
LINE
8
BLACK
6
CONTINUOUS
10
42.9282929999999965
20
2.73956
11
42.9588490000000007
21
2.870431
0
LINE
8
BLACK
6
CONTINUOUS
10
42.9588490000000007
20
2.870431
11
43.0083780000000004
21
2.988073
0
LINE
8
BLACK
6
CONTINUOUS
10
43.0083780000000004
20
2.988073
11
43.077307999999995
21
3.0949939999999998
0
LINE
8
BLACK
6
CONTINUOUS
10
43.077307999999995
20
3.0949939999999998
11
43.1615929999999963
21
3.184434
0
LINE
8
BLACK
6
CONTINUOUS
10
43.1615929999999963
20
3.184434
11
43.2624519999999961
21
3.2579909999999996
0
LINE
8
BLACK
6
CONTINUOUS
10
43.2624519999999961
20
3.2579909999999996
11
43.3458309999999969
21
3.3003130000000001
0
LINE
8
BLACK
6
CONTINUOUS
10
43.3458309999999969
20
3.3003130000000001
11
43.4356420000000014
21
3.3308800000000001
0
LINE
8
BLACK
6
CONTINUOUS
10
43.4356420000000014
20
3.3308800000000001
11
43.5328999999999979
21
3.3496419999999998
0
LINE
8
BLACK
6
CONTINUOUS
10
43.5328999999999979
20
3.3496419999999998
11
43.6387989999999988
21
3.3560859999999999
0
LINE
8
BLACK
6
CONTINUOUS
10
43.6387989999999988
20
3.3560859999999999
11
43.744766999999996
21
3.3496919999999997
0
LINE
8
BLACK
6
CONTINUOUS
10
43.5351579999999956
20
3.1796409999999997
11
43.4429279999999949
21
3.1540789999999999
0
LINE
8
BLACK
6
CONTINUOUS
10
43.4429279999999949
20
3.1540789999999999
11
43.3599959999999953
21
3.1122699999999996
0
LINE
8
BLACK
6
CONTINUOUS
10
43.3599959999999953
20
3.1122699999999996
11
43.2862189999999956
21
3.0555099999999999
0
LINE
8
BLACK
6
CONTINUOUS
10
43.2862189999999956
20
3.0555099999999999
11
43.2234399999999965
21
2.9856959999999999
0
LINE
8
BLACK
6
CONTINUOUS
10
43.2234399999999965
20
2.9856959999999999
11
43.1710439999999949
21
2.9013359999999997
0
LINE
8
BLACK
6
CONTINUOUS
10
43.1710439999999949
20
2.9013359999999997
11
43.1333079999999995
21
2.809161
0
LINE
8
BLACK
6
CONTINUOUS
10
43.1333079999999995
20
2.809161
11
43.1100390000000004
21
2.7069839999999998
0
LINE
8
BLACK
6
CONTINUOUS
10
43.1100390000000004
20
2.7069839999999998
11
43.1019839999999945
21
2.5929489999999999
0
LINE
8
BLACK
6
CONTINUOUS
10
43.1019839999999945
20
2.5929489999999999
11
43.1099669999999975
21
2.477446
0
LINE
8
BLACK
6
CONTINUOUS
10
43.1099669999999975
20
2.477446
11
43.1329209999999961
21
2.374952
0
LINE
8
BLACK
6
CONTINUOUS
10
43.1329209999999961
20
2.374952
11
43.1699449999999985
21
2.2834629999999998
0
LINE
8
BLACK
6
CONTINUOUS
10
43.1699449999999985
20
2.2834629999999998
11
43.221623000000001
21
2.1997589999999998
0
LINE
8
BLACK
6
CONTINUOUS
10
43.221623000000001
20
2.1997589999999998
11
43.2837279999999964
21
2.1302659999999998
0
LINE
8
BLACK
6
CONTINUOUS
10
43.2837279999999964
20
2.1302659999999998
11
43.3568819999999988
21
2.0735359999999998
0
LINE
8
BLACK
6
CONTINUOUS
10
43.3568819999999988
20
2.0735359999999998
11
43.4391439999999989
21
2.0316809999999998
0
LINE
8
BLACK
6
CONTINUOUS
10
43.4391439999999989
20
2.0316809999999998
11
43.5303210000000007
21
2.0061429999999998
0
LINE
8
BLACK
6
CONTINUOUS
10
43.5303210000000007
20
2.0061429999999998
11
43.6324789999999965
21
1.9973319999999999
0
LINE
8
BLACK
6
CONTINUOUS
10
43.6324789999999965
20
1.9973319999999999
11
43.7361659999999972
21
2.0061070000000001
0
LINE
8
BLACK
6
CONTINUOUS
10
43.7361659999999972
20
2.0061070000000001
11
43.8295219999999972
21
2.0316229999999997
0
LINE
8
BLACK
6
CONTINUOUS
10
43.8295219999999972
20
2.0316229999999997
11
43.9144879999999986
21
2.0735359999999998
0
LINE
8
BLACK
6
CONTINUOUS
10
43.9144879999999986
20
2.0735359999999998
11
43.9903410000000008
21
2.1305540000000001
0
LINE
8
BLACK
6
CONTINUOUS
10
43.9903410000000008
20
2.1305540000000001
11
44.0541300000000007
21
2.2001119999999998
0
LINE
8
BLACK
6
CONTINUOUS
10
44.0541300000000007
20
2.2001119999999998
11
44.1066459999999978
21
2.2835540000000001
0
LINE
8
BLACK
6
CONTINUOUS
10
44.1066459999999978
20
2.2835540000000001
11
44.1441820000000007
21
2.375035
0
LINE
8
BLACK
6
CONTINUOUS
10
44.1441820000000007
20
2.375035
11
44.1674369999999996
21
2.4774929999999999
0
LINE
8
BLACK
6
CONTINUOUS
10
44.1674369999999996
20
2.4774929999999999
11
44.1755229999999983
21
2.5929489999999999
0
LINE
8
BLACK
6
CONTINUOUS
10
44.1755229999999983
20
2.5929489999999999
11
44.1674879999999987
21
2.7069929999999998
0
LINE
8
BLACK
6
CONTINUOUS
10
44.1674879999999987
20
2.7069929999999998
11
44.1442789999999974
21
2.8091710000000001
0
LINE
8
BLACK
6
CONTINUOUS
10
44.1442789999999974
20
2.8091710000000001
11
44.1066459999999978
21
2.9013359999999997
0
LINE
8
BLACK
6
CONTINUOUS
10
44.1066459999999978
20
2.9013359999999997
11
44.0541839999999993
21
2.985617
0
LINE
8
BLACK
6
CONTINUOUS
10
44.0541839999999993
20
2.985617
11
43.9910560000000004
21
3.0554389999999998
0
LINE
8
BLACK
6
CONTINUOUS
10
43.9910560000000004
20
3.0554389999999998
11
43.9165950000000009
21
3.1122699999999996
0
LINE
8
BLACK
6
CONTINUOUS
10
43.9165950000000009
20
3.1122699999999996
11
43.8329960000000014
21
3.154191
0
LINE
8
BLACK
6
CONTINUOUS
10
43.8329960000000014
20
3.154191
11
43.7410500000000013
21
3.1797
0
LINE
8
BLACK
6
CONTINUOUS
10
43.7410500000000013
20
3.1797
11
43.6387989999999988
21
3.1884739999999998
0
LINE
8
BLACK
6
CONTINUOUS
10
43.6387989999999988
20
3.1884739999999998
11
43.5351579999999956
21
3.1796409999999997
0
LINE
8
BLACK
6
CONTINUOUS
10
47.6736579999999961
20
3.3496919999999997
11
47.7707599999999957
21
3.3310939999999998
0
LINE
8
BLACK
6
CONTINUOUS
10
47.7707599999999957
20
3.3310939999999998
11
47.8602069999999955
21
3.3008349999999997
0
LINE
8
BLACK
6
CONTINUOUS
10
47.8602069999999955
20
3.3008349999999997
11
47.9430300000000003
21
3.2589989999999998
0
LINE
8
BLACK
6
CONTINUOUS
10
47.9430300000000003
20
3.2589989999999998
11
48.0432360000000003
21
3.1861949999999997
0
LINE
8
BLACK
6
CONTINUOUS
10
48.0432360000000003
20
3.1861949999999997
11
48.1275519999999943
21
3.0971439999999997
0
LINE
8
BLACK
6
CONTINUOUS
10
48.1275519999999943
20
3.0971439999999997
11
48.1971029999999985
21
2.9901789999999999
0
LINE
8
BLACK
6
CONTINUOUS
10
48.1971029999999985
20
2.9901789999999999
11
48.2471359999999976
21
2.872458
0
LINE
8
BLACK
6
CONTINUOUS
10
48.2471359999999976
20
2.872458
11
48.2780529999999999
21
2.7409249999999998
0
LINE
8
BLACK
6
CONTINUOUS
10
48.2780529999999999
20
2.7409249999999998
11
48.2887859999999947
21
2.5929489999999999
0
LINE
8
BLACK
6
CONTINUOUS
10
48.2887859999999947
20
2.5929489999999999
11
48.277992999999995
21
2.4463680000000001
0
LINE
8
BLACK
6
CONTINUOUS
10
48.277992999999995
20
2.4463680000000001
11
48.2467940000000013
21
2.3150930000000001
0
LINE
8
BLACK
6
CONTINUOUS
10
48.2467940000000013
20
2.3150930000000001
11
48.1960959999999972
21
2.196634
0
LINE
8
BLACK
6
CONTINUOUS
10
48.1960959999999972
20
2.196634
11
48.1257200000000012
21
2.08914
0
LINE
8
BLACK
6
CONTINUOUS
10
48.1257200000000012
20
2.08914
11
48.0403510000000011
21
1.9997559999999999
0
LINE
8
BLACK
6
CONTINUOUS
10
48.0403510000000011
20
1.9997559999999999
11
47.9388170000000002
21
1.9268069999999999
0
LINE
8
BLACK
6
CONTINUOUS
10
47.9388170000000002
20
1.9268069999999999
11
47.8549399999999991
21
1.8849499999999999
0
LINE
8
BLACK
6
CONTINUOUS
10
47.8549399999999991
20
1.8849499999999999
11
47.7647599999999954
21
1.854722
0
LINE
8
BLACK
6
CONTINUOUS
10
47.7647599999999954
20
1.854722
11
47.6672879999999992
21
1.8361759999999998
0
LINE
8
BLACK
6
CONTINUOUS
10
47.6672879999999992
20
1.8361759999999998
11
47.5613699999999966
21
1.829812
0
LINE
8
BLACK
6
CONTINUOUS
10
47.5613699999999966
20
1.829812
11
47.4565009999999958
21
1.8361889999999998
0
LINE
8
BLACK
6
CONTINUOUS
10
47.4565009999999958
20
1.8361889999999998
11
47.3602869999999996
21
1.8547509999999998
0
LINE
8
BLACK
6
CONTINUOUS
10
47.3602869999999996
20
1.8547509999999998
11
47.271536999999995
21
1.8849769999999999
0
LINE
8
BLACK
6
CONTINUOUS
10
47.271536999999995
20
1.8849769999999999
11
47.1892349999999965
21
1.9268069999999999
0
LINE
8
BLACK
6
CONTINUOUS
10
47.1892349999999965
20
1.9268069999999999
11
47.0898040000000009
21
1.9996379999999998
0
LINE
8
BLACK
6
CONTINUOUS
10
47.0898040000000009
20
1.9996379999999998
11
47.0061779999999985
21
2.0889949999999997
0
LINE
8
BLACK
6
CONTINUOUS
10
47.0061779999999985
20
2.0889949999999997
11
46.937267999999996
21
2.196634
0
LINE
8
BLACK
6
CONTINUOUS
10
46.937267999999996
20
2.196634
11
46.8877079999999964
21
2.314981
0
LINE
8
BLACK
6
CONTINUOUS
10
46.8877079999999964
20
2.314981
11
46.8571659999999994
21
2.4462679999999999
0
LINE
8
BLACK
6
CONTINUOUS
10
46.8571659999999994
20
2.4462679999999999
11
46.8465929999999986
21
2.5929489999999999
0
LINE
8
BLACK
6
CONTINUOUS
10
46.8465929999999986
20
2.5929489999999999
11
46.8571829999999991
21
2.73956
0
LINE
8
BLACK
6
CONTINUOUS
10
46.8571829999999991
20
2.73956
11
46.8877389999999963
21
2.870431
0
LINE
8
BLACK
6
CONTINUOUS
10
46.8877389999999963
20
2.870431
11
46.937267999999996
21
2.988073
0
LINE
8
BLACK
6
CONTINUOUS
10
46.937267999999996
20
2.988073
11
47.0061979999999977
21
3.0949939999999998
0
LINE
8
BLACK
6
CONTINUOUS
10
47.0061979999999977
20
3.0949939999999998
11
47.0904839999999965
21
3.184434
0
LINE
8
BLACK
6
CONTINUOUS
10
47.0904839999999965
20
3.184434
11
47.1913419999999988
21
3.2579909999999996
0
LINE
8
BLACK
6
CONTINUOUS
10
47.1913419999999988
20
3.2579909999999996
11
47.2747209999999995
21
3.3003130000000001
0
LINE
8
BLACK
6
CONTINUOUS
10
47.2747209999999995
20
3.3003130000000001
11
47.364531999999997
21
3.3308800000000001
0
LINE
8
BLACK
6
CONTINUOUS
10
47.364531999999997
20
3.3308800000000001
11
47.4617909999999981
21
3.3496419999999998
0
LINE
8
BLACK
6
CONTINUOUS
10
47.4617909999999981
20
3.3496419999999998
11
47.5676899999999989
21
3.3560859999999999
0
LINE
8
BLACK
6
CONTINUOUS
10
47.5676899999999989
20
3.3560859999999999
11
47.6736579999999961
21
3.3496919999999997
0
LINE
8
BLACK
6
CONTINUOUS
10
47.4640489999999957
20
3.1796409999999997
11
47.371818999999995
21
3.1540789999999999
0
LINE
8
BLACK
6
CONTINUOUS
10
47.371818999999995
20
3.1540789999999999
11
47.288885999999998
21
3.1122699999999996
0
LINE
8
BLACK
6
CONTINUOUS
10
47.288885999999998
20
3.1122699999999996
11
47.2151089999999982
21
3.0555099999999999
0
LINE
8
BLACK
6
CONTINUOUS
10
47.2151089999999982
20
3.0555099999999999
11
47.1523309999999967
21
2.9856959999999999
0
LINE
8
BLACK
6
CONTINUOUS
10
47.1523309999999967
20
2.9856959999999999
11
47.0999339999999975
21
2.9013359999999997
0
LINE
8
BLACK
6
CONTINUOUS
10
47.0999339999999975
20
2.9013359999999997
11
47.0621979999999951
21
2.809161
0
LINE
8
BLACK
6
CONTINUOUS
10
47.0621979999999951
20
2.809161
11
47.0389300000000006
21
2.7069839999999998
0
LINE
8
BLACK
6
CONTINUOUS
10
47.0389300000000006
20
2.7069839999999998
11
47.0308739999999972
21
2.5929489999999999
0
LINE
8
BLACK
6
CONTINUOUS
10
47.0308739999999972
20
2.5929489999999999
11
47.0388579999999976
21
2.477446
0
LINE
8
BLACK
6
CONTINUOUS
10
47.0388579999999976
20
2.477446
11
47.0618109999999987
21
2.374952
0
LINE
8
BLACK
6
CONTINUOUS
10
47.0618109999999987
20
2.374952
11
47.0988350000000011
21
2.2834629999999998
0
LINE
8
BLACK
6
CONTINUOUS
10
47.0988350000000011
20
2.2834629999999998
11
47.1505140000000011
21
2.1997589999999998
0
LINE
8
BLACK
6
CONTINUOUS
10
47.1505140000000011
20
2.1997589999999998
11
47.2126189999999966
21
2.1302659999999998
0
LINE
8
BLACK
6
CONTINUOUS
10
47.2126189999999966
20
2.1302659999999998
11
47.2857719999999944
21
2.0735359999999998
0
LINE
8
BLACK
6
CONTINUOUS
10
47.2857719999999944
20
2.0735359999999998
11
47.3680339999999944
21
2.0316809999999998
0
LINE
8
BLACK
6
CONTINUOUS
10
47.3680339999999944
20
2.0316809999999998
11
47.4592120000000008
21
2.0061429999999998
0
LINE
8
BLACK
6
CONTINUOUS
10
47.4592120000000008
20
2.0061429999999998
11
47.5613699999999966
21
1.9973319999999999
0
LINE
8
BLACK
6
CONTINUOUS
10
47.5613699999999966
20
1.9973319999999999
11
47.6650559999999999
21
2.0061070000000001
0
LINE
8
BLACK
6
CONTINUOUS
10
47.6650559999999999
20
2.0061070000000001
11
47.7584119999999999
21
2.0316229999999997
0
LINE
8
BLACK
6
CONTINUOUS
10
47.7584119999999999
20
2.0316229999999997
11
47.8433789999999988
21
2.0735359999999998
0
LINE
8
BLACK
6
CONTINUOUS
10
47.8433789999999988
20
2.0735359999999998
11
47.9192320000000009
21
2.1305540000000001
0
LINE
8
BLACK
6
CONTINUOUS
10
47.9192320000000009
20
2.1305540000000001
11
47.9830210000000008
21
2.2001119999999998
0
LINE
8
BLACK
6
CONTINUOUS
10
47.9830210000000008
20
2.2001119999999998
11
48.0355369999999979
21
2.2835540000000001
0
LINE
8
BLACK
6
CONTINUOUS
10
48.0355369999999979
20
2.2835540000000001
11
48.0730730000000008
21
2.375035
0
LINE
8
BLACK
6
CONTINUOUS
10
48.0730730000000008
20
2.375035
11
48.0963279999999997
21
2.4774929999999999
0
LINE
8
BLACK
6
CONTINUOUS
10
48.0963279999999997
20
2.4774929999999999
11
48.104413000000001
21
2.5929489999999999
0
LINE
8
BLACK
6
CONTINUOUS
10
48.104413000000001
20
2.5929489999999999
11
48.0963779999999943
21
2.7069929999999998
0
LINE
8
BLACK
6
CONTINUOUS
10
48.0963779999999943
20
2.7069929999999998
11
48.073169
21
2.8091710000000001
0
LINE
8
BLACK
6
CONTINUOUS
10
48.073169
20
2.8091710000000001
11
48.0355369999999979
21
2.9013359999999997
0
LINE
8
BLACK
6
CONTINUOUS
10
48.0355369999999979
20
2.9013359999999997
11
47.9830739999999949
21
2.985617
0
LINE
8
BLACK
6
CONTINUOUS
10
47.9830739999999949
20
2.985617
11
47.9199459999999959
21
3.0554389999999998
0
LINE
8
BLACK
6
CONTINUOUS
10
47.9199459999999959
20
3.0554389999999998
11
47.8454849999999965
21
3.1122699999999996
0
LINE
8
BLACK
6
CONTINUOUS
10
47.8454849999999965
20
3.1122699999999996
11
47.761885999999997
21
3.154191
0
LINE
8
BLACK
6
CONTINUOUS
10
47.761885999999997
20
3.154191
11
47.6699399999999969
21
3.1797
0
LINE
8
BLACK
6
CONTINUOUS
10
47.6699399999999969
20
3.1797
11
47.5676899999999989
21
3.1884739999999998
0
LINE
8
BLACK
6
CONTINUOUS
10
47.5676899999999989
20
3.1884739999999998
11
47.4640489999999957
21
3.1796409999999997
0
LINE
8
BLACK
6
CONTINUOUS
10
54.355916999999998
20
3.3496129999999997
11
54.4589719999999957
21
3.3307899999999999
0
LINE
8
BLACK
6
CONTINUOUS
10
54.4589719999999957
20
3.3307899999999999
11
54.5539539999999974
21
3.300198
0
LINE
8
BLACK
6
CONTINUOUS
10
54.5539539999999974
20
3.300198
11
54.6419089999999983
21
3.2579909999999996
0
LINE
8
BLACK
6
CONTINUOUS
10
54.6419089999999983
20
3.2579909999999996
11
54.7491529999999997
21
3.184132
0
LINE
8
BLACK
6
CONTINUOUS
10
54.7491529999999997
20
3.184132
11
54.8389819999999943
21
3.0946129999999998
0
LINE
8
BLACK
6
CONTINUOUS
10
54.8389819999999943
20
3.0946129999999998
11
54.9128349999999941
21
2.988073
0
LINE
8
BLACK
6
CONTINUOUS
10
54.9128349999999941
20
2.988073
11
54.9549689999999984
21
2.9006759999999998
0
LINE
8
BLACK
6
CONTINUOUS
10
54.9549689999999984
20
2.9006759999999998
11
54.9855339999999941
21
2.806079
0
LINE
8
BLACK
6
CONTINUOUS
10
54.9855339999999941
20
2.806079
11
55.0043590000000009
21
2.703214
0
LINE
8
BLACK
6
CONTINUOUS
10
55.0043590000000009
20
2.703214
11
55.0108379999999997
21
2.5908419999999999
0
LINE
8
BLACK
6
CONTINUOUS
10
55.0108379999999997
20
2.5908419999999999
11
55.0044029999999964
21
2.4806849999999998
0
LINE
8
BLACK
6
CONTINUOUS
10
55.0044029999999964
20
2.4806849999999998
11
54.9856499999999997
21
2.3791889999999998
0
LINE
8
BLACK
6
CONTINUOUS
10
54.9856499999999997
20
2.3791889999999998
11
54.955096999999995
21
2.2852030000000001
0
LINE
8
BLACK
6
CONTINUOUS
10
54.955096999999995
20
2.2852030000000001
11
54.9128349999999941
21
2.1977329999999999
0
LINE
8
BLACK
6
CONTINUOUS
10
54.9128349999999941
20
2.1977329999999999
11
54.8389819999999943
21
2.0911930000000001
0
LINE
8
BLACK
6
CONTINUOUS
10
54.8389819999999943
20
2.0911930000000001
11
54.7491529999999997
21
2.001674
0
LINE
8
BLACK
6
CONTINUOUS
10
54.7491529999999997
20
2.001674
11
54.6419089999999983
21
1.9278139999999999
0
LINE
8
BLACK
6
CONTINUOUS
10
54.6419089999999983
20
1.9278139999999999
11
54.553958999999999
21
1.8856489999999999
0
LINE
8
BLACK
6
CONTINUOUS
10
54.553958999999999
20
1.8856489999999999
11
54.4589769999999973
21
1.8550849999999999
0
LINE
8
BLACK
6
CONTINUOUS
10
54.4589769999999973
20
1.8550849999999999
11
54.355920999999995
21
1.836279
0
LINE
8
BLACK
6
CONTINUOUS
10
54.355920999999995
20
1.836279
11
54.2435789999999969
21
1.829812
0
LINE
8
BLACK
6
CONTINUOUS
10
54.2435789999999969
20
1.829812
11
54.1163269999999983
21
1.8392629999999999
0
LINE
8
BLACK
6
CONTINUOUS
10
54.1163269999999983
20
1.8392629999999999
11
54.0024779999999964
21
1.866576
0
LINE
8
BLACK
6
CONTINUOUS
10
54.0024779999999964
20
1.866576
11
53.8998379999999955
21
1.9109619999999998
0
LINE
8
BLACK
6
CONTINUOUS
10
53.8998379999999955
20
1.9109619999999998
11
53.8067319999999967
21
1.972545
0
LINE
8
BLACK
6
CONTINUOUS
10
53.8067319999999967
20
1.972545
11
53.7291299999999978
21
2.0474389999999998
0
LINE
8
BLACK
6
CONTINUOUS
10
53.7291299999999978
20
2.0474389999999998
11
53.6656399999999962
21
2.1367339999999997
0
LINE
8
BLACK
6
CONTINUOUS
10
53.6656399999999962
20
2.1367339999999997
11
53.6196589999999986
21
2.2362679999999999
0
LINE
8
BLACK
6
CONTINUOUS
10
53.6196589999999986
20
2.2362679999999999
11
53.5911459999999948
21
2.3492649999999999
0
LINE
8
BLACK
6
CONTINUOUS
10
53.5911459999999948
20
2.3492649999999999
11
53.5821219999999983
21
2.4663900000000001
0
LINE
8
BLACK
6
CONTINUOUS
10
53.5821219999999983
20
2.4663900000000001
11
53.581192999999999
21
2.4665529999999998
0
LINE
8
BLACK
6
CONTINUOUS
10
53.581192999999999
20
2.4665529999999998
11
53.581192999999999
21
2.6105339999999999
0
LINE
8
BLACK
6
CONTINUOUS
10
53.581192999999999
20
2.6105339999999999
11
54.1183739999999958
21
2.6105339999999999
0
LINE
8
BLACK
6
CONTINUOUS
10
54.1183739999999958
20
2.6105339999999999
11
54.1183739999999958
21
2.451441
0
LINE
8
BLACK
6
CONTINUOUS
10
54.1183739999999958
20
2.451441
11
53.7582540000000009
21
2.451441
0
LINE
8
BLACK
6
CONTINUOUS
10
53.7582540000000009
20
2.451441
11
53.7644559999999956
21
2.3735170000000001
0
LINE
8
BLACK
6
CONTINUOUS
10
53.7644559999999956
20
2.3735170000000001
11
53.7855409999999949
21
2.292154
0
LINE
8
BLACK
6
CONTINUOUS
10
53.7855409999999949
20
2.292154
11
53.8197879999999955
21
2.2195320000000001
0
LINE
8
BLACK
6
CONTINUOUS
10
53.8197879999999955
20
2.2195320000000001
11
53.8666979999999995
21
2.154417
0
LINE
8
BLACK
6
CONTINUOUS
10
53.8666979999999995
20
2.154417
11
53.9237359999999981
21
2.09972
0
LINE
8
BLACK
6
CONTINUOUS
10
53.9237359999999981
20
2.09972
11
53.9918869999999984
21
2.0546679999999999
0
LINE
8
BLACK
6
CONTINUOUS
10
53.9918869999999984
20
2.0546679999999999
11
54.0669749999999993
21
2.0221619999999998
0
LINE
8
BLACK
6
CONTINUOUS
10
54.0669749999999993
20
2.0221619999999998
11
54.1503329999999963
21
2.0021519999999997
0
LINE
8
BLACK
6
CONTINUOUS
10
54.1503329999999963
20
2.0021519999999997
11
54.2435789999999969
21
1.9952249999999998
0
LINE
8
BLACK
6
CONTINUOUS
10
54.2435789999999969
20
1.9952249999999998
11
54.3543039999999991
21
2.0041370000000001
0
LINE
8
BLACK
6
CONTINUOUS
10
54.3543039999999991
20
2.0041370000000001
11
54.4543210000000002
21
2.0300479999999999
0
LINE
8
BLACK
6
CONTINUOUS
10
54.4543210000000002
20
2.0300479999999999
11
54.5455550000000002
21
2.0725279999999997
0
LINE
8
BLACK
6
CONTINUOUS
10
54.5455550000000002
20
2.0725279999999997
11
54.6276529999999951
21
2.1305929999999997
0
LINE
8
BLACK
6
CONTINUOUS
10
54.6276529999999951
20
2.1305929999999997
11
54.6962319999999949
21
2.200895
0
LINE
8
BLACK
6
CONTINUOUS
10
54.6962319999999949
20
2.200895
11
54.752367999999997
21
2.2845619999999998
0
LINE
8
BLACK
6
CONTINUOUS
10
54.752367999999997
20
2.2845619999999998
11
54.7930179999999964
21
2.3769879999999999
0
LINE
8
BLACK
6
CONTINUOUS
10
54.7930179999999964
20
2.3769879999999999
11
54.8178959999999975
21
2.4784649999999999
0
LINE
8
BLACK
6
CONTINUOUS
10
54.8178959999999975
20
2.4784649999999999
11
54.8264649999999989
21
2.5908419999999999
0
LINE
8
BLACK
6
CONTINUOUS
10
54.8264649999999989
20
2.5908419999999999
11
54.8176539999999974
21
2.7073909999999999
0
LINE
8
BLACK
6
CONTINUOUS
10
54.8176539999999974
20
2.7073909999999999
11
54.7923029999999969
21
2.8104809999999998
0
LINE
8
BLACK
6
CONTINUOUS
10
54.7923029999999969
20
2.8104809999999998
11
54.7512690000000006
21
2.9023429999999997
0
LINE
8
BLACK
6
CONTINUOUS
10
54.7512690000000006
20
2.9023429999999997
11
54.6946179999999984
21
2.9854059999999998
0
LINE
8
BLACK
6
CONTINUOUS
10
54.6946179999999984
20
2.9854059999999998
11
54.6260169999999974
21
3.0550039999999998
0
LINE
8
BLACK
6
CONTINUOUS
10
54.6260169999999974
20
3.0550039999999998
11
54.5444559999999967
21
3.1122699999999996
0
LINE
8
BLACK
6
CONTINUOUS
10
54.5444559999999967
20
3.1122699999999996
11
54.4539860000000004
21
3.1540900000000001
0
LINE
8
BLACK
6
CONTINUOUS
10
54.4539860000000004
20
3.1540900000000001
11
54.3543459999999996
21
3.1796609999999998
0
LINE
8
BLACK
6
CONTINUOUS
10
54.3543459999999996
20
3.1796609999999998
11
54.2435789999999969
21
3.1884739999999998
0
LINE
8
BLACK
6
CONTINUOUS
10
54.2435789999999969
20
3.1884739999999998
11
54.1585879999999946
21
3.181222
0
LINE
8
BLACK
6
CONTINUOUS
10
54.1585879999999946
20
3.181222
11
54.0733119999999943
21
3.1591649999999998
0
LINE
8
BLACK
6
CONTINUOUS
10
54.0733119999999943
20
3.1591649999999998
11
53.9920079999999984
21
3.1239029999999999
0
LINE
8
BLACK
6
CONTINUOUS
10
53.9920079999999984
20
3.1239029999999999
11
53.9176979999999944
21
3.0767329999999999
0
LINE
8
BLACK
6
CONTINUOUS
10
53.9176979999999944
20
3.0767329999999999
11
53.8530609999999967
21
3.0188769999999998
0
LINE
8
BLACK
6
CONTINUOUS
10
53.8530609999999967
20
3.0188769999999998
11
53.8033929999999998
21
2.9541839999999997
0
LINE
8
BLACK
6
CONTINUOUS
10
53.8033929999999998
20
2.9541839999999997
11
53.6577629999999957
21
3.0541099999999997
0
LINE
8
BLACK
6
CONTINUOUS
10
53.6577629999999957
20
3.0541099999999997
11
53.7242369999999951
21
3.136978
0
LINE
8
BLACK
6
CONTINUOUS
10
53.7242369999999951
20
3.136978
11
53.8091629999999981
21
3.210547
0
LINE
8
BLACK
6
CONTINUOUS
10
53.8091629999999981
20
3.210547
11
53.9063169999999943
21
3.2707249999999997
0
LINE
8
BLACK
6
CONTINUOUS
10
53.9063169999999943
20
3.2707249999999997
11
54.0137769999999975
21
3.3170679999999999
0
LINE
8
BLACK
6
CONTINUOUS
10
54.0137769999999975
20
3.3170679999999999
11
54.1271330000000006
21
3.3463369999999997
0
LINE
8
BLACK
6
CONTINUOUS
10
54.1271330000000006
20
3.3463369999999997
11
54.2435789999999969
21
3.3560859999999999
0
LINE
8
BLACK
6
CONTINUOUS
10
54.2435789999999969
20
3.3560859999999999
11
54.355916999999998
21
3.3496129999999997
0
LINE
8
BLACK
6
CONTINUOUS
10
41.9356629999999981
20
2.5813169999999999
11
42.442344999999996
21
3.3308979999999999
0
LINE
8
BLACK
6
CONTINUOUS
10
42.442344999999996
20
3.3308979999999999
11
42.6316640000000007
21
3.3308979999999999
0
LINE
8
BLACK
6
CONTINUOUS
10
42.6316640000000007
20
3.3308979999999999
11
42.6316640000000007
21
1.855
0
LINE
8
BLACK
6
CONTINUOUS
10
42.6316640000000007
20
1.855
11
42.4472909999999999
21
1.855
0
LINE
8
BLACK
6
CONTINUOUS
10
42.4472909999999999
20
1.855
11
42.4472909999999999
21
3.028556
0
LINE
8
BLACK
6
CONTINUOUS
10
42.4472909999999999
20
3.028556
11
41.9356629999999981
21
2.2706399999999998
0
LINE
8
BLACK
6
CONTINUOUS
10
41.9356629999999981
20
2.2706399999999998
11
41.4241269999999986
21
3.0326770000000001
0
LINE
8
BLACK
6
CONTINUOUS
10
41.4241269999999986
20
3.0326770000000001
11
41.4241269999999986
21
1.855
0
LINE
8
BLACK
6
CONTINUOUS
10
41.4241269999999986
20
1.855
11
41.2418610000000001
21
1.855
0
LINE
8
BLACK
6
CONTINUOUS
10
41.2418610000000001
20
1.855
11
41.2418610000000001
21
3.3308979999999999
0
LINE
8
BLACK
6
CONTINUOUS
10
41.2418610000000001
20
3.3308979999999999
11
41.4290729999999954
21
3.3308979999999999
0
LINE
8
BLACK
6
CONTINUOUS
10
41.4290729999999954
20
3.3308979999999999
11
41.9356629999999981
21
2.5813169999999999
0
LINE
8
BLACK
6
CONTINUOUS
10
45.5926199999999966
20
3.1632859999999998
11
45.1243149999999957
21
3.1632859999999998
0
LINE
8
BLACK
6
CONTINUOUS
10
45.1243149999999957
20
3.1632859999999998
11
45.1243149999999957
21
1.855
0
LINE
8
BLACK
6
CONTINUOUS
10
45.1243149999999957
20
1.855
11
44.9420489999999972
21
1.855
0
LINE
8
BLACK
6
CONTINUOUS
10
44.9420489999999972
20
1.855
11
44.9420489999999972
21
3.1632859999999998
0
LINE
8
BLACK
6
CONTINUOUS
10
44.9420489999999972
20
3.1632859999999998
11
44.4737429999999989
21
3.1632859999999998
0
LINE
8
BLACK
6
CONTINUOUS
10
44.4737429999999989
20
3.1632859999999998
11
44.4737429999999989
21
3.3308979999999999
0
LINE
8
BLACK
6
CONTINUOUS
10
44.4737429999999989
20
3.3308979999999999
11
45.5926199999999966
21
3.3308979999999999
0
LINE
8
BLACK
6
CONTINUOUS
10
45.5926199999999966
20
3.3308979999999999
11
45.5926199999999966
21
3.1632859999999998
0
LINE
8
BLACK
6
CONTINUOUS
10
46.7517959999999988
20
3.1632859999999998
11
46.2834909999999979
21
3.1632859999999998
0
LINE
8
BLACK
6
CONTINUOUS
10
46.2834909999999979
20
3.1632859999999998
11
46.2834909999999979
21
1.855
0
LINE
8
BLACK
6
CONTINUOUS
10
46.2834909999999979
20
1.855
11
46.1012249999999995
21
1.855
0
LINE
8
BLACK
6
CONTINUOUS
10
46.1012249999999995
20
1.855
11
46.1012249999999995
21
3.1632859999999998
0
LINE
8
BLACK
6
CONTINUOUS
10
46.1012249999999995
20
3.1632859999999998
11
45.6329199999999986
21
3.1632859999999998
0
LINE
8
BLACK
6
CONTINUOUS
10
45.6329199999999986
20
3.1632859999999998
11
45.6329199999999986
21
3.3308979999999999
0
LINE
8
BLACK
6
CONTINUOUS
10
45.6329199999999986
20
3.3308979999999999
11
46.7517959999999988
21
3.3308979999999999
0
LINE
8
BLACK
6
CONTINUOUS
10
46.7517959999999988
20
3.3308979999999999
11
46.7517959999999988
21
3.1632859999999998
0
LINE
8
BLACK
6
CONTINUOUS
10
49.4724179999999976
20
1.855
11
48.9444869999999952
21
1.855
0
LINE
8
BLACK
6
CONTINUOUS
10
48.9444869999999952
20
1.855
11
48.8483340000000013
21
1.860733
0
LINE
8
BLACK
6
CONTINUOUS
10
48.8483340000000013
20
1.860733
11
48.7656149999999968
21
1.8769449999999999
0
LINE
8
BLACK
6
CONTINUOUS
10
48.7656149999999968
20
1.8769449999999999
11
48.6943509999999975
21
1.9025349999999999
0
LINE
8
BLACK
6
CONTINUOUS
10
48.6943509999999975
20
1.9025349999999999
11
48.6289129999999972
21
1.939635
0
LINE
8
BLACK
6
CONTINUOUS
10
48.6289129999999972
20
1.939635
11
48.5754269999999977
21
1.985331
0
LINE
8
BLACK
6
CONTINUOUS
10
48.5754269999999977
20
1.985331
11
48.5325099999999949
21
2.0401050000000001
0
LINE
8
BLACK
6
CONTINUOUS
10
48.5325099999999949
20
2.0401050000000001
11
48.5014959999999959
21
2.1024659999999997
0
LINE
8
BLACK
6
CONTINUOUS
10
48.5014959999999959
20
2.1024659999999997
11
48.4821579999999983
21
2.1747229999999997
0
LINE
8
BLACK
6
CONTINUOUS
10
48.4821579999999983
20
2.1747229999999997
11
48.4753569999999954
21
2.2590079999999997
0
LINE
8
BLACK
6
CONTINUOUS
10
48.4753569999999954
20
2.2590079999999997
11
48.475913999999996
21
2.2653270000000001
0
LINE
8
BLACK
6
CONTINUOUS
10
48.475913999999996
20
2.2653270000000001
11
48.482410999999999
21
2.3389629999999997
0
LINE
8
BLACK
6
CONTINUOUS
10
48.482410999999999
20
2.3389629999999997
11
48.5026960000000003
21
2.4088569999999998
0
LINE
8
BLACK
6
CONTINUOUS
10
48.5026960000000003
20
2.4088569999999998
11
48.5357160000000007
21
2.470583
0
LINE
8
BLACK
6
CONTINUOUS
10
48.5357160000000007
20
2.470583
11
48.5803189999999958
21
2.5250499999999998
0
LINE
8
BLACK
6
CONTINUOUS
10
48.5803189999999958
20
2.5250499999999998
11
48.6349579999999975
21
2.571364
0
LINE
8
BLACK
6
CONTINUOUS
10
48.6349579999999975
20
2.571364
11
48.7008539999999996
21
2.609893
0
LINE
8
BLACK
6
CONTINUOUS
10
48.7008539999999996
20
2.609893
11
48.6485209999999952
21
2.645826
0
LINE
8
BLACK
6
CONTINUOUS
10
48.6485209999999952
20
2.645826
11
48.6045149999999992
21
2.6888139999999998
0
LINE
8
BLACK
6
CONTINUOUS
10
48.6045149999999992
20
2.6888139999999998
11
48.5681389999999951
21
2.7394029999999998
0
LINE
8
BLACK
6
CONTINUOUS
10
48.5681389999999951
20
2.7394029999999998
11
48.5414679999999947
21
2.7956219999999998
0
LINE
8
BLACK
6
CONTINUOUS
10
48.5414679999999947
20
2.7956219999999998
11
48.5250859999999946
21
2.8583309999999997
0
LINE
8
BLACK
6
CONTINUOUS
10
48.5250859999999946
20
2.8583309999999997
11
48.5194119999999955
21
2.9289049999999999
0
LINE
8
BLACK
6
CONTINUOUS
10
48.5194119999999955
20
2.9289049999999999
11
48.526455999999996
21
3.0131809999999999
0
LINE
8
BLACK
6
CONTINUOUS
10
48.526455999999996
20
3.0131809999999999
11
48.5465119999999999
21
3.0854519999999996
0
LINE
8
BLACK
6
CONTINUOUS
10
48.5465119999999999
20
3.0854519999999996
11
48.578762999999995
21
3.1478989999999998
0
LINE
8
BLACK
6
CONTINUOUS
10
48.578762999999995
20
3.1478989999999998
11
48.6231079999999949
21
3.2025199999999998
0
LINE
8
BLACK
6
CONTINUOUS
10
48.6231079999999949
20
3.2025199999999998
11
48.6782989999999955
21
3.247865
0
LINE
8
BLACK
6
CONTINUOUS
10
48.6782989999999955
20
3.247865
11
48.745826000000001
21
3.28437
0
LINE
8
BLACK
6
CONTINUOUS
10
48.745826000000001
20
3.28437
11
48.8190829999999991
21
3.3093319999999999
0
LINE
8
BLACK
6
CONTINUOUS
10
48.8190829999999991
20
3.3093319999999999
11
48.9048899999999946
21
3.3252439999999996
0
LINE
8
BLACK
6
CONTINUOUS
10
48.9048899999999946
20
3.3252439999999996
11
49.005395
21
3.3308979999999999
0
LINE
8
BLACK
6
CONTINUOUS
10
49.005395
20
3.3308979999999999
11
49.4724179999999976
21
3.3308979999999999
0
LINE
8
BLACK
6
CONTINUOUS
10
49.4724179999999976
20
3.3308979999999999
11
49.4724179999999976
21
1.855
0
LINE
8
BLACK
6
CONTINUOUS
10
48.8939279999999954
20
2.5182259999999999
11
48.8122529999999983
21
2.4942869999999999
0
LINE
8
BLACK
6
CONTINUOUS
10
48.8122529999999983
20
2.4942869999999999
11
48.7490309999999951
21
2.4573939999999999
0
LINE
8
BLACK
6
CONTINUOUS
10
48.7490309999999951
20
2.4573939999999999
11
48.6996569999999949
21
2.405462
0
LINE
8
BLACK
6
CONTINUOUS
10
48.6996569999999949
20
2.405462
11
48.6700869999999952
21
2.342606
0
LINE
8
BLACK
6
CONTINUOUS
10
48.6700869999999952
20
2.342606
11
48.6597299999999962
21
2.2653270000000001
0
LINE
8
BLACK
6
CONTINUOUS
10
48.6597299999999962
20
2.2653270000000001
11
48.6688609999999997
21
2.1928730000000001
0
LINE
8
BLACK
6
CONTINUOUS
10
48.6688609999999997
20
2.1928730000000001
11
48.694783000000001
21
2.1341129999999997
0
LINE
8
BLACK
6
CONTINUOUS
10
48.694783000000001
20
2.1341129999999997
11
48.7375819999999962
21
2.0858089999999998
0
LINE
8
BLACK
6
CONTINUOUS
10
48.7375819999999962
20
2.0858089999999998
11
48.7929600000000008
21
2.0509330000000001
0
LINE
8
BLACK
6
CONTINUOUS
10
48.7929600000000008
20
2.0509330000000001
11
48.8633409999999984
21
2.0286149999999998
0
LINE
8
BLACK
6
CONTINUOUS
10
48.8633409999999984
20
2.0286149999999998
11
48.9528210000000001
21
2.020505
0
LINE
8
BLACK
6
CONTINUOUS
10
48.9528210000000001
20
2.020505
11
49.2901509999999945
21
2.020505
0
LINE
8
BLACK
6
CONTINUOUS
10
49.2901509999999945
20
2.020505
11
49.2901509999999945
21
2.5270029999999997
0
LINE
8
BLACK
6
CONTINUOUS
10
49.2901509999999945
20
2.5270029999999997
11
48.9990749999999977
21
2.5270029999999997
0
LINE
8
BLACK
6
CONTINUOUS
10
48.9990749999999977
20
2.5270029999999997
11
48.8939279999999954
21
2.5182259999999999
0
LINE
8
BLACK
6
CONTINUOUS
10
48.914086999999995
20
3.1658139999999997
11
48.8403999999999954
21
3.1440299999999999
0
LINE
8
BLACK
6
CONTINUOUS
10
48.8403999999999954
20
3.1440299999999999
11
48.7837439999999987
21
3.1105299999999998
0
LINE
8
BLACK
6
CONTINUOUS
10
48.7837439999999987
20
3.1105299999999998
11
48.7399839999999998
21
3.0632259999999998
0
LINE
8
BLACK
6
CONTINUOUS
10
48.7399839999999998
20
3.0632259999999998
11
48.7132839999999945
21
3.0039400000000001
0
LINE
8
BLACK
6
CONTINUOUS
10
48.7132839999999945
20
3.0039400000000001
11
48.7037849999999963
21
2.9289049999999999
0
LINE
8
BLACK
6
CONTINUOUS
10
48.7037849999999963
20
2.9289049999999999
11
48.712015000000001
21
2.8556859999999999
0
LINE
8
BLACK
6
CONTINUOUS
10
48.712015000000001
20
2.8556859999999999
11
48.7350449999999995
21
2.7973089999999998
0
LINE
8
BLACK
6
CONTINUOUS
10
48.7350449999999995
20
2.7973089999999998
11
48.772203999999995
21
2.750394
0
LINE
8
BLACK
6
CONTINUOUS
10
48.772203999999995
20
2.750394
11
48.8214439999999996
21
2.7158229999999999
0
LINE
8
BLACK
6
CONTINUOUS
10
48.8214439999999996
20
2.7158229999999999
11
48.8832759999999951
21
2.6940379999999999
0
LINE
8
BLACK
6
CONTINUOUS
10
48.8832759999999951
20
2.6940379999999999
11
48.9612479999999977
21
2.686188
0
LINE
8
BLACK
6
CONTINUOUS
10
48.9612479999999977
20
2.686188
11
49.2901509999999945
21
2.686188
0
LINE
8
BLACK
6
CONTINUOUS
10
49.2901509999999945
20
2.686188
11
49.2901509999999945
21
3.1738189999999999
0
LINE
8
BLACK
6
CONTINUOUS
10
49.2901509999999945
20
3.1738189999999999
11
49.0095159999999979
21
3.1738189999999999
0
LINE
8
BLACK
6
CONTINUOUS
10
49.0095159999999979
20
3.1738189999999999
11
48.914086999999995
21
3.1658139999999997
0
LINE
8
BLACK
6
CONTINUOUS
10
51.4331989999999948
20
1.855
11
50.9829369999999997
21
1.855
0
LINE
8
BLACK
6
CONTINUOUS
10
50.9829369999999997
20
1.855
11
50.8464199999999948
21
1.86602
0
LINE
8
BLACK
6
CONTINUOUS
10
50.8464199999999948
20
1.86602
11
50.7246469999999974
21
1.8978949999999999
0
LINE
8
BLACK
6
CONTINUOUS
10
50.7246469999999974
20
1.8978949999999999
11
50.6150159999999971
21
1.9498879999999998
0
LINE
8
BLACK
6
CONTINUOUS
10
50.6150159999999971
20
1.9498879999999998
11
50.5165499999999952
21
2.0210719999999998
0
LINE
8
BLACK
6
CONTINUOUS
10
50.5165499999999952
20
2.0210719999999998
11
50.433606999999995
21
2.107729
0
LINE
8
BLACK
6
CONTINUOUS
10
50.433606999999995
20
2.107729
11
50.3650639999999967
21
2.2113799999999997
0
LINE
8
BLACK
6
CONTINUOUS
10
50.3650639999999967
20
2.2113799999999997
11
50.3154339999999962
21
2.325583
0
LINE
8
BLACK
6
CONTINUOUS
10
50.3154339999999962
20
2.325583
11
50.2849319999999977
21
2.4519699999999998
0
LINE
8
BLACK
6
CONTINUOUS
10
50.2849319999999977
20
2.4519699999999998
11
50.2743889999999993
21
2.5929489999999999
0
LINE
8
BLACK
6
CONTINUOUS
10
50.2743889999999993
20
2.5929489999999999
11
50.2849649999999997
21
2.7352789999999998
0
LINE
8
BLACK
6
CONTINUOUS
10
50.2849649999999997
20
2.7352789999999998
11
50.3154979999999981
21
2.8623059999999998
0
LINE
8
BLACK
6
CONTINUOUS
10
50.3154979999999981
20
2.8623059999999998
11
50.3650639999999967
21
2.9765319999999997
0
LINE
8
BLACK
6
CONTINUOUS
10
50.3650639999999967
20
2.9765319999999997
11
50.4336549999999946
21
3.0801699999999999
0
LINE
8
BLACK
6
CONTINUOUS
10
50.4336549999999946
20
3.0801699999999999
11
50.5165969999999973
21
3.166474
0
LINE
8
BLACK
6
CONTINUOUS
10
50.5165969999999973
20
3.166474
11
50.6150159999999971
21
3.2370169999999998
0
LINE
8
BLACK
6
CONTINUOUS
10
50.6150159999999971
20
3.2370169999999998
11
50.7245879999999971
21
3.2884370000000001
0
LINE
8
BLACK
6
CONTINUOUS
10
50.7245879999999971
20
3.2884370000000001
11
50.8463670000000008
21
3.3199859999999997
0
LINE
8
BLACK
6
CONTINUOUS
10
50.8463670000000008
20
3.3199859999999997
11
50.9829369999999997
21
3.3308979999999999
0
LINE
8
BLACK
6
CONTINUOUS
10
50.9829369999999997
20
3.3308979999999999
11
51.4331989999999948
21
3.3308979999999999
0
LINE
8
BLACK
6
CONTINUOUS
10
51.4331989999999948
20
3.3308979999999999
11
51.4331989999999948
21
1.855
0
LINE
8
BLACK
6
CONTINUOUS
10
50.8755979999999965
20
3.1503049999999999
11
50.7783230000000003
21
3.1184069999999999
0
LINE
8
BLACK
6
CONTINUOUS
10
50.7783230000000003
20
3.1184069999999999
11
50.690222999999996
21
3.0667519999999997
0
LINE
8
BLACK
6
CONTINUOUS
10
50.690222999999996
20
3.0667519999999997
11
50.6123599999999954
21
2.9962239999999998
0
LINE
8
BLACK
6
CONTINUOUS
10
50.6123599999999954
20
2.9962239999999998
11
50.5483629999999948
21
2.9112719999999999
0
LINE
8
BLACK
6
CONTINUOUS
10
50.5483629999999948
20
2.9112719999999999
11
50.4995199999999969
21
2.8134079999999999
0
LINE
8
BLACK
6
CONTINUOUS
10
50.4995199999999969
20
2.8134079999999999
11
50.4690799999999982
21
2.7072829999999999
0
LINE
8
BLACK
6
CONTINUOUS
10
50.4690799999999982
20
2.7072829999999999
11
50.4587620000000001
21
2.5929489999999999
0
LINE
8
BLACK
6
CONTINUOUS
10
50.4587620000000001
20
2.5929489999999999
11
50.4690779999999961
21
2.478602
0
LINE
8
BLACK
6
CONTINUOUS
10
50.4690779999999961
20
2.478602
11
50.4995199999999969
21
2.3723969999999999
0
LINE
8
BLACK
6
CONTINUOUS
10
50.4995199999999969
20
2.3723969999999999
11
50.5483529999999988
21
2.2745949999999997
0
LINE
8
BLACK
6
CONTINUOUS
10
50.5483529999999988
20
2.2745949999999997
11
50.6123599999999954
21
2.1895819999999997
0
LINE
8
BLACK
6
CONTINUOUS
10
50.6123599999999954
20
2.1895819999999997
11
50.690222999999996
21
2.1190539999999998
0
LINE
8
BLACK
6
CONTINUOUS
10
50.690222999999996
20
2.1190539999999998
11
50.7783230000000003
21
2.067399
0
LINE
8
BLACK
6
CONTINUOUS
10
50.7783230000000003
20
2.067399
11
50.8755979999999965
21
2.035501
0
LINE
8
BLACK
6
CONTINUOUS
10
50.8755979999999965
20
2.035501
11
50.9829369999999997
21
2.024626
0
LINE
8
BLACK
6
CONTINUOUS
10
50.9829369999999997
20
2.024626
11
51.2488260000000011
21
2.024626
0
LINE
8
BLACK
6
CONTINUOUS
10
51.2488260000000011
20
2.024626
11
51.2488260000000011
21
3.1611799999999999
0
LINE
8
BLACK
6
CONTINUOUS
10
51.2488260000000011
20
3.1611799999999999
11
50.9829369999999997
21
3.1611799999999999
0
LINE
8
BLACK
6
CONTINUOUS
10
50.9829369999999997
20
3.1611799999999999
11
50.8755979999999965
21
3.1503049999999999
0
LINE
8
BLACK
6
CONTINUOUS
10
52.0017959999999988
20
1.855
11
51.8174239999999955
21
1.855
0
LINE
8
BLACK
6
CONTINUOUS
10
51.8174239999999955
20
1.855
11
51.8174239999999955
21
3.3308979999999999
0
LINE
8
BLACK
6
CONTINUOUS
10
51.8174239999999955
20
3.3308979999999999
11
52.0017959999999988
21
3.3308979999999999
0
LINE
8
BLACK
6
CONTINUOUS
10
52.0017959999999988
20
3.3308979999999999
11
52.0017959999999988
21
1.855
0
LINE
8
BLACK
6
CONTINUOUS
10
53.3163109999999989
20
1.855
11
53.1319389999999956
21
1.855
0
LINE
8
BLACK
6
CONTINUOUS
10
53.1319389999999956
20
1.855
11
53.1319389999999956
21
2.4324809999999997
0
LINE
8
BLACK
6
CONTINUOUS
10
53.1319389999999956
20
2.4324809999999997
11
52.8576229999999967
21
2.4324809999999997
0
LINE
8
BLACK
6
CONTINUOUS
10
52.8576229999999967
20
2.4324809999999997
11
52.8249319999999969
21
2.434777
0
LINE
8
BLACK
6
CONTINUOUS
10
52.8249319999999969
20
2.434777
11
52.4854890000000012
21
1.855
0
LINE
8
BLACK
6
CONTINUOUS
10
52.4854890000000012
20
1.855
11
52.2834389999999942
21
1.855
0
LINE
8
BLACK
6
CONTINUOUS
10
52.2834389999999942
20
1.855
11
52.6444899999999976
21
2.4710289999999997
0
LINE
8
BLACK
6
CONTINUOUS
10
52.6444899999999976
20
2.4710289999999997
11
52.5958559999999977
21
2.4905499999999998
0
LINE
8
BLACK
6
CONTINUOUS
10
52.5958559999999977
20
2.4905499999999998
11
52.5229739999999978
21
2.5347049999999998
0
LINE
8
BLACK
6
CONTINUOUS
10
52.5229739999999978
20
2.5347049999999998
11
52.4621409999999955
21
2.5877279999999998
0
LINE
8
BLACK
6
CONTINUOUS
10
52.4621409999999955
20
2.5877279999999998
11
52.4121239999999986
21
2.650102
0
LINE
8
BLACK
6
CONTINUOUS
10
52.4121239999999986
20
2.650102
11
52.3747889999999998
21
2.7203949999999999
0
LINE
8
BLACK
6
CONTINUOUS
10
52.3747889999999998
20
2.7203949999999999
11
52.3521889999999956
21
2.797374
0
LINE
8
BLACK
6
CONTINUOUS
10
52.3521889999999956
20
2.797374
11
52.3444389999999942
21
2.8827430000000001
0
LINE
8
BLACK
6
CONTINUOUS
10
52.3444389999999942
20
2.8827430000000001
11
52.3516279999999981
21
2.9682740000000001
0
LINE
8
BLACK
6
CONTINUOUS
10
52.3516279999999981
20
2.9682740000000001
11
52.3725199999999944
21
3.0452279999999998
0
LINE
8
BLACK
6
CONTINUOUS
10
52.3725199999999944
20
3.0452279999999998
11
52.4068119999999951
21
3.1152009999999999
0
LINE
8
BLACK
6
CONTINUOUS
10
52.4068119999999951
20
3.1152009999999999
11
52.4535319999999956
21
3.1776369999999998
0
LINE
8
BLACK
6
CONTINUOUS
10
52.4535319999999956
20
3.1776369999999998
11
52.5109039999999965
21
3.2302759999999999
0
LINE
8
BLACK
6
CONTINUOUS
10
52.5109039999999965
20
3.2302759999999999
11
52.5801019999999966
21
3.2737449999999999
0
LINE
8
BLACK
6
CONTINUOUS
10
52.5801019999999966
20
3.2737449999999999
11
52.6559600000000003
21
3.3049580000000001
0
LINE
8
BLACK
6
CONTINUOUS
10
52.6559600000000003
20
3.3049580000000001
11
52.7402510000000007
21
3.3242229999999999
0
LINE
8
BLACK
6
CONTINUOUS
10
52.7402510000000007
20
3.3242229999999999
11
52.834541999999999
21
3.3308979999999999
0
LINE
8
BLACK
6
CONTINUOUS
10
52.834541999999999
20
3.3308979999999999
11
53.3163109999999989
21
3.3308979999999999
0
LINE
8
BLACK
6
CONTINUOUS
10
53.3163109999999989
20
3.3308979999999999
11
53.3163109999999989
21
1.855
0
LINE
8
BLACK
6
CONTINUOUS
10
52.7500909999999976
20
3.154029
11
52.6766170000000002
21
3.127818
0
LINE
8
BLACK
6
CONTINUOUS
10
52.6766170000000002
20
3.127818
11
52.615089999999995
21
3.0853419999999998
0
LINE
8
BLACK
6
CONTINUOUS
10
52.615089999999995
20
3.0853419999999998
11
52.5673770000000005
21
3.0285859999999998
0
LINE
8
BLACK
6
CONTINUOUS
10
52.5673770000000005
20
3.0285859999999998
11
52.5387629999999959
21
2.9620690000000001
0
LINE
8
BLACK
6
CONTINUOUS
10
52.5387629999999959
20
2.9620690000000001
11
52.5288109999999975
21
2.8827430000000001
0
LINE
8
BLACK
6
CONTINUOUS
10
52.5288109999999975
20
2.8827430000000001
11
52.5386430000000004
21
2.8053049999999997
0
LINE
8
BLACK
6
CONTINUOUS
10
52.5386430000000004
20
2.8053049999999997
11
52.5672799999999967
21
2.7383039999999998
0
LINE
8
BLACK
6
CONTINUOUS
10
52.5672799999999967
20
2.7383039999999998
11
52.6118159999999975
21
2.6815189999999998
0
LINE
8
BLACK
6
CONTINUOUS
10
52.6118159999999975
20
2.6815189999999998
11
52.6680299999999946
21
2.6385609999999997
0
LINE
8
BLACK
6
CONTINUOUS
10
52.6680299999999946
20
2.6385609999999997
11
52.7337659999999957
21
2.6114919999999997
0
LINE
8
BLACK
6
CONTINUOUS
10
52.7337659999999957
20
2.6114919999999997
11
52.8093549999999965
21
2.6021989999999997
0
LINE
8
BLACK
6
CONTINUOUS
10
52.8093549999999965
20
2.6021989999999997
11
53.1319389999999956
21
2.6021989999999997
0
LINE
8
BLACK
6
CONTINUOUS
10
53.1319389999999956
20
2.6021989999999997
11
53.1319389999999956
21
3.1632859999999998
0
LINE
8
BLACK
6
CONTINUOUS
10
53.1319389999999956
20
3.1632859999999998
11
52.8387559999999965
21
3.1632859999999998
0
LINE
8
BLACK
6
CONTINUOUS
10
52.8387559999999965
20
3.1632859999999998
11
52.7500909999999976
21
3.154029
0
LINE
8
BLACK
6
CONTINUOUS
10
56.458800999999994
20
1.855
11
56.2633459999999985
21
1.855
0
LINE
8
BLACK
6
CONTINUOUS
10
56.2633459999999985
20
1.855
11
56.0955930000000009
21
2.2729300000000001
0
LINE
8
BLACK
6
CONTINUOUS
10
56.0955930000000009
20
2.2729300000000001
11
55.4292499999999961
21
2.2729300000000001
0
LINE
8
BLACK
6
CONTINUOUS
10
55.4292499999999961
20
2.2729300000000001
11
55.2615229999999968
21
1.855
0
LINE
8
BLACK
6
CONTINUOUS
10
55.2615229999999968
20
1.855
11
55.0681739999999991
21
1.855
0
LINE
8
BLACK
6
CONTINUOUS
10
55.0681739999999991
20
1.855
11
55.305689000000001
21
2.4383429999999997
0
LINE
8
BLACK
6
CONTINUOUS
10
55.305689000000001
20
2.4383429999999997
11
55.6691029999999998
21
3.3308979999999999
0
LINE
8
BLACK
6
CONTINUOUS
10
55.6691029999999998
20
3.3308979999999999
11
55.8538420000000002
21
3.3308979999999999
0
LINE
8
BLACK
6
CONTINUOUS
10
55.8538420000000002
20
3.3308979999999999
11
55.8578720000000004
21
3.3308979999999999
0
LINE
8
BLACK
6
CONTINUOUS
10
55.8578720000000004
20
3.3308979999999999
11
56.458800999999994
21
1.855
0
LINE
8
BLACK
6
CONTINUOUS
10
55.495635
20
2.4383429999999997
11
56.0291980000000009
21
2.4383429999999997
0
LINE
8
BLACK
6
CONTINUOUS
10
56.0291980000000009
20
2.4383429999999997
11
55.7623949999999979
21
3.1030379999999997
0
LINE
8
BLACK
6
CONTINUOUS
10
55.7623949999999979
20
3.1030379999999997
11
55.495635
21
2.4383429999999997
0
LINE
8
BLACK
6
CONTINUOUS
10
56.8495279999999994
20
1.855
11
56.6651559999999961
21
1.855
0
LINE
8
BLACK
6
CONTINUOUS
10
56.6651559999999961
20
1.855
11
56.6651559999999961
21
3.3308979999999999
0
LINE
8
BLACK
6
CONTINUOUS
10
56.6651559999999961
20
3.3308979999999999
11
56.8495279999999994
21
3.3308979999999999
0
LINE
8
BLACK
6
CONTINUOUS
10
56.8495279999999994
20
3.3308979999999999
11
56.8495279999999994
21
1.855
0
LINE
8
BLACK
6
CONTINUOUS
10
57.7713779999999986
20
2.0587999999999997
11
58.2892480000000006
21
3.3308979999999999
0
LINE
8
BLACK
6
CONTINUOUS
10
58.2892480000000006
20
3.3308979999999999
11
58.4825969999999984
21
3.3308979999999999
0
LINE
8
BLACK
6
CONTINUOUS
10
58.4825969999999984
20
3.3308979999999999
11
57.8711349999999953
21
1.855
0
LINE
8
BLACK
6
CONTINUOUS
10
57.8711349999999953
20
1.855
11
57.688410999999995
21
1.855
0
LINE
8
BLACK
6
CONTINUOUS
10
57.688410999999995
20
1.855
11
57.6698179999999994
21
1.855
0
LINE
8
BLACK
6
CONTINUOUS
10
57.6698179999999994
20
1.855
11
57.0583559999999963
21
3.3308979999999999
0
LINE
8
BLACK
6
CONTINUOUS
10
57.0583559999999963
20
3.3308979999999999
11
57.251612999999999
21
3.3308979999999999
0
LINE
8
BLACK
6
CONTINUOUS
10
57.251612999999999
20
3.3308979999999999
11
57.7713779999999986
21
2.0587999999999997
0
LINE
8
BLACK
6
CONTINUOUS
10
10.7516819999999989
20
21.2519969999999994
11
10.9081460000000003
21
21.2065409999999979
0
LINE
8
BLACK
6
CONTINUOUS
10
10.9081460000000003
20
21.2065409999999979
11
11.0483899999999995
21
21.1236010000000007
0
LINE
8
BLACK
6
CONTINUOUS
10
11.0483899999999995
20
21.1236010000000007
11
11.1636009999999999
21
21.0083899999999986
0
LINE
8
BLACK
6
CONTINUOUS
10
11.1636009999999999
20
21.0083899999999986
11
11.2465409999999988
21
20.8681459999999994
0
LINE
8
BLACK
6
CONTINUOUS
10
11.2465409999999988
20
20.8681459999999994
11
11.2919970000000003
21
20.7116819999999997
0
LINE
8
BLACK
6
CONTINUOUS
10
11.2919970000000003
20
20.7116819999999997
11
11.2999999999999989
21
20.6099999999999994
0
LINE
8
BLACK
6
CONTINUOUS
10
11.2999999999999989
20
20.6099999999999994
11
11.2999999999999989
21
19.3099999999999987
0
LINE
8
BLACK
6
CONTINUOUS
10
11.2999999999999989
20
19.3099999999999987
11
11.2919970000000003
21
19.2083179999999984
0
LINE
8
BLACK
6
CONTINUOUS
10
11.2919970000000003
20
19.2083179999999984
11
11.2465409999999988
21
19.0518539999999987
0
LINE
8
BLACK
6
CONTINUOUS
10
11.2465409999999988
20
19.0518539999999987
11
11.1636009999999999
21
18.9116099999999996
0
LINE
8
BLACK
6
CONTINUOUS
10
11.1636009999999999
20
18.9116099999999996
11
11.0483899999999995
21
18.7963989999999974
0
LINE
8
BLACK
6
CONTINUOUS
10
11.0483899999999995
20
18.7963989999999974
11
10.9081460000000003
21
18.7134590000000003
0
LINE
8
BLACK
6
CONTINUOUS
10
10.9081460000000003
20
18.7134590000000003
11
10.7516819999999989
21
18.6680029999999988
0
LINE
8
BLACK
6
CONTINUOUS
10
10.7516819999999989
20
18.6680029999999988
11
10.6500000000000004
21
18.6600000000000001
0
LINE
8
BLACK
6
CONTINUOUS
10
10.6500000000000004
20
18.6600000000000001
11
9.3499999999999996
21
18.6600000000000001
0
LINE
8
BLACK
6
CONTINUOUS
10
9.3499999999999996
20
18.6600000000000001
11
9.2483179999999994
21
18.6680029999999988
0
LINE
8
BLACK
6
CONTINUOUS
10
9.2483179999999994
20
18.6680029999999988
11
9.0918539999999997
21
18.7134590000000003
0
LINE
8
BLACK
6
CONTINUOUS
10
9.0918539999999997
20
18.7134590000000003
11
8.9516099999999987
21
18.7963989999999974
0
LINE
8
BLACK
6
CONTINUOUS
10
8.9516099999999987
20
18.7963989999999974
11
8.8363990000000001
21
18.9116099999999996
0
LINE
8
BLACK
6
CONTINUOUS
10
8.8363990000000001
20
18.9116099999999996
11
8.7534589999999994
21
19.0518539999999987
0
LINE
8
BLACK
6
CONTINUOUS
10
8.7534589999999994
20
19.0518539999999987
11
8.7080029999999997
21
19.2083179999999984
0
LINE
8
BLACK
6
CONTINUOUS
10
8.7080029999999997
20
19.2083179999999984
11
8.6999999999999993
21
19.3099999999999987
0
LINE
8
BLACK
6
CONTINUOUS
10
8.6999999999999993
20
19.3099999999999987
11
8.6999999999999993
21
20.6099999999999994
0
LINE
8
BLACK
6
CONTINUOUS
10
8.6999999999999993
20
20.6099999999999994
11
8.7080029999999997
21
20.7116819999999997
0
LINE
8
BLACK
6
CONTINUOUS
10
8.7080029999999997
20
20.7116819999999997
11
8.7534589999999994
21
20.8681459999999994
0
LINE
8
BLACK
6
CONTINUOUS
10
8.7534589999999994
20
20.8681459999999994
11
8.8363990000000001
21
21.0083899999999986
0
LINE
8
BLACK
6
CONTINUOUS
10
8.8363990000000001
20
21.0083899999999986
11
8.9516099999999987
21
21.1236010000000007
0
LINE
8
BLACK
6
CONTINUOUS
10
8.9516099999999987
20
21.1236010000000007
11
9.0918539999999997
21
21.2065409999999979
0
LINE
8
BLACK
6
CONTINUOUS
10
9.0918539999999997
20
21.2065409999999979
11
9.2483179999999994
21
21.2519969999999994
0
LINE
8
BLACK
6
CONTINUOUS
10
9.2483179999999994
20
21.2519969999999994
11
9.3499999999999996
21
21.259999999999998
0
LINE
8
BLACK
6
CONTINUOUS
10
9.3499999999999996
20
21.259999999999998
11
10.6500000000000004
21
21.259999999999998
0
LINE
8
BLACK
6
CONTINUOUS
10
10.6500000000000004
20
21.259999999999998
11
10.7516819999999989
21
21.2519969999999994
0
LINE
8
BLACK
6
CONTINUOUS
10
70.2177140000000009
20
38.2177049999999952
11
70.3535480000000035
21
38.1614409999999964
0
LINE
8
BLACK
6
CONTINUOUS
10
70.3535480000000035
20
38.1614409999999964
11
70.4757949999999909
21
38.0797579999999982
0
LINE
8
BLACK
6
CONTINUOUS
10
70.4757949999999909
20
38.0797579999999982
11
70.5797579999999982
21
37.975794999999998
0
LINE
8
BLACK
6
CONTINUOUS
10
70.5797579999999982
20
37.975794999999998
11
70.6614409999999964
21
37.8535479999999964
0
LINE
8
BLACK
6
CONTINUOUS
10
70.6614409999999964
20
37.8535479999999964
11
70.7177049999999952
21
37.7177140000000009
0
LINE
8
BLACK
6
CONTINUOUS
10
70.7177049999999952
20
37.7177140000000009
11
70.7463889999999935
21
37.5735129999999984
0
LINE
8
BLACK
6
CONTINUOUS
10
70.7463889999999935
20
37.5735129999999984
11
70.7463889999999935
21
37.4264870000000016
0
LINE
8
BLACK
6
CONTINUOUS
10
70.7463889999999935
20
37.4264870000000016
11
70.7177049999999952
21
37.2822859999999991
0
LINE
8
BLACK
6
CONTINUOUS
10
70.7177049999999952
20
37.2822859999999991
11
70.6614409999999964
21
37.1464519999999965
0
LINE
8
BLACK
6
CONTINUOUS
10
70.6614409999999964
20
37.1464519999999965
11
70.5797579999999982
21
37.0242049999999949
0
LINE
8
BLACK
6
CONTINUOUS
10
70.5797579999999982
20
37.0242049999999949
11
70.4757949999999909
21
36.9202420000000018
0
LINE
8
BLACK
6
CONTINUOUS
10
70.4757949999999909
20
36.9202420000000018
11
70.3535480000000035
21
36.8385589999999965
0
LINE
8
BLACK
6
CONTINUOUS
10
70.3535480000000035
20
36.8385589999999965
11
70.2177140000000009
21
36.7822949999999977
0
LINE
8
BLACK
6
CONTINUOUS
10
70.2177140000000009
20
36.7822949999999977
11
70.0735129999999913
21
36.7536109999999994
0
LINE
8
BLACK
6
CONTINUOUS
10
70.0735129999999913
20
36.7536109999999994
11
69.9264869999999945
21
36.7536109999999994
0
LINE
8
BLACK
6
CONTINUOUS
10
69.9264869999999945
20
36.7536109999999994
11
69.7822859999999991
21
36.7822949999999977
0
LINE
8
BLACK
6
CONTINUOUS
10
69.7822859999999991
20
36.7822949999999977
11
69.6464519999999965
21
36.8385589999999965
0
LINE
8
BLACK
6
CONTINUOUS
10
69.6464519999999965
20
36.8385589999999965
11
69.5466589999999911
21
36.9052379999999971
0
LINE
8
BLACK
6
CONTINUOUS
10
69.5466589999999911
20
36.9052379999999971
11
57.5707109999999957
21
24.9292889999999971
0
LINE
8
BLACK
6
CONTINUOUS
10
57.5707109999999957
20
24.9292889999999971
11
57.5555570000000003
21
24.9168529999999997
0
LINE
8
BLACK
6
CONTINUOUS
10
57.5555570000000003
20
24.9168529999999997
11
57.5195089999999993
21
24.901920999999998
0
LINE
8
BLACK
6
CONTINUOUS
10
57.5195089999999993
20
24.901920999999998
11
57.5
21
24.8999999999999986
0
LINE
8
BLACK
6
CONTINUOUS
10
57.5
20
24.8999999999999986
11
33.2411199999999951
21
24.8999999999999986
0
LINE
8
BLACK
6
CONTINUOUS
10
33.2411199999999951
20
24.8999999999999986
11
33.2177049999999952
21
24.7822859999999991
0
LINE
8
BLACK
6
CONTINUOUS
10
33.2177049999999952
20
24.7822859999999991
11
33.1614409999999964
21
24.646452
0
LINE
8
BLACK
6
CONTINUOUS
10
33.1614409999999964
20
24.646452
11
33.0797579999999982
21
24.5242049999999985
0
LINE
8
BLACK
6
CONTINUOUS
10
33.0797579999999982
20
24.5242049999999985
11
32.975794999999998
21
24.4202419999999982
0
LINE
8
BLACK
6
CONTINUOUS
10
32.975794999999998
20
24.4202419999999982
11
32.8535479999999964
21
24.3385590000000001
0
LINE
8
BLACK
6
CONTINUOUS
10
32.8535479999999964
20
24.3385590000000001
11
32.7177140000000009
21
24.2822949999999977
0
LINE
8
BLACK
6
CONTINUOUS
10
32.7177140000000009
20
24.2822949999999977
11
32.5735129999999984
21
24.2536109999999994
0
LINE
8
BLACK
6
CONTINUOUS
10
32.5735129999999984
20
24.2536109999999994
11
32.4264870000000016
21
24.2536109999999994
0
LINE
8
BLACK
6
CONTINUOUS
10
32.4264870000000016
20
24.2536109999999994
11
32.2822859999999991
21
24.2822949999999977
0
LINE
8
BLACK
6
CONTINUOUS
10
32.2822859999999991
20
24.2822949999999977
11
32.1464519999999965
21
24.3385590000000001
0
LINE
8
BLACK
6
CONTINUOUS
10
32.1464519999999965
20
24.3385590000000001
11
32.024205000000002
21
24.4202419999999982
0
LINE
8
BLACK
6
CONTINUOUS
10
32.024205000000002
20
24.4202419999999982
11
31.9202419999999982
21
24.5242049999999985
0
LINE
8
BLACK
6
CONTINUOUS
10
31.9202419999999982
20
24.5242049999999985
11
31.8385590000000001
21
24.646452
0
LINE
8
BLACK
6
CONTINUOUS
10
31.8385590000000001
20
24.646452
11
31.7822949999999977
21
24.7822859999999991
0
LINE
8
BLACK
6
CONTINUOUS
10
31.7822949999999977
20
24.7822859999999991
11
31.7536109999999994
21
24.9264869999999981
0
LINE
8
BLACK
6
CONTINUOUS
10
31.7536109999999994
20
24.9264869999999981
11
31.7536109999999994
21
25.0735129999999984
0
LINE
8
BLACK
6
CONTINUOUS
10
31.7536109999999994
20
25.0735129999999984
11
31.7822949999999977
21
25.2177139999999973
0
LINE
8
BLACK
6
CONTINUOUS
10
31.7822949999999977
20
25.2177139999999973
11
31.8385590000000001
21
25.353548
0
LINE
8
BLACK
6
CONTINUOUS
10
31.8385590000000001
20
25.353548
11
31.9202419999999982
21
25.475794999999998
0
LINE
8
BLACK
6
CONTINUOUS
10
31.9202419999999982
20
25.475794999999998
11
32.024205000000002
21
25.5797579999999982
0
LINE
8
BLACK
6
CONTINUOUS
10
32.024205000000002
20
25.5797579999999982
11
32.1464519999999965
21
25.6614409999999999
0
LINE
8
BLACK
6
CONTINUOUS
10
32.1464519999999965
20
25.6614409999999999
11
32.2822859999999991
21
25.7177049999999987
0
LINE
8
BLACK
6
CONTINUOUS
10
32.2822859999999991
20
25.7177049999999987
11
32.4264870000000016
21
25.7463889999999971
0
LINE
8
BLACK
6
CONTINUOUS
10
32.4264870000000016
20
25.7463889999999971
11
32.5735129999999984
21
25.7463889999999971
0
LINE
8
BLACK
6
CONTINUOUS
10
32.5735129999999984
20
25.7463889999999971
11
32.7177140000000009
21
25.7177049999999987
0
LINE
8
BLACK
6
CONTINUOUS
10
32.7177140000000009
20
25.7177049999999987
11
32.8535479999999964
21
25.6614409999999999
0
LINE
8
BLACK
6
CONTINUOUS
10
32.8535479999999964
20
25.6614409999999999
11
32.975794999999998
21
25.5797579999999982
0
LINE
8
BLACK
6
CONTINUOUS
10
32.975794999999998
20
25.5797579999999982
11
33.0797579999999982
21
25.475794999999998
0
LINE
8
BLACK
6
CONTINUOUS
10
33.0797579999999982
20
25.475794999999998
11
33.1614409999999964
21
25.353548
0
LINE
8
BLACK
6
CONTINUOUS
10
33.1614409999999964
20
25.353548
11
33.2177049999999952
21
25.2177139999999973
0
LINE
8
BLACK
6
CONTINUOUS
10
33.2177049999999952
20
25.2177139999999973
11
33.2411199999999951
21
25.0999999999999979
0
LINE
8
BLACK
6
CONTINUOUS
10
33.2411199999999951
20
25.0999999999999979
11
57.4585779999999957
21
25.0999999999999979
0
LINE
8
BLACK
6
CONTINUOUS
10
57.4585779999999957
20
25.0999999999999979
11
69.4052379999999971
21
37.0466589999999982
0
LINE
8
BLACK
6
CONTINUOUS
10
69.4052379999999971
20
37.0466589999999982
11
69.3385590000000036
21
37.1464519999999965
0
LINE
8
BLACK
6
CONTINUOUS
10
69.3385590000000036
20
37.1464519999999965
11
69.2822949999999906
21
37.2822859999999991
0
LINE
8
BLACK
6
CONTINUOUS
10
69.2822949999999906
20
37.2822859999999991
11
69.2536109999999923
21
37.4264870000000016
0
LINE
8
BLACK
6
CONTINUOUS
10
69.2536109999999923
20
37.4264870000000016
11
69.2536109999999923
21
37.5735129999999984
0
LINE
8
BLACK
6
CONTINUOUS
10
69.2536109999999923
20
37.5735129999999984
11
69.2822949999999906
21
37.7177140000000009
0
LINE
8
BLACK
6
CONTINUOUS
10
69.2822949999999906
20
37.7177140000000009
11
69.3385590000000036
21
37.8535479999999964
0
LINE
8
BLACK
6
CONTINUOUS
10
69.3385590000000036
20
37.8535479999999964
11
69.4202420000000018
21
37.975794999999998
0
LINE
8
BLACK
6
CONTINUOUS
10
69.4202420000000018
20
37.975794999999998
11
69.5242049999999949
21
38.0797579999999982
0
LINE
8
BLACK
6
CONTINUOUS
10
69.5242049999999949
20
38.0797579999999982
11
69.6464519999999965
21
38.1614409999999964
0
LINE
8
BLACK
6
CONTINUOUS
10
69.6464519999999965
20
38.1614409999999964
11
69.7822859999999991
21
38.2177049999999952
0
LINE
8
BLACK
6
CONTINUOUS
10
69.7822859999999991
20
38.2177049999999952
11
69.9264869999999945
21
38.2463890000000006
0
LINE
8
BLACK
6
CONTINUOUS
10
69.9264869999999945
20
38.2463890000000006
11
70.0735129999999913
21
38.2463890000000006
0
LINE
8
BLACK
6
CONTINUOUS
10
70.0735129999999913
20
38.2463890000000006
11
70.2177140000000009
21
38.2177049999999952
0
LINE
8
BLACK
6
CONTINUOUS
10
67.7177140000000009
20
40.7177049999999952
11
67.8535480000000035
21
40.6614409999999964
0
LINE
8
BLACK
6
CONTINUOUS
10
67.8535480000000035
20
40.6614409999999964
11
67.9757949999999909
21
40.5797579999999982
0
LINE
8
BLACK
6
CONTINUOUS
10
67.9757949999999909
20
40.5797579999999982
11
68.0797579999999982
21
40.475794999999998
0
LINE
8
BLACK
6
CONTINUOUS
10
68.0797579999999982
20
40.475794999999998
11
68.1614409999999964
21
40.3535479999999964
0
LINE
8
BLACK
6
CONTINUOUS
10
68.1614409999999964
20
40.3535479999999964
11
68.2177049999999952
21
40.2177140000000009
0
LINE
8
BLACK
6
CONTINUOUS
10
68.2177049999999952
20
40.2177140000000009
11
68.2463889999999935
21
40.0735129999999984
0
LINE
8
BLACK
6
CONTINUOUS
10
68.2463889999999935
20
40.0735129999999984
11
68.2463889999999935
21
39.9264870000000016
0
LINE
8
BLACK
6
CONTINUOUS
10
68.2463889999999935
20
39.9264870000000016
11
68.2177049999999952
21
39.7822859999999991
0
LINE
8
BLACK
6
CONTINUOUS
10
68.2177049999999952
20
39.7822859999999991
11
68.1614409999999964
21
39.6464519999999965
0
LINE
8
BLACK
6
CONTINUOUS
10
68.1614409999999964
20
39.6464519999999965
11
68.0797579999999982
21
39.5242049999999949
0
LINE
8
BLACK
6
CONTINUOUS
10
68.0797579999999982
20
39.5242049999999949
11
67.9757949999999909
21
39.4202419999999947
0
LINE
8
BLACK
6
CONTINUOUS
10
67.9757949999999909
20
39.4202419999999947
11
67.8535480000000035
21
39.3385589999999965
0
LINE
8
BLACK
6
CONTINUOUS
10
67.8535480000000035
20
39.3385589999999965
11
67.7177140000000009
21
39.2822949999999977
0
LINE
8
BLACK
6
CONTINUOUS
10
67.7177140000000009
20
39.2822949999999977
11
67.5735129999999913
21
39.2536109999999994
0
LINE
8
BLACK
6
CONTINUOUS
10
67.5735129999999913
20
39.2536109999999994
11
67.4264869999999945
21
39.2536109999999994
0
LINE
8
BLACK
6
CONTINUOUS
10
67.4264869999999945
20
39.2536109999999994
11
67.2822859999999991
21
39.2822949999999977
0
LINE
8
BLACK
6
CONTINUOUS
10
67.2822859999999991
20
39.2822949999999977
11
67.1464519999999965
21
39.3385589999999965
0
LINE
8
BLACK
6
CONTINUOUS
10
67.1464519999999965
20
39.3385589999999965
11
67.0466589999999911
21
39.4052379999999971
0
LINE
8
BLACK
6
CONTINUOUS
10
67.0466589999999911
20
39.4052379999999971
11
55.0707109999999957
21
27.4292889999999971
0
LINE
8
BLACK
6
CONTINUOUS
10
55.0707109999999957
20
27.4292889999999971
11
55.0555570000000003
21
27.4168529999999997
0
LINE
8
BLACK
6
CONTINUOUS
10
55.0555570000000003
20
27.4168529999999997
11
55.0195089999999993
21
27.401920999999998
0
LINE
8
BLACK
6
CONTINUOUS
10
55.0195089999999993
20
27.401920999999998
11
55.
21
27.3999999999999986
0
LINE
8
BLACK
6
CONTINUOUS
10
55.
20
27.3999999999999986
11
30.7411199999999987
21
27.3999999999999986
0
LINE
8
BLACK
6
CONTINUOUS
10
30.7411199999999987
20
27.3999999999999986
11
30.7177049999999987
21
27.2822859999999991
0
LINE
8
BLACK
6
CONTINUOUS
10
30.7177049999999987
20
27.2822859999999991
11
30.6614409999999999
21
27.146452
0
LINE
8
BLACK
6
CONTINUOUS
10
30.6614409999999999
20
27.146452
11
30.5797579999999982
21
27.0242049999999985
0
LINE
8
BLACK
6
CONTINUOUS
10
30.5797579999999982
20
27.0242049999999985
11
30.475794999999998
21
26.9202419999999982
0
LINE
8
BLACK
6
CONTINUOUS
10
30.475794999999998
20
26.9202419999999982
11
30.353548
21
26.8385590000000001
0
LINE
8
BLACK
6
CONTINUOUS
10
30.353548
20
26.8385590000000001
11
30.2177139999999973
21
26.7822949999999977
0
LINE
8
BLACK
6
CONTINUOUS
10
30.2177139999999973
20
26.7822949999999977
11
30.0735129999999984
21
26.7536109999999994
0
LINE
8
BLACK
6
CONTINUOUS
10
30.0735129999999984
20
26.7536109999999994
11
29.9264869999999981
21
26.7536109999999994
0
LINE
8
BLACK
6
CONTINUOUS
10
29.9264869999999981
20
26.7536109999999994
11
29.7822859999999991
21
26.7822949999999977
0
LINE
8
BLACK
6
CONTINUOUS
10
29.7822859999999991
20
26.7822949999999977
11
29.646452
21
26.8385590000000001
0
LINE
8
BLACK
6
CONTINUOUS
10
29.646452
20
26.8385590000000001
11
29.5242049999999985
21
26.9202419999999982
0
LINE
8
BLACK
6
CONTINUOUS
10
29.5242049999999985
20
26.9202419999999982
11
29.4202419999999982
21
27.0242049999999985
0
LINE
8
BLACK
6
CONTINUOUS
10
29.4202419999999982
20
27.0242049999999985
11
29.3385590000000001
21
27.146452
0
LINE
8
BLACK
6
CONTINUOUS
10
29.3385590000000001
20
27.146452
11
29.2822949999999977
21
27.2822859999999991
0
LINE
8
BLACK
6
CONTINUOUS
10
29.2822949999999977
20
27.2822859999999991
11
29.2536109999999994
21
27.4264869999999981
0
LINE
8
BLACK
6
CONTINUOUS
10
29.2536109999999994
20
27.4264869999999981
11
29.2536109999999994
21
27.5735129999999984
0
LINE
8
BLACK
6
CONTINUOUS
10
29.2536109999999994
20
27.5735129999999984
11
29.2822949999999977
21
27.7177139999999973
0
LINE
8
BLACK
6
CONTINUOUS
10
29.2822949999999977
20
27.7177139999999973
11
29.3385590000000001
21
27.853548
0
LINE
8
BLACK
6
CONTINUOUS
10
29.3385590000000001
20
27.853548
11
29.4202419999999982
21
27.975794999999998
0
LINE
8
BLACK
6
CONTINUOUS
10
29.4202419999999982
20
27.975794999999998
11
29.5242049999999985
21
28.0797579999999982
0
LINE
8
BLACK
6
CONTINUOUS
10
29.5242049999999985
20
28.0797579999999982
11
29.646452
21
28.1614409999999999
0
LINE
8
BLACK
6
CONTINUOUS
10
29.646452
20
28.1614409999999999
11
29.7822859999999991
21
28.2177049999999987
0
LINE
8
BLACK
6
CONTINUOUS
10
29.7822859999999991
20
28.2177049999999987
11
29.9264869999999981
21
28.2463889999999971
0
LINE
8
BLACK
6
CONTINUOUS
10
29.9264869999999981
20
28.2463889999999971
11
30.0735129999999984
21
28.2463889999999971
0
LINE
8
BLACK
6
CONTINUOUS
10
30.0735129999999984
20
28.2463889999999971
11
30.2177139999999973
21
28.2177049999999987
0
LINE
8
BLACK
6
CONTINUOUS
10
30.2177139999999973
20
28.2177049999999987
11
30.353548
21
28.1614409999999999
0
LINE
8
BLACK
6
CONTINUOUS
10
30.353548
20
28.1614409999999999
11
30.475794999999998
21
28.0797579999999982
0
LINE
8
BLACK
6
CONTINUOUS
10
30.475794999999998
20
28.0797579999999982
11
30.5797579999999982
21
27.975794999999998
0
LINE
8
BLACK
6
CONTINUOUS
10
30.5797579999999982
20
27.975794999999998
11
30.6614409999999999
21
27.853548
0
LINE
8
BLACK
6
CONTINUOUS
10
30.6614409999999999
20
27.853548
11
30.7177049999999987
21
27.7177139999999973
0
LINE
8
BLACK
6
CONTINUOUS
10
30.7177049999999987
20
27.7177139999999973
11
30.7411199999999987
21
27.5999999999999979
0
LINE
8
BLACK
6
CONTINUOUS
10
30.7411199999999987
20
27.5999999999999979
11
54.9585779999999957
21
27.5999999999999979
0
LINE
8
BLACK
6
CONTINUOUS
10
54.9585779999999957
20
27.5999999999999979
11
66.9052379999999971
21
39.5466589999999982
0
LINE
8
BLACK
6
CONTINUOUS
10
66.9052379999999971
20
39.5466589999999982
11
66.8385590000000036
21
39.6464519999999965
0
LINE
8
BLACK
6
CONTINUOUS
10
66.8385590000000036
20
39.6464519999999965
11
66.7822949999999906
21
39.7822859999999991
0
LINE
8
BLACK
6
CONTINUOUS
10
66.7822949999999906
20
39.7822859999999991
11
66.7536109999999923
21
39.9264870000000016
0
LINE
8
BLACK
6
CONTINUOUS
10
66.7536109999999923
20
39.9264870000000016
11
66.7536109999999923
21
40.0735129999999984
0
LINE
8
BLACK
6
CONTINUOUS
10
66.7536109999999923
20
40.0735129999999984
11
66.7822949999999906
21
40.2177140000000009
0
LINE
8
BLACK
6
CONTINUOUS
10
66.7822949999999906
20
40.2177140000000009
11
66.8385590000000036
21
40.3535479999999964
0
LINE
8
BLACK
6
CONTINUOUS
10
66.8385590000000036
20
40.3535479999999964
11
66.9202420000000018
21
40.475794999999998
0
LINE
8
BLACK
6
CONTINUOUS
10
66.9202420000000018
20
40.475794999999998
11
67.0242049999999949
21
40.5797579999999982
0
LINE
8
BLACK
6
CONTINUOUS
10
67.0242049999999949
20
40.5797579999999982
11
67.1464519999999965
21
40.6614409999999964
0
LINE
8
BLACK
6
CONTINUOUS
10
67.1464519999999965
20
40.6614409999999964
11
67.2822859999999991
21
40.7177049999999952
0
LINE
8
BLACK
6
CONTINUOUS
10
67.2822859999999991
20
40.7177049999999952
11
67.4264869999999945
21
40.7463890000000006
0
LINE
8
BLACK
6
CONTINUOUS
10
67.4264869999999945
20
40.7463890000000006
11
67.5735129999999913
21
40.7463890000000006
0
LINE
8
BLACK
6
CONTINUOUS
10
67.5735129999999913
20
40.7463890000000006
11
67.7177140000000009
21
40.7177049999999952
0
LINE
8
BLACK
6
CONTINUOUS
10
94.9856479999999976
20
59.9856479999999976
11
95.
21
59.9510000000000005
0
LINE
8
BLACK
6
CONTINUOUS
10
95.
20
59.9510000000000005
11
95.
21
5.0489999999999995
0
LINE
8
BLACK
6
CONTINUOUS
10
95.
20
5.0489999999999995
11
94.9856479999999976
21
5.0143519999999997
0
LINE
8
BLACK
6
CONTINUOUS
10
94.9856479999999976
20
5.0143519999999997
11
94.9509999999999934
21
5.
0
LINE
8
BLACK
6
CONTINUOUS
10
94.9509999999999934
20
5.
11
5.0489999999999995
21
5.
0
LINE
8
BLACK
6
CONTINUOUS
10
5.0489999999999995
20
5.
11
5.0143519999999997
21
5.0143519999999997
0
LINE
8
BLACK
6
CONTINUOUS
10
5.0143519999999997
20
5.0143519999999997
11
5.
21
5.0489999999999995
0
LINE
8
BLACK
6
CONTINUOUS
10
5.
20
5.0489999999999995
11
5.
21
20.6616089999999986
0
LINE
8
BLACK
6
CONTINUOUS
10
5.
20
20.6616089999999986
11
5.
21
25.1619859999999989
0
LINE
8
BLACK
6
CONTINUOUS
10
5.
20
25.1619859999999989
11
5.
21
27.5905449999999988
0
LINE
8
BLACK
6
CONTINUOUS
10
5.
20
27.5905449999999988
11
5.
21
59.9510000000000005
0
LINE
8
BLACK
6
CONTINUOUS
10
5.
20
59.9510000000000005
11
5.0143519999999997
21
59.9856479999999976
0
LINE
8
BLACK
6
CONTINUOUS
10
5.0143519999999997
20
59.9856479999999976
11
5.0489999999999995
21
60.
0
LINE
8
BLACK
6
CONTINUOUS
10
5.0489999999999995
20
60.
11
94.9509999999999934
21
60.
0
LINE
8
BLACK
6
CONTINUOUS
10
94.9509999999999934
20
60.
11
94.9856479999999976
21
59.9856479999999976
0
LINE
8
BLACK
6
CONTINUOUS
10
8.2995000000000001
20
19.2583899999999986
11
8.3147000000000002
21
19.1040649999999985
0
LINE
8
BLACK
6
CONTINUOUS
10
8.3147000000000002
20
19.1040649999999985
11
8.3147000000000002
21
19.1040639999999975
0
LINE
8
BLACK
6
CONTINUOUS
10
8.3147000000000002
20
19.1040639999999975
11
8.3747689999999988
21
18.9060430000000004
0
LINE
8
BLACK
6
CONTINUOUS
10
8.3747689999999988
20
18.9060430000000004
11
8.4723159999999993
21
18.7235479999999974
0
LINE
8
BLACK
6
CONTINUOUS
10
8.4723159999999993
20
18.7235479999999974
11
8.6035899999999987
21
18.5635899999999978
0
LINE
8
BLACK
6
CONTINUOUS
10
8.6035899999999987
20
18.5635899999999978
11
8.7635480000000001
21
18.4323160000000001
0
LINE
8
BLACK
6
CONTINUOUS
10
8.7635480000000001
20
18.4323160000000001
11
8.9460429999999995
21
18.3347689999999979
0
LINE
8
BLACK
6
CONTINUOUS
10
8.9460429999999995
20
18.3347689999999979
11
9.1440649999999994
21
18.2746999999999993
0
LINE
8
BLACK
6
CONTINUOUS
10
9.1440649999999994
20
18.2746999999999993
11
9.2983909999999987
21
18.2594999999999992
0
LINE
8
BLACK
6
CONTINUOUS
10
9.2983909999999987
20
18.2594999999999992
11
9.2983919999999998
21
18.2594999999999992
0
LINE
8
BLACK
6
CONTINUOUS
10
9.2983919999999998
20
18.2594999999999992
11
10.7016089999999995
21
18.2594999999999992
0
LINE
8
BLACK
6
CONTINUOUS
10
10.7016089999999995
20
18.2594999999999992
11
10.8559339999999995
21
18.2746999999999993
0
LINE
8
BLACK
6
CONTINUOUS
10
10.8559339999999995
20
18.2746999999999993
11
10.8559349999999988
21
18.2746999999999993
0
LINE
8
BLACK
6
CONTINUOUS
10
10.8559349999999988
20
18.2746999999999993
11
10.9421579999999992
21
18.3008549999999985
0
LINE
8
BLACK
6
CONTINUOUS
10
10.9421579999999992
20
18.3008549999999985
11
11.0539539999999992
21
18.3347680000000004
0
LINE
8
BLACK
6
CONTINUOUS
10
11.0539539999999992
20
18.3347680000000004
11
11.2364499999999996
21
18.4323149999999991
0
LINE
8
BLACK
6
CONTINUOUS
10
11.2364499999999996
20
18.4323149999999991
11
11.3964099999999995
21
18.5635899999999978
0
LINE
8
BLACK
6
CONTINUOUS
10
11.3964099999999995
20
18.5635899999999978
11
11.527685
21
18.7235499999999995
0
LINE
8
BLACK
6
CONTINUOUS
10
11.527685
20
18.7235499999999995
11
11.6252319999999987
21
18.9060459999999999
0
LINE
8
BLACK
6
CONTINUOUS
10
11.6252319999999987
20
18.9060459999999999
11
11.6852999999999998
21
19.1040659999999995
0
LINE
8
BLACK
6
CONTINUOUS
10
11.6852999999999998
20
19.1040659999999995
11
11.7004999999999999
21
19.2583920000000006
0
LINE
8
BLACK
6
CONTINUOUS
10
11.7004999999999999
20
19.2583920000000006
11
11.7004999999999999
21
20.6616079999999975
0
LINE
8
BLACK
6
CONTINUOUS
10
11.7004999999999999
20
20.6616079999999975
11
11.6852999999999998
21
20.8159339999999986
0
LINE
8
BLACK
6
CONTINUOUS
10
11.6852999999999998
20
20.8159339999999986
11
11.6252319999999987
21
21.0139539999999982
0
LINE
8
BLACK
6
CONTINUOUS
10
11.6252319999999987
20
21.0139539999999982
11
11.527685
21
21.1964499999999987
0
LINE
8
BLACK
6
CONTINUOUS
10
11.527685
20
21.1964499999999987
11
11.3964099999999995
21
21.3564100000000003
0
LINE
8
BLACK
6
CONTINUOUS
10
11.3964099999999995
20
21.3564100000000003
11
11.2364499999999996
21
21.487684999999999
0
LINE
8
BLACK
6
CONTINUOUS
10
11.2364499999999996
20
21.487684999999999
11
11.0539539999999992
21
21.5852319999999978
0
LINE
8
BLACK
6
CONTINUOUS
10
11.0539539999999992
20
21.5852319999999978
11
10.8559339999999995
21
21.6452999999999989
0
LINE
8
BLACK
6
CONTINUOUS
10
10.8559339999999995
20
21.6452999999999989
11
10.715446
21
21.6591369999999976
0
LINE
8
BLACK
6
CONTINUOUS
10
10.715446
20
21.6591369999999976
11
10.7016089999999995
21
21.660499999999999
0
LINE
8
BLACK
6
CONTINUOUS
10
10.7016089999999995
20
21.660499999999999
11
10.7016080000000002
21
21.660499999999999
0
LINE
8
BLACK
6
CONTINUOUS
10
10.7016080000000002
20
21.660499999999999
11
9.2983919999999998
21
21.660499999999999
0
LINE
8
BLACK
6
CONTINUOUS
10
9.2983919999999998
20
21.660499999999999
11
9.2983909999999987
21
21.660499999999999
0
LINE
8
BLACK
6
CONTINUOUS
10
9.2983909999999987
20
21.660499999999999
11
9.2831910000000004
21
21.6590019999999974
0
LINE
8
BLACK
6
CONTINUOUS
10
9.2831910000000004
20
21.6590019999999974
11
9.1440660000000005
21
21.6452999999999989
0
LINE
8
BLACK
6
CONTINUOUS
10
9.1440660000000005
20
21.6452999999999989
11
8.9460459999999991
21
21.5852319999999978
0
LINE
8
BLACK
6
CONTINUOUS
10
8.9460459999999991
20
21.5852319999999978
11
8.7635500000000004
21
21.487684999999999
0
LINE
8
BLACK
6
CONTINUOUS
10
8.7635500000000004
20
21.487684999999999
11
8.6035899999999987
21
21.3564100000000003
0
LINE
8
BLACK
6
CONTINUOUS
10
8.6035899999999987
20
21.3564100000000003
11
8.4723159999999993
21
21.1964509999999997
0
LINE
8
BLACK
6
CONTINUOUS
10
8.4723159999999993
20
21.1964509999999997
11
8.3747689999999988
21
21.0139560000000003
0
LINE
8
BLACK
6
CONTINUOUS
10
8.3747689999999988
20
21.0139560000000003
11
8.3147000000000002
21
20.8159349999999996
0
LINE
8
BLACK
6
CONTINUOUS
10
8.3147000000000002
20
20.8159349999999996
11
8.3147000000000002
21
20.8159339999999986
0
LINE
8
BLACK
6
CONTINUOUS
10
8.3147000000000002
20
20.8159339999999986
11
8.2995000000000001
21
20.6616089999999986
0
LINE
8
BLACK
6
CONTINUOUS
10
8.2995000000000001
20
20.6616089999999986
11
8.2995000000000001
21
19.2583899999999986
0
LINE
8
BLACK
6
CONTINUOUS
10
9.0950959999999998
20
23.7815419999999982
11
9.1876160000000002
21
23.7143230000000003
0
LINE
8
BLACK
6
CONTINUOUS
10
9.1876160000000002
20
23.7143230000000003
11
9.1876249999999988
21
23.7143179999999987
0
LINE
8
BLACK
6
CONTINUOUS
10
9.1876249999999988
20
23.7143179999999987
11
9.4050039999999999
21
23.6035579999999996
0
LINE
8
BLACK
6
CONTINUOUS
10
9.4050039999999999
20
23.6035579999999996
11
9.6370399999999989
21
23.5281649999999978
0
LINE
8
BLACK
6
CONTINUOUS
10
9.6370399999999989
20
23.5281649999999978
11
9.6370430000000002
21
23.5281640000000003
0
LINE
8
BLACK
6
CONTINUOUS
10
9.6370430000000002
20
23.5281640000000003
11
9.8780129999999993
21
23.4899989999999974
0
LINE
8
BLACK
6
CONTINUOUS
10
9.8780129999999993
20
23.4899989999999974
11
10.121986999999999
21
23.4899989999999974
0
LINE
8
BLACK
6
CONTINUOUS
10
10.121986999999999
20
23.4899989999999974
11
10.3629559999999987
21
23.5281640000000003
0
LINE
8
BLACK
6
CONTINUOUS
10
10.3629559999999987
20
23.5281640000000003
11
10.362959
21
23.5281649999999978
0
LINE
8
BLACK
6
CONTINUOUS
10
10.362959
20
23.5281649999999978
11
10.5949949999999991
21
23.6035579999999996
0
LINE
8
BLACK
6
CONTINUOUS
10
10.5949949999999991
20
23.6035579999999996
11
10.8123740000000002
21
23.7143179999999987
0
LINE
8
BLACK
6
CONTINUOUS
10
10.8123740000000002
20
23.7143179999999987
11
10.9049019999999999
21
23.7815419999999982
0
LINE
8
BLACK
6
CONTINUOUS
10
10.9049019999999999
20
23.7815419999999982
11
10.7230509999999999
21
23.9633919999999989
0
LINE
8
BLACK
6
CONTINUOUS
10
10.7230509999999999
20
23.9633919999999989
11
10.6792479999999994
21
23.9315669999999976
0
LINE
8
BLACK
6
CONTINUOUS
10
10.6792479999999994
20
23.9315669999999976
11
10.4974879999999988
21
23.8389559999999996
0
LINE
8
BLACK
6
CONTINUOUS
10
10.4974879999999988
20
23.8389559999999996
11
10.3034789999999994
21
23.7759179999999972
0
LINE
8
BLACK
6
CONTINUOUS
10
10.3034789999999994
20
23.7759179999999972
11
10.101996999999999
21
23.7440059999999988
0
LINE
8
BLACK
6
CONTINUOUS
10
10.101996999999999
20
23.7440059999999988
11
9.8980029999999992
21
23.7440059999999988
0
LINE
8
BLACK
6
CONTINUOUS
10
9.8980029999999992
20
23.7440059999999988
11
9.6965209999999988
21
23.7759179999999972
0
LINE
8
BLACK
6
CONTINUOUS
10
9.6965209999999988
20
23.7759179999999972
11
9.5025119999999994
21
23.8389559999999996
0
LINE
8
BLACK
6
CONTINUOUS
10
9.5025119999999994
20
23.8389559999999996
11
9.3207519999999988
21
23.9315669999999976
0
LINE
8
BLACK
6
CONTINUOUS
10
9.3207519999999988
20
23.9315669999999976
11
9.2769469999999998
21
23.9633929999999999
0
LINE
8
BLACK
6
CONTINUOUS
10
9.2769469999999998
20
23.9633929999999999
11
9.0950959999999998
21
23.7815419999999982
0
LINE
8
BLACK
6
CONTINUOUS
10
11.5499999999999989
20
25.1619859999999989
11
11.5118340000000003
21
25.4029549999999986
0
LINE
8
BLACK
6
CONTINUOUS
10
11.5118340000000003
20
25.4029549999999986
11
11.5118329999999993
21
25.4029579999999982
0
LINE
8
BLACK
6
CONTINUOUS
10
11.5118329999999993
20
25.4029579999999982
11
11.4364399999999993
21
25.6349939999999989
0
LINE
8
BLACK
6
CONTINUOUS
10
11.4364399999999993
20
25.6349939999999989
11
11.3256819999999987
21
25.8523700000000005
0
LINE
8
BLACK
6
CONTINUOUS
10
11.3256819999999987
20
25.8523700000000005
11
11.2584539999999986
21
25.9449000000000005
0
LINE
8
BLACK
6
CONTINUOUS
10
11.2584539999999986
20
25.9449000000000005
11
11.0766049999999989
21
25.7630509999999973
0
LINE
8
BLACK
6
CONTINUOUS
10
11.0766049999999989
20
25.7630509999999973
11
11.1084319999999988
21
25.7192469999999993
0
LINE
8
BLACK
6
CONTINUOUS
10
11.1084319999999988
20
25.7192469999999993
11
11.2010430000000003
21
25.5374869999999987
0
LINE
8
BLACK
6
CONTINUOUS
10
11.2010430000000003
20
25.5374869999999987
11
11.2640809999999991
21
25.3434779999999975
0
LINE
8
BLACK
6
CONTINUOUS
10
11.2640809999999991
20
25.3434779999999975
11
11.2959929999999993
21
25.1419959999999989
0
LINE
8
BLACK
6
CONTINUOUS
10
11.2959929999999993
20
25.1419959999999989
11
11.2959929999999993
21
24.9380019999999973
0
LINE
8
BLACK
6
CONTINUOUS
10
11.2959929999999993
20
24.9380019999999973
11
11.2640809999999991
21
24.7365199999999987
0
LINE
8
BLACK
6
CONTINUOUS
10
11.2640809999999991
20
24.7365199999999987
11
11.2010430000000003
21
24.5425109999999975
0
LINE
8
BLACK
6
CONTINUOUS
10
11.2010430000000003
20
24.5425109999999975
11
11.1084319999999988
21
24.3607510000000005
0
LINE
8
BLACK
6
CONTINUOUS
10
11.1084319999999988
20
24.3607510000000005
11
11.0766049999999989
21
24.3169439999999994
0
LINE
8
BLACK
6
CONTINUOUS
10
11.0766049999999989
20
24.3169439999999994
11
11.2584549999999997
21
24.1350949999999997
0
LINE
8
BLACK
6
CONTINUOUS
10
11.2584549999999997
20
24.1350949999999997
11
11.3256800000000002
21
24.2276239999999987
0
LINE
8
BLACK
6
CONTINUOUS
10
11.3256800000000002
20
24.2276239999999987
11
11.4364399999999993
21
24.4450029999999998
0
LINE
8
BLACK
6
CONTINUOUS
10
11.4364399999999993
20
24.4450029999999998
11
11.5118329999999993
21
24.6770390000000006
0
LINE
8
BLACK
6
CONTINUOUS
10
11.5118329999999993
20
24.6770390000000006
11
11.5118340000000003
21
24.6770420000000001
0
LINE
8
BLACK
6
CONTINUOUS
10
11.5118340000000003
20
24.6770420000000001
11
11.5499999999999989
21
24.9180109999999999
0
LINE
8
BLACK
6
CONTINUOUS
10
11.5499999999999989
20
24.9180109999999999
11
11.5499999999999989
21
25.0905449999999988
0
LINE
8
BLACK
6
CONTINUOUS
10
11.5499999999999989
20
25.0905449999999988
11
11.5499999999999989
21
25.1619859999999989
0
LINE
8
BLACK
6
CONTINUOUS
10
31.349499999999999
20
24.9094540000000002
11
31.3778279999999974
21
24.7305929999999989
0
LINE
8
BLACK
6
CONTINUOUS
10
31.3778279999999974
20
24.7305929999999989
11
31.3778289999999984
21
24.7305899999999994
0
LINE
8
BLACK
6
CONTINUOUS
10
31.3778289999999984
20
24.7305899999999994
11
31.4337879999999998
21
24.5583619999999989
0
LINE
8
BLACK
6
CONTINUOUS
10
31.4337879999999998
20
24.5583619999999989
11
31.5160039999999988
21
24.3970059999999975
0
LINE
8
BLACK
6
CONTINUOUS
10
31.5160039999999988
20
24.3970059999999975
11
31.6224479999999986
21
24.2504969999999993
0
LINE
8
BLACK
6
CONTINUOUS
10
31.6224479999999986
20
24.2504969999999993
11
31.7504969999999993
21
24.1224479999999986
0
LINE
8
BLACK
6
CONTINUOUS
10
31.7504969999999993
20
24.1224479999999986
11
31.8970059999999975
21
24.0160039999999988
0
LINE
8
BLACK
6
CONTINUOUS
10
31.8970059999999975
20
24.0160039999999988
11
32.0583619999999954
21
23.9337879999999998
0
LINE
8
BLACK
6
CONTINUOUS
10
32.0583619999999954
20
23.9337879999999998
11
32.2305899999999994
21
23.8778289999999984
0
LINE
8
BLACK
6
CONTINUOUS
10
32.2305899999999994
20
23.8778289999999984
11
32.2305929999999989
21
23.8778279999999974
0
LINE
8
BLACK
6
CONTINUOUS
10
32.2305929999999989
20
23.8778279999999974
11
32.3757939999999991
21
23.8548309999999972
0
LINE
8
BLACK
6
CONTINUOUS
10
32.3757939999999991
20
23.8548309999999972
11
32.4094539999999967
21
23.849499999999999
0
LINE
8
BLACK
6
CONTINUOUS
10
32.4094539999999967
20
23.849499999999999
11
32.4094550000000012
21
23.849499999999999
0
LINE
8
BLACK
6
CONTINUOUS
10
32.4094550000000012
20
23.849499999999999
11
32.5905449999999988
21
23.849499999999999
0
LINE
8
BLACK
6
CONTINUOUS
10
32.5905449999999988
20
23.849499999999999
11
32.5905459999999962
21
23.849499999999999
0
LINE
8
BLACK
6
CONTINUOUS
10
32.5905459999999962
20
23.849499999999999
11
32.6320070000000015
21
23.8560659999999984
0
LINE
8
BLACK
6
CONTINUOUS
10
32.6320070000000015
20
23.8560659999999984
11
32.7694059999999965
21
23.8778279999999974
0
LINE
8
BLACK
6
CONTINUOUS
10
32.7694059999999965
20
23.8778279999999974
11
32.769408999999996
21
23.8778289999999984
0
LINE
8
BLACK
6
CONTINUOUS
10
32.769408999999996
20
23.8778289999999984
11
32.9416370000000001
21
23.9337879999999998
0
LINE
8
BLACK
6
CONTINUOUS
10
32.9416370000000001
20
23.9337879999999998
11
32.941638999999995
21
23.9337889999999973
0
LINE
8
BLACK
6
CONTINUOUS
10
32.941638999999995
20
23.9337889999999973
11
33.1029939999999954
21
24.0160039999999988
0
LINE
8
BLACK
6
CONTINUOUS
10
33.1029939999999954
20
24.0160039999999988
11
33.2495009999999951
21
24.1224469999999975
0
LINE
8
BLACK
6
CONTINUOUS
10
33.2495009999999951
20
24.1224469999999975
11
33.2495019999999997
21
24.1224479999999986
0
LINE
8
BLACK
6
CONTINUOUS
10
33.2495019999999997
20
24.1224479999999986
11
33.2495070000000013
21
24.1224519999999991
0
LINE
8
BLACK
6
CONTINUOUS
10
33.2495070000000013
20
24.1224519999999991
11
33.3775479999999973
21
24.2504929999999987
0
LINE
8
BLACK
6
CONTINUOUS
10
33.3775479999999973
20
24.2504929999999987
11
33.3775509999999969
21
24.2504969999999993
0
LINE
8
BLACK
6
CONTINUOUS
10
33.3775509999999969
20
24.2504969999999993
11
33.3775529999999989
21
24.2504989999999978
0
LINE
8
BLACK
6
CONTINUOUS
10
33.3775529999999989
20
24.2504989999999978
11
33.4839959999999977
21
24.3970059999999975
0
LINE
8
BLACK
6
CONTINUOUS
10
33.4839959999999977
20
24.3970059999999975
11
33.5225879999999989
21
24.4727459999999972
0
LINE
8
BLACK
6
CONTINUOUS
10
33.5225879999999989
20
24.4727459999999972
11
33.5511059999999972
21
24.4971019999999982
0
LINE
8
BLACK
6
CONTINUOUS
10
33.5511059999999972
20
24.4971019999999982
11
33.5662469999999971
21
24.4994999999999976
0
LINE
8
BLACK
6
CONTINUOUS
10
33.5662469999999971
20
24.4994999999999976
11
57.5658949999999976
21
24.4994999999999976
0
LINE
8
BLACK
6
CONTINUOUS
10
57.5658949999999976
20
24.4994999999999976
11
57.6931839999999951
21
24.5336069999999999
0
LINE
8
BLACK
6
CONTINUOUS
10
57.6931839999999951
20
24.5336069999999999
11
57.6931879999999992
21
24.5336079999999974
0
LINE
8
BLACK
6
CONTINUOUS
10
57.6931879999999992
20
24.5336079999999974
11
57.8073139999999981
21
24.599499999999999
0
LINE
8
BLACK
6
CONTINUOUS
10
57.8073139999999981
20
24.599499999999999
11
69.5999559999999917
21
36.3921419999999998
0
LINE
8
BLACK
6
CONTINUOUS
10
69.5999559999999917
20
36.3921419999999998
11
69.6346039999999959
21
36.406493999999995
0
LINE
8
BLACK
6
CONTINUOUS
10
69.6346039999999959
20
36.406493999999995
11
69.6497449999999958
21
36.4040959999999956
0
LINE
8
BLACK
6
CONTINUOUS
10
69.6497449999999958
20
36.4040959999999956
11
69.7305860000000024
21
36.3778299999999959
0
LINE
8
BLACK
6
CONTINUOUS
10
69.7305860000000024
20
36.3778299999999959
11
69.7305929999999989
21
36.3778280000000009
0
LINE
8
BLACK
6
CONTINUOUS
10
69.7305929999999989
20
36.3778280000000009
11
69.8757939999999991
21
36.3548309999999972
0
LINE
8
BLACK
6
CONTINUOUS
10
69.8757939999999991
20
36.3548309999999972
11
69.9094539999999967
21
36.349499999999999
0
LINE
8
BLACK
6
CONTINUOUS
10
69.9094539999999967
20
36.349499999999999
11
69.9094549999999941
21
36.349499999999999
0
LINE
8
BLACK
6
CONTINUOUS
10
69.9094549999999941
20
36.349499999999999
11
70.0905449999999917
21
36.349499999999999
0
LINE
8
BLACK
6
CONTINUOUS
10
70.0905449999999917
20
36.349499999999999
11
70.0905460000000033
21
36.349499999999999
0
LINE
8
BLACK
6
CONTINUOUS
10
70.0905460000000033
20
36.349499999999999
11
70.1320070000000015
21
36.3560659999999984
0
LINE
8
BLACK
6
CONTINUOUS
10
70.1320070000000015
20
36.3560659999999984
11
70.2694060000000036
21
36.3778280000000009
0
LINE
8
BLACK
6
CONTINUOUS
10
70.2694060000000036
20
36.3778280000000009
11
70.269408999999996
21
36.3778289999999984
0
LINE
8
BLACK
6
CONTINUOUS
10
70.269408999999996
20
36.3778289999999984
11
70.4416370000000001
21
36.4337879999999998
0
LINE
8
BLACK
6
CONTINUOUS
10
70.4416370000000001
20
36.4337879999999998
11
70.441638999999995
21
36.4337889999999973
0
LINE
8
BLACK
6
CONTINUOUS
10
70.441638999999995
20
36.4337889999999973
11
70.6029939999999954
21
36.5160039999999952
0
LINE
8
BLACK
6
CONTINUOUS
10
70.6029939999999954
20
36.5160039999999952
11
70.7495009999999951
21
36.6224470000000011
0
LINE
8
BLACK
6
CONTINUOUS
10
70.7495009999999951
20
36.6224470000000011
11
70.7495019999999926
21
36.6224479999999986
0
LINE
8
BLACK
6
CONTINUOUS
10
70.7495019999999926
20
36.6224479999999986
11
70.7495069999999942
21
36.6224519999999956
0
LINE
8
BLACK
6
CONTINUOUS
10
70.7495069999999942
20
36.6224519999999956
11
70.8775479999999902
21
36.7504929999999987
0
LINE
8
BLACK
6
CONTINUOUS
10
70.8775479999999902
20
36.7504929999999987
11
70.8775509999999969
21
36.7504969999999958
0
LINE
8
BLACK
6
CONTINUOUS
10
70.8775509999999969
20
36.7504969999999958
11
70.8775529999999918
21
36.7504989999999978
0
LINE
8
BLACK
6
CONTINUOUS
10
70.8775529999999918
20
36.7504989999999978
11
70.9839959999999905
21
36.8970059999999975
0
LINE
8
BLACK
6
CONTINUOUS
10
70.9839959999999905
20
36.8970059999999975
11
71.0662109999999956
21
37.0583609999999979
0
LINE
8
BLACK
6
CONTINUOUS
10
71.0662109999999956
20
37.0583609999999979
11
71.1221709999999945
21
37.2305909999999969
0
LINE
8
BLACK
6
CONTINUOUS
10
71.1221709999999945
20
37.2305909999999969
11
71.1504999999999939
21
37.4094539999999967
0
LINE
8
BLACK
6
CONTINUOUS
10
71.1504999999999939
20
37.4094539999999967
11
71.1504999999999939
21
37.5905459999999962
0
LINE
8
BLACK
6
CONTINUOUS
10
71.1504999999999939
20
37.5905459999999962
11
71.1221709999999945
21
37.769408999999996
0
LINE
8
BLACK
6
CONTINUOUS
10
71.1221709999999945
20
37.769408999999996
11
71.0662109999999956
21
37.941638999999995
0
LINE
8
BLACK
6
CONTINUOUS
10
71.0662109999999956
20
37.941638999999995
11
70.9839959999999905
21
38.1029939999999954
0
LINE
8
BLACK
6
CONTINUOUS
10
70.9839959999999905
20
38.1029939999999954
11
70.8775529999999918
21
38.2495009999999951
0
LINE
8
BLACK
6
CONTINUOUS
10
70.8775529999999918
20
38.2495009999999951
11
70.8775490000000019
21
38.2495040000000017
0
LINE
8
BLACK
6
CONTINUOUS
10
70.8775490000000019
20
38.2495040000000017
11
70.8775479999999902
21
38.2495070000000013
0
LINE
8
BLACK
6
CONTINUOUS
10
70.8775479999999902
20
38.2495070000000013
11
70.7495069999999942
21
38.3775479999999973
0
LINE
8
BLACK
6
CONTINUOUS
10
70.7495069999999942
20
38.3775479999999973
11
70.7495040000000017
21
38.3775489999999948
0
LINE
8
BLACK
6
CONTINUOUS
10
70.7495040000000017
20
38.3775489999999948
11
70.7495009999999951
21
38.3775529999999989
0
LINE
8
BLACK
6
CONTINUOUS
10
70.7495009999999951
20
38.3775529999999989
11
70.6029939999999954
21
38.4839959999999977
0
LINE
8
BLACK
6
CONTINUOUS
10
70.6029939999999954
20
38.4839959999999977
11
70.441638999999995
21
38.5662109999999956
0
LINE
8
BLACK
6
CONTINUOUS
10
70.441638999999995
20
38.5662109999999956
11
70.269408999999996
21
38.6221710000000016
0
LINE
8
BLACK
6
CONTINUOUS
10
70.269408999999996
20
38.6221710000000016
11
70.0905460000000033
21
38.650500000000001
0
LINE
8
BLACK
6
CONTINUOUS
10
70.0905460000000033
20
38.650500000000001
11
69.9094539999999967
21
38.650500000000001
0
LINE
8
BLACK
6
CONTINUOUS
10
69.9094539999999967
20
38.650500000000001
11
69.7305909999999898
21
38.6221710000000016
0
LINE
8
BLACK
6
CONTINUOUS
10
69.7305909999999898
20
38.6221710000000016
11
69.5583609999999908
21
38.5662109999999956
0
LINE
8
BLACK
6
CONTINUOUS
10
69.5583609999999908
20
38.5662109999999956
11
69.3970059999999904
21
38.4839959999999977
0
LINE
8
BLACK
6
CONTINUOUS
10
69.3970059999999904
20
38.4839959999999977
11
69.2504989999999907
21
38.3775529999999989
0
LINE
8
BLACK
6
CONTINUOUS
10
69.2504989999999907
20
38.3775529999999989
11
69.2504969999999958
21
38.3775509999999969
0
LINE
8
BLACK
6
CONTINUOUS
10
69.2504969999999958
20
38.3775509999999969
11
69.2504929999999916
21
38.3775479999999973
0
LINE
8
BLACK
6
CONTINUOUS
10
69.2504929999999916
20
38.3775479999999973
11
69.1224519999999956
21
38.2495070000000013
0
LINE
8
BLACK
6
CONTINUOUS
10
69.1224519999999956
20
38.2495070000000013
11
69.1224479999999915
21
38.2495019999999997
0
LINE
8
BLACK
6
CONTINUOUS
10
69.1224479999999915
20
38.2495019999999997
11
69.122446999999994
21
38.2495009999999951
0
LINE
8
BLACK
6
CONTINUOUS
10
69.122446999999994
20
38.2495009999999951
11
69.0160039999999952
21
38.1029939999999954
0
LINE
8
BLACK
6
CONTINUOUS
10
69.0160039999999952
20
38.1029939999999954
11
68.9337889999999902
21
37.941638999999995
0
LINE
8
BLACK
6
CONTINUOUS
10
68.9337889999999902
20
37.941638999999995
11
68.9337879999999927
21
37.9416370000000001
0
LINE
8
BLACK
6
CONTINUOUS
10
68.9337879999999927
20
37.9416370000000001
11
68.8778289999999913
21
37.769408999999996
0
LINE
8
BLACK
6
CONTINUOUS
10
68.8778289999999913
20
37.769408999999996
11
68.8778279999999938
21
37.7694059999999965
0
LINE
8
BLACK
6
CONTINUOUS
10
68.8778279999999938
20
37.7694059999999965
11
68.8494999999999919
21
37.5905449999999988
0
LINE
8
BLACK
6
CONTINUOUS
10
68.8494999999999919
20
37.5905449999999988
11
68.8494999999999919
21
37.4094539999999967
0
LINE
8
BLACK
6
CONTINUOUS
10
68.8494999999999919
20
37.4094539999999967
11
68.8778279999999938
21
37.2305929999999989
0
LINE
8
BLACK
6
CONTINUOUS
10
68.8778279999999938
20
37.2305929999999989
11
68.877830000000003
21
37.2305859999999953
0
LINE
8
BLACK
6
CONTINUOUS
10
68.877830000000003
20
37.2305859999999953
11
68.9040959999999956
21
37.1497449999999958
0
LINE
8
BLACK
6
CONTINUOUS
10
68.9040959999999956
20
37.1497449999999958
11
68.9011529999999937
21
37.1123580000000004
0
LINE
8
BLACK
6
CONTINUOUS
10
68.9011529999999937
20
37.1123580000000004
11
68.8921419999999927
21
37.0999559999999988
0
LINE
8
BLACK
6
CONTINUOUS
10
68.8921419999999927
20
37.0999559999999988
11
57.3070379999999986
21
25.5148519999999976
0
LINE
8
BLACK
6
CONTINUOUS
10
57.3070379999999986
20
25.5148519999999976
11
57.2723899999999944
21
25.5004999999999988
0
LINE
8
BLACK
6
CONTINUOUS
10
57.2723899999999944
20
25.5004999999999988
11
33.5662469999999971
21
25.5004999999999988
0
LINE
8
BLACK
6
CONTINUOUS
10
33.5662469999999971
20
25.5004999999999988
11
33.5315989999999999
21
25.5148519999999976
0
LINE
8
BLACK
6
CONTINUOUS
10
33.5315989999999999
20
25.5148519999999976
11
33.5225879999999989
21
25.5272539999999992
0
LINE
8
BLACK
6
CONTINUOUS
10
33.5225879999999989
20
25.5272539999999992
11
33.5136029999999963
21
25.5448869999999992
0
LINE
8
BLACK
6
CONTINUOUS
10
33.5136029999999963
20
25.5448869999999992
11
33.4839959999999977
21
25.6029939999999989
0
LINE
8
BLACK
6
CONTINUOUS
10
33.4839959999999977
20
25.6029939999999989
11
33.3775529999999989
21
25.7495009999999986
0
LINE
8
BLACK
6
CONTINUOUS
10
33.3775529999999989
20
25.7495009999999986
11
33.3775490000000019
21
25.7495039999999982
0
LINE
8
BLACK
6
CONTINUOUS
10
33.3775490000000019
20
25.7495039999999982
11
33.3775479999999973
21
25.7495069999999977
0
LINE
8
BLACK
6
CONTINUOUS
10
33.3775479999999973
20
25.7495069999999977
11
33.2495070000000013
21
25.8775479999999973
0
LINE
8
BLACK
6
CONTINUOUS
10
33.2495070000000013
20
25.8775479999999973
11
33.2495040000000017
21
25.8775489999999984
0
LINE
8
BLACK
6
CONTINUOUS
10
33.2495040000000017
20
25.8775489999999984
11
33.2495009999999951
21
25.8775529999999989
0
LINE
8
BLACK
6
CONTINUOUS
10
33.2495009999999951
20
25.8775529999999989
11
33.1029939999999954
21
25.9839959999999977
0
LINE
8
BLACK
6
CONTINUOUS
10
33.1029939999999954
20
25.9839959999999977
11
32.941638999999995
21
26.0662109999999991
0
LINE
8
BLACK
6
CONTINUOUS
10
32.941638999999995
20
26.0662109999999991
11
32.769408999999996
21
26.122170999999998
0
LINE
8
BLACK
6
CONTINUOUS
10
32.769408999999996
20
26.122170999999998
11
32.5905459999999962
21
26.1504999999999974
0
LINE
8
BLACK
6
CONTINUOUS
10
32.5905459999999962
20
26.1504999999999974
11
32.4094539999999967
21
26.1504999999999974
0
LINE
8
BLACK
6
CONTINUOUS
10
32.4094539999999967
20
26.1504999999999974
11
32.2305909999999969
21
26.122170999999998
0
LINE
8
BLACK
6
CONTINUOUS
10
32.2305909999999969
20
26.122170999999998
11
32.0583609999999979
21
26.0662109999999991
0
LINE
8
BLACK
6
CONTINUOUS
10
32.0583609999999979
20
26.0662109999999991
11
31.8970059999999975
21
25.9839959999999977
0
LINE
8
BLACK
6
CONTINUOUS
10
31.8970059999999975
20
25.9839959999999977
11
31.7504989999999978
21
25.8775529999999989
0
LINE
8
BLACK
6
CONTINUOUS
10
31.7504989999999978
20
25.8775529999999989
11
31.7504969999999993
21
25.8775510000000004
0
LINE
8
BLACK
6
CONTINUOUS
10
31.7504969999999993
20
25.8775510000000004
11
31.7504929999999987
21
25.8775479999999973
0
LINE
8
BLACK
6
CONTINUOUS
10
31.7504929999999987
20
25.8775479999999973
11
31.6224519999999991
21
25.7495069999999977
0
LINE
8
BLACK
6
CONTINUOUS
10
31.6224519999999991
20
25.7495069999999977
11
31.6224479999999986
21
25.7495019999999997
0
LINE
8
BLACK
6
CONTINUOUS
10
31.6224479999999986
20
25.7495019999999997
11
31.6224469999999975
21
25.7495009999999986
0
LINE
8
BLACK
6
CONTINUOUS
10
31.6224469999999975
20
25.7495009999999986
11
31.5160039999999988
21
25.6029939999999989
0
LINE
8
BLACK
6
CONTINUOUS
10
31.5160039999999988
20
25.6029939999999989
11
31.4402659999999976
21
25.454349999999998
0
LINE
8
BLACK
6
CONTINUOUS
10
31.4402659999999976
20
25.454349999999998
11
31.4337879999999998
21
25.4416370000000001
0
LINE
8
BLACK
6
CONTINUOUS
10
31.4337879999999998
20
25.4416370000000001
11
31.3778289999999984
21
25.2694089999999996
0
LINE
8
BLACK
6
CONTINUOUS
10
31.3778289999999984
20
25.2694089999999996
11
31.3778279999999974
21
25.269406
0
LINE
8
BLACK
6
CONTINUOUS
10
31.3778279999999974
20
25.269406
11
31.349499999999999
21
25.0905449999999988
0
LINE
8
BLACK
6
CONTINUOUS
10
31.349499999999999
20
25.0905449999999988
11
31.349499999999999
21
24.9094540000000002
0
LINE
8
BLACK
6
CONTINUOUS
10
9.6370430000000002
20
26.5518329999999985
11
9.6370399999999989
21
26.5518319999999974
0
LINE
8
BLACK
6
CONTINUOUS
10
9.6370399999999989
20
26.5518319999999974
11
9.4050039999999999
21
26.4764389999999992
0
LINE
8
BLACK
6
CONTINUOUS
10
9.4050039999999999
20
26.4764389999999992
11
9.1876249999999988
21
26.3656790000000001
0
LINE
8
BLACK
6
CONTINUOUS
10
9.1876249999999988
20
26.3656790000000001
11
9.0950959999999998
21
26.2984539999999996
0
LINE
8
BLACK
6
CONTINUOUS
10
9.0950959999999998
20
26.2984539999999996
11
9.2769459999999988
21
26.1166039999999988
0
LINE
8
BLACK
6
CONTINUOUS
10
9.2769459999999988
20
26.1166039999999988
11
9.3207519999999988
21
26.1484309999999986
0
LINE
8
BLACK
6
CONTINUOUS
10
9.3207519999999988
20
26.1484309999999986
11
9.5025119999999994
21
26.2410420000000002
0
LINE
8
BLACK
6
CONTINUOUS
10
9.5025119999999994
20
26.2410420000000002
11
9.6965209999999988
21
26.304079999999999
0
LINE
8
BLACK
6
CONTINUOUS
10
9.6965209999999988
20
26.304079999999999
11
9.8980029999999992
21
26.3359919999999974
0
LINE
8
BLACK
6
CONTINUOUS
10
9.8980029999999992
20
26.3359919999999974
11
10.101996999999999
21
26.3359919999999974
0
LINE
8
BLACK
6
CONTINUOUS
10
10.101996999999999
20
26.3359919999999974
11
10.3034789999999994
21
26.304079999999999
0
LINE
8
BLACK
6
CONTINUOUS
10
10.3034789999999994
20
26.304079999999999
11
10.4974879999999988
21
26.2410420000000002
0
LINE
8
BLACK
6
CONTINUOUS
10
10.4974879999999988
20
26.2410420000000002
11
10.6792479999999994
21
26.1484309999999986
0
LINE
8
BLACK
6
CONTINUOUS
10
10.6792479999999994
20
26.1484309999999986
11
10.7230519999999991
21
26.1166039999999988
0
LINE
8
BLACK
6
CONTINUOUS
10
10.7230519999999991
20
26.1166039999999988
11
10.9049009999999988
21
26.2984529999999985
0
LINE
8
BLACK
6
CONTINUOUS
10
10.9049009999999988
20
26.2984529999999985
11
10.8123709999999988
21
26.3656809999999986
0
LINE
8
BLACK
6
CONTINUOUS
10
10.8123709999999988
20
26.3656809999999986
11
10.5949949999999991
21
26.4764389999999992
0
LINE
8
BLACK
6
CONTINUOUS
10
10.5949949999999991
20
26.4764389999999992
11
10.362959
21
26.5518319999999974
0
LINE
8
BLACK
6
CONTINUOUS
10
10.362959
20
26.5518319999999974
11
10.3629559999999987
21
26.5518329999999985
0
LINE
8
BLACK
6
CONTINUOUS
10
10.3629559999999987
20
26.5518329999999985
11
10.121986999999999
21
26.5899989999999988
0
LINE
8
BLACK
6
CONTINUOUS
10
10.121986999999999
20
26.5899989999999988
11
9.8780129999999993
21
26.5899989999999988
0
LINE
8
BLACK
6
CONTINUOUS
10
9.8780129999999993
20
26.5899989999999988
11
9.6370430000000002
21
26.5518329999999985
0
LINE
8
BLACK
6
CONTINUOUS
10
28.849499999999999
20
27.4094540000000002
11
28.8778279999999974
21
27.2305929999999989
0
LINE
8
BLACK
6
CONTINUOUS
10
28.8778279999999974
20
27.2305929999999989
11
28.8778289999999984
21
27.2305899999999994
0
LINE
8
BLACK
6
CONTINUOUS
10
28.8778289999999984
20
27.2305899999999994
11
28.9337879999999998
21
27.0583619999999989
0
LINE
8
BLACK
6
CONTINUOUS
10
28.9337879999999998
20
27.0583619999999989
11
29.0160039999999988
21
26.8970059999999975
0
LINE
8
BLACK
6
CONTINUOUS
10
29.0160039999999988
20
26.8970059999999975
11
29.1224479999999986
21
26.7504969999999993
0
LINE
8
BLACK
6
CONTINUOUS
10
29.1224479999999986
20
26.7504969999999993
11
29.2504969999999993
21
26.6224479999999986
0
LINE
8
BLACK
6
CONTINUOUS
10
29.2504969999999993
20
26.6224479999999986
11
29.3970059999999975
21
26.5160039999999988
0
LINE
8
BLACK
6
CONTINUOUS
10
29.3970059999999975
20
26.5160039999999988
11
29.5583619999999989
21
26.4337879999999998
0
LINE
8
BLACK
6
CONTINUOUS
10
29.5583619999999989
20
26.4337879999999998
11
29.7305899999999994
21
26.3778289999999984
0
LINE
8
BLACK
6
CONTINUOUS
10
29.7305899999999994
20
26.3778289999999984
11
29.7305929999999989
21
26.3778279999999974
0
LINE
8
BLACK
6
CONTINUOUS
10
29.7305929999999989
20
26.3778279999999974
11
29.8757939999999991
21
26.3548309999999972
0
LINE
8
BLACK
6
CONTINUOUS
10
29.8757939999999991
20
26.3548309999999972
11
29.9094540000000002
21
26.349499999999999
0
LINE
8
BLACK
6
CONTINUOUS
10
29.9094540000000002
20
26.349499999999999
11
29.9094549999999977
21
26.349499999999999
0
LINE
8
BLACK
6
CONTINUOUS
10
29.9094549999999977
20
26.349499999999999
11
30.0905449999999988
21
26.349499999999999
0
LINE
8
BLACK
6
CONTINUOUS
10
30.0905449999999988
20
26.349499999999999
11
30.0905459999999998
21
26.349499999999999
0
LINE
8
BLACK
6
CONTINUOUS
10
30.0905459999999998
20
26.349499999999999
11
30.132006999999998
21
26.3560659999999984
0
LINE
8
BLACK
6
CONTINUOUS
10
30.132006999999998
20
26.3560659999999984
11
30.269406
21
26.3778279999999974
0
LINE
8
BLACK
6
CONTINUOUS
10
30.269406
20
26.3778279999999974
11
30.2694089999999996
21
26.3778289999999984
0
LINE
8
BLACK
6
CONTINUOUS
10
30.2694089999999996
20
26.3778289999999984
11
30.4416370000000001
21
26.4337879999999998
0
LINE
8
BLACK
6
CONTINUOUS
10
30.4416370000000001
20
26.4337879999999998
11
30.4416389999999986
21
26.4337889999999973
0
LINE
8
BLACK
6
CONTINUOUS
10
30.4416389999999986
20
26.4337889999999973
11
30.6029939999999989
21
26.5160039999999988
0
LINE
8
BLACK
6
CONTINUOUS
10
30.6029939999999989
20
26.5160039999999988
11
30.7495009999999986
21
26.6224469999999975
0
LINE
8
BLACK
6
CONTINUOUS
10
30.7495009999999986
20
26.6224469999999975
11
30.7495019999999997
21
26.6224479999999986
0
LINE
8
BLACK
6
CONTINUOUS
10
30.7495019999999997
20
26.6224479999999986
11
30.7495069999999977
21
26.6224519999999991
0
LINE
8
BLACK
6
CONTINUOUS
10
30.7495069999999977
20
26.6224519999999991
11
30.8775479999999973
21
26.7504929999999987
0
LINE
8
BLACK
6
CONTINUOUS
10
30.8775479999999973
20
26.7504929999999987
11
30.8775509999999969
21
26.7504969999999993
0
LINE
8
BLACK
6
CONTINUOUS
10
30.8775509999999969
20
26.7504969999999993
11
30.8775529999999989
21
26.7504989999999978
0
LINE
8
BLACK
6
CONTINUOUS
10
30.8775529999999989
20
26.7504989999999978
11
30.9839959999999977
21
26.8970059999999975
0
LINE
8
BLACK
6
CONTINUOUS
10
30.9839959999999977
20
26.8970059999999975
11
31.0225879999999989
21
26.9727459999999972
0
LINE
8
BLACK
6
CONTINUOUS
10
31.0225879999999989
20
26.9727459999999972
11
31.0511059999999972
21
26.9971019999999982
0
LINE
8
BLACK
6
CONTINUOUS
10
31.0511059999999972
20
26.9971019999999982
11
31.0662469999999971
21
26.9994999999999976
0
LINE
8
BLACK
6
CONTINUOUS
10
31.0662469999999971
20
26.9994999999999976
11
55.0658949999999976
21
26.9994999999999976
0
LINE
8
BLACK
6
CONTINUOUS
10
55.0658949999999976
20
26.9994999999999976
11
55.1931839999999951
21
27.0336069999999999
0
LINE
8
BLACK
6
CONTINUOUS
10
55.1931839999999951
20
27.0336069999999999
11
55.1931879999999992
21
27.0336079999999974
0
LINE
8
BLACK
6
CONTINUOUS
10
55.1931879999999992
20
27.0336079999999974
11
55.3073139999999981
21
27.099499999999999
0
LINE
8
BLACK
6
CONTINUOUS
10
55.3073139999999981
20
27.099499999999999
11
67.0999559999999917
21
38.8921419999999998
0
LINE
8
BLACK
6
CONTINUOUS
10
67.0999559999999917
20
38.8921419999999998
11
67.1346039999999959
21
38.906493999999995
0
LINE
8
BLACK
6
CONTINUOUS
10
67.1346039999999959
20
38.906493999999995
11
67.1497449999999958
21
38.9040959999999956
0
LINE
8
BLACK
6
CONTINUOUS
10
67.1497449999999958
20
38.9040959999999956
11
67.2305860000000024
21
38.8778299999999959
0
LINE
8
BLACK
6
CONTINUOUS
10
67.2305860000000024
20
38.8778299999999959
11
67.2305929999999989
21
38.8778280000000009
0
LINE
8
BLACK
6
CONTINUOUS
10
67.2305929999999989
20
38.8778280000000009
11
67.3757939999999991
21
38.8548309999999972
0
LINE
8
BLACK
6
CONTINUOUS
10
67.3757939999999991
20
38.8548309999999972
11
67.4094539999999967
21
38.849499999999999
0
LINE
8
BLACK
6
CONTINUOUS
10
67.4094539999999967
20
38.849499999999999
11
67.4094549999999941
21
38.849499999999999
0
LINE
8
BLACK
6
CONTINUOUS
10
67.4094549999999941
20
38.849499999999999
11
67.5905449999999917
21
38.849499999999999
0
LINE
8
BLACK
6
CONTINUOUS
10
67.5905449999999917
20
38.849499999999999
11
67.5905460000000033
21
38.849499999999999
0
LINE
8
BLACK
6
CONTINUOUS
10
67.5905460000000033
20
38.849499999999999
11
67.6320070000000015
21
38.8560659999999984
0
LINE
8
BLACK
6
CONTINUOUS
10
67.6320070000000015
20
38.8560659999999984
11
67.7694060000000036
21
38.8778280000000009
0
LINE
8
BLACK
6
CONTINUOUS
10
67.7694060000000036
20
38.8778280000000009
11
67.769408999999996
21
38.8778289999999984
0
LINE
8
BLACK
6
CONTINUOUS
10
67.769408999999996
20
38.8778289999999984
11
67.9416370000000001
21
38.9337879999999998
0
LINE
8
BLACK
6
CONTINUOUS
10
67.9416370000000001
20
38.9337879999999998
11
67.941638999999995
21
38.9337889999999973
0
LINE
8
BLACK
6
CONTINUOUS
10
67.941638999999995
20
38.9337889999999973
11
68.1029939999999954
21
39.0160039999999952
0
LINE
8
BLACK
6
CONTINUOUS
10
68.1029939999999954
20
39.0160039999999952
11
68.2495009999999951
21
39.1224470000000011
0
LINE
8
BLACK
6
CONTINUOUS
10
68.2495009999999951
20
39.1224470000000011
11
68.2495019999999926
21
39.1224479999999986
0
LINE
8
BLACK
6
CONTINUOUS
10
68.2495019999999926
20
39.1224479999999986
11
68.2495069999999942
21
39.1224519999999956
0
LINE
8
BLACK
6
CONTINUOUS
10
68.2495069999999942
20
39.1224519999999956
11
68.3775479999999902
21
39.2504929999999987
0
LINE
8
BLACK
6
CONTINUOUS
10
68.3775479999999902
20
39.2504929999999987
11
68.3775509999999969
21
39.2504969999999958
0
LINE
8
BLACK
6
CONTINUOUS
10
68.3775509999999969
20
39.2504969999999958
11
68.3775529999999918
21
39.2504989999999978
0
LINE
8
BLACK
6
CONTINUOUS
10
68.3775529999999918
20
39.2504989999999978
11
68.4839959999999905
21
39.3970059999999975
0
LINE
8
BLACK
6
CONTINUOUS
10
68.4839959999999905
20
39.3970059999999975
11
68.5662109999999956
21
39.5583609999999979
0
LINE
8
BLACK
6
CONTINUOUS
10
68.5662109999999956
20
39.5583609999999979
11
68.6221709999999945
21
39.7305909999999969
0
LINE
8
BLACK
6
CONTINUOUS
10
68.6221709999999945
20
39.7305909999999969
11
68.6504999999999939
21
39.9094539999999967
0
LINE
8
BLACK
6
CONTINUOUS
10
68.6504999999999939
20
39.9094539999999967
11
68.6504999999999939
21
40.0905459999999962
0
LINE
8
BLACK
6
CONTINUOUS
10
68.6504999999999939
20
40.0905459999999962
11
68.6221709999999945
21
40.269408999999996
0
LINE
8
BLACK
6
CONTINUOUS
10
68.6221709999999945
20
40.269408999999996
11
68.5662109999999956
21
40.441638999999995
0
LINE
8
BLACK
6
CONTINUOUS
10
68.5662109999999956
20
40.441638999999995
11
68.4839959999999905
21
40.6029939999999954
0
LINE
8
BLACK
6
CONTINUOUS
10
68.4839959999999905
20
40.6029939999999954
11
68.3775529999999918
21
40.7495009999999951
0
LINE
8
BLACK
6
CONTINUOUS
10
68.3775529999999918
20
40.7495009999999951
11
68.3775490000000019
21
40.7495039999999946
0
LINE
8
BLACK
6
CONTINUOUS
10
68.3775490000000019
20
40.7495039999999946
11
68.3775479999999902
21
40.7495070000000013
0
LINE
8
BLACK
6
CONTINUOUS
10
68.3775479999999902
20
40.7495070000000013
11
68.2495069999999942
21
40.8775479999999973
0
LINE
8
BLACK
6
CONTINUOUS
10
68.2495069999999942
20
40.8775479999999973
11
68.2495040000000017
21
40.8775489999999948
0
LINE
8
BLACK
6
CONTINUOUS
10
68.2495040000000017
20
40.8775489999999948
11
68.2495009999999951
21
40.8775529999999989
0
LINE
8
BLACK
6
CONTINUOUS
10
68.2495009999999951
20
40.8775529999999989
11
68.1029939999999954
21
40.9839959999999977
0
LINE
8
BLACK
6
CONTINUOUS
10
68.1029939999999954
20
40.9839959999999977
11
67.941638999999995
21
41.0662109999999956
0
LINE
8
BLACK
6
CONTINUOUS
10
67.941638999999995
20
41.0662109999999956
11
67.769408999999996
21
41.1221710000000016
0
LINE
8
BLACK
6
CONTINUOUS
10
67.769408999999996
20
41.1221710000000016
11
67.5905460000000033
21
41.150500000000001
0
LINE
8
BLACK
6
CONTINUOUS
10
67.5905460000000033
20
41.150500000000001
11
67.4094539999999967
21
41.150500000000001
0
LINE
8
BLACK
6
CONTINUOUS
10
67.4094539999999967
20
41.150500000000001
11
67.230591000000004
21
41.1221710000000016
0
LINE
8
BLACK
6
CONTINUOUS
10
67.230591000000004
20
41.1221710000000016
11
67.0583609999999908
21
41.0662109999999956
0
LINE
8
BLACK
6
CONTINUOUS
10
67.0583609999999908
20
41.0662109999999956
11
66.8970059999999904
21
40.9839959999999977
0
LINE
8
BLACK
6
CONTINUOUS
10
66.8970059999999904
20
40.9839959999999977
11
66.7504989999999907
21
40.8775529999999989
0
LINE
8
BLACK
6
CONTINUOUS
10
66.7504989999999907
20
40.8775529999999989
11
66.7504969999999958
21
40.8775509999999969
0
LINE
8
BLACK
6
CONTINUOUS
10
66.7504969999999958
20
40.8775509999999969
11
66.7504929999999916
21
40.8775479999999973
0
LINE
8
BLACK
6
CONTINUOUS
10
66.7504929999999916
20
40.8775479999999973
11
66.6224519999999956
21
40.7495070000000013
0
LINE
8
BLACK
6
CONTINUOUS
10
66.6224519999999956
20
40.7495070000000013
11
66.6224479999999915
21
40.7495019999999997
0
LINE
8
BLACK
6
CONTINUOUS
10
66.6224479999999915
20
40.7495019999999997
11
66.622446999999994
21
40.7495009999999951
0
LINE
8
BLACK
6
CONTINUOUS
10
66.622446999999994
20
40.7495009999999951
11
66.5160039999999952
21
40.6029939999999954
0
LINE
8
BLACK
6
CONTINUOUS
10
66.5160039999999952
20
40.6029939999999954
11
66.4337889999999902
21
40.441638999999995
0
LINE
8
BLACK
6
CONTINUOUS
10
66.4337889999999902
20
40.441638999999995
11
66.4337879999999927
21
40.4416370000000001
0
LINE
8
BLACK
6
CONTINUOUS
10
66.4337879999999927
20
40.4416370000000001
11
66.3778289999999913
21
40.269408999999996
0
LINE
8
BLACK
6
CONTINUOUS
10
66.3778289999999913
20
40.269408999999996
11
66.3778279999999938
21
40.2694059999999965
0
LINE
8
BLACK
6
CONTINUOUS
10
66.3778279999999938
20
40.2694059999999965
11
66.3494999999999919
21
40.0905449999999988
0
LINE
8
BLACK
6
CONTINUOUS
10
66.3494999999999919
20
40.0905449999999988
11
66.3494999999999919
21
39.9094539999999967
0
LINE
8
BLACK
6
CONTINUOUS
10
66.3494999999999919
20
39.9094539999999967
11
66.3778279999999938
21
39.7305929999999989
0
LINE
8
BLACK
6
CONTINUOUS
10
66.3778279999999938
20
39.7305929999999989
11
66.377830000000003
21
39.7305859999999953
0
LINE
8
BLACK
6
CONTINUOUS
10
66.377830000000003
20
39.7305859999999953
11
66.4040959999999956
21
39.6497449999999958
0
LINE
8
BLACK
6
CONTINUOUS
10
66.4040959999999956
20
39.6497449999999958
11
66.4011529999999937
21
39.6123580000000004
0
LINE
8
BLACK
6
CONTINUOUS
10
66.4011529999999937
20
39.6123580000000004
11
66.3921419999999927
21
39.5999559999999988
0
LINE
8
BLACK
6
CONTINUOUS
10
66.3921419999999927
20
39.5999559999999988
11
54.8070379999999986
21
28.0148519999999976
0
LINE
8
BLACK
6
CONTINUOUS
10
54.8070379999999986
20
28.0148519999999976
11
54.7723899999999944
21
28.0004999999999988
0
LINE
8
BLACK
6
CONTINUOUS
10
54.7723899999999944
20
28.0004999999999988
11
31.0662469999999971
21
28.0004999999999988
0
LINE
8
BLACK
6
CONTINUOUS
10
31.0662469999999971
20
28.0004999999999988
11
31.0315989999999999
21
28.0148519999999976
0
LINE
8
BLACK
6
CONTINUOUS
10
31.0315989999999999
20
28.0148519999999976
11
31.0225879999999989
21
28.0272539999999992
0
LINE
8
BLACK
6
CONTINUOUS
10
31.0225879999999989
20
28.0272539999999992
11
31.0206979999999994
21
28.0309609999999978
0
LINE
8
BLACK
6
CONTINUOUS
10
31.0206979999999994
20
28.0309609999999978
11
30.9839959999999977
21
28.1029939999999989
0
LINE
8
BLACK
6
CONTINUOUS
10
30.9839959999999977
20
28.1029939999999989
11
30.8775529999999989
21
28.2495009999999986
0
LINE
8
BLACK
6
CONTINUOUS
10
30.8775529999999989
20
28.2495009999999986
11
30.8775489999999984
21
28.2495039999999982
0
LINE
8
BLACK
6
CONTINUOUS
10
30.8775489999999984
20
28.2495039999999982
11
30.8775479999999973
21
28.2495069999999977
0
LINE
8
BLACK
6
CONTINUOUS
10
30.8775479999999973
20
28.2495069999999977
11
30.7495069999999977
21
28.3775479999999973
0
LINE
8
BLACK
6
CONTINUOUS
10
30.7495069999999977
20
28.3775479999999973
11
30.7495039999999982
21
28.3775489999999984
0
LINE
8
BLACK
6
CONTINUOUS
10
30.7495039999999982
20
28.3775489999999984
11
30.7495009999999986
21
28.3775529999999989
0
LINE
8
BLACK
6
CONTINUOUS
10
30.7495009999999986
20
28.3775529999999989
11
30.6029939999999989
21
28.4839959999999977
0
LINE
8
BLACK
6
CONTINUOUS
10
30.6029939999999989
20
28.4839959999999977
11
30.4416389999999986
21
28.5662109999999991
0
LINE
8
BLACK
6
CONTINUOUS
10
30.4416389999999986
20
28.5662109999999991
11
30.2694089999999996
21
28.622170999999998
0
LINE
8
BLACK
6
CONTINUOUS
10
30.2694089999999996
20
28.622170999999998
11
30.0905459999999998
21
28.6504999999999974
0
LINE
8
BLACK
6
CONTINUOUS
10
30.0905459999999998
20
28.6504999999999974
11
29.9094540000000002
21
28.6504999999999974
0
LINE
8
BLACK
6
CONTINUOUS
10
29.9094540000000002
20
28.6504999999999974
11
29.7305909999999969
21
28.622170999999998
0
LINE
8
BLACK
6
CONTINUOUS
10
29.7305909999999969
20
28.622170999999998
11
29.5583609999999979
21
28.5662109999999991
0
LINE
8
BLACK
6
CONTINUOUS
10
29.5583609999999979
20
28.5662109999999991
11
29.3970059999999975
21
28.4839959999999977
0
LINE
8
BLACK
6
CONTINUOUS
10
29.3970059999999975
20
28.4839959999999977
11
29.2504989999999978
21
28.3775529999999989
0
LINE
8
BLACK
6
CONTINUOUS
10
29.2504989999999978
20
28.3775529999999989
11
29.2504969999999993
21
28.3775510000000004
0
LINE
8
BLACK
6
CONTINUOUS
10
29.2504969999999993
20
28.3775510000000004
11
29.2504929999999987
21
28.3775479999999973
0
LINE
8
BLACK
6
CONTINUOUS
10
29.2504929999999987
20
28.3775479999999973
11
29.1224519999999991
21
28.2495069999999977
0
LINE
8
BLACK
6
CONTINUOUS
10
29.1224519999999991
20
28.2495069999999977
11
29.1224479999999986
21
28.2495019999999997
0
LINE
8
BLACK
6
CONTINUOUS
10
29.1224479999999986
20
28.2495019999999997
11
29.1224469999999975
21
28.2495009999999986
0
LINE
8
BLACK
6
CONTINUOUS
10
29.1224469999999975
20
28.2495009999999986
11
29.0160039999999988
21
28.1029939999999989
0
LINE
8
BLACK
6
CONTINUOUS
10
29.0160039999999988
20
28.1029939999999989
11
28.9337889999999973
21
27.9416389999999986
0
LINE
8
BLACK
6
CONTINUOUS
10
28.9337889999999973
20
27.9416389999999986
11
28.9337879999999998
21
27.9416370000000001
0
LINE
8
BLACK
6
CONTINUOUS
10
28.9337879999999998
20
27.9416370000000001
11
28.8778289999999984
21
27.7694089999999996
0
LINE
8
BLACK
6
CONTINUOUS
10
28.8778289999999984
20
27.7694089999999996
11
28.8778279999999974
21
27.769406
0
LINE
8
BLACK
6
CONTINUOUS
10
28.8778279999999974
20
27.769406
11
28.849499999999999
21
27.5905449999999988
0
LINE
8
BLACK
6
CONTINUOUS
10
28.849499999999999
20
27.5905449999999988
11
28.849499999999999
21
27.4094540000000002
0
LINE
8
BLACK
6
CONTINUOUS
10
8.4499999999999993
20
24.9180109999999999
11
8.4881650000000004
21
24.6770420000000001
0
LINE
8
BLACK
6
CONTINUOUS
10
8.4881650000000004
20
24.6770420000000001
11
8.4881659999999997
21
24.6770390000000006
0
LINE
8
BLACK
6
CONTINUOUS
10
8.4881659999999997
20
24.6770390000000006
11
8.5635589999999997
21
24.4450029999999998
0
LINE
8
BLACK
6
CONTINUOUS
10
8.5635589999999997
20
24.4450029999999998
11
8.6743189999999988
21
24.2276239999999987
0
LINE
8
BLACK
6
CONTINUOUS
10
8.6743189999999988
20
24.2276239999999987
11
8.6743240000000004
21
24.2276150000000001
0
LINE
8
BLACK
6
CONTINUOUS
10
8.6743240000000004
20
24.2276150000000001
11
8.7415430000000001
21
24.1350949999999997
0
LINE
8
BLACK
6
CONTINUOUS
10
8.7415430000000001
20
24.1350949999999997
11
8.923394
21
24.316945999999998
0
LINE
8
BLACK
6
CONTINUOUS
10
8.923394
20
24.316945999999998
11
8.8915679999999995
21
24.3607510000000005
0
LINE
8
BLACK
6
CONTINUOUS
10
8.8915679999999995
20
24.3607510000000005
11
8.7989569999999997
21
24.5425109999999975
0
LINE
8
BLACK
6
CONTINUOUS
10
8.7989569999999997
20
24.5425109999999975
11
8.7359189999999991
21
24.7365199999999987
0
LINE
8
BLACK
6
CONTINUOUS
10
8.7359189999999991
20
24.7365199999999987
11
8.7040069999999989
21
24.9380019999999973
0
LINE
8
BLACK
6
CONTINUOUS
10
8.7040069999999989
20
24.9380019999999973
11
8.7040069999999989
21
25.1419959999999989
0
LINE
8
BLACK
6
CONTINUOUS
10
8.7040069999999989
20
25.1419959999999989
11
8.7359189999999991
21
25.3434779999999975
0
LINE
8
BLACK
6
CONTINUOUS
10
8.7359189999999991
20
25.3434779999999975
11
8.7989569999999997
21
25.5374869999999987
0
LINE
8
BLACK
6
CONTINUOUS
10
8.7989569999999997
20
25.5374869999999987
11
8.8915679999999995
21
25.7192469999999993
0
LINE
8
BLACK
6
CONTINUOUS
10
8.8915679999999995
20
25.7192469999999993
11
8.923392999999999
21
25.7630499999999998
0
LINE
8
BLACK
6
CONTINUOUS
10
8.923392999999999
20
25.7630499999999998
11
8.7415430000000001
21
25.944900999999998
0
LINE
8
BLACK
6
CONTINUOUS
10
8.7415430000000001
20
25.944900999999998
11
8.6743189999999988
21
25.852373
0
LINE
8
BLACK
6
CONTINUOUS
10
8.6743189999999988
20
25.852373
11
8.5635589999999997
21
25.6349939999999989
0
LINE
8
BLACK
6
CONTINUOUS
10
8.5635589999999997
20
25.6349939999999989
11
8.4881659999999997
21
25.4029579999999982
0
LINE
8
BLACK
6
CONTINUOUS
10
8.4881659999999997
20
25.4029579999999982
11
8.4881650000000004
21
25.4029549999999986
0
LINE
8
BLACK
6
CONTINUOUS
10
8.4881650000000004
20
25.4029549999999986
11
8.4499999999999993
21
25.1619859999999989
0
LINE
8
BLACK
6
CONTINUOUS
10
8.4499999999999993
20
25.1619859999999989
11
8.4499999999999993
21
24.9180109999999999
0
CIRCLE
8
BLACK
10
70.
20
37.5
40
0.15
0
CIRCLE
8
BLACK
10
32.5
20
25.
40
0.15
0
CIRCLE
8
BLACK
10
67.5
20
40.
40
0.15
0
CIRCLE
8
BLACK
10
30.
20
27.5
40
0.15
  0
ENDSEC
  0
EOF
